<svg width="760" height="323" viewBox="0 0 760 323" fill="none" xmlns="http://www.w3.org/2000/svg">
<rect width="760" height="323" fill="white"/>
<circle cx="160" cy="136" r="41" fill="#531F87"/>
<circle cx="383" cy="136" r="55" fill="#B172EB"/>
<circle cx="383" cy="136" r="41" fill="#531F87"/>
<circle cx="606" cy="136" r="41" fill="#531F87"/>
<path d="M530.354 232.354C530.549 232.158 530.549 231.842 530.354 231.646L527.172 228.465C526.976 228.269 526.66 228.269 526.464 228.465C526.269 228.66 526.269 228.976 526.464 229.172L529.293 232L526.464 234.828C526.269 235.024 526.269 235.34 526.464 235.536C526.66 235.731 526.976 235.731 527.172 235.536L530.354 232.354ZM230 232.5L530 232.5L530 231.5L230 231.5L230 232.5Z" fill="black"/>
<path d="M127.394 232.297C127.394 233.87 127.068 235.073 126.417 235.906C125.766 236.74 124.813 237.156 123.558 237.156C122.318 237.156 121.37 236.747 120.714 235.93C120.058 235.112 119.722 233.94 119.706 232.414V230.32C119.706 228.732 120.034 227.526 120.691 226.703C121.352 225.88 122.303 225.469 123.542 225.469C124.782 225.469 125.73 225.878 126.386 226.695C127.042 227.508 127.378 228.677 127.394 230.203V232.297ZM125.136 230C125.136 229.057 125.006 228.372 124.745 227.945C124.49 227.513 124.089 227.297 123.542 227.297C123.011 227.297 122.618 227.503 122.362 227.914C122.112 228.32 121.98 228.958 121.964 229.828V232.594C121.964 233.521 122.089 234.211 122.339 234.664C122.594 235.112 123.001 235.336 123.558 235.336C124.11 235.336 124.508 235.12 124.753 234.688C124.998 234.255 125.126 233.594 125.136 232.703V230Z" fill="#3740FF"/>
<path d="M138.181 234.664C138.181 234.388 138.043 234.172 137.767 234.016C137.496 233.854 137.059 233.711 136.455 233.586C134.444 233.164 133.439 232.31 133.439 231.023C133.439 230.273 133.749 229.648 134.369 229.148C134.994 228.643 135.809 228.391 136.814 228.391C137.887 228.391 138.744 228.643 139.384 229.148C140.03 229.654 140.353 230.31 140.353 231.117H138.095C138.095 230.794 137.991 230.529 137.783 230.32C137.574 230.107 137.249 230 136.806 230C136.426 230 136.132 230.086 135.923 230.258C135.715 230.43 135.611 230.648 135.611 230.914C135.611 231.164 135.728 231.367 135.962 231.523C136.202 231.674 136.603 231.807 137.166 231.922C137.728 232.031 138.202 232.156 138.587 232.297C139.78 232.734 140.377 233.492 140.377 234.57C140.377 235.341 140.046 235.966 139.384 236.445C138.723 236.919 137.869 237.156 136.822 237.156C136.114 237.156 135.483 237.031 134.931 236.781C134.384 236.526 133.955 236.18 133.642 235.742C133.33 235.299 133.173 234.823 133.173 234.312H135.314C135.335 234.714 135.483 235.021 135.759 235.234C136.035 235.448 136.405 235.555 136.869 235.555C137.301 235.555 137.627 235.474 137.845 235.312C138.069 235.146 138.181 234.93 138.181 234.664Z" fill="#3740FF"/>
<path d="M146.028 237.156C144.789 237.156 143.778 236.776 142.997 236.016C142.221 235.255 141.833 234.242 141.833 232.977V232.758C141.833 231.909 141.997 231.151 142.325 230.484C142.653 229.812 143.117 229.297 143.716 228.938C144.32 228.573 145.007 228.391 145.778 228.391C146.934 228.391 147.843 228.755 148.505 229.484C149.171 230.214 149.505 231.247 149.505 232.586V233.508H144.122C144.195 234.06 144.414 234.503 144.778 234.836C145.148 235.169 145.614 235.336 146.177 235.336C147.046 235.336 147.726 235.021 148.216 234.391L149.325 235.633C148.986 236.112 148.528 236.487 147.95 236.758C147.372 237.023 146.731 237.156 146.028 237.156ZM145.77 230.219C145.322 230.219 144.958 230.37 144.677 230.672C144.401 230.974 144.223 231.406 144.145 231.969H147.286V231.789C147.276 231.289 147.14 230.904 146.88 230.633C146.619 230.357 146.249 230.219 145.77 230.219Z" fill="#3740FF"/>
<path d="M154.609 235.336C155.026 235.336 155.365 235.221 155.625 234.992C155.885 234.763 156.021 234.458 156.031 234.078H158.148C158.143 234.651 157.987 235.177 157.68 235.656C157.372 236.13 156.951 236.5 156.414 236.766C155.883 237.026 155.294 237.156 154.648 237.156C153.44 237.156 152.487 236.773 151.789 236.008C151.091 235.237 150.742 234.174 150.742 232.82V232.672C150.742 231.37 151.089 230.331 151.781 229.555C152.474 228.779 153.424 228.391 154.633 228.391C155.69 228.391 156.536 228.693 157.172 229.297C157.812 229.896 158.138 230.695 158.148 231.695H156.031C156.021 231.258 155.885 230.904 155.625 230.633C155.365 230.357 155.021 230.219 154.594 230.219C154.068 230.219 153.669 230.411 153.398 230.797C153.133 231.177 153 231.797 153 232.656V232.891C153 233.76 153.133 234.385 153.398 234.766C153.664 235.146 154.068 235.336 154.609 235.336Z" fill="#3740FF"/>
<path d="M159.386 232.695C159.386 231.857 159.547 231.109 159.87 230.453C160.193 229.797 160.657 229.289 161.261 228.93C161.87 228.57 162.576 228.391 163.378 228.391C164.519 228.391 165.448 228.74 166.167 229.438C166.891 230.135 167.295 231.083 167.378 232.281L167.394 232.859C167.394 234.156 167.032 235.198 166.308 235.984C165.584 236.766 164.612 237.156 163.394 237.156C162.175 237.156 161.201 236.766 160.472 235.984C159.748 235.203 159.386 234.141 159.386 232.797V232.695ZM161.644 232.859C161.644 233.661 161.795 234.276 162.097 234.703C162.399 235.125 162.831 235.336 163.394 235.336C163.941 235.336 164.368 235.128 164.675 234.711C164.982 234.289 165.136 233.617 165.136 232.695C165.136 231.909 164.982 231.299 164.675 230.867C164.368 230.435 163.935 230.219 163.378 230.219C162.826 230.219 162.399 230.435 162.097 230.867C161.795 231.294 161.644 231.958 161.644 232.859Z" fill="#3740FF"/>
<path d="M171.162 228.547L171.233 229.523C171.837 228.768 172.647 228.391 173.662 228.391C174.558 228.391 175.225 228.654 175.662 229.18C176.1 229.706 176.324 230.492 176.334 231.539V237H174.077V231.594C174.077 231.115 173.972 230.768 173.764 230.555C173.556 230.336 173.209 230.227 172.725 230.227C172.09 230.227 171.613 230.497 171.295 231.039V237H169.037V228.547H171.162Z" fill="#3740FF"/>
<path d="M178.002 232.711C178.002 231.393 178.296 230.344 178.884 229.562C179.478 228.781 180.288 228.391 181.314 228.391C182.137 228.391 182.817 228.698 183.353 229.312V225H185.619V237H183.58L183.47 236.102C182.908 236.805 182.184 237.156 181.298 237.156C180.304 237.156 179.504 236.766 178.9 235.984C178.301 235.198 178.002 234.107 178.002 232.711ZM180.259 232.875C180.259 233.667 180.397 234.273 180.673 234.695C180.949 235.117 181.351 235.328 181.877 235.328C182.574 235.328 183.067 235.034 183.353 234.445V231.109C183.072 230.521 182.585 230.227 181.892 230.227C180.804 230.227 180.259 231.109 180.259 232.875Z" fill="#3740FF"/>
<path d="M192.247 234.664C192.247 234.388 192.109 234.172 191.833 234.016C191.562 233.854 191.124 233.711 190.52 233.586C188.51 233.164 187.505 232.31 187.505 231.023C187.505 230.273 187.815 229.648 188.434 229.148C189.059 228.643 189.874 228.391 190.88 228.391C191.953 228.391 192.809 228.643 193.45 229.148C194.096 229.654 194.419 230.31 194.419 231.117H192.161C192.161 230.794 192.057 230.529 191.848 230.32C191.64 230.107 191.315 230 190.872 230C190.492 230 190.197 230.086 189.989 230.258C189.781 230.43 189.677 230.648 189.677 230.914C189.677 231.164 189.794 231.367 190.028 231.523C190.268 231.674 190.669 231.807 191.231 231.922C191.794 232.031 192.268 232.156 192.653 232.297C193.846 232.734 194.442 233.492 194.442 234.57C194.442 235.341 194.111 235.966 193.45 236.445C192.789 236.919 191.934 237.156 190.887 237.156C190.179 237.156 189.549 237.031 188.997 236.781C188.45 236.526 188.02 236.18 187.708 235.742C187.395 235.299 187.239 234.823 187.239 234.312H189.38C189.401 234.714 189.549 235.021 189.825 235.234C190.101 235.448 190.471 235.555 190.934 235.555C191.367 235.555 191.692 235.474 191.911 235.312C192.135 235.146 192.247 234.93 192.247 234.664Z" fill="#3740FF"/>
<path d="M571.222 237H568.964V228.297L566.269 229.133V227.297L570.98 225.609H571.222V237Z" fill="#3740FF"/>
<path d="M584.181 234.664C584.181 234.388 584.043 234.172 583.767 234.016C583.496 233.854 583.059 233.711 582.455 233.586C580.444 233.164 579.439 232.31 579.439 231.023C579.439 230.273 579.749 229.648 580.369 229.148C580.994 228.643 581.809 228.391 582.814 228.391C583.887 228.391 584.744 228.643 585.384 229.148C586.03 229.654 586.353 230.31 586.353 231.117H584.095C584.095 230.794 583.991 230.529 583.783 230.32C583.574 230.107 583.249 230 582.806 230C582.426 230 582.132 230.086 581.923 230.258C581.715 230.43 581.611 230.648 581.611 230.914C581.611 231.164 581.728 231.367 581.962 231.523C582.202 231.674 582.603 231.807 583.166 231.922C583.728 232.031 584.202 232.156 584.587 232.297C585.78 232.734 586.377 233.492 586.377 234.57C586.377 235.341 586.046 235.966 585.384 236.445C584.723 236.919 583.869 237.156 582.822 237.156C582.114 237.156 581.483 237.031 580.931 236.781C580.384 236.526 579.955 236.18 579.642 235.742C579.33 235.299 579.173 234.823 579.173 234.312H581.314C581.335 234.714 581.483 235.021 581.759 235.234C582.035 235.448 582.405 235.555 582.869 235.555C583.301 235.555 583.627 235.474 583.845 235.312C584.069 235.146 584.181 234.93 584.181 234.664Z" fill="#3740FF"/>
<path d="M592.028 237.156C590.789 237.156 589.778 236.776 588.997 236.016C588.221 235.255 587.833 234.242 587.833 232.977V232.758C587.833 231.909 587.997 231.151 588.325 230.484C588.653 229.812 589.117 229.297 589.716 228.938C590.32 228.573 591.007 228.391 591.778 228.391C592.934 228.391 593.843 228.755 594.505 229.484C595.171 230.214 595.505 231.247 595.505 232.586V233.508H590.122C590.195 234.06 590.414 234.503 590.778 234.836C591.148 235.169 591.614 235.336 592.177 235.336C593.046 235.336 593.726 235.021 594.216 234.391L595.325 235.633C594.986 236.112 594.528 236.487 593.95 236.758C593.372 237.023 592.731 237.156 592.028 237.156ZM591.77 230.219C591.322 230.219 590.958 230.37 590.677 230.672C590.401 230.974 590.223 231.406 590.145 231.969H593.286V231.789C593.276 231.289 593.14 230.904 592.88 230.633C592.619 230.357 592.249 230.219 591.77 230.219Z" fill="#3740FF"/>
<path d="M600.609 235.336C601.026 235.336 601.365 235.221 601.625 234.992C601.885 234.763 602.021 234.458 602.031 234.078H604.148C604.143 234.651 603.987 235.177 603.68 235.656C603.372 236.13 602.951 236.5 602.414 236.766C601.883 237.026 601.294 237.156 600.648 237.156C599.44 237.156 598.487 236.773 597.789 236.008C597.091 235.237 596.742 234.174 596.742 232.82V232.672C596.742 231.37 597.089 230.331 597.781 229.555C598.474 228.779 599.424 228.391 600.633 228.391C601.69 228.391 602.536 228.693 603.172 229.297C603.812 229.896 604.138 230.695 604.148 231.695H602.031C602.021 231.258 601.885 230.904 601.625 230.633C601.365 230.357 601.021 230.219 600.594 230.219C600.068 230.219 599.669 230.411 599.398 230.797C599.133 231.177 599 231.797 599 232.656V232.891C599 233.76 599.133 234.385 599.398 234.766C599.664 235.146 600.068 235.336 600.609 235.336Z" fill="#3740FF"/>
<path d="M605.386 232.695C605.386 231.857 605.547 231.109 605.87 230.453C606.193 229.797 606.657 229.289 607.261 228.93C607.87 228.57 608.576 228.391 609.378 228.391C610.519 228.391 611.448 228.74 612.167 229.438C612.891 230.135 613.295 231.083 613.378 232.281L613.394 232.859C613.394 234.156 613.032 235.198 612.308 235.984C611.584 236.766 610.612 237.156 609.394 237.156C608.175 237.156 607.201 236.766 606.472 235.984C605.748 235.203 605.386 234.141 605.386 232.797V232.695ZM607.644 232.859C607.644 233.661 607.795 234.276 608.097 234.703C608.399 235.125 608.831 235.336 609.394 235.336C609.941 235.336 610.368 235.128 610.675 234.711C610.982 234.289 611.136 233.617 611.136 232.695C611.136 231.909 610.982 231.299 610.675 230.867C610.368 230.435 609.935 230.219 609.378 230.219C608.826 230.219 608.399 230.435 608.097 230.867C607.795 231.294 607.644 231.958 607.644 232.859Z" fill="#3740FF"/>
<path d="M617.162 228.547L617.233 229.523C617.837 228.768 618.647 228.391 619.662 228.391C620.558 228.391 621.225 228.654 621.662 229.18C622.1 229.706 622.324 230.492 622.334 231.539V237H620.077V231.594C620.077 231.115 619.972 230.768 619.764 230.555C619.556 230.336 619.209 230.227 618.725 230.227C618.09 230.227 617.613 230.497 617.295 231.039V237H615.037V228.547H617.162Z" fill="#3740FF"/>
<path d="M624.002 232.711C624.002 231.393 624.296 230.344 624.884 229.562C625.478 228.781 626.288 228.391 627.314 228.391C628.137 228.391 628.817 228.698 629.353 229.312V225H631.619V237H629.58L629.47 236.102C628.908 236.805 628.184 237.156 627.298 237.156C626.304 237.156 625.504 236.766 624.9 235.984C624.301 235.198 624.002 234.107 624.002 232.711ZM626.259 232.875C626.259 233.667 626.397 234.273 626.673 234.695C626.949 235.117 627.351 235.328 627.877 235.328C628.574 235.328 629.067 235.034 629.353 234.445V231.109C629.072 230.521 628.585 230.227 627.892 230.227C626.804 230.227 626.259 231.109 626.259 232.875Z" fill="#3740FF"/>
<path d="M638.247 234.664C638.247 234.388 638.109 234.172 637.833 234.016C637.562 233.854 637.124 233.711 636.52 233.586C634.51 233.164 633.505 232.31 633.505 231.023C633.505 230.273 633.815 229.648 634.434 229.148C635.059 228.643 635.874 228.391 636.88 228.391C637.953 228.391 638.809 228.643 639.45 229.148C640.096 229.654 640.419 230.31 640.419 231.117H638.161C638.161 230.794 638.057 230.529 637.848 230.32C637.64 230.107 637.315 230 636.872 230C636.492 230 636.197 230.086 635.989 230.258C635.781 230.43 635.677 230.648 635.677 230.914C635.677 231.164 635.794 231.367 636.028 231.523C636.268 231.674 636.669 231.807 637.231 231.922C637.794 232.031 638.268 232.156 638.653 232.297C639.846 232.734 640.442 233.492 640.442 234.57C640.442 235.341 640.111 235.966 639.45 236.445C638.789 236.919 637.934 237.156 636.888 237.156C636.179 237.156 635.549 237.031 634.997 236.781C634.45 236.526 634.02 236.18 633.708 235.742C633.395 235.299 633.239 234.823 633.239 234.312H635.38C635.401 234.714 635.549 235.021 635.825 235.234C636.101 235.448 636.471 235.555 636.934 235.555C637.367 235.555 637.692 235.474 637.911 235.312C638.135 235.146 638.247 234.93 638.247 234.664Z" fill="#3740FF"/>
</svg>
