<svg width="760" height="418" viewBox="0 0 760 418" fill="none" xmlns="http://www.w3.org/2000/svg">
<rect width="760" height="418" fill="white"/>
<circle cx="151" cy="126" r="41" fill="#531F87"/>
<circle cx="380.5" cy="126" r="55" fill="#B172EB"/>
<circle cx="380.5" cy="126" r="41" fill="#531F87"/>
<circle cx="610" cy="126" r="41" fill="#531F87"/>
<path d="M530.354 311.354C530.549 311.158 530.549 310.842 530.354 310.646L527.172 307.465C526.976 307.269 526.66 307.269 526.464 307.465C526.269 307.66 526.269 307.976 526.464 308.172L529.293 311L526.464 313.828C526.269 314.024 526.269 314.34 526.464 314.536C526.66 314.731 526.976 314.731 527.172 314.536L530.354 311.354ZM230 311.5L530 311.5L530 310.5L230 310.5L230 311.5Z" fill="black"/>
<path d="M127.394 311.297C127.394 312.87 127.068 314.073 126.417 314.906C125.766 315.74 124.813 316.156 123.558 316.156C122.318 316.156 121.37 315.747 120.714 314.93C120.058 314.112 119.722 312.94 119.706 311.414V309.32C119.706 307.732 120.034 306.526 120.691 305.703C121.352 304.88 122.303 304.469 123.542 304.469C124.782 304.469 125.73 304.878 126.386 305.695C127.042 306.508 127.378 307.677 127.394 309.203V311.297ZM125.136 309C125.136 308.057 125.006 307.372 124.745 306.945C124.49 306.513 124.089 306.297 123.542 306.297C123.011 306.297 122.618 306.503 122.362 306.914C122.112 307.32 121.98 307.958 121.964 308.828V311.594C121.964 312.521 122.089 313.211 122.339 313.664C122.594 314.112 123.001 314.336 123.558 314.336C124.11 314.336 124.508 314.12 124.753 313.688C124.998 313.255 125.126 312.594 125.136 311.703V309Z" fill="#3740FF"/>
<path d="M138.181 313.664C138.181 313.388 138.043 313.172 137.767 313.016C137.496 312.854 137.059 312.711 136.455 312.586C134.444 312.164 133.439 311.31 133.439 310.023C133.439 309.273 133.749 308.648 134.369 308.148C134.994 307.643 135.809 307.391 136.814 307.391C137.887 307.391 138.744 307.643 139.384 308.148C140.03 308.654 140.353 309.31 140.353 310.117H138.095C138.095 309.794 137.991 309.529 137.783 309.32C137.574 309.107 137.249 309 136.806 309C136.426 309 136.132 309.086 135.923 309.258C135.715 309.43 135.611 309.648 135.611 309.914C135.611 310.164 135.728 310.367 135.962 310.523C136.202 310.674 136.603 310.807 137.166 310.922C137.728 311.031 138.202 311.156 138.587 311.297C139.78 311.734 140.377 312.492 140.377 313.57C140.377 314.341 140.046 314.966 139.384 315.445C138.723 315.919 137.869 316.156 136.822 316.156C136.114 316.156 135.483 316.031 134.931 315.781C134.384 315.526 133.955 315.18 133.642 314.742C133.33 314.299 133.173 313.823 133.173 313.312H135.314C135.335 313.714 135.483 314.021 135.759 314.234C136.035 314.448 136.405 314.555 136.869 314.555C137.301 314.555 137.627 314.474 137.845 314.312C138.069 314.146 138.181 313.93 138.181 313.664Z" fill="#3740FF"/>
<path d="M146.028 316.156C144.789 316.156 143.778 315.776 142.997 315.016C142.221 314.255 141.833 313.242 141.833 311.977V311.758C141.833 310.909 141.997 310.151 142.325 309.484C142.653 308.812 143.117 308.297 143.716 307.938C144.32 307.573 145.007 307.391 145.778 307.391C146.934 307.391 147.843 307.755 148.505 308.484C149.171 309.214 149.505 310.247 149.505 311.586V312.508H144.122C144.195 313.06 144.414 313.503 144.778 313.836C145.148 314.169 145.614 314.336 146.177 314.336C147.046 314.336 147.726 314.021 148.216 313.391L149.325 314.633C148.986 315.112 148.528 315.487 147.95 315.758C147.372 316.023 146.731 316.156 146.028 316.156ZM145.77 309.219C145.322 309.219 144.958 309.37 144.677 309.672C144.401 309.974 144.223 310.406 144.145 310.969H147.286V310.789C147.276 310.289 147.14 309.904 146.88 309.633C146.619 309.357 146.249 309.219 145.77 309.219Z" fill="#3740FF"/>
<path d="M154.609 314.336C155.026 314.336 155.365 314.221 155.625 313.992C155.885 313.763 156.021 313.458 156.031 313.078H158.148C158.143 313.651 157.987 314.177 157.68 314.656C157.372 315.13 156.951 315.5 156.414 315.766C155.883 316.026 155.294 316.156 154.648 316.156C153.44 316.156 152.487 315.773 151.789 315.008C151.091 314.237 150.742 313.174 150.742 311.82V311.672C150.742 310.37 151.089 309.331 151.781 308.555C152.474 307.779 153.424 307.391 154.633 307.391C155.69 307.391 156.536 307.693 157.172 308.297C157.812 308.896 158.138 309.695 158.148 310.695H156.031C156.021 310.258 155.885 309.904 155.625 309.633C155.365 309.357 155.021 309.219 154.594 309.219C154.068 309.219 153.669 309.411 153.398 309.797C153.133 310.177 153 310.797 153 311.656V311.891C153 312.76 153.133 313.385 153.398 313.766C153.664 314.146 154.068 314.336 154.609 314.336Z" fill="#3740FF"/>
<path d="M159.386 311.695C159.386 310.857 159.547 310.109 159.87 309.453C160.193 308.797 160.657 308.289 161.261 307.93C161.87 307.57 162.576 307.391 163.378 307.391C164.519 307.391 165.448 307.74 166.167 308.438C166.891 309.135 167.295 310.083 167.378 311.281L167.394 311.859C167.394 313.156 167.032 314.198 166.308 314.984C165.584 315.766 164.612 316.156 163.394 316.156C162.175 316.156 161.201 315.766 160.472 314.984C159.748 314.203 159.386 313.141 159.386 311.797V311.695ZM161.644 311.859C161.644 312.661 161.795 313.276 162.097 313.703C162.399 314.125 162.831 314.336 163.394 314.336C163.941 314.336 164.368 314.128 164.675 313.711C164.982 313.289 165.136 312.617 165.136 311.695C165.136 310.909 164.982 310.299 164.675 309.867C164.368 309.435 163.935 309.219 163.378 309.219C162.826 309.219 162.399 309.435 162.097 309.867C161.795 310.294 161.644 310.958 161.644 311.859Z" fill="#3740FF"/>
<path d="M171.162 307.547L171.233 308.523C171.837 307.768 172.647 307.391 173.662 307.391C174.558 307.391 175.225 307.654 175.662 308.18C176.1 308.706 176.324 309.492 176.334 310.539V316H174.077V310.594C174.077 310.115 173.972 309.768 173.764 309.555C173.556 309.336 173.209 309.227 172.725 309.227C172.09 309.227 171.613 309.497 171.295 310.039V316H169.037V307.547H171.162Z" fill="#3740FF"/>
<path d="M178.002 311.711C178.002 310.393 178.296 309.344 178.884 308.562C179.478 307.781 180.288 307.391 181.314 307.391C182.137 307.391 182.817 307.698 183.353 308.312V304H185.619V316H183.58L183.47 315.102C182.908 315.805 182.184 316.156 181.298 316.156C180.304 316.156 179.504 315.766 178.9 314.984C178.301 314.198 178.002 313.107 178.002 311.711ZM180.259 311.875C180.259 312.667 180.397 313.273 180.673 313.695C180.949 314.117 181.351 314.328 181.877 314.328C182.574 314.328 183.067 314.034 183.353 313.445V310.109C183.072 309.521 182.585 309.227 181.892 309.227C180.804 309.227 180.259 310.109 180.259 311.875Z" fill="#3740FF"/>
<path d="M192.247 313.664C192.247 313.388 192.109 313.172 191.833 313.016C191.562 312.854 191.124 312.711 190.52 312.586C188.51 312.164 187.505 311.31 187.505 310.023C187.505 309.273 187.815 308.648 188.434 308.148C189.059 307.643 189.874 307.391 190.88 307.391C191.953 307.391 192.809 307.643 193.45 308.148C194.096 308.654 194.419 309.31 194.419 310.117H192.161C192.161 309.794 192.057 309.529 191.848 309.32C191.64 309.107 191.315 309 190.872 309C190.492 309 190.197 309.086 189.989 309.258C189.781 309.43 189.677 309.648 189.677 309.914C189.677 310.164 189.794 310.367 190.028 310.523C190.268 310.674 190.669 310.807 191.231 310.922C191.794 311.031 192.268 311.156 192.653 311.297C193.846 311.734 194.442 312.492 194.442 313.57C194.442 314.341 194.111 314.966 193.45 315.445C192.789 315.919 191.934 316.156 190.887 316.156C190.179 316.156 189.549 316.031 188.997 315.781C188.45 315.526 188.02 315.18 187.708 314.742C187.395 314.299 187.239 313.823 187.239 313.312H189.38C189.401 313.714 189.549 314.021 189.825 314.234C190.101 314.448 190.471 314.555 190.934 314.555C191.367 314.555 191.692 314.474 191.911 314.312C192.135 314.146 192.247 313.93 192.247 313.664Z" fill="#3740FF"/>
<path d="M571.222 316H568.964V307.297L566.269 308.133V306.297L570.98 304.609H571.222V316Z" fill="#3740FF"/>
<path d="M584.181 313.664C584.181 313.388 584.043 313.172 583.767 313.016C583.496 312.854 583.059 312.711 582.455 312.586C580.444 312.164 579.439 311.31 579.439 310.023C579.439 309.273 579.749 308.648 580.369 308.148C580.994 307.643 581.809 307.391 582.814 307.391C583.887 307.391 584.744 307.643 585.384 308.148C586.03 308.654 586.353 309.31 586.353 310.117H584.095C584.095 309.794 583.991 309.529 583.783 309.32C583.574 309.107 583.249 309 582.806 309C582.426 309 582.132 309.086 581.923 309.258C581.715 309.43 581.611 309.648 581.611 309.914C581.611 310.164 581.728 310.367 581.962 310.523C582.202 310.674 582.603 310.807 583.166 310.922C583.728 311.031 584.202 311.156 584.587 311.297C585.78 311.734 586.377 312.492 586.377 313.57C586.377 314.341 586.046 314.966 585.384 315.445C584.723 315.919 583.869 316.156 582.822 316.156C582.114 316.156 581.483 316.031 580.931 315.781C580.384 315.526 579.955 315.18 579.642 314.742C579.33 314.299 579.173 313.823 579.173 313.312H581.314C581.335 313.714 581.483 314.021 581.759 314.234C582.035 314.448 582.405 314.555 582.869 314.555C583.301 314.555 583.627 314.474 583.845 314.312C584.069 314.146 584.181 313.93 584.181 313.664Z" fill="#3740FF"/>
<path d="M592.028 316.156C590.789 316.156 589.778 315.776 588.997 315.016C588.221 314.255 587.833 313.242 587.833 311.977V311.758C587.833 310.909 587.997 310.151 588.325 309.484C588.653 308.812 589.117 308.297 589.716 307.938C590.32 307.573 591.007 307.391 591.778 307.391C592.934 307.391 593.843 307.755 594.505 308.484C595.171 309.214 595.505 310.247 595.505 311.586V312.508H590.122C590.195 313.06 590.414 313.503 590.778 313.836C591.148 314.169 591.614 314.336 592.177 314.336C593.046 314.336 593.726 314.021 594.216 313.391L595.325 314.633C594.986 315.112 594.528 315.487 593.95 315.758C593.372 316.023 592.731 316.156 592.028 316.156ZM591.77 309.219C591.322 309.219 590.958 309.37 590.677 309.672C590.401 309.974 590.223 310.406 590.145 310.969H593.286V310.789C593.276 310.289 593.14 309.904 592.88 309.633C592.619 309.357 592.249 309.219 591.77 309.219Z" fill="#3740FF"/>
<path d="M600.609 314.336C601.026 314.336 601.365 314.221 601.625 313.992C601.885 313.763 602.021 313.458 602.031 313.078H604.148C604.143 313.651 603.987 314.177 603.68 314.656C603.372 315.13 602.951 315.5 602.414 315.766C601.883 316.026 601.294 316.156 600.648 316.156C599.44 316.156 598.487 315.773 597.789 315.008C597.091 314.237 596.742 313.174 596.742 311.82V311.672C596.742 310.37 597.089 309.331 597.781 308.555C598.474 307.779 599.424 307.391 600.633 307.391C601.69 307.391 602.536 307.693 603.172 308.297C603.812 308.896 604.138 309.695 604.148 310.695H602.031C602.021 310.258 601.885 309.904 601.625 309.633C601.365 309.357 601.021 309.219 600.594 309.219C600.068 309.219 599.669 309.411 599.398 309.797C599.133 310.177 599 310.797 599 311.656V311.891C599 312.76 599.133 313.385 599.398 313.766C599.664 314.146 600.068 314.336 600.609 314.336Z" fill="#3740FF"/>
<path d="M605.386 311.695C605.386 310.857 605.547 310.109 605.87 309.453C606.193 308.797 606.657 308.289 607.261 307.93C607.87 307.57 608.576 307.391 609.378 307.391C610.519 307.391 611.448 307.74 612.167 308.438C612.891 309.135 613.295 310.083 613.378 311.281L613.394 311.859C613.394 313.156 613.032 314.198 612.308 314.984C611.584 315.766 610.612 316.156 609.394 316.156C608.175 316.156 607.201 315.766 606.472 314.984C605.748 314.203 605.386 313.141 605.386 311.797V311.695ZM607.644 311.859C607.644 312.661 607.795 313.276 608.097 313.703C608.399 314.125 608.831 314.336 609.394 314.336C609.941 314.336 610.368 314.128 610.675 313.711C610.982 313.289 611.136 312.617 611.136 311.695C611.136 310.909 610.982 310.299 610.675 309.867C610.368 309.435 609.935 309.219 609.378 309.219C608.826 309.219 608.399 309.435 608.097 309.867C607.795 310.294 607.644 310.958 607.644 311.859Z" fill="#3740FF"/>
<path d="M617.162 307.547L617.233 308.523C617.837 307.768 618.647 307.391 619.662 307.391C620.558 307.391 621.225 307.654 621.662 308.18C622.1 308.706 622.324 309.492 622.334 310.539V316H620.077V310.594C620.077 310.115 619.972 309.768 619.764 309.555C619.556 309.336 619.209 309.227 618.725 309.227C618.09 309.227 617.613 309.497 617.295 310.039V316H615.037V307.547H617.162Z" fill="#3740FF"/>
<path d="M624.002 311.711C624.002 310.393 624.296 309.344 624.884 308.562C625.478 307.781 626.288 307.391 627.314 307.391C628.137 307.391 628.817 307.698 629.353 308.312V304H631.619V316H629.58L629.47 315.102C628.908 315.805 628.184 316.156 627.298 316.156C626.304 316.156 625.504 315.766 624.9 314.984C624.301 314.198 624.002 313.107 624.002 311.711ZM626.259 311.875C626.259 312.667 626.397 313.273 626.673 313.695C626.949 314.117 627.351 314.328 627.877 314.328C628.574 314.328 629.067 314.034 629.353 313.445V310.109C629.072 309.521 628.585 309.227 627.892 309.227C626.804 309.227 626.259 310.109 626.259 311.875Z" fill="#3740FF"/>
<path d="M638.247 313.664C638.247 313.388 638.109 313.172 637.833 313.016C637.562 312.854 637.124 312.711 636.52 312.586C634.51 312.164 633.505 311.31 633.505 310.023C633.505 309.273 633.815 308.648 634.434 308.148C635.059 307.643 635.874 307.391 636.88 307.391C637.953 307.391 638.809 307.643 639.45 308.148C640.096 308.654 640.419 309.31 640.419 310.117H638.161C638.161 309.794 638.057 309.529 637.848 309.32C637.64 309.107 637.315 309 636.872 309C636.492 309 636.197 309.086 635.989 309.258C635.781 309.43 635.677 309.648 635.677 309.914C635.677 310.164 635.794 310.367 636.028 310.523C636.268 310.674 636.669 310.807 637.231 310.922C637.794 311.031 638.268 311.156 638.653 311.297C639.846 311.734 640.442 312.492 640.442 313.57C640.442 314.341 640.111 314.966 639.45 315.445C638.789 315.919 637.934 316.156 636.888 316.156C636.179 316.156 635.549 316.031 634.997 315.781C634.45 315.526 634.02 315.18 633.708 314.742C633.395 314.299 633.239 313.823 633.239 313.312H635.38C635.401 313.714 635.549 314.021 635.825 314.234C636.101 314.448 636.471 314.555 636.934 314.555C637.367 314.555 637.692 314.474 637.911 314.312C638.135 314.146 638.247 313.93 638.247 313.664Z" fill="#3740FF"/>
<rect x="110.5" y="229.5" width="26" height="38" fill="#272EB5" stroke="#272EB5"/>
<rect x="139.5" y="229.5" width="25" height="38" fill="#E5E5E5" stroke="#C4C4C4"/>
<rect x="167.5" y="229.5" width="26" height="38" fill="#E5E5E5" stroke="#C4C4C4"/>
<rect x="196.5" y="229.5" width="25" height="38" fill="#E5E5E5" stroke="#C4C4C4"/>
<rect x="224.5" y="229.5" width="25" height="38" fill="#E5E5E5" stroke="#C4C4C4"/>
<rect x="252.5" y="229.5" width="26" height="38" fill="#E5E5E5" stroke="#C4C4C4"/>
<rect x="281.5" y="229.5" width="25" height="38" fill="#E5E5E5" stroke="#C4C4C4"/>
<rect x="309.5" y="229.5" width="26" height="38" fill="#E5E5E5" stroke="#C4C4C4"/>
<rect x="338.5" y="229.5" width="26" height="38" fill="#E5E5E5" stroke="#C4C4C4"/>
<rect x="367.5" y="229.5" width="25" height="38" fill="#272EB5" stroke="#272EB5"/>
<rect x="395.5" y="229.5" width="26" height="38" fill="#E5E5E5" stroke="#C4C4C4"/>
<rect x="424.5" y="229.5" width="26" height="38" fill="#E5E5E5" stroke="#C4C4C4"/>
<rect x="453.5" y="229.5" width="25" height="38" fill="#E5E5E5" stroke="#C4C4C4"/>
<rect x="481.5" y="229.5" width="26" height="38" fill="#E5E5E5" stroke="#C4C4C4"/>
<rect x="510.5" y="229.5" width="25" height="38" fill="#E5E5E5" stroke="#C4C4C4"/>
<rect x="538.5" y="229.5" width="25" height="38" fill="#E5E5E5" stroke="#C4C4C4"/>
<rect x="566.5" y="229.5" width="26" height="38" fill="#E5E5E5" stroke="#C4C4C4"/>
<rect x="595.5" y="229.5" width="25" height="38" fill="#E5E5E5" stroke="#C4C4C4"/>
<rect x="623.5" y="229.5" width="26" height="38" fill="#E5E5E5" stroke="#C4C4C4"/>
</svg>
