<svg width="760" height="474" viewBox="0 0 760 474" fill="none" xmlns="http://www.w3.org/2000/svg">
<rect width="760" height="474" fill="white"/>
<path d="M575 42.1184C548.495 34.5062 473.558 62.2741 385.845 234.243C356.871 293.982 281.538 411.275 212 402.538" stroke="#00C9DB" stroke-width="5" stroke-linecap="round" stroke-linejoin="round"/>
<line x1="210" y1="406" x2="210" y2="41" stroke="#5F6368" stroke-width="2"/>
<line x1="575" y1="406" x2="209" y2="406" stroke="#5F6368" stroke-width="2"/>
<path d="M190.992 265.719H195V268.062H183.625L183.625 263.625C183.625 262.771 183.781 262.021 184.094 261.375C184.406 260.724 184.852 260.224 185.43 259.875C186.003 259.526 186.656 259.352 187.391 259.352C188.505 259.352 189.385 259.734 190.031 260.5C190.672 261.26 190.992 262.315 190.992 263.664V265.719ZM189.094 265.719V263.625C189.094 263.005 188.948 262.534 188.656 262.211C188.365 261.883 187.948 261.719 187.406 261.719C186.849 261.719 186.398 261.883 186.055 262.211C185.711 262.539 185.534 262.992 185.523 263.57V265.719H189.094Z" fill="#0C55FF"/>
<path d="M188.664 252.833C188.622 253.14 188.602 253.411 188.602 253.645C188.602 254.499 188.891 255.059 189.469 255.325L195 255.325V257.583L186.547 257.583L186.547 255.45L187.555 255.388C186.779 254.934 186.391 254.307 186.391 253.505C186.391 253.255 186.424 253.02 186.492 252.802L188.664 252.833Z" fill="#0C55FF"/>
<path d="M190.695 252.072C189.857 252.072 189.109 251.91 188.453 251.588C187.797 251.265 187.289 250.801 186.93 250.197C186.57 249.588 186.391 248.882 186.391 248.08C186.391 246.939 186.74 246.009 187.438 245.291C188.135 244.567 189.083 244.163 190.281 244.08L190.859 244.064C192.156 244.064 193.198 244.426 193.984 245.15C194.766 245.874 195.156 246.845 195.156 248.064C195.156 249.283 194.766 250.257 193.984 250.986C193.203 251.71 192.141 252.072 190.797 252.072H190.695ZM190.859 249.814C191.661 249.814 192.276 249.663 192.703 249.361C193.125 249.059 193.336 248.627 193.336 248.064C193.336 247.517 193.128 247.09 192.711 246.783C192.289 246.476 191.617 246.322 190.695 246.322C189.909 246.322 189.299 246.476 188.867 246.783C188.435 247.09 188.219 247.522 188.219 248.08C188.219 248.632 188.435 249.059 188.867 249.361C189.294 249.663 189.958 249.814 190.859 249.814Z" fill="#0C55FF"/>
<path d="M190.711 242.702C189.414 242.702 188.37 242.394 187.578 241.78C186.786 241.16 186.391 240.327 186.391 239.28C186.391 238.353 186.708 237.631 187.344 237.116L186.547 237.022L186.547 234.975H194.719C195.458 234.975 196.102 235.144 196.648 235.483C197.195 235.816 197.612 236.287 197.898 236.897C198.185 237.506 198.328 238.22 198.328 239.037C198.328 239.657 198.203 240.261 197.953 240.85C197.708 241.439 197.391 241.884 197 242.186L195.625 241.186C196.255 240.623 196.57 239.941 196.57 239.139C196.57 238.54 196.409 238.074 196.086 237.741C195.768 237.407 195.315 237.241 194.727 237.241H194.273C194.862 237.761 195.156 238.446 195.156 239.295C195.156 240.311 194.76 241.134 193.969 241.764C193.172 242.389 192.117 242.702 190.805 242.702H190.711ZM190.875 240.444C191.641 240.444 192.242 240.29 192.68 239.983C193.112 239.676 193.328 239.254 193.328 238.717C193.328 238.03 193.07 237.537 192.555 237.241H189C188.484 237.543 188.227 238.03 188.227 238.702C188.227 239.243 188.448 239.67 188.891 239.983C189.333 240.29 189.995 240.444 190.875 240.444Z" fill="#0C55FF"/>
<path d="M188.664 228.183C188.622 228.49 188.602 228.761 188.602 228.995C188.602 229.849 188.891 230.409 189.469 230.675H195L195 232.933H186.547V230.8L187.555 230.737C186.779 230.284 186.391 229.657 186.391 228.855C186.391 228.605 186.424 228.37 186.492 228.152L188.664 228.183Z" fill="#0C55FF"/>
<path d="M195.156 223.055C195.156 224.294 194.776 225.305 194.016 226.086C193.255 226.862 192.242 227.25 190.977 227.25H190.758C189.909 227.25 189.151 227.086 188.484 226.758C187.813 226.43 187.297 225.966 186.938 225.367C186.573 224.763 186.391 224.076 186.391 223.305C186.391 222.148 186.755 221.24 187.484 220.578C188.214 219.911 189.247 219.578 190.586 219.578H191.508V224.961C192.06 224.888 192.503 224.669 192.836 224.305C193.169 223.935 193.336 223.469 193.336 222.906C193.336 222.036 193.021 221.357 192.391 220.867L193.633 219.758C194.112 220.096 194.487 220.555 194.758 221.133C195.023 221.711 195.156 222.352 195.156 223.055ZM188.219 223.312C188.219 223.76 188.37 224.125 188.672 224.406C188.974 224.682 189.406 224.859 189.969 224.938V221.797H189.789C189.289 221.807 188.904 221.943 188.633 222.203C188.357 222.464 188.219 222.833 188.219 223.312Z" fill="#0C55FF"/>
<path d="M192.664 213.411C192.388 213.411 192.172 213.549 192.016 213.825C191.854 214.096 191.711 214.533 191.586 215.138C191.164 217.148 190.31 218.153 189.023 218.153C188.273 218.153 187.648 217.843 187.148 217.223C186.643 216.598 186.391 215.783 186.391 214.778C186.391 213.705 186.643 212.848 187.148 212.208C187.654 211.562 188.31 211.239 189.117 211.239V213.497C188.794 213.497 188.529 213.601 188.32 213.809C188.107 214.018 188 214.343 188 214.786C188 215.166 188.086 215.46 188.258 215.669C188.43 215.877 188.648 215.981 188.914 215.981C189.164 215.981 189.367 215.864 189.523 215.63C189.674 215.39 189.807 214.989 189.922 214.427C190.031 213.864 190.156 213.39 190.297 213.005C190.734 211.812 191.492 211.216 192.57 211.216C193.341 211.216 193.966 211.546 194.445 212.208C194.919 212.869 195.156 213.723 195.156 214.77C195.156 215.479 195.031 216.109 194.781 216.661C194.526 217.208 194.18 217.638 193.742 217.95C193.299 218.263 192.823 218.419 192.313 218.419V216.278C192.714 216.257 193.021 216.109 193.234 215.833C193.448 215.557 193.555 215.187 193.555 214.723C193.555 214.291 193.474 213.966 193.313 213.747C193.146 213.523 192.93 213.411 192.664 213.411Z" fill="#0C55FF"/>
<path d="M192.664 204.877C192.388 204.877 192.172 205.015 192.016 205.291C191.854 205.561 191.711 205.999 191.586 206.603C191.164 208.614 190.31 209.619 189.023 209.619C188.273 209.619 187.648 209.309 187.148 208.689C186.643 208.064 186.391 207.249 186.391 206.244C186.391 205.171 186.643 204.314 187.148 203.673C187.654 203.028 188.31 202.705 189.117 202.705V204.963C188.794 204.963 188.529 205.067 188.32 205.275C188.107 205.483 188 205.809 188 206.252C188 206.632 188.086 206.926 188.258 207.134C188.43 207.343 188.648 207.447 188.914 207.447C189.164 207.447 189.367 207.33 189.523 207.095C189.674 206.856 189.807 206.455 189.922 205.892C190.031 205.33 190.156 204.856 190.297 204.47C190.734 203.278 191.492 202.681 192.57 202.681C193.341 202.681 193.966 203.012 194.445 203.673C194.919 204.335 195.156 205.189 195.156 206.236C195.156 206.944 195.031 207.574 194.781 208.127C194.526 208.673 194.18 209.103 193.742 209.416C193.299 209.728 192.823 209.884 192.312 209.884V207.744C192.714 207.723 193.021 207.574 193.234 207.298C193.448 207.022 193.555 206.653 193.555 206.189C193.555 205.757 193.474 205.431 193.312 205.213C193.146 204.989 192.93 204.877 192.664 204.877Z" fill="#0C55FF"/>
<path d="M195 198.537V200.803H186.547V198.537H195ZM184.359 200.936C184.021 200.936 183.742 200.824 183.523 200.6C183.305 200.371 183.195 200.061 183.195 199.67C183.195 199.285 183.305 198.978 183.523 198.748C183.742 198.519 184.021 198.405 184.359 198.405C184.703 198.405 184.984 198.522 185.203 198.756C185.422 198.985 185.531 199.29 185.531 199.67C185.531 200.051 185.422 200.358 185.203 200.592C184.984 200.821 184.703 200.936 184.359 200.936Z" fill="#0C55FF"/>
<path d="M190.695 196.722C189.857 196.722 189.109 196.56 188.453 196.238C187.797 195.915 187.289 195.451 186.93 194.847C186.57 194.238 186.391 193.532 186.391 192.73C186.391 191.589 186.74 190.659 187.437 189.941C188.135 189.217 189.083 188.813 190.281 188.73L190.859 188.714C192.156 188.714 193.198 189.076 193.984 189.8C194.766 190.524 195.156 191.495 195.156 192.714C195.156 193.933 194.766 194.907 193.984 195.636C193.203 196.36 192.141 196.722 190.797 196.722H190.695ZM190.859 194.464C191.661 194.464 192.276 194.313 192.703 194.011C193.125 193.709 193.336 193.277 193.336 192.714C193.336 192.167 193.128 191.74 192.711 191.433C192.289 191.126 191.617 190.972 190.695 190.972C189.909 190.972 189.299 191.126 188.867 191.433C188.435 191.74 188.219 192.172 188.219 192.73C188.219 193.282 188.435 193.709 188.867 194.011C189.294 194.313 189.958 194.464 190.859 194.464Z" fill="#0C55FF"/>
<path d="M186.547 184.945L187.523 184.875C186.768 184.271 186.391 183.461 186.391 182.445C186.391 181.549 186.654 180.883 187.18 180.445C187.706 180.008 188.492 179.784 189.539 179.773L195 179.773V182.031L189.594 182.031C189.115 182.031 188.768 182.135 188.555 182.344C188.336 182.552 188.227 182.898 188.227 183.383C188.227 184.018 188.497 184.495 189.039 184.813L195 184.812V187.07L186.547 187.07L186.547 184.945Z" fill="#0C55FF"/>
<path d="M383.792 421.523H380.308V431H377.964V421.523H374.527V419.625H383.792V421.523Z" fill="#0C55FF"/>
<path d="M387.67 431H385.405V422.547H387.67V431ZM385.272 420.359C385.272 420.021 385.384 419.742 385.608 419.523C385.837 419.305 386.147 419.195 386.537 419.195C386.923 419.195 387.23 419.305 387.459 419.523C387.689 419.742 387.803 420.021 387.803 420.359C387.803 420.703 387.686 420.984 387.452 421.203C387.222 421.422 386.918 421.531 386.537 421.531C386.157 421.531 385.85 421.422 385.616 421.203C385.386 420.984 385.272 420.703 385.272 420.359Z" fill="#0C55FF"/>
<path d="M391.955 422.547L392.025 423.492C392.624 422.758 393.434 422.391 394.455 422.391C395.543 422.391 396.291 422.82 396.697 423.68C397.291 422.82 398.137 422.391 399.236 422.391C400.153 422.391 400.835 422.659 401.283 423.195C401.731 423.727 401.955 424.529 401.955 425.602V431H399.689V425.609C399.689 425.13 399.595 424.781 399.408 424.562C399.22 424.339 398.89 424.227 398.416 424.227C397.739 424.227 397.27 424.549 397.009 425.195L397.017 431H394.759V425.617C394.759 425.128 394.663 424.773 394.47 424.555C394.278 424.336 393.949 424.227 393.486 424.227C392.845 424.227 392.382 424.492 392.095 425.023V431H389.837V422.547H391.955Z" fill="#0C55FF"/>
<path d="M407.887 431.156C406.648 431.156 405.637 430.776 404.856 430.016C404.08 429.255 403.692 428.242 403.692 426.977V426.758C403.692 425.909 403.856 425.151 404.184 424.484C404.512 423.812 404.976 423.297 405.575 422.938C406.179 422.573 406.867 422.391 407.637 422.391C408.794 422.391 409.703 422.755 410.364 423.484C411.031 424.214 411.364 425.247 411.364 426.586V427.508H405.981C406.054 428.06 406.273 428.503 406.637 428.836C407.007 429.169 407.473 429.336 408.036 429.336C408.906 429.336 409.585 429.021 410.075 428.391L411.184 429.633C410.846 430.112 410.387 430.487 409.809 430.758C409.231 431.023 408.591 431.156 407.887 431.156ZM407.63 424.219C407.182 424.219 406.817 424.37 406.536 424.672C406.26 424.974 406.083 425.406 406.005 425.969H409.145V425.789C409.135 425.289 408.999 424.904 408.739 424.633C408.479 424.357 408.109 424.219 407.63 424.219Z" fill="#0C55FF"/>
</svg>
