<svg width="760" height="406" viewBox="0 0 760 406" fill="none" xmlns="http://www.w3.org/2000/svg">
<rect width="760" height="406" fill="white"/>
<rect x="184.5" y="84.5" width="277" height="46" fill="#E8F0FE" stroke="#DADCE0"/>
<rect x="216.5" y="176.5" width="313" height="61" fill="#F3F4F4" stroke="#C4C4C4"/>
<rect x="223.5" y="183.5" width="146" height="47" fill="#DBFCFF" stroke="#DADCE0"/>
<rect x="375.5" y="183.5" width="147" height="47" fill="#EFE1FF" stroke="#DADCE0"/>
<path d="M199.8 118.432C198.768 118.432 197.916 118.096 197.244 117.424C196.572 116.728 196.236 115.852 196.236 114.796C196.236 113.74 196.572 112.876 197.244 112.204C197.916 111.508 198.768 111.16 199.8 111.16C200.832 111.16 201.684 111.508 202.356 112.204C203.028 112.876 203.364 113.74 203.364 114.796C203.364 115.852 203.028 116.728 202.356 117.424C201.684 118.096 200.832 118.432 199.8 118.432Z" fill="#242526"/>
<path d="M212.542 118V100.324H215.746L216.07 102.556H216.178C216.562 101.788 217.054 101.152 217.654 100.648C218.254 100.144 219.07 99.892 220.102 99.892C221.758 99.892 222.826 100.876 223.306 102.844C223.714 101.98 224.23 101.272 224.854 100.72C225.478 100.168 226.306 99.892 227.338 99.892C228.586 99.892 229.546 100.384 230.218 101.368C230.914 102.328 231.262 103.696 231.262 105.472V118H227.266V105.76C227.266 104.2 226.798 103.42 225.862 103.42C225.382 103.42 224.974 103.612 224.638 103.996C224.326 104.356 223.99 104.908 223.63 105.652V118H220.174V105.76C220.174 104.992 220.066 104.416 219.85 104.032C219.634 103.624 219.274 103.42 218.77 103.42C218.29 103.42 217.882 103.612 217.546 103.996C217.234 104.356 216.91 104.908 216.574 105.652V118H212.542Z" fill="#242526"/>
<path d="M237.704 125.272C237.224 125.272 236.768 125.236 236.336 125.164C235.904 125.116 235.52 125.032 235.184 124.912L235.976 121.672C236.216 121.744 236.456 121.804 236.696 121.852C236.936 121.9 237.188 121.924 237.452 121.924C238.58 121.924 239.48 121.636 240.152 121.06C240.824 120.508 241.34 119.788 241.7 118.9L242.132 117.784L234.212 100.324H238.352L241.988 109C242.324 109.792 242.648 110.632 242.96 111.52C243.272 112.408 243.596 113.296 243.932 114.184H244.076C244.34 113.344 244.628 112.48 244.94 111.592C245.252 110.704 245.552 109.84 245.84 109L249.044 100.324H252.968L245.588 118.792C245.204 119.8 244.772 120.7 244.292 121.492C243.836 122.284 243.296 122.956 242.672 123.508C242.048 124.084 241.328 124.516 240.512 124.804C239.696 125.116 238.76 125.272 237.704 125.272Z" fill="#242526"/>
<path d="M257.466 107.632V104.608H273.45V107.632H257.466Z" fill="#242526"/>
<path d="M288.928 118.432C287.536 118.432 286.24 118.228 285.04 117.82C283.864 117.412 282.832 116.812 281.944 116.02C281.08 115.228 280.396 114.256 279.892 113.104C279.412 111.952 279.172 110.644 279.172 109.18C279.172 107.716 279.436 106.408 279.964 105.256C280.516 104.104 281.248 103.132 282.16 102.34C283.072 101.548 284.14 100.948 285.364 100.54C286.588 100.108 287.872 99.892 289.216 99.892C290.656 99.892 291.916 100.132 292.996 100.612C294.1 101.092 295.024 101.68 295.768 102.376L293.788 104.968C293.092 104.416 292.384 103.996 291.664 103.708C290.968 103.42 290.224 103.276 289.432 103.276C287.656 103.276 286.216 103.816 285.112 104.896C284.008 105.952 283.456 107.38 283.456 109.18C283.456 110.068 283.6 110.872 283.888 111.592C284.176 112.312 284.572 112.936 285.076 113.464C285.604 113.968 286.228 114.364 286.948 114.652C287.668 114.916 288.46 115.048 289.324 115.048C290.332 115.048 291.244 114.856 292.06 114.472C292.9 114.088 293.668 113.632 294.364 113.104L296.092 115.768C295.06 116.656 293.92 117.328 292.672 117.784C291.448 118.216 290.2 118.432 288.928 118.432Z" fill="#242526"/>
<path d="M309.338 118.432C307.682 118.432 306.098 118.168 304.586 117.64C303.074 117.088 301.766 116.44 300.662 115.696L302.462 113.068C303.542 113.764 304.682 114.316 305.882 114.724C307.106 115.108 308.438 115.3 309.878 115.3C311.102 115.3 312.002 115.096 312.578 114.688C313.178 114.28 313.478 113.776 313.478 113.176C313.478 112.888 313.418 112.636 313.298 112.42C313.178 112.18 312.938 111.952 312.578 111.736C312.218 111.52 311.714 111.316 311.066 111.124C310.442 110.932 309.614 110.728 308.582 110.512C306.206 110.032 304.466 109.36 303.362 108.496C302.282 107.632 301.742 106.528 301.742 105.184C301.742 103.624 302.414 102.352 303.758 101.368C305.102 100.384 307.022 99.892 309.518 99.892C310.982 99.892 312.35 100.132 313.622 100.612C314.894 101.092 315.986 101.632 316.898 102.232L314.99 104.788C314.126 104.236 313.202 103.804 312.218 103.492C311.234 103.18 310.214 103.024 309.158 103.024C307.982 103.024 307.142 103.216 306.638 103.6C306.134 103.96 305.882 104.416 305.882 104.968C305.882 105.592 306.242 106.06 306.962 106.372C307.682 106.684 308.858 107.02 310.49 107.38C311.906 107.692 313.07 108.028 313.982 108.388C314.894 108.748 315.614 109.156 316.142 109.612C316.694 110.044 317.078 110.536 317.294 111.088C317.51 111.64 317.618 112.264 317.618 112.96C317.618 113.728 317.438 114.448 317.078 115.12C316.718 115.768 316.19 116.344 315.494 116.848C314.798 117.328 313.934 117.712 312.902 118C311.87 118.288 310.682 118.432 309.338 118.432Z" fill="#242526"/>
<path d="M331.224 118.432C329.568 118.432 327.984 118.168 326.472 117.64C324.96 117.088 323.652 116.44 322.548 115.696L324.348 113.068C325.428 113.764 326.568 114.316 327.768 114.724C328.992 115.108 330.324 115.3 331.764 115.3C332.988 115.3 333.888 115.096 334.464 114.688C335.064 114.28 335.364 113.776 335.364 113.176C335.364 112.888 335.304 112.636 335.184 112.42C335.064 112.18 334.824 111.952 334.464 111.736C334.104 111.52 333.6 111.316 332.952 111.124C332.328 110.932 331.5 110.728 330.468 110.512C328.092 110.032 326.352 109.36 325.248 108.496C324.168 107.632 323.628 106.528 323.628 105.184C323.628 103.624 324.3 102.352 325.644 101.368C326.988 100.384 328.908 99.892 331.404 99.892C332.868 99.892 334.236 100.132 335.508 100.612C336.78 101.092 337.872 101.632 338.784 102.232L336.876 104.788C336.012 104.236 335.088 103.804 334.104 103.492C333.12 103.18 332.1 103.024 331.044 103.024C329.868 103.024 329.028 103.216 328.524 103.6C328.02 103.96 327.768 104.416 327.768 104.968C327.768 105.592 328.128 106.06 328.848 106.372C329.568 106.684 330.744 107.02 332.376 107.38C333.792 107.692 334.956 108.028 335.868 108.388C336.78 108.748 337.5 109.156 338.028 109.612C338.58 110.044 338.964 110.536 339.18 111.088C339.396 111.64 339.504 112.264 339.504 112.96C339.504 113.728 339.324 114.448 338.964 115.12C338.604 115.768 338.076 116.344 337.38 116.848C336.684 117.328 335.82 117.712 334.788 118C333.756 118.288 332.568 118.432 331.224 118.432Z" fill="#242526"/>
<path d="M345.01 107.632V104.608H360.994V107.632H345.01Z" fill="#242526"/>
<path d="M368.767 118V100.324H372.187L372.547 104.32H372.655C373.567 102.88 374.659 101.788 375.931 101.044C377.227 100.276 378.643 99.892 380.179 99.892C380.899 99.892 381.511 99.952 382.015 100.072C382.543 100.168 383.071 100.348 383.599 100.612L382.735 104.104C382.159 103.912 381.643 103.78 381.187 103.708C380.755 103.612 380.203 103.564 379.531 103.564C378.307 103.564 377.131 103.912 376.003 104.608C374.875 105.304 373.855 106.516 372.943 108.244V118H368.767Z" fill="#242526"/>
<path d="M394.397 118.432C392.333 118.432 390.833 117.82 389.897 116.596C388.961 115.348 388.493 113.572 388.493 111.268V100.324H392.633V110.728C392.633 112.168 392.873 113.224 393.353 113.896C393.857 114.544 394.721 114.868 395.945 114.868C396.785 114.868 397.529 114.676 398.177 114.292C398.849 113.908 399.581 113.224 400.373 112.24V100.324H404.513V118H401.129L400.805 115.192H400.661C399.821 116.176 398.897 116.968 397.889 117.568C396.881 118.144 395.717 118.432 394.397 118.432Z" fill="#242526"/>
<path d="M422.295 118.432C420.231 118.432 418.659 117.832 417.579 116.632C416.523 115.432 415.995 113.74 415.995 111.556V95.86H410.091V92.584H420.135V111.772C420.135 112.972 420.435 113.824 421.035 114.328C421.659 114.808 422.415 115.048 423.303 115.048C424.239 115.048 425.247 114.82 426.327 114.364L427.299 117.424C426.435 117.76 425.643 118.012 424.923 118.18C424.203 118.348 423.327 118.432 422.295 118.432Z" fill="#242526"/>
<path d="M441.625 118.432C440.281 118.432 439.021 118.228 437.845 117.82C436.669 117.388 435.637 116.776 434.749 115.984C433.885 115.192 433.201 114.22 432.697 113.068C432.193 111.916 431.941 110.608 431.941 109.144C431.941 107.704 432.193 106.42 432.697 105.292C433.201 104.14 433.873 103.168 434.713 102.376C435.577 101.56 436.549 100.948 437.629 100.54C438.733 100.108 439.885 99.892 441.085 99.892C442.405 99.892 443.569 100.108 444.577 100.54C445.585 100.948 446.437 101.524 447.133 102.268C447.829 102.988 448.357 103.864 448.717 104.896C449.077 105.928 449.257 107.056 449.257 108.28C449.257 108.688 449.233 109.084 449.185 109.468C449.161 109.828 449.125 110.128 449.077 110.368H436.081C436.321 112.024 436.981 113.248 438.061 114.04C439.141 114.832 440.509 115.228 442.165 115.228C443.101 115.228 443.965 115.096 444.757 114.832C445.549 114.568 446.341 114.208 447.133 113.752L448.537 116.344C447.601 116.968 446.533 117.472 445.333 117.856C444.157 118.24 442.921 118.432 441.625 118.432ZM441.193 103.096C439.969 103.096 438.889 103.456 437.953 104.176C437.041 104.896 436.453 105.976 436.189 107.416H445.585C445.441 105.976 444.985 104.896 444.217 104.176C443.473 103.456 442.465 103.096 441.193 103.096Z" fill="#242526"/>
<path d="M488.997 123.472C487.845 123.472 486.849 123.388 486.009 123.22C485.169 123.076 484.473 122.812 483.921 122.428C483.369 122.044 482.961 121.528 482.697 120.88C482.433 120.256 482.301 119.464 482.301 118.504C482.301 117.856 482.313 117.268 482.337 116.74C482.385 116.188 482.433 115.66 482.481 115.156C482.529 114.652 482.565 114.148 482.589 113.644C482.637 113.116 482.661 112.552 482.661 111.952C482.661 111.64 482.589 111.328 482.445 111.016C482.301 110.68 482.037 110.392 481.653 110.152C481.269 109.888 480.741 109.672 480.069 109.504C479.421 109.336 478.593 109.252 477.585 109.252V106.732C478.593 106.732 479.421 106.648 480.069 106.48C480.741 106.312 481.269 106.108 481.653 105.868C482.037 105.604 482.301 105.316 482.445 105.004C482.589 104.692 482.661 104.368 482.661 104.032C482.661 102.904 482.601 101.848 482.481 100.864C482.361 99.856 482.301 98.728 482.301 97.48C482.301 96.52 482.433 95.728 482.697 95.104C482.961 94.456 483.369 93.94 483.921 93.556C484.473 93.172 485.169 92.908 486.009 92.764C486.849 92.596 487.845 92.512 488.997 92.512H491.481V94.78H489.825C488.985 94.78 488.301 94.828 487.773 94.924C487.245 95.02 486.825 95.188 486.513 95.428C486.225 95.644 486.021 95.944 485.901 96.328C485.805 96.688 485.757 97.132 485.757 97.66C485.757 98.668 485.781 99.676 485.829 100.684C485.901 101.692 485.937 102.748 485.937 103.852C485.937 105.124 485.685 106.072 485.181 106.696C484.677 107.296 483.789 107.704 482.517 107.92V108.064C483.789 108.28 484.677 108.7 485.181 109.324C485.685 109.924 485.937 110.86 485.937 112.132C485.937 113.284 485.901 114.34 485.829 115.3C485.781 116.26 485.757 117.268 485.757 118.324C485.757 118.876 485.805 119.332 485.901 119.692C486.021 120.052 486.225 120.34 486.513 120.556C486.825 120.796 487.245 120.964 487.773 121.06C488.301 121.156 488.985 121.204 489.825 121.204H491.481V123.472H488.997Z" fill="#242526"/>
<path d="M244.616 168.432C243.776 168.432 242.9 168.228 241.988 167.82C241.076 167.412 240.236 166.824 239.468 166.056H239.36L239 168H235.724V142.584H239.9V149.136L239.72 152.232H239.828C240.572 151.512 241.412 150.948 242.348 150.54C243.308 150.108 244.268 149.892 245.228 149.892C246.38 149.892 247.4 150.108 248.288 150.54C249.176 150.948 249.932 151.548 250.556 152.34C251.18 153.108 251.648 154.044 251.96 155.148C252.296 156.252 252.464 157.488 252.464 158.856C252.464 160.368 252.248 161.724 251.816 162.924C251.384 164.1 250.796 165.096 250.052 165.912C249.332 166.728 248.492 167.352 247.532 167.784C246.596 168.216 245.624 168.432 244.616 168.432ZM243.788 165.012C245.036 165.012 246.08 164.508 246.92 163.5C247.76 162.468 248.18 160.944 248.18 158.928C248.18 157.152 247.856 155.772 247.208 154.788C246.56 153.804 245.516 153.312 244.076 153.312C243.404 153.312 242.72 153.48 242.024 153.816C241.328 154.152 240.62 154.692 239.9 155.436V163.392C240.548 163.992 241.22 164.412 241.916 164.652C242.612 164.892 243.236 165.012 243.788 165.012Z" fill="#242526"/>
<path d="M263.118 168.432C262.254 168.432 261.462 168.3 260.742 168.036C260.022 167.796 259.398 167.448 258.87 166.992C258.342 166.536 257.934 165.996 257.646 165.372C257.358 164.724 257.214 164.016 257.214 163.248C257.214 162.264 257.442 161.4 257.898 160.656C258.354 159.888 259.074 159.24 260.058 158.712C261.042 158.184 262.302 157.752 263.838 157.416C265.374 157.08 267.234 156.84 269.418 156.696C269.346 155.688 268.986 154.86 268.338 154.212C267.69 153.564 266.646 153.24 265.206 153.24C264.198 153.24 263.202 153.432 262.218 153.816C261.258 154.176 260.322 154.608 259.41 155.112L257.898 152.34C258.978 151.716 260.214 151.152 261.606 150.648C262.998 150.144 264.45 149.892 265.962 149.892C268.434 149.892 270.318 150.552 271.614 151.872C272.91 153.168 273.558 155.052 273.558 157.524V168H270.174L269.85 165.804H269.742C268.806 166.524 267.762 167.148 266.61 167.676C265.482 168.18 264.318 168.432 263.118 168.432ZM264.378 165.192C265.266 165.192 266.118 165 266.934 164.616C267.774 164.208 268.602 163.68 269.418 163.032V159.288C267.834 159.408 266.514 159.576 265.458 159.792C264.402 159.984 263.562 160.236 262.938 160.548C262.314 160.86 261.87 161.22 261.606 161.628C261.342 162.012 261.21 162.444 261.21 162.924C261.21 163.716 261.51 164.292 262.11 164.652C262.734 165.012 263.49 165.192 264.378 165.192Z" fill="#242526"/>
<path d="M288.928 168.432C287.536 168.432 286.24 168.228 285.04 167.82C283.864 167.412 282.832 166.812 281.944 166.02C281.08 165.228 280.396 164.256 279.892 163.104C279.412 161.952 279.172 160.644 279.172 159.18C279.172 157.716 279.436 156.408 279.964 155.256C280.516 154.104 281.248 153.132 282.16 152.34C283.072 151.548 284.14 150.948 285.364 150.54C286.588 150.108 287.872 149.892 289.216 149.892C290.656 149.892 291.916 150.132 292.996 150.612C294.1 151.092 295.024 151.68 295.768 152.376L293.788 154.968C293.092 154.416 292.384 153.996 291.664 153.708C290.968 153.42 290.224 153.276 289.432 153.276C287.656 153.276 286.216 153.816 285.112 154.896C284.008 155.952 283.456 157.38 283.456 159.18C283.456 160.068 283.6 160.872 283.888 161.592C284.176 162.312 284.572 162.936 285.076 163.464C285.604 163.968 286.228 164.364 286.948 164.652C287.668 164.916 288.46 165.048 289.324 165.048C290.332 165.048 291.244 164.856 292.06 164.472C292.9 164.088 293.668 163.632 294.364 163.104L296.092 165.768C295.06 166.656 293.92 167.328 292.672 167.784C291.448 168.216 290.2 168.432 288.928 168.432Z" fill="#242526"/>
<path d="M301.67 168V142.584H305.846V158.496H305.99L313.946 150.324H318.554L311.678 157.38L319.31 168H314.774L309.194 159.936L305.846 163.392V168H301.67Z" fill="#242526"/>
<path d="M330.612 175.812C329.388 175.812 328.284 175.716 327.3 175.524C326.316 175.332 325.464 175.032 324.744 174.624C324.048 174.24 323.508 173.748 323.124 173.148C322.74 172.572 322.548 171.888 322.548 171.096C322.548 169.656 323.484 168.42 325.356 167.388V167.244C324.876 166.956 324.456 166.584 324.096 166.128C323.736 165.648 323.556 165.036 323.556 164.292C323.556 163.716 323.748 163.128 324.132 162.528C324.516 161.928 325.032 161.412 325.68 160.98V160.836C325.056 160.38 324.516 159.768 324.06 159C323.628 158.232 323.412 157.32 323.412 156.264C323.412 155.256 323.604 154.356 323.988 153.564C324.396 152.772 324.924 152.112 325.572 151.584C326.244 151.032 327.012 150.612 327.876 150.324C328.764 150.036 329.7 149.892 330.684 149.892C331.692 149.892 332.616 150.036 333.456 150.324H340.692V153.492H336.624C336.936 153.828 337.2 154.26 337.416 154.788C337.656 155.292 337.776 155.832 337.776 156.408C337.776 157.392 337.584 158.256 337.2 159C336.84 159.744 336.336 160.368 335.688 160.872C335.064 161.376 334.32 161.76 333.456 162.024C332.592 162.288 331.668 162.42 330.684 162.42C329.844 162.42 328.944 162.252 327.984 161.916C327.264 162.348 326.904 162.9 326.904 163.572C326.904 164.676 328.02 165.228 330.252 165.228H333.852C336.156 165.228 337.884 165.564 339.036 166.236C340.212 166.884 340.8 167.988 340.8 169.548C340.8 170.412 340.56 171.228 340.08 171.996C339.6 172.764 338.916 173.424 338.028 173.976C337.164 174.552 336.096 174.996 334.824 175.308C333.576 175.644 332.172 175.812 330.612 175.812ZM330.684 159.792C331.596 159.792 332.376 159.492 333.024 158.892C333.696 158.268 334.032 157.392 334.032 156.264C334.032 155.184 333.696 154.332 333.024 153.708C332.376 153.084 331.596 152.772 330.684 152.772C329.772 152.772 328.98 153.084 328.308 153.708C327.66 154.332 327.336 155.184 327.336 156.264C327.336 157.392 327.66 158.268 328.308 158.892C328.98 159.492 329.772 159.792 330.684 159.792ZM331.116 173.076C331.98 173.076 332.76 172.992 333.456 172.824C334.152 172.68 334.752 172.476 335.256 172.212C335.76 171.948 336.144 171.648 336.408 171.312C336.672 170.976 336.804 170.616 336.804 170.232C336.804 169.536 336.504 169.068 335.904 168.828C335.328 168.612 334.44 168.504 333.24 168.504H330.432C329.304 168.504 328.404 168.42 327.732 168.252C327.108 168.612 326.664 168.984 326.4 169.368C326.136 169.752 326.004 170.148 326.004 170.556C326.004 171.348 326.436 171.96 327.3 172.392C328.188 172.848 329.46 173.076 331.116 173.076Z" fill="#242526"/>
<path d="M346.882 168V150.324H350.302L350.662 154.32H350.77C351.682 152.88 352.774 151.788 354.046 151.044C355.342 150.276 356.758 149.892 358.294 149.892C359.014 149.892 359.626 149.952 360.13 150.072C360.658 150.168 361.186 150.348 361.714 150.612L360.85 154.104C360.274 153.912 359.758 153.78 359.302 153.708C358.87 153.612 358.318 153.564 357.646 153.564C356.422 153.564 355.246 153.912 354.118 154.608C352.99 155.304 351.97 156.516 351.058 158.244V168H346.882Z" fill="#242526"/>
<path d="M374.887 168.432C373.735 168.432 372.619 168.228 371.539 167.82C370.459 167.412 369.511 166.812 368.695 166.02C367.879 165.228 367.219 164.256 366.715 163.104C366.235 161.952 365.995 160.644 365.995 159.18C365.995 157.716 366.235 156.408 366.715 155.256C367.219 154.104 367.879 153.132 368.695 152.34C369.511 151.548 370.459 150.948 371.539 150.54C372.619 150.108 373.735 149.892 374.887 149.892C376.039 149.892 377.155 150.108 378.235 150.54C379.315 150.948 380.263 151.548 381.079 152.34C381.895 153.132 382.543 154.104 383.023 155.256C383.527 156.408 383.779 157.716 383.779 159.18C383.779 160.644 383.527 161.952 383.023 163.104C382.543 164.256 381.895 165.228 381.079 166.02C380.263 166.812 379.315 167.412 378.235 167.82C377.155 168.228 376.039 168.432 374.887 168.432ZM374.887 165.048C376.327 165.048 377.455 164.52 378.271 163.464C379.087 162.384 379.495 160.956 379.495 159.18C379.495 157.38 379.087 155.952 378.271 154.896C377.455 153.816 376.327 153.276 374.887 153.276C373.447 153.276 372.319 153.816 371.503 154.896C370.687 155.952 370.279 157.38 370.279 159.18C370.279 160.956 370.687 162.384 371.503 163.464C372.319 164.52 373.447 165.048 374.887 165.048Z" fill="#242526"/>
<path d="M394.397 168.432C392.333 168.432 390.833 167.82 389.897 166.596C388.961 165.348 388.493 163.572 388.493 161.268V150.324H392.633V160.728C392.633 162.168 392.873 163.224 393.353 163.896C393.857 164.544 394.721 164.868 395.945 164.868C396.785 164.868 397.529 164.676 398.177 164.292C398.849 163.908 399.581 163.224 400.373 162.24V150.324H404.513V168H401.129L400.805 165.192H400.661C399.821 166.176 398.897 166.968 397.889 167.568C396.881 168.144 395.717 168.432 394.397 168.432Z" fill="#242526"/>
<path d="M410.811 168V150.324H414.231L414.555 152.988H414.699C415.539 152.148 416.463 151.428 417.471 150.828C418.503 150.204 419.703 149.892 421.071 149.892C423.111 149.892 424.611 150.516 425.571 151.764C426.531 152.988 427.011 154.752 427.011 157.056V168H422.835V157.596C422.835 156.156 422.583 155.112 422.079 154.464C421.599 153.792 420.747 153.456 419.523 153.456C418.659 153.456 417.891 153.66 417.219 154.068C416.547 154.476 415.803 155.1 414.987 155.94V168H410.811Z" fill="#242526"/>
<path d="M439.213 168.432C438.085 168.432 437.053 168.228 436.117 167.82C435.181 167.388 434.377 166.776 433.705 165.984C433.057 165.192 432.553 164.232 432.193 163.104C431.833 161.952 431.653 160.644 431.653 159.18C431.653 157.74 431.869 156.444 432.301 155.292C432.733 154.14 433.309 153.168 434.029 152.376C434.773 151.584 435.613 150.972 436.549 150.54C437.485 150.108 438.457 149.892 439.465 149.892C440.473 149.892 441.361 150.072 442.129 150.432C442.897 150.792 443.629 151.308 444.325 151.98H444.433L444.217 148.992V142.584H448.393V168H444.973L444.649 165.948H444.541C443.845 166.644 443.029 167.232 442.093 167.712C441.181 168.192 440.221 168.432 439.213 168.432ZM440.221 165.012C441.685 165.012 443.017 164.304 444.217 162.888V154.932C443.593 154.332 442.969 153.912 442.345 153.672C441.721 153.432 441.085 153.312 440.437 153.312C439.813 153.312 439.225 153.444 438.673 153.708C438.145 153.972 437.677 154.356 437.269 154.86C436.861 155.34 436.537 155.94 436.297 156.66C436.057 157.38 435.937 158.208 435.937 159.144C435.937 161.064 436.309 162.528 437.053 163.536C437.797 164.52 438.853 165.012 440.221 165.012Z" fill="#242526"/>
<path d="M462.431 156.192C461.399 156.192 460.547 155.856 459.875 155.184C459.203 154.488 458.867 153.612 458.867 152.556C458.867 151.5 459.203 150.636 459.875 149.964C460.547 149.268 461.399 148.92 462.431 148.92C463.463 148.92 464.315 149.268 464.987 149.964C465.659 150.636 465.995 151.5 465.995 152.556C465.995 153.612 465.659 154.488 464.987 155.184C464.315 155.856 463.463 156.192 462.431 156.192ZM462.431 168.432C461.399 168.432 460.547 168.096 459.875 167.424C459.203 166.728 458.867 165.852 458.867 164.796C458.867 163.74 459.203 162.876 459.875 162.204C460.547 161.508 461.399 161.16 462.431 161.16C463.463 161.16 464.315 161.508 464.987 162.204C465.659 162.876 465.995 163.74 465.995 164.796C465.995 165.852 465.659 166.728 464.987 167.424C464.315 168.096 463.463 168.432 462.431 168.432Z" fill="#242526"/>
<path d="M500.083 168V150.324H503.503L503.863 154.32H503.971C504.883 152.88 505.975 151.788 507.247 151.044C508.543 150.276 509.959 149.892 511.495 149.892C512.215 149.892 512.827 149.952 513.331 150.072C513.859 150.168 514.387 150.348 514.915 150.612L514.051 154.104C513.475 153.912 512.959 153.78 512.503 153.708C512.071 153.612 511.519 153.564 510.847 153.564C509.623 153.564 508.447 153.912 507.319 154.608C506.191 155.304 505.171 156.516 504.259 158.244V168H500.083Z" fill="#242526"/>
<path d="M529.169 168.432C527.825 168.432 526.565 168.228 525.389 167.82C524.213 167.388 523.181 166.776 522.293 165.984C521.429 165.192 520.745 164.22 520.241 163.068C519.737 161.916 519.485 160.608 519.485 159.144C519.485 157.704 519.737 156.42 520.241 155.292C520.745 154.14 521.417 153.168 522.257 152.376C523.121 151.56 524.093 150.948 525.173 150.54C526.277 150.108 527.429 149.892 528.629 149.892C529.949 149.892 531.113 150.108 532.121 150.54C533.129 150.948 533.981 151.524 534.677 152.268C535.373 152.988 535.901 153.864 536.261 154.896C536.621 155.928 536.801 157.056 536.801 158.28C536.801 158.688 536.777 159.084 536.729 159.468C536.705 159.828 536.669 160.128 536.621 160.368H523.625C523.865 162.024 524.525 163.248 525.605 164.04C526.685 164.832 528.053 165.228 529.709 165.228C530.645 165.228 531.509 165.096 532.301 164.832C533.093 164.568 533.885 164.208 534.677 163.752L536.081 166.344C535.145 166.968 534.077 167.472 532.877 167.856C531.701 168.24 530.465 168.432 529.169 168.432ZM528.737 153.096C527.513 153.096 526.433 153.456 525.497 154.176C524.585 154.896 523.997 155.976 523.733 157.416H533.129C532.985 155.976 532.529 154.896 531.761 154.176C531.017 153.456 530.009 153.096 528.737 153.096Z" fill="#242526"/>
<path d="M548.643 168.432C547.515 168.432 546.483 168.228 545.547 167.82C544.611 167.388 543.807 166.776 543.135 165.984C542.487 165.192 541.983 164.232 541.623 163.104C541.263 161.952 541.083 160.644 541.083 159.18C541.083 157.74 541.299 156.444 541.731 155.292C542.163 154.14 542.739 153.168 543.459 152.376C544.203 151.584 545.043 150.972 545.979 150.54C546.915 150.108 547.887 149.892 548.895 149.892C549.903 149.892 550.791 150.072 551.559 150.432C552.327 150.792 553.059 151.308 553.755 151.98H553.863L553.647 148.992V142.584H557.823V168H554.403L554.079 165.948H553.971C553.275 166.644 552.459 167.232 551.523 167.712C550.611 168.192 549.651 168.432 548.643 168.432ZM549.651 165.012C551.115 165.012 552.447 164.304 553.647 162.888V154.932C553.023 154.332 552.399 153.912 551.775 153.672C551.151 153.432 550.515 153.312 549.867 153.312C549.243 153.312 548.655 153.444 548.103 153.708C547.575 153.972 547.107 154.356 546.699 154.86C546.291 155.34 545.967 155.94 545.727 156.66C545.487 157.38 545.367 158.208 545.367 159.144C545.367 161.064 545.739 162.528 546.483 163.536C547.227 164.52 548.283 165.012 549.651 165.012Z" fill="#242526"/>
<path d="M571.861 156.192C570.829 156.192 569.977 155.856 569.305 155.184C568.633 154.488 568.297 153.612 568.297 152.556C568.297 151.5 568.633 150.636 569.305 149.964C569.977 149.268 570.829 148.92 571.861 148.92C572.893 148.92 573.745 149.268 574.417 149.964C575.089 150.636 575.425 151.5 575.425 152.556C575.425 153.612 575.089 154.488 574.417 155.184C573.745 155.856 572.893 156.192 571.861 156.192ZM568.945 175.74L567.865 173.256C570.865 172.032 572.401 170.184 572.473 167.712C572.353 167.736 572.185 167.748 571.969 167.748C571.057 167.748 570.265 167.484 569.593 166.956C568.921 166.404 568.585 165.6 568.585 164.544C568.585 163.536 568.921 162.756 569.593 162.204C570.289 161.628 571.105 161.34 572.041 161.34C573.337 161.34 574.309 161.82 574.957 162.78C575.605 163.74 575.929 165.06 575.929 166.74C575.929 168.948 575.329 170.808 574.129 172.32C572.929 173.856 571.201 174.996 568.945 175.74Z" fill="#242526"/>
<path d="M245.156 218.432C243.764 218.432 242.468 218.228 241.268 217.82C240.092 217.412 239.06 216.812 238.172 216.02C237.308 215.228 236.624 214.256 236.12 213.104C235.64 211.952 235.4 210.644 235.4 209.18C235.4 207.716 235.664 206.408 236.192 205.256C236.744 204.104 237.476 203.132 238.388 202.34C239.3 201.548 240.368 200.948 241.592 200.54C242.816 200.108 244.1 199.892 245.444 199.892C246.884 199.892 248.144 200.132 249.224 200.612C250.328 201.092 251.252 201.68 251.996 202.376L250.016 204.968C249.32 204.416 248.612 203.996 247.892 203.708C247.196 203.42 246.452 203.276 245.66 203.276C243.884 203.276 242.444 203.816 241.34 204.896C240.236 205.952 239.684 207.38 239.684 209.18C239.684 210.068 239.828 210.872 240.116 211.592C240.404 212.312 240.8 212.936 241.304 213.464C241.832 213.968 242.456 214.364 243.176 214.652C243.896 214.916 244.688 215.048 245.552 215.048C246.56 215.048 247.472 214.856 248.288 214.472C249.128 214.088 249.896 213.632 250.592 213.104L252.32 215.768C251.288 216.656 250.148 217.328 248.9 217.784C247.676 218.216 246.428 218.432 245.156 218.432Z" fill="#242526"/>
<path d="M265.458 218.432C264.306 218.432 263.19 218.228 262.11 217.82C261.03 217.412 260.082 216.812 259.266 216.02C258.45 215.228 257.79 214.256 257.286 213.104C256.806 211.952 256.566 210.644 256.566 209.18C256.566 207.716 256.806 206.408 257.286 205.256C257.79 204.104 258.45 203.132 259.266 202.34C260.082 201.548 261.03 200.948 262.11 200.54C263.19 200.108 264.306 199.892 265.458 199.892C266.61 199.892 267.726 200.108 268.806 200.54C269.886 200.948 270.834 201.548 271.65 202.34C272.466 203.132 273.114 204.104 273.594 205.256C274.098 206.408 274.35 207.716 274.35 209.18C274.35 210.644 274.098 211.952 273.594 213.104C273.114 214.256 272.466 215.228 271.65 216.02C270.834 216.812 269.886 217.412 268.806 217.82C267.726 218.228 266.61 218.432 265.458 218.432ZM265.458 215.048C266.898 215.048 268.026 214.52 268.842 213.464C269.658 212.384 270.066 210.956 270.066 209.18C270.066 207.38 269.658 205.952 268.842 204.896C268.026 203.816 266.898 203.276 265.458 203.276C264.018 203.276 262.89 203.816 262.074 204.896C261.258 205.952 260.85 207.38 260.85 209.18C260.85 210.956 261.258 212.384 262.074 213.464C262.89 214.52 264.018 215.048 265.458 215.048Z" fill="#242526"/>
<path d="M290.98 218.432C288.916 218.432 287.344 217.832 286.264 216.632C285.208 215.432 284.68 213.74 284.68 211.556V195.86H278.776V192.584H288.82V211.772C288.82 212.972 289.12 213.824 289.72 214.328C290.344 214.808 291.1 215.048 291.988 215.048C292.924 215.048 293.932 214.82 295.012 214.364L295.984 217.424C295.12 217.76 294.328 218.012 293.608 218.18C292.888 218.348 292.012 218.432 290.98 218.432Z" fill="#242526"/>
<path d="M309.23 218.432C308.078 218.432 306.962 218.228 305.882 217.82C304.802 217.412 303.854 216.812 303.038 216.02C302.222 215.228 301.562 214.256 301.058 213.104C300.578 211.952 300.338 210.644 300.338 209.18C300.338 207.716 300.578 206.408 301.058 205.256C301.562 204.104 302.222 203.132 303.038 202.34C303.854 201.548 304.802 200.948 305.882 200.54C306.962 200.108 308.078 199.892 309.23 199.892C310.382 199.892 311.498 200.108 312.578 200.54C313.658 200.948 314.606 201.548 315.422 202.34C316.238 203.132 316.886 204.104 317.366 205.256C317.87 206.408 318.122 207.716 318.122 209.18C318.122 210.644 317.87 211.952 317.366 213.104C316.886 214.256 316.238 215.228 315.422 216.02C314.606 216.812 313.658 217.412 312.578 217.82C311.498 218.228 310.382 218.432 309.23 218.432ZM309.23 215.048C310.67 215.048 311.798 214.52 312.614 213.464C313.43 212.384 313.838 210.956 313.838 209.18C313.838 207.38 313.43 205.952 312.614 204.896C311.798 203.816 310.67 203.276 309.23 203.276C307.79 203.276 306.662 203.816 305.846 204.896C305.03 205.952 304.622 207.38 304.622 209.18C304.622 210.956 305.03 212.384 305.846 213.464C306.662 214.52 307.79 215.048 309.23 215.048Z" fill="#242526"/>
<path d="M324.996 218V200.324H328.416L328.776 204.32H328.884C329.796 202.88 330.888 201.788 332.16 201.044C333.456 200.276 334.872 199.892 336.408 199.892C337.128 199.892 337.74 199.952 338.244 200.072C338.772 200.168 339.3 200.348 339.828 200.612L338.964 204.104C338.388 203.912 337.872 203.78 337.416 203.708C336.984 203.612 336.432 203.564 335.76 203.564C334.536 203.564 333.36 203.912 332.232 204.608C331.104 205.304 330.084 206.516 329.172 208.244V218H324.996Z" fill="#242526"/>
<path d="M353.002 206.192C351.97 206.192 351.118 205.856 350.446 205.184C349.774 204.488 349.438 203.612 349.438 202.556C349.438 201.5 349.774 200.636 350.446 199.964C351.118 199.268 351.97 198.92 353.002 198.92C354.034 198.92 354.886 199.268 355.558 199.964C356.23 200.636 356.566 201.5 356.566 202.556C356.566 203.612 356.23 204.488 355.558 205.184C354.886 205.856 354.034 206.192 353.002 206.192ZM353.002 218.432C351.97 218.432 351.118 218.096 350.446 217.424C349.774 216.728 349.438 215.852 349.438 214.796C349.438 213.74 349.774 212.876 350.446 212.204C351.118 211.508 351.97 211.16 353.002 211.16C354.034 211.16 354.886 211.508 355.558 212.204C356.23 212.876 356.566 213.74 356.566 214.796C356.566 215.852 356.23 216.728 355.558 217.424C354.886 218.096 354.034 218.432 353.002 218.432Z" fill="#242526"/>
<path d="M397.817 218.432C396.977 218.432 396.101 218.228 395.189 217.82C394.277 217.412 393.437 216.824 392.669 216.056H392.561L392.201 218H388.925V192.584H393.101V199.136L392.921 202.232H393.029C393.773 201.512 394.613 200.948 395.549 200.54C396.509 200.108 397.469 199.892 398.429 199.892C399.581 199.892 400.601 200.108 401.489 200.54C402.377 200.948 403.133 201.548 403.757 202.34C404.381 203.108 404.849 204.044 405.161 205.148C405.497 206.252 405.665 207.488 405.665 208.856C405.665 210.368 405.449 211.724 405.017 212.924C404.585 214.1 403.997 215.096 403.253 215.912C402.533 216.728 401.693 217.352 400.733 217.784C399.797 218.216 398.825 218.432 397.817 218.432ZM396.989 215.012C398.237 215.012 399.281 214.508 400.121 213.5C400.961 212.468 401.381 210.944 401.381 208.928C401.381 207.152 401.057 205.772 400.409 204.788C399.761 203.804 398.717 203.312 397.277 203.312C396.605 203.312 395.921 203.48 395.225 203.816C394.529 204.152 393.821 204.692 393.101 205.436V213.392C393.749 213.992 394.421 214.412 395.117 214.652C395.813 214.892 396.437 215.012 396.989 215.012Z" fill="#242526"/>
<path d="M419.739 218.432C418.395 218.432 417.135 218.228 415.959 217.82C414.783 217.388 413.751 216.776 412.863 215.984C411.999 215.192 411.315 214.22 410.811 213.068C410.307 211.916 410.055 210.608 410.055 209.144C410.055 207.704 410.307 206.42 410.811 205.292C411.315 204.14 411.987 203.168 412.827 202.376C413.691 201.56 414.663 200.948 415.743 200.54C416.847 200.108 417.999 199.892 419.199 199.892C420.519 199.892 421.683 200.108 422.691 200.54C423.699 200.948 424.551 201.524 425.247 202.268C425.943 202.988 426.471 203.864 426.831 204.896C427.191 205.928 427.371 207.056 427.371 208.28C427.371 208.688 427.347 209.084 427.299 209.468C427.275 209.828 427.239 210.128 427.191 210.368H414.195C414.435 212.024 415.095 213.248 416.175 214.04C417.255 214.832 418.623 215.228 420.279 215.228C421.215 215.228 422.079 215.096 422.871 214.832C423.663 214.568 424.455 214.208 425.247 213.752L426.651 216.344C425.715 216.968 424.647 217.472 423.447 217.856C422.271 218.24 421.035 218.432 419.739 218.432ZM419.307 203.096C418.083 203.096 417.003 203.456 416.067 204.176C415.155 204.896 414.567 205.976 414.303 207.416H423.699C423.555 205.976 423.099 204.896 422.331 204.176C421.587 203.456 420.579 203.096 419.307 203.096Z" fill="#242526"/>
<path d="M440.437 218V203.6H432.769V200.324H444.577V218H440.437ZM442.237 197.084C441.397 197.084 440.689 196.832 440.113 196.328C439.561 195.824 439.285 195.152 439.285 194.312C439.285 193.472 439.561 192.8 440.113 192.296C440.689 191.768 441.397 191.504 442.237 191.504C443.077 191.504 443.773 191.768 444.325 192.296C444.901 192.8 445.189 193.472 445.189 194.312C445.189 195.152 444.901 195.824 444.325 196.328C443.773 196.832 443.077 197.084 442.237 197.084Z" fill="#242526"/>
<path d="M461.927 225.812C460.703 225.812 459.599 225.716 458.615 225.524C457.631 225.332 456.779 225.032 456.059 224.624C455.363 224.24 454.823 223.748 454.439 223.148C454.055 222.572 453.863 221.888 453.863 221.096C453.863 219.656 454.799 218.42 456.671 217.388V217.244C456.191 216.956 455.771 216.584 455.411 216.128C455.051 215.648 454.871 215.036 454.871 214.292C454.871 213.716 455.063 213.128 455.447 212.528C455.831 211.928 456.347 211.412 456.995 210.98V210.836C456.371 210.38 455.831 209.768 455.375 209C454.943 208.232 454.727 207.32 454.727 206.264C454.727 205.256 454.919 204.356 455.303 203.564C455.711 202.772 456.239 202.112 456.887 201.584C457.559 201.032 458.327 200.612 459.191 200.324C460.079 200.036 461.015 199.892 461.999 199.892C463.007 199.892 463.931 200.036 464.771 200.324H472.007V203.492H467.939C468.251 203.828 468.515 204.26 468.731 204.788C468.971 205.292 469.091 205.832 469.091 206.408C469.091 207.392 468.899 208.256 468.515 209C468.155 209.744 467.651 210.368 467.003 210.872C466.379 211.376 465.635 211.76 464.771 212.024C463.907 212.288 462.983 212.42 461.999 212.42C461.159 212.42 460.259 212.252 459.299 211.916C458.579 212.348 458.219 212.9 458.219 213.572C458.219 214.676 459.335 215.228 461.567 215.228H465.167C467.471 215.228 469.199 215.564 470.351 216.236C471.527 216.884 472.115 217.988 472.115 219.548C472.115 220.412 471.875 221.228 471.395 221.996C470.915 222.764 470.231 223.424 469.343 223.976C468.479 224.552 467.411 224.996 466.139 225.308C464.891 225.644 463.487 225.812 461.927 225.812ZM461.999 209.792C462.911 209.792 463.691 209.492 464.339 208.892C465.011 208.268 465.347 207.392 465.347 206.264C465.347 205.184 465.011 204.332 464.339 203.708C463.691 203.084 462.911 202.772 461.999 202.772C461.087 202.772 460.295 203.084 459.623 203.708C458.975 204.332 458.651 205.184 458.651 206.264C458.651 207.392 458.975 208.268 459.623 208.892C460.295 209.492 461.087 209.792 461.999 209.792ZM462.431 223.076C463.295 223.076 464.075 222.992 464.771 222.824C465.467 222.68 466.067 222.476 466.571 222.212C467.075 221.948 467.459 221.648 467.723 221.312C467.987 220.976 468.119 220.616 468.119 220.232C468.119 219.536 467.819 219.068 467.219 218.828C466.643 218.612 465.755 218.504 464.555 218.504H461.747C460.619 218.504 459.719 218.42 459.047 218.252C458.423 218.612 457.979 218.984 457.715 219.368C457.451 219.752 457.319 220.148 457.319 220.556C457.319 221.348 457.751 221.96 458.615 222.392C459.503 222.848 460.775 223.076 462.431 223.076Z" fill="#242526"/>
<path d="M485.397 218.432C484.053 218.432 482.793 218.228 481.617 217.82C480.441 217.388 479.409 216.776 478.521 215.984C477.657 215.192 476.973 214.22 476.469 213.068C475.965 211.916 475.713 210.608 475.713 209.144C475.713 207.704 475.965 206.42 476.469 205.292C476.973 204.14 477.645 203.168 478.485 202.376C479.349 201.56 480.321 200.948 481.401 200.54C482.505 200.108 483.657 199.892 484.857 199.892C486.177 199.892 487.341 200.108 488.349 200.54C489.357 200.948 490.209 201.524 490.905 202.268C491.601 202.988 492.129 203.864 492.489 204.896C492.849 205.928 493.029 207.056 493.029 208.28C493.029 208.688 493.005 209.084 492.957 209.468C492.933 209.828 492.897 210.128 492.849 210.368H479.853C480.093 212.024 480.753 213.248 481.833 214.04C482.913 214.832 484.281 215.228 485.937 215.228C486.873 215.228 487.737 215.096 488.529 214.832C489.321 214.568 490.113 214.208 490.905 213.752L492.309 216.344C491.373 216.968 490.305 217.472 489.105 217.856C487.929 218.24 486.693 218.432 485.397 218.432ZM484.965 203.096C483.741 203.096 482.661 203.456 481.725 204.176C480.813 204.896 480.225 205.976 479.961 207.416H489.357C489.213 205.976 488.757 204.896 487.989 204.176C487.245 203.456 486.237 203.096 484.965 203.096Z" fill="#242526"/>
<path d="M506.203 206.192C505.171 206.192 504.319 205.856 503.647 205.184C502.975 204.488 502.639 203.612 502.639 202.556C502.639 201.5 502.975 200.636 503.647 199.964C504.319 199.268 505.171 198.92 506.203 198.92C507.235 198.92 508.087 199.268 508.759 199.964C509.431 200.636 509.767 201.5 509.767 202.556C509.767 203.612 509.431 204.488 508.759 205.184C508.087 205.856 507.235 206.192 506.203 206.192ZM503.287 225.74L502.207 223.256C505.207 222.032 506.743 220.184 506.815 217.712C506.695 217.736 506.527 217.748 506.311 217.748C505.399 217.748 504.607 217.484 503.935 216.956C503.263 216.404 502.927 215.6 502.927 214.544C502.927 213.536 503.263 212.756 503.935 212.204C504.631 211.628 505.447 211.34 506.383 211.34C507.679 211.34 508.651 211.82 509.299 212.78C509.947 213.74 510.271 215.06 510.271 216.74C510.271 218.948 509.671 220.808 508.471 222.32C507.271 223.856 505.543 224.996 503.287 225.74Z" fill="#242526"/>
<path d="M240.98 268V253.6H236.084V250.504L240.98 250.324V249.352C240.98 248.32 241.124 247.36 241.412 246.472C241.7 245.584 242.144 244.828 242.744 244.204C243.368 243.556 244.148 243.052 245.084 242.692C246.044 242.332 247.172 242.152 248.468 242.152C249.428 242.152 250.34 242.236 251.204 242.404C252.092 242.572 252.932 242.812 253.724 243.124L252.86 246.184C252.212 245.92 251.576 245.728 250.952 245.608C250.352 245.488 249.692 245.428 248.972 245.428C247.604 245.428 246.608 245.764 245.984 246.436C245.384 247.084 245.084 248.032 245.084 249.28V250.324H251.816V253.6H245.084V268H240.98Z" fill="#242526"/>
<path d="M265.458 268.432C264.306 268.432 263.19 268.228 262.11 267.82C261.03 267.412 260.082 266.812 259.266 266.02C258.45 265.228 257.79 264.256 257.286 263.104C256.806 261.952 256.566 260.644 256.566 259.18C256.566 257.716 256.806 256.408 257.286 255.256C257.79 254.104 258.45 253.132 259.266 252.34C260.082 251.548 261.03 250.948 262.11 250.54C263.19 250.108 264.306 249.892 265.458 249.892C266.61 249.892 267.726 250.108 268.806 250.54C269.886 250.948 270.834 251.548 271.65 252.34C272.466 253.132 273.114 254.104 273.594 255.256C274.098 256.408 274.35 257.716 274.35 259.18C274.35 260.644 274.098 261.952 273.594 263.104C273.114 264.256 272.466 265.228 271.65 266.02C270.834 266.812 269.886 267.412 268.806 267.82C267.726 268.228 266.61 268.432 265.458 268.432ZM265.458 265.048C266.898 265.048 268.026 264.52 268.842 263.464C269.658 262.384 270.066 260.956 270.066 259.18C270.066 257.38 269.658 255.952 268.842 254.896C268.026 253.816 266.898 253.276 265.458 253.276C264.018 253.276 262.89 253.816 262.074 254.896C261.258 255.952 260.85 257.38 260.85 259.18C260.85 260.956 261.258 262.384 262.074 263.464C262.89 264.52 264.018 265.048 265.458 265.048Z" fill="#242526"/>
<path d="M279.496 268V250.324H282.916L283.24 252.988H283.384C284.224 252.148 285.148 251.428 286.156 250.828C287.188 250.204 288.388 249.892 289.756 249.892C291.796 249.892 293.296 250.516 294.256 251.764C295.216 252.988 295.696 254.752 295.696 257.056V268H291.52V257.596C291.52 256.156 291.268 255.112 290.764 254.464C290.284 253.792 289.432 253.456 288.208 253.456C287.344 253.456 286.576 253.66 285.904 254.068C285.232 254.476 284.488 255.1 283.672 255.94V268H279.496Z" fill="#242526"/>
<path d="M312.506 268.432C311.162 268.432 310.022 268.252 309.086 267.892C308.174 267.532 307.43 267.028 306.854 266.38C306.302 265.708 305.894 264.904 305.63 263.968C305.39 263.032 305.27 262 305.27 260.872V253.6H300.554V250.504L305.45 250.324L305.99 244.78H309.41V250.324H317.474V253.6H309.41V260.872C309.41 262.336 309.71 263.416 310.31 264.112C310.934 264.784 312.002 265.12 313.514 265.12C314.258 265.12 314.942 265.06 315.566 264.94C316.19 264.796 316.79 264.616 317.366 264.4L318.158 267.424C317.366 267.688 316.514 267.916 315.602 268.108C314.69 268.324 313.658 268.432 312.506 268.432Z" fill="#242526"/>
<path d="M323.124 257.632V254.608H339.108V257.632H323.124Z" fill="#242526"/>
<path d="M353.11 268.432C351.454 268.432 349.87 268.168 348.358 267.64C346.846 267.088 345.538 266.44 344.434 265.696L346.234 263.068C347.314 263.764 348.454 264.316 349.654 264.724C350.878 265.108 352.21 265.3 353.65 265.3C354.874 265.3 355.774 265.096 356.35 264.688C356.95 264.28 357.25 263.776 357.25 263.176C357.25 262.888 357.19 262.636 357.07 262.42C356.95 262.18 356.71 261.952 356.35 261.736C355.99 261.52 355.486 261.316 354.838 261.124C354.214 260.932 353.386 260.728 352.354 260.512C349.978 260.032 348.238 259.36 347.134 258.496C346.054 257.632 345.514 256.528 345.514 255.184C345.514 253.624 346.186 252.352 347.53 251.368C348.874 250.384 350.794 249.892 353.29 249.892C354.754 249.892 356.122 250.132 357.394 250.612C358.666 251.092 359.758 251.632 360.67 252.232L358.762 254.788C357.898 254.236 356.974 253.804 355.99 253.492C355.006 253.18 353.986 253.024 352.93 253.024C351.754 253.024 350.914 253.216 350.41 253.6C349.906 253.96 349.654 254.416 349.654 254.968C349.654 255.592 350.014 256.06 350.734 256.372C351.454 256.684 352.63 257.02 354.262 257.38C355.678 257.692 356.842 258.028 357.754 258.388C358.666 258.748 359.386 259.156 359.914 259.612C360.466 260.044 360.85 260.536 361.066 261.088C361.282 261.64 361.39 262.264 361.39 262.96C361.39 263.728 361.21 264.448 360.85 265.12C360.49 265.768 359.962 266.344 359.266 266.848C358.57 267.328 357.706 267.712 356.674 268C355.642 268.288 354.454 268.432 353.11 268.432Z" fill="#242526"/>
<path d="M374.779 268V253.6H367.111V250.324H378.919V268H374.779ZM376.579 247.084C375.739 247.084 375.031 246.832 374.455 246.328C373.903 245.824 373.627 245.152 373.627 244.312C373.627 243.472 373.903 242.8 374.455 242.296C375.031 241.768 375.739 241.504 376.579 241.504C377.419 241.504 378.115 241.768 378.667 242.296C379.243 242.8 379.531 243.472 379.531 244.312C379.531 245.152 379.243 245.824 378.667 246.328C378.115 246.832 377.419 247.084 376.579 247.084Z" fill="#242526"/>
<path d="M388.529 268V265.768L399.149 253.6H389.717V250.324H404.981V252.52L394.325 264.688H405.269V268H388.529Z" fill="#242526"/>
<path d="M419.739 268.432C418.395 268.432 417.135 268.228 415.959 267.82C414.783 267.388 413.751 266.776 412.863 265.984C411.999 265.192 411.315 264.22 410.811 263.068C410.307 261.916 410.055 260.608 410.055 259.144C410.055 257.704 410.307 256.42 410.811 255.292C411.315 254.14 411.987 253.168 412.827 252.376C413.691 251.56 414.663 250.948 415.743 250.54C416.847 250.108 417.999 249.892 419.199 249.892C420.519 249.892 421.683 250.108 422.691 250.54C423.699 250.948 424.551 251.524 425.247 252.268C425.943 252.988 426.471 253.864 426.831 254.896C427.191 255.928 427.371 257.056 427.371 258.28C427.371 258.688 427.347 259.084 427.299 259.468C427.275 259.828 427.239 260.128 427.191 260.368H414.195C414.435 262.024 415.095 263.248 416.175 264.04C417.255 264.832 418.623 265.228 420.279 265.228C421.215 265.228 422.079 265.096 422.871 264.832C423.663 264.568 424.455 264.208 425.247 263.752L426.651 266.344C425.715 266.968 424.647 267.472 423.447 267.856C422.271 268.24 421.035 268.432 419.739 268.432ZM419.307 253.096C418.083 253.096 417.003 253.456 416.067 254.176C415.155 254.896 414.567 255.976 414.303 257.416H423.699C423.555 255.976 423.099 254.896 422.331 254.176C421.587 253.456 420.579 253.096 419.307 253.096Z" fill="#242526"/>
<path d="M440.545 256.192C439.513 256.192 438.661 255.856 437.989 255.184C437.317 254.488 436.981 253.612 436.981 252.556C436.981 251.5 437.317 250.636 437.989 249.964C438.661 249.268 439.513 248.92 440.545 248.92C441.577 248.92 442.429 249.268 443.101 249.964C443.773 250.636 444.109 251.5 444.109 252.556C444.109 253.612 443.773 254.488 443.101 255.184C442.429 255.856 441.577 256.192 440.545 256.192ZM440.545 268.432C439.513 268.432 438.661 268.096 437.989 267.424C437.317 266.728 436.981 265.852 436.981 264.796C436.981 263.74 437.317 262.876 437.989 262.204C438.661 261.508 439.513 261.16 440.545 261.16C441.577 261.16 442.429 261.508 443.101 262.204C443.773 262.876 444.109 263.74 444.109 264.796C444.109 265.852 443.773 266.728 443.101 267.424C442.429 268.096 441.577 268.432 440.545 268.432Z" fill="#242526"/>
<path d="M476.685 268V264.616H483.057V249.568H477.981V246.976C478.701 246.88 479.349 246.772 479.925 246.652C480.501 246.508 481.029 246.364 481.509 246.22C482.013 246.076 482.481 245.908 482.913 245.716C483.345 245.524 483.765 245.32 484.173 245.104H487.197V264.616H492.813V268H476.685Z" fill="#242526"/>
<path d="M506.203 268.432C505.171 268.432 504.319 268.096 503.647 267.424C502.975 266.728 502.639 265.852 502.639 264.796C502.639 263.74 502.975 262.876 503.647 262.204C504.319 261.508 505.171 261.16 506.203 261.16C507.235 261.16 508.087 261.508 508.759 262.204C509.431 262.876 509.767 263.74 509.767 264.796C509.767 265.852 509.431 266.728 508.759 267.424C508.087 268.096 507.235 268.432 506.203 268.432Z" fill="#242526"/>
<path d="M519.629 268V265.588C521.429 264.052 523.037 262.648 524.453 261.376C525.869 260.08 527.069 258.88 528.053 257.776C529.061 256.672 529.829 255.64 530.357 254.68C530.885 253.72 531.149 252.796 531.149 251.908C531.149 250.684 530.777 249.724 530.033 249.028C529.289 248.308 528.197 247.948 526.757 247.948C525.749 247.948 524.825 248.2 523.985 248.704C523.169 249.208 522.413 249.808 521.717 250.504L519.449 248.2C520.553 247.072 521.717 246.208 522.941 245.608C524.165 244.984 525.617 244.672 527.297 244.672C528.473 244.672 529.541 244.84 530.501 245.176C531.461 245.512 532.277 245.992 532.949 246.616C533.645 247.216 534.173 247.948 534.533 248.812C534.917 249.676 535.109 250.636 535.109 251.692C535.109 252.7 534.857 253.732 534.353 254.788C533.873 255.82 533.213 256.876 532.373 257.956C531.533 259.012 530.525 260.104 529.349 261.232C528.197 262.36 526.961 263.524 525.641 264.724C526.313 264.676 527.021 264.628 527.765 264.58C528.509 264.508 529.193 264.472 529.817 264.472H536.297V268H519.629Z" fill="#242526"/>
<path d="M543.855 268V250.324H547.275L547.635 254.32H547.743C548.655 252.88 549.747 251.788 551.019 251.044C552.315 250.276 553.731 249.892 555.267 249.892C555.987 249.892 556.599 249.952 557.103 250.072C557.631 250.168 558.159 250.348 558.687 250.612L557.823 254.104C557.247 253.912 556.731 253.78 556.275 253.708C555.843 253.612 555.291 253.564 554.619 253.564C553.395 253.564 552.219 253.912 551.091 254.608C549.963 255.304 548.943 256.516 548.031 258.244V268H543.855Z" fill="#242526"/>
<path d="M572.941 268.432C571.597 268.432 570.337 268.228 569.161 267.82C567.985 267.388 566.953 266.776 566.065 265.984C565.201 265.192 564.517 264.22 564.013 263.068C563.509 261.916 563.257 260.608 563.257 259.144C563.257 257.704 563.509 256.42 564.013 255.292C564.517 254.14 565.189 253.168 566.029 252.376C566.893 251.56 567.865 250.948 568.945 250.54C570.049 250.108 571.201 249.892 572.401 249.892C573.721 249.892 574.885 250.108 575.893 250.54C576.901 250.948 577.753 251.524 578.449 252.268C579.145 252.988 579.673 253.864 580.033 254.896C580.393 255.928 580.573 257.056 580.573 258.28C580.573 258.688 580.549 259.084 580.501 259.468C580.477 259.828 580.441 260.128 580.393 260.368H567.397C567.637 262.024 568.297 263.248 569.377 264.04C570.457 264.832 571.825 265.228 573.481 265.228C574.417 265.228 575.281 265.096 576.073 264.832C576.865 264.568 577.657 264.208 578.449 263.752L579.853 266.344C578.917 266.968 577.849 267.472 576.649 267.856C575.473 268.24 574.237 268.432 572.941 268.432ZM572.509 253.096C571.285 253.096 570.205 253.456 569.269 254.176C568.357 254.896 567.769 255.976 567.505 257.416H576.901C576.757 255.976 576.301 254.896 575.533 254.176C574.789 253.456 573.781 253.096 572.509 253.096Z" fill="#242526"/>
<path d="M584.603 268V250.324H587.807L588.131 252.556H588.239C588.623 251.788 589.115 251.152 589.715 250.648C590.315 250.144 591.131 249.892 592.163 249.892C593.819 249.892 594.887 250.876 595.367 252.844C595.775 251.98 596.291 251.272 596.915 250.72C597.539 250.168 598.367 249.892 599.399 249.892C600.647 249.892 601.607 250.384 602.279 251.368C602.975 252.328 603.323 253.696 603.323 255.472V268H599.327V255.76C599.327 254.2 598.859 253.42 597.923 253.42C597.443 253.42 597.035 253.612 596.699 253.996C596.387 254.356 596.051 254.908 595.691 255.652V268H592.235V255.76C592.235 254.992 592.127 254.416 591.911 254.032C591.695 253.624 591.335 253.42 590.831 253.42C590.351 253.42 589.943 253.612 589.607 253.996C589.295 254.356 588.971 254.908 588.635 255.652V268H584.603Z" fill="#242526"/>
<path d="M615.633 256.192C614.601 256.192 613.749 255.856 613.077 255.184C612.405 254.488 612.069 253.612 612.069 252.556C612.069 251.5 612.405 250.636 613.077 249.964C613.749 249.268 614.601 248.92 615.633 248.92C616.665 248.92 617.517 249.268 618.189 249.964C618.861 250.636 619.197 251.5 619.197 252.556C619.197 253.612 618.861 254.488 618.189 255.184C617.517 255.856 616.665 256.192 615.633 256.192ZM612.717 275.74L611.637 273.256C614.637 272.032 616.173 270.184 616.245 267.712C616.125 267.736 615.957 267.748 615.741 267.748C614.829 267.748 614.037 267.484 613.365 266.956C612.693 266.404 612.357 265.6 612.357 264.544C612.357 263.536 612.693 262.756 613.365 262.204C614.061 261.628 614.877 261.34 615.813 261.34C617.109 261.34 618.081 261.82 618.729 262.78C619.377 263.74 619.701 265.06 619.701 266.74C619.701 268.948 619.101 270.808 617.901 272.32C616.701 273.856 614.973 274.996 612.717 275.74Z" fill="#242526"/>
<path d="M192.672 323.472V321.204H194.328C195.144 321.204 195.816 321.156 196.344 321.06C196.872 320.964 197.292 320.796 197.604 320.556C197.916 320.34 198.12 320.052 198.216 319.692C198.336 319.332 198.396 318.876 198.396 318.324C198.396 317.268 198.36 316.26 198.288 315.3C198.24 314.34 198.216 313.284 198.216 312.132C198.216 310.86 198.456 309.924 198.936 309.324C199.44 308.7 200.34 308.28 201.636 308.064V307.92C200.34 307.704 199.44 307.296 198.936 306.696C198.456 306.072 198.216 305.124 198.216 303.852C198.216 302.748 198.24 301.692 198.288 300.684C198.36 299.676 198.396 298.668 198.396 297.66C198.396 297.132 198.336 296.688 198.216 296.328C198.12 295.944 197.916 295.644 197.604 295.428C197.292 295.188 196.872 295.02 196.344 294.924C195.816 294.828 195.144 294.78 194.328 294.78H192.672V292.512H195.156C196.308 292.512 197.292 292.596 198.108 292.764C198.948 292.908 199.644 293.172 200.196 293.556C200.748 293.94 201.156 294.456 201.42 295.104C201.684 295.728 201.816 296.52 201.816 297.48C201.816 298.728 201.756 299.856 201.636 300.864C201.516 301.848 201.456 302.904 201.456 304.032C201.456 304.368 201.528 304.692 201.672 305.004C201.816 305.316 202.08 305.604 202.464 305.868C202.848 306.108 203.364 306.312 204.012 306.48C204.684 306.648 205.524 306.732 206.532 306.732V309.252C205.524 309.252 204.684 309.336 204.012 309.504C203.364 309.672 202.848 309.888 202.464 310.152C202.08 310.392 201.816 310.68 201.672 311.016C201.528 311.328 201.456 311.64 201.456 311.952C201.456 312.552 201.468 313.116 201.492 313.644C201.54 314.148 201.588 314.652 201.636 315.156C201.684 315.66 201.72 316.188 201.744 316.74C201.792 317.268 201.816 317.856 201.816 318.504C201.816 319.464 201.684 320.256 201.42 320.88C201.156 321.528 200.748 322.044 200.196 322.428C199.644 322.812 198.948 323.076 198.108 323.22C197.292 323.388 196.308 323.472 195.156 323.472H192.672Z" fill="#242526"/>
<path d="M199.646 79.3536C199.842 79.5488 200.158 79.5488 200.354 79.3536L203.536 76.1716C203.731 75.9763 203.731 75.6597 203.536 75.4645C203.34 75.2692 203.024 75.2692 202.828 75.4645L200 78.2929L197.172 75.4645C196.976 75.2692 196.66 75.2692 196.464 75.4645C196.269 75.6597 196.269 75.9763 196.464 76.1716L199.646 79.3536ZM199.5 57L199.5 79L200.5 79L200.5 57L199.5 57Z" fill="black"/>
<path d="M210.914 66.0156C210.914 65.5729 210.758 65.2344 210.445 65C210.133 64.7604 209.57 64.5104 208.758 64.25C207.945 63.9844 207.302 63.724 206.828 63.4688C205.536 62.7708 204.891 61.8307 204.891 60.6484C204.891 60.0339 205.062 59.487 205.406 59.0078C205.755 58.5234 206.253 58.1458 206.898 57.875C207.549 57.6042 208.279 57.4688 209.086 57.4688C209.898 57.4688 210.622 57.6172 211.258 57.9141C211.893 58.2057 212.385 58.6198 212.734 59.1562C213.089 59.6927 213.266 60.3021 213.266 60.9844H210.922C210.922 60.4635 210.758 60.0599 210.43 59.7734C210.102 59.4818 209.641 59.3359 209.047 59.3359C208.474 59.3359 208.029 59.4583 207.711 59.7031C207.393 59.9427 207.234 60.2604 207.234 60.6562C207.234 61.026 207.419 61.3359 207.789 61.5859C208.164 61.8359 208.714 62.0703 209.438 62.2891C210.771 62.6901 211.742 63.1875 212.352 63.7812C212.961 64.375 213.266 65.1146 213.266 66C213.266 66.9844 212.893 67.7578 212.148 68.3203C211.404 68.8776 210.401 69.1562 209.141 69.1562C208.266 69.1562 207.469 68.9974 206.75 68.6797C206.031 68.3568 205.482 67.9167 205.102 67.3594C204.727 66.8021 204.539 66.1562 204.539 65.4219H206.891C206.891 66.6771 207.641 67.3047 209.141 67.3047C209.698 67.3047 210.133 67.1927 210.445 66.9688C210.758 66.7396 210.914 66.4219 210.914 66.0156Z" fill="#3740FF"/>
<path d="M218.902 69.1562C217.662 69.1562 216.652 68.776 215.87 68.0156C215.094 67.2552 214.706 66.2422 214.706 64.9766V64.7578C214.706 63.9089 214.87 63.151 215.198 62.4844C215.527 61.8125 215.99 61.2969 216.589 60.9375C217.193 60.5729 217.881 60.3906 218.652 60.3906C219.808 60.3906 220.717 60.7552 221.378 61.4844C222.045 62.2135 222.378 63.2474 222.378 64.5859V65.5078H216.995C217.068 66.0599 217.287 66.5026 217.652 66.8359C218.021 67.1693 218.488 67.3359 219.05 67.3359C219.92 67.3359 220.599 67.0208 221.089 66.3906L222.198 67.6328C221.86 68.112 221.402 68.487 220.823 68.7578C220.245 69.0234 219.605 69.1562 218.902 69.1562ZM218.644 62.2188C218.196 62.2188 217.831 62.3698 217.55 62.6719C217.274 62.974 217.097 63.4062 217.019 63.9688H220.159V63.7891C220.149 63.2891 220.014 62.9036 219.753 62.6328C219.493 62.3568 219.123 62.2188 218.644 62.2188Z" fill="#3740FF"/>
<path d="M226.35 69H224.084V57H226.35V69Z" fill="#3740FF"/>
<path d="M232.408 69.1562C231.168 69.1562 230.158 68.776 229.377 68.0156C228.601 67.2552 228.212 66.2422 228.212 64.9766V64.7578C228.212 63.9089 228.377 63.151 228.705 62.4844C229.033 61.8125 229.496 61.2969 230.095 60.9375C230.699 60.5729 231.387 60.3906 232.158 60.3906C233.314 60.3906 234.223 60.7552 234.884 61.4844C235.551 62.2135 235.884 63.2474 235.884 64.5859V65.5078H230.502C230.574 66.0599 230.793 66.5026 231.158 66.8359C231.528 67.1693 231.994 67.3359 232.556 67.3359C233.426 67.3359 234.106 67.0208 234.595 66.3906L235.705 67.6328C235.366 68.112 234.908 68.487 234.33 68.7578C233.752 69.0234 233.111 69.1562 232.408 69.1562ZM232.15 62.2188C231.702 62.2188 231.337 62.3698 231.056 62.6719C230.78 62.974 230.603 63.4062 230.525 63.9688H233.666V63.7891C233.655 63.2891 233.52 62.9036 233.259 62.6328C232.999 62.3568 232.629 62.2188 232.15 62.2188Z" fill="#3740FF"/>
<path d="M240.989 67.3359C241.406 67.3359 241.744 67.2214 242.005 66.9922C242.265 66.763 242.401 66.4583 242.411 66.0781H244.528C244.523 66.651 244.367 67.1771 244.059 67.6562C243.752 68.1302 243.33 68.5 242.794 68.7656C242.262 69.026 241.674 69.1562 241.028 69.1562C239.82 69.1562 238.867 68.7734 238.169 68.0078C237.471 67.237 237.122 66.1745 237.122 64.8203V64.6719C237.122 63.3698 237.468 62.3307 238.161 61.5547C238.854 60.7786 239.804 60.3906 241.012 60.3906C242.07 60.3906 242.916 60.6927 243.552 61.2969C244.192 61.8958 244.518 62.6953 244.528 63.6953H242.411C242.401 63.2578 242.265 62.9036 242.005 62.6328C241.744 62.3568 241.401 62.2188 240.973 62.2188C240.447 62.2188 240.049 62.4115 239.778 62.7969C239.512 63.1771 239.38 63.7969 239.38 64.6562V64.8906C239.38 65.7604 239.512 66.3854 239.778 66.7656C240.044 67.1458 240.447 67.3359 240.989 67.3359Z" fill="#3740FF"/>
<path d="M248.82 58.4688V60.5469H250.266V62.2031H248.82V66.4219C248.82 66.7344 248.88 66.9583 249 67.0938C249.12 67.2292 249.349 67.2969 249.688 67.2969C249.938 67.2969 250.159 67.2786 250.352 67.2422V68.9531C249.909 69.0885 249.453 69.1562 248.984 69.1562C247.401 69.1562 246.594 68.3568 246.562 66.7578V62.2031H245.328V60.5469H246.562V58.4688H248.82Z" fill="#3740FF"/>
<path d="M251.238 64.6953C251.238 63.8568 251.399 63.1094 251.722 62.4531C252.045 61.7969 252.508 61.2891 253.113 60.9297C253.722 60.5703 254.428 60.3906 255.23 60.3906C256.37 60.3906 257.3 60.7396 258.019 61.4375C258.743 62.1354 259.146 63.0833 259.23 64.2812L259.245 64.8594C259.245 66.1562 258.883 67.1979 258.159 67.9844C257.435 68.7656 256.464 69.1562 255.245 69.1562C254.027 69.1562 253.053 68.7656 252.323 67.9844C251.599 67.2031 251.238 66.1406 251.238 64.7969V64.6953ZM253.495 64.8594C253.495 65.6615 253.646 66.276 253.948 66.7031C254.251 67.125 254.683 67.3359 255.245 67.3359C255.792 67.3359 256.219 67.1276 256.527 66.7109C256.834 66.2891 256.988 65.6172 256.988 64.6953C256.988 63.9089 256.834 63.2995 256.527 62.8672C256.219 62.4349 255.787 62.2188 255.23 62.2188C254.678 62.2188 254.251 62.4349 253.948 62.8672C253.646 63.2943 253.495 63.9583 253.495 64.8594Z" fill="#3740FF"/>
<path d="M265.686 62.6641C265.379 62.6224 265.108 62.6016 264.873 62.6016C264.019 62.6016 263.459 62.8906 263.194 63.4688V69H260.936V60.5469H263.069L263.131 61.5547C263.584 60.7786 264.212 60.3906 265.014 60.3906C265.264 60.3906 265.498 60.4245 265.717 60.4922L265.686 62.6641Z" fill="#3740FF"/>
<path d="M88.0156 212V200.625H91.5156C92.5156 200.625 93.4089 200.852 94.1953 201.305C94.987 201.753 95.6042 202.393 96.0469 203.227C96.4896 204.055 96.7109 204.997 96.7109 206.055V206.578C96.7109 207.635 96.4922 208.576 96.0547 209.398C95.6224 210.221 95.0104 210.859 94.2188 211.312C93.4271 211.766 92.5339 211.995 91.5391 212H88.0156ZM90.3594 202.523V210.117H91.4922C92.4089 210.117 93.1094 209.818 93.5938 209.219C94.0781 208.62 94.3255 207.763 94.3359 206.648V206.047C94.3359 204.891 94.0964 204.016 93.6172 203.422C93.138 202.823 92.4375 202.523 91.5156 202.523H90.3594Z" fill="#3740FF"/>
<path d="M102.464 212.156C101.224 212.156 100.214 211.776 99.4328 211.016C98.6568 210.255 98.2688 209.242 98.2688 207.977V207.758C98.2688 206.909 98.4328 206.151 98.7609 205.484C99.0891 204.812 99.5526 204.297 100.152 203.938C100.756 203.573 101.443 203.391 102.214 203.391C103.37 203.391 104.279 203.755 104.941 204.484C105.607 205.214 105.941 206.247 105.941 207.586V208.508H100.558C100.631 209.06 100.849 209.503 101.214 209.836C101.584 210.169 102.05 210.336 102.613 210.336C103.482 210.336 104.162 210.021 104.652 209.391L105.761 210.633C105.422 211.112 104.964 211.487 104.386 211.758C103.808 212.023 103.167 212.156 102.464 212.156ZM102.206 205.219C101.758 205.219 101.394 205.37 101.113 205.672C100.836 205.974 100.659 206.406 100.581 206.969H103.722V206.789C103.711 206.289 103.576 205.904 103.316 205.633C103.055 205.357 102.685 205.219 102.206 205.219Z" fill="#3740FF"/>
<path d="M111.045 210.336C111.462 210.336 111.801 210.221 112.061 209.992C112.321 209.763 112.457 209.458 112.467 209.078H114.584C114.579 209.651 114.423 210.177 114.116 210.656C113.808 211.13 113.386 211.5 112.85 211.766C112.319 212.026 111.73 212.156 111.084 212.156C109.876 212.156 108.923 211.773 108.225 211.008C107.527 210.237 107.178 209.174 107.178 207.82V207.672C107.178 206.37 107.524 205.331 108.217 204.555C108.91 203.779 109.86 203.391 111.069 203.391C112.126 203.391 112.972 203.693 113.608 204.297C114.248 204.896 114.574 205.695 114.584 206.695H112.467C112.457 206.258 112.321 205.904 112.061 205.633C111.801 205.357 111.457 205.219 111.03 205.219C110.504 205.219 110.105 205.411 109.834 205.797C109.569 206.177 109.436 206.797 109.436 207.656V207.891C109.436 208.76 109.569 209.385 109.834 209.766C110.1 210.146 110.504 210.336 111.045 210.336Z" fill="#3740FF"/>
<path d="M118.556 212H116.291V200H118.556V212Z" fill="#3740FF"/>
<path d="M125.622 212C125.518 211.797 125.442 211.544 125.395 211.242C124.848 211.852 124.138 212.156 123.263 212.156C122.434 212.156 121.747 211.917 121.2 211.438C120.658 210.958 120.388 210.354 120.388 209.625C120.388 208.729 120.718 208.042 121.38 207.562C122.046 207.083 123.007 206.841 124.263 206.836H125.302V206.352C125.302 205.961 125.2 205.648 124.997 205.414C124.799 205.18 124.484 205.062 124.052 205.062C123.671 205.062 123.372 205.154 123.153 205.336C122.94 205.518 122.833 205.768 122.833 206.086H120.575C120.575 205.596 120.726 205.143 121.028 204.727C121.33 204.31 121.757 203.984 122.309 203.75C122.861 203.51 123.481 203.391 124.169 203.391C125.21 203.391 126.036 203.654 126.645 204.18C127.26 204.701 127.567 205.435 127.567 206.383V210.047C127.572 210.849 127.684 211.456 127.903 211.867V212H125.622ZM123.755 210.43C124.088 210.43 124.395 210.357 124.677 210.211C124.958 210.06 125.166 209.859 125.302 209.609V208.156H124.458C123.328 208.156 122.726 208.547 122.653 209.328L122.645 209.461C122.645 209.742 122.744 209.974 122.942 210.156C123.14 210.339 123.411 210.43 123.755 210.43Z" fill="#3740FF"/>
<path d="M134.352 205.664C134.044 205.622 133.773 205.602 133.539 205.602C132.685 205.602 132.125 205.891 131.859 206.469V212H129.602V203.547H131.734L131.797 204.555C132.25 203.779 132.878 203.391 133.68 203.391C133.93 203.391 134.164 203.424 134.383 203.492L134.352 205.664Z" fill="#3740FF"/>
<path d="M140.409 212C140.305 211.797 140.23 211.544 140.183 211.242C139.636 211.852 138.925 212.156 138.05 212.156C137.222 212.156 136.534 211.917 135.987 211.438C135.446 210.958 135.175 210.354 135.175 209.625C135.175 208.729 135.506 208.042 136.167 207.562C136.834 207.083 137.795 206.841 139.05 206.836H140.089V206.352C140.089 205.961 139.987 205.648 139.784 205.414C139.586 205.18 139.271 205.062 138.839 205.062C138.459 205.062 138.159 205.154 137.941 205.336C137.727 205.518 137.62 205.768 137.62 206.086H135.362C135.362 205.596 135.514 205.143 135.816 204.727C136.118 204.31 136.545 203.984 137.097 203.75C137.649 203.51 138.269 203.391 138.956 203.391C139.998 203.391 140.823 203.654 141.433 204.18C142.047 204.701 142.355 205.435 142.355 206.383V210.047C142.36 210.849 142.472 211.456 142.691 211.867V212H140.409ZM138.542 210.43C138.876 210.43 139.183 210.357 139.464 210.211C139.745 210.06 139.954 209.859 140.089 209.609V208.156H139.245C138.115 208.156 137.514 208.547 137.441 209.328L137.433 209.461C137.433 209.742 137.532 209.974 137.73 210.156C137.928 210.339 138.198 210.43 138.542 210.43Z" fill="#3740FF"/>
<path d="M147.092 201.469V203.547H148.537V205.203H147.092V209.422C147.092 209.734 147.152 209.958 147.272 210.094C147.392 210.229 147.621 210.297 147.959 210.297C148.209 210.297 148.431 210.279 148.623 210.242V211.953C148.181 212.089 147.725 212.156 147.256 212.156C145.673 212.156 144.866 211.357 144.834 209.758V205.203H143.6V203.547H144.834V201.469H147.092Z" fill="#3740FF"/>
<path d="M152.478 212H150.213V203.547H152.478V212ZM150.08 201.359C150.08 201.021 150.192 200.742 150.416 200.523C150.645 200.305 150.955 200.195 151.345 200.195C151.731 200.195 152.038 200.305 152.267 200.523C152.496 200.742 152.611 201.021 152.611 201.359C152.611 201.703 152.494 201.984 152.259 202.203C152.03 202.422 151.726 202.531 151.345 202.531C150.965 202.531 150.658 202.422 150.423 202.203C150.194 201.984 150.08 201.703 150.08 201.359Z" fill="#3740FF"/>
<path d="M154.294 207.695C154.294 206.857 154.455 206.109 154.778 205.453C155.101 204.797 155.565 204.289 156.169 203.93C156.778 203.57 157.484 203.391 158.286 203.391C159.427 203.391 160.356 203.74 161.075 204.438C161.799 205.135 162.203 206.083 162.286 207.281L162.302 207.859C162.302 209.156 161.94 210.198 161.216 210.984C160.492 211.766 159.52 212.156 158.302 212.156C157.083 212.156 156.109 211.766 155.38 210.984C154.656 210.203 154.294 209.141 154.294 207.797V207.695ZM156.552 207.859C156.552 208.661 156.703 209.276 157.005 209.703C157.307 210.125 157.739 210.336 158.302 210.336C158.848 210.336 159.276 210.128 159.583 209.711C159.89 209.289 160.044 208.617 160.044 207.695C160.044 206.909 159.89 206.299 159.583 205.867C159.276 205.435 158.843 205.219 158.286 205.219C157.734 205.219 157.307 205.435 157.005 205.867C156.703 206.294 156.552 206.958 156.552 207.859Z" fill="#3740FF"/>
<path d="M166.07 203.547L166.141 204.523C166.745 203.768 167.555 203.391 168.57 203.391C169.466 203.391 170.133 203.654 170.57 204.18C171.008 204.706 171.232 205.492 171.242 206.539V212H168.984V206.594C168.984 206.115 168.88 205.768 168.672 205.555C168.464 205.336 168.117 205.227 167.633 205.227C166.997 205.227 166.521 205.497 166.203 206.039V212H163.945V203.547H166.07Z" fill="#3740FF"/>
<path d="M234.359 343.992V348H232.016V336.625H236.453C237.307 336.625 238.057 336.781 238.703 337.094C239.354 337.406 239.854 337.852 240.203 338.43C240.552 339.003 240.727 339.656 240.727 340.391C240.727 341.505 240.344 342.385 239.578 343.031C238.818 343.672 237.763 343.992 236.414 343.992H234.359ZM234.359 342.094H236.453C237.073 342.094 237.544 341.948 237.867 341.656C238.195 341.365 238.359 340.948 238.359 340.406C238.359 339.849 238.195 339.398 237.867 339.055C237.539 338.711 237.086 338.534 236.508 338.523H234.359V342.094Z" fill="#3740FF"/>
<path d="M247.245 341.664C246.938 341.622 246.667 341.602 246.433 341.602C245.579 341.602 245.019 341.891 244.753 342.469V348H242.495V339.547H244.628L244.691 340.555C245.144 339.779 245.771 339.391 246.573 339.391C246.823 339.391 247.058 339.424 247.277 339.492L247.245 341.664Z" fill="#3740FF"/>
<path d="M248.006 343.695C248.006 342.857 248.168 342.109 248.491 341.453C248.814 340.797 249.277 340.289 249.881 339.93C250.491 339.57 251.196 339.391 251.998 339.391C253.139 339.391 254.069 339.74 254.788 340.438C255.511 341.135 255.915 342.083 255.998 343.281L256.014 343.859C256.014 345.156 255.652 346.198 254.928 346.984C254.204 347.766 253.233 348.156 252.014 348.156C250.795 348.156 249.821 347.766 249.092 346.984C248.368 346.203 248.006 345.141 248.006 343.797V343.695ZM250.264 343.859C250.264 344.661 250.415 345.276 250.717 345.703C251.019 346.125 251.452 346.336 252.014 346.336C252.561 346.336 252.988 346.128 253.295 345.711C253.603 345.289 253.756 344.617 253.756 343.695C253.756 342.909 253.603 342.299 253.295 341.867C252.988 341.435 252.556 341.219 251.998 341.219C251.446 341.219 251.019 341.435 250.717 341.867C250.415 342.294 250.264 342.958 250.264 343.859Z" fill="#3740FF"/>
<path d="M265.314 343.852C265.314 345.154 265.017 346.198 264.423 346.984C263.835 347.766 263.038 348.156 262.033 348.156C261.179 348.156 260.489 347.859 259.962 347.266V351.25H257.705V339.547H259.798L259.877 340.375C260.423 339.719 261.137 339.391 262.017 339.391C263.059 339.391 263.869 339.776 264.447 340.547C265.025 341.318 265.314 342.38 265.314 343.734V343.852ZM263.056 343.688C263.056 342.901 262.916 342.294 262.634 341.867C262.358 341.44 261.955 341.227 261.423 341.227C260.715 341.227 260.228 341.497 259.962 342.039V345.5C260.239 346.057 260.731 346.336 261.439 346.336C262.517 346.336 263.056 345.453 263.056 343.688Z" fill="#3740FF"/>
<path d="M270.911 348.156C269.671 348.156 268.661 347.776 267.88 347.016C267.104 346.255 266.716 345.242 266.716 343.977V343.758C266.716 342.909 266.88 342.151 267.208 341.484C267.536 340.812 267.999 340.297 268.598 339.938C269.203 339.573 269.89 339.391 270.661 339.391C271.817 339.391 272.726 339.755 273.387 340.484C274.054 341.214 274.387 342.247 274.387 343.586V344.508H269.005C269.078 345.06 269.296 345.503 269.661 345.836C270.031 346.169 270.497 346.336 271.059 346.336C271.929 346.336 272.609 346.021 273.098 345.391L274.208 346.633C273.869 347.112 273.411 347.487 272.833 347.758C272.255 348.023 271.614 348.156 270.911 348.156ZM270.653 341.219C270.205 341.219 269.841 341.37 269.559 341.672C269.283 341.974 269.106 342.406 269.028 342.969H272.169V342.789C272.158 342.289 272.023 341.904 271.762 341.633C271.502 341.357 271.132 341.219 270.653 341.219Z" fill="#3740FF"/>
<path d="M280.727 341.664C280.419 341.622 280.148 341.602 279.914 341.602C279.06 341.602 278.5 341.891 278.234 342.469V348H275.977V339.547H278.109L278.172 340.555C278.625 339.779 279.253 339.391 280.055 339.391C280.305 339.391 280.539 339.424 280.758 339.492L280.727 341.664Z" fill="#3740FF"/>
<path d="M285.214 337.469V339.547H286.659V341.203H285.214V345.422C285.214 345.734 285.274 345.958 285.394 346.094C285.514 346.229 285.743 346.297 286.081 346.297C286.331 346.297 286.553 346.279 286.745 346.242V347.953C286.303 348.089 285.847 348.156 285.378 348.156C283.795 348.156 282.988 347.357 282.956 345.758V341.203H281.722V339.547H282.956V337.469H285.214Z" fill="#3740FF"/>
<path d="M291.373 344.805L292.936 339.547H295.358L291.959 349.312L291.772 349.758C291.267 350.862 290.433 351.414 289.272 351.414C288.944 351.414 288.61 351.365 288.272 351.266V349.555L288.616 349.562C289.043 349.562 289.36 349.497 289.569 349.367C289.782 349.237 289.949 349.021 290.069 348.719L290.334 348.023L287.373 339.547H289.803L291.373 344.805Z" fill="#3740FF"/>
<path d="M463.219 345.18L465.797 336.625H468.406L464.445 348H462L458.055 336.625H460.656L463.219 345.18Z" fill="#3740FF"/>
<path d="M474.175 348C474.071 347.797 473.995 347.544 473.948 347.242C473.402 347.852 472.691 348.156 471.816 348.156C470.987 348.156 470.3 347.917 469.753 347.438C469.211 346.958 468.941 346.354 468.941 345.625C468.941 344.729 469.271 344.042 469.933 343.562C470.599 343.083 471.56 342.841 472.816 342.836H473.855V342.352C473.855 341.961 473.753 341.648 473.55 341.414C473.352 341.18 473.037 341.062 472.605 341.062C472.224 341.062 471.925 341.154 471.706 341.336C471.493 341.518 471.386 341.768 471.386 342.086H469.128C469.128 341.596 469.279 341.143 469.581 340.727C469.883 340.31 470.31 339.984 470.862 339.75C471.415 339.51 472.034 339.391 472.722 339.391C473.764 339.391 474.589 339.654 475.198 340.18C475.813 340.701 476.12 341.435 476.12 342.383V346.047C476.126 346.849 476.237 347.456 476.456 347.867V348H474.175ZM472.308 346.43C472.641 346.43 472.948 346.357 473.23 346.211C473.511 346.06 473.719 345.859 473.855 345.609V344.156H473.011C471.881 344.156 471.279 344.547 471.206 345.328L471.198 345.461C471.198 345.742 471.297 345.974 471.495 346.156C471.693 346.339 471.964 346.43 472.308 346.43Z" fill="#3740FF"/>
<path d="M480.538 348H478.272V336H480.538V348Z" fill="#3740FF"/>
<path d="M487.767 347.141C487.21 347.818 486.439 348.156 485.455 348.156C484.548 348.156 483.856 347.896 483.377 347.375C482.903 346.854 482.66 346.091 482.65 345.086V339.547H484.908V345.008C484.908 345.888 485.309 346.328 486.111 346.328C486.877 346.328 487.403 346.062 487.689 345.531V339.547H489.955V348H487.83L487.767 347.141Z" fill="#3740FF"/>
<path d="M495.848 348.156C494.609 348.156 493.598 347.776 492.817 347.016C492.041 346.255 491.653 345.242 491.653 343.977V343.758C491.653 342.909 491.817 342.151 492.145 341.484C492.473 340.812 492.937 340.297 493.536 339.938C494.14 339.573 494.828 339.391 495.598 339.391C496.755 339.391 497.664 339.755 498.325 340.484C498.992 341.214 499.325 342.247 499.325 343.586V344.508H493.942C494.015 345.06 494.234 345.503 494.598 345.836C494.968 346.169 495.434 346.336 495.997 346.336C496.867 346.336 497.546 346.021 498.036 345.391L499.145 346.633C498.807 347.112 498.348 347.487 497.77 347.758C497.192 348.023 496.552 348.156 495.848 348.156ZM495.591 341.219C495.143 341.219 494.778 341.37 494.497 341.672C494.221 341.974 494.044 342.406 493.966 342.969H497.106V342.789C497.096 342.289 496.96 341.904 496.7 341.633C496.44 341.357 496.07 341.219 495.591 341.219Z" fill="#3740FF"/>
<path d="M208.354 207.354C208.549 207.158 208.549 206.842 208.354 206.646L205.172 203.464C204.976 203.269 204.66 203.269 204.464 203.464C204.269 203.66 204.269 203.976 204.464 204.172L207.293 207L204.464 209.828C204.269 210.024 204.269 210.34 204.464 210.536C204.66 210.731 204.976 210.731 205.172 210.536L208.354 207.354ZM176 207.5H208V206.5H176V207.5Z" fill="black"/>
<path d="M228.354 231.646C228.158 231.451 227.842 231.451 227.646 231.646L224.464 234.828C224.269 235.024 224.269 235.34 224.464 235.536C224.66 235.731 224.976 235.731 225.172 235.536L228 232.707L230.828 235.536C231.024 235.731 231.34 235.731 231.536 235.536C231.731 235.34 231.731 235.024 231.536 234.828L228.354 231.646ZM228.5 348L228.5 232L227.5 232L227.5 348L228.5 348Z" fill="black"/>
<path d="M455.354 231.646C455.158 231.451 454.842 231.451 454.646 231.646L451.464 234.828C451.269 235.024 451.269 235.34 451.464 235.536C451.66 235.731 451.976 235.731 452.172 235.536L455 232.707L457.828 235.536C458.024 235.731 458.34 235.731 458.536 235.536C458.731 235.34 458.731 235.024 458.536 234.828L455.354 231.646ZM455.5 348L455.5 232L454.5 232L454.5 348L455.5 348Z" fill="black"/>
</svg>
