<svg width="760" height="363" viewBox="0 0 760 363" fill="none" xmlns="http://www.w3.org/2000/svg">
<rect width="760" height="363" fill="white"/>
<rect x="97.5" y="87.5" width="522" height="179" fill="#F3F4F4" stroke="#C4C4C4"/>
<rect x="113.5" y="102.5" width="149" height="149" fill="#E8F0FE" stroke="#3740FF"/>
<rect x="283.5" y="134.5" width="149" height="85" fill="#EFE1FF" stroke="#5F6368"/>
<rect x="453.5" y="118.5" width="149" height="117" fill="#E8F0FE" stroke="#3740FF"/>
<path d="M498.354 64.3536C498.549 64.1583 498.549 63.8418 498.354 63.6465L495.172 60.4645C494.976 60.2693 494.66 60.2693 494.464 60.4645C494.269 60.6598 494.269 60.9764 494.464 61.1716L497.293 64.0001L494.464 66.8285C494.269 67.0237 494.269 67.3403 494.464 67.5356C494.66 67.7308 494.976 67.7308 495.172 67.5356L498.354 64.3536ZM198 64.5L498 64.5001L498 63.5001L198 63.5L198 64.5Z" fill="black"/>
<path d="M639.647 243.354C639.842 243.549 640.159 243.549 640.354 243.354L643.536 240.172C643.731 239.976 643.731 239.66 643.536 239.464C643.341 239.269 643.024 239.269 642.829 239.464L640 242.293L637.172 239.464C636.977 239.269 636.66 239.269 636.465 239.464C636.27 239.66 636.27 239.976 636.465 240.172L639.647 243.354ZM639.5 111L639.5 243L640.5 243L640.5 111L639.5 111Z" fill="black"/>
<path d="M162.284 177.18H157.706V182H155.73V170.625H162.956V172.219H157.706V175.602H162.284V177.18Z" fill="black"/>
<path d="M166.663 182H164.764V170H166.663V182Z" fill="black"/>
<path d="M172.759 182.156C171.556 182.156 170.58 181.779 169.83 181.023C169.085 180.263 168.713 179.253 168.713 177.992V177.758C168.713 176.914 168.874 176.161 169.197 175.5C169.525 174.833 169.983 174.315 170.572 173.945C171.16 173.576 171.817 173.391 172.541 173.391C173.692 173.391 174.58 173.758 175.205 174.492C175.835 175.227 176.15 176.266 176.15 177.609V178.375H170.627C170.684 179.073 170.916 179.625 171.322 180.031C171.733 180.438 172.249 180.641 172.869 180.641C173.739 180.641 174.447 180.289 174.994 179.586L176.017 180.562C175.679 181.068 175.226 181.461 174.658 181.742C174.095 182.018 173.463 182.156 172.759 182.156ZM172.533 174.914C172.012 174.914 171.59 175.096 171.267 175.461C170.949 175.826 170.746 176.333 170.658 176.984H174.275V176.844C174.233 176.208 174.064 175.729 173.767 175.406C173.47 175.078 173.059 174.914 172.533 174.914Z" fill="black"/>
<path d="M180.966 176.328L182.575 173.547H184.684L182.098 177.711L184.77 182H182.677L180.989 179.109L179.309 182H177.2L179.872 177.711L177.294 173.547H179.388L180.966 176.328Z" fill="black"/>
<path d="M192.581 182H190.683V173.547H192.581V182ZM190.566 171.352C190.566 171.06 190.657 170.818 190.839 170.625C191.027 170.432 191.292 170.336 191.636 170.336C191.98 170.336 192.245 170.432 192.433 170.625C192.62 170.818 192.714 171.06 192.714 171.352C192.714 171.638 192.62 171.878 192.433 172.07C192.245 172.258 191.98 172.352 191.636 172.352C191.292 172.352 191.027 172.258 190.839 172.07C190.657 171.878 190.566 171.638 190.566 171.352Z" fill="black"/>
<path d="M197.334 171.492V173.547H198.827V174.953H197.334V179.672C197.334 179.995 197.397 180.229 197.522 180.375C197.652 180.516 197.881 180.586 198.209 180.586C198.428 180.586 198.649 180.56 198.873 180.508V181.977C198.441 182.096 198.024 182.156 197.623 182.156C196.165 182.156 195.436 181.352 195.436 179.742V174.953H194.045V173.547H195.436V171.492H197.334Z" fill="black"/>
<path d="M204.306 182.156C203.103 182.156 202.127 181.779 201.377 181.023C200.632 180.263 200.259 179.253 200.259 177.992V177.758C200.259 176.914 200.421 176.161 200.744 175.5C201.072 174.833 201.53 174.315 202.119 173.945C202.707 173.576 203.364 173.391 204.087 173.391C205.239 173.391 206.127 173.758 206.752 174.492C207.382 175.227 207.697 176.266 207.697 177.609V178.375H202.173C202.231 179.073 202.462 179.625 202.869 180.031C203.28 180.438 203.796 180.641 204.416 180.641C205.285 180.641 205.994 180.289 206.541 179.586L207.564 180.562C207.226 181.068 206.772 181.461 206.205 181.742C205.642 182.018 205.009 182.156 204.306 182.156ZM204.08 174.914C203.559 174.914 203.137 175.096 202.814 175.461C202.496 175.826 202.293 176.333 202.205 176.984H205.822V176.844C205.78 176.208 205.611 175.729 205.314 175.406C205.017 175.078 204.606 174.914 204.08 174.914Z" fill="black"/>
<path d="M211.263 173.547L211.317 174.43C211.911 173.737 212.723 173.391 213.755 173.391C214.885 173.391 215.658 173.823 216.075 174.688C216.69 173.823 217.554 173.391 218.669 173.391C219.601 173.391 220.294 173.648 220.747 174.164C221.205 174.68 221.44 175.44 221.45 176.445V182H219.552V176.5C219.552 175.964 219.434 175.57 219.2 175.32C218.966 175.07 218.578 174.945 218.036 174.945C217.604 174.945 217.249 175.062 216.973 175.297C216.703 175.526 216.513 175.828 216.403 176.203L216.411 182H214.513V176.438C214.486 175.443 213.979 174.945 212.989 174.945C212.229 174.945 211.69 175.255 211.372 175.875V182H209.473V173.547H211.263Z" fill="black"/>
<path d="M332.284 177.18H327.706V182H325.73V170.625H332.956V172.219H327.706V175.602H332.284V177.18Z" fill="black"/>
<path d="M336.663 182H334.764V170H336.663V182Z" fill="black"/>
<path d="M342.759 182.156C341.556 182.156 340.58 181.779 339.83 181.023C339.085 180.263 338.713 179.253 338.713 177.992V177.758C338.713 176.914 338.874 176.161 339.197 175.5C339.525 174.833 339.983 174.315 340.572 173.945C341.16 173.576 341.817 173.391 342.541 173.391C343.692 173.391 344.58 173.758 345.205 174.492C345.835 175.227 346.15 176.266 346.15 177.609V178.375H340.627C340.684 179.073 340.916 179.625 341.322 180.031C341.733 180.438 342.249 180.641 342.869 180.641C343.739 180.641 344.447 180.289 344.994 179.586L346.017 180.562C345.679 181.068 345.226 181.461 344.658 181.742C344.095 182.018 343.463 182.156 342.759 182.156ZM342.533 174.914C342.012 174.914 341.59 175.096 341.267 175.461C340.949 175.826 340.746 176.333 340.658 176.984H344.275V176.844C344.233 176.208 344.064 175.729 343.767 175.406C343.47 175.078 343.059 174.914 342.533 174.914Z" fill="black"/>
<path d="M350.966 176.328L352.575 173.547H354.684L352.098 177.711L354.77 182H352.677L350.989 179.109L349.309 182H347.2L349.872 177.711L347.294 173.547H349.387L350.966 176.328Z" fill="black"/>
<path d="M362.581 182H360.683V173.547H362.581V182ZM360.566 171.352C360.566 171.06 360.657 170.818 360.839 170.625C361.027 170.432 361.292 170.336 361.636 170.336C361.98 170.336 362.245 170.432 362.433 170.625C362.62 170.818 362.714 171.06 362.714 171.352C362.714 171.638 362.62 171.878 362.433 172.07C362.245 172.258 361.98 172.352 361.636 172.352C361.292 172.352 361.027 172.258 360.839 172.07C360.657 171.878 360.566 171.638 360.566 171.352Z" fill="black"/>
<path d="M367.334 171.492V173.547H368.827V174.953H367.334V179.672C367.334 179.995 367.397 180.229 367.522 180.375C367.652 180.516 367.881 180.586 368.209 180.586C368.428 180.586 368.649 180.56 368.873 180.508V181.977C368.441 182.096 368.024 182.156 367.623 182.156C366.165 182.156 365.436 181.352 365.436 179.742V174.953H364.045V173.547H365.436V171.492H367.334Z" fill="black"/>
<path d="M374.306 182.156C373.103 182.156 372.127 181.779 371.377 181.023C370.632 180.263 370.259 179.253 370.259 177.992V177.758C370.259 176.914 370.421 176.161 370.744 175.5C371.072 174.833 371.53 174.315 372.119 173.945C372.707 173.576 373.364 173.391 374.087 173.391C375.239 173.391 376.127 173.758 376.752 174.492C377.382 175.227 377.697 176.266 377.697 177.609V178.375H372.173C372.231 179.073 372.462 179.625 372.869 180.031C373.28 180.438 373.796 180.641 374.416 180.641C375.285 180.641 375.994 180.289 376.541 179.586L377.564 180.562C377.226 181.068 376.772 181.461 376.205 181.742C375.642 182.018 375.009 182.156 374.306 182.156ZM374.08 174.914C373.559 174.914 373.137 175.096 372.814 175.461C372.496 175.826 372.293 176.333 372.205 176.984H375.822V176.844C375.78 176.208 375.611 175.729 375.314 175.406C375.017 175.078 374.606 174.914 374.08 174.914Z" fill="black"/>
<path d="M381.262 173.547L381.317 174.43C381.911 173.737 382.723 173.391 383.755 173.391C384.885 173.391 385.658 173.823 386.075 174.688C386.69 173.823 387.554 173.391 388.669 173.391C389.601 173.391 390.294 173.648 390.747 174.164C391.205 174.68 391.44 175.44 391.45 176.445V182H389.552V176.5C389.552 175.964 389.434 175.57 389.2 175.32C388.966 175.07 388.578 174.945 388.036 174.945C387.604 174.945 387.249 175.062 386.973 175.297C386.703 175.526 386.512 175.828 386.403 176.203L386.411 182H384.512V176.438C384.486 175.443 383.979 174.945 382.989 174.945C382.229 174.945 381.69 175.255 381.372 175.875V182H379.473V173.547H381.262Z" fill="black"/>
<path d="M501.284 177.18H496.706V182H494.73V170.625H501.956V172.219H496.706V175.602H501.284V177.18Z" fill="black"/>
<path d="M505.662 182H503.764V170H505.662V182Z" fill="black"/>
<path d="M511.759 182.156C510.556 182.156 509.58 181.779 508.83 181.023C508.085 180.263 507.713 179.253 507.713 177.992V177.758C507.713 176.914 507.874 176.161 508.197 175.5C508.525 174.833 508.983 174.315 509.572 173.945C510.16 173.576 510.817 173.391 511.541 173.391C512.692 173.391 513.58 173.758 514.205 174.492C514.835 175.227 515.15 176.266 515.15 177.609V178.375H509.627C509.684 179.073 509.916 179.625 510.322 180.031C510.733 180.438 511.249 180.641 511.869 180.641C512.739 180.641 513.447 180.289 513.994 179.586L515.017 180.562C514.679 181.068 514.226 181.461 513.658 181.742C513.095 182.018 512.463 182.156 511.759 182.156ZM511.533 174.914C511.012 174.914 510.59 175.096 510.267 175.461C509.949 175.826 509.746 176.333 509.658 176.984H513.275V176.844C513.233 176.208 513.064 175.729 512.767 175.406C512.47 175.078 512.059 174.914 511.533 174.914Z" fill="black"/>
<path d="M519.966 176.328L521.575 173.547H523.684L521.098 177.711L523.77 182H521.677L519.989 179.109L518.309 182H516.2L518.872 177.711L516.294 173.547H518.387L519.966 176.328Z" fill="black"/>
<path d="M531.581 182H529.683V173.547H531.581V182ZM529.566 171.352C529.566 171.06 529.657 170.818 529.839 170.625C530.027 170.432 530.292 170.336 530.636 170.336C530.98 170.336 531.245 170.432 531.433 170.625C531.62 170.818 531.714 171.06 531.714 171.352C531.714 171.638 531.62 171.878 531.433 172.07C531.245 172.258 530.98 172.352 530.636 172.352C530.292 172.352 530.027 172.258 529.839 172.07C529.657 171.878 529.566 171.638 529.566 171.352Z" fill="black"/>
<path d="M536.334 171.492V173.547H537.827V174.953H536.334V179.672C536.334 179.995 536.397 180.229 536.522 180.375C536.652 180.516 536.881 180.586 537.209 180.586C537.428 180.586 537.649 180.56 537.873 180.508V181.977C537.441 182.096 537.024 182.156 536.623 182.156C535.165 182.156 534.436 181.352 534.436 179.742V174.953H533.045V173.547H534.436V171.492H536.334Z" fill="black"/>
<path d="M543.306 182.156C542.103 182.156 541.127 181.779 540.377 181.023C539.632 180.263 539.259 179.253 539.259 177.992V177.758C539.259 176.914 539.421 176.161 539.744 175.5C540.072 174.833 540.53 174.315 541.119 173.945C541.707 173.576 542.364 173.391 543.088 173.391C544.239 173.391 545.127 173.758 545.752 174.492C546.382 175.227 546.697 176.266 546.697 177.609V178.375H541.173C541.231 179.073 541.463 179.625 541.869 180.031C542.28 180.438 542.796 180.641 543.416 180.641C544.285 180.641 544.994 180.289 545.541 179.586L546.564 180.562C546.226 181.068 545.772 181.461 545.205 181.742C544.642 182.018 544.009 182.156 543.306 182.156ZM543.08 174.914C542.559 174.914 542.137 175.096 541.814 175.461C541.496 175.826 541.293 176.333 541.205 176.984H544.822V176.844C544.78 176.208 544.611 175.729 544.314 175.406C544.017 175.078 543.606 174.914 543.08 174.914Z" fill="black"/>
<path d="M550.262 173.547L550.317 174.43C550.911 173.737 551.723 173.391 552.755 173.391C553.885 173.391 554.658 173.823 555.075 174.688C555.69 173.823 556.554 173.391 557.669 173.391C558.601 173.391 559.294 173.648 559.747 174.164C560.205 174.68 560.44 175.44 560.45 176.445V182H558.552V176.5C558.552 175.964 558.434 175.57 558.2 175.32C557.966 175.07 557.578 174.945 557.036 174.945C556.604 174.945 556.249 175.062 555.973 175.297C555.703 175.526 555.512 175.828 555.403 176.203L555.411 182H553.512V176.438C553.486 175.443 552.979 174.945 551.989 174.945C551.229 174.945 550.69 175.255 550.372 175.875V182H548.473V173.547H550.262Z" fill="black"/>
<path d="M313.706 252.18H309.128V257H307.152V245.625H314.378V247.219H309.128V250.602H313.706V252.18Z" fill="black"/>
<path d="M318.084 257H316.186V245H318.084V257Z" fill="black"/>
<path d="M324.181 257.156C322.978 257.156 322.002 256.779 321.252 256.023C320.507 255.263 320.134 254.253 320.134 252.992V252.758C320.134 251.914 320.296 251.161 320.619 250.5C320.947 249.833 321.405 249.315 321.994 248.945C322.582 248.576 323.239 248.391 323.962 248.391C325.114 248.391 326.002 248.758 326.627 249.492C327.257 250.227 327.572 251.266 327.572 252.609V253.375H322.048C322.106 254.073 322.337 254.625 322.744 255.031C323.155 255.438 323.671 255.641 324.291 255.641C325.16 255.641 325.869 255.289 326.416 254.586L327.439 255.562C327.101 256.068 326.647 256.461 326.08 256.742C325.517 257.018 324.884 257.156 324.181 257.156ZM323.955 249.914C323.434 249.914 323.012 250.096 322.689 250.461C322.371 250.826 322.168 251.333 322.08 251.984H325.697V251.844C325.655 251.208 325.486 250.729 325.189 250.406C324.892 250.078 324.481 249.914 323.955 249.914Z" fill="black"/>
<path d="M332.387 251.328L333.997 248.547H336.106L333.52 252.711L336.192 257H334.098L332.411 254.109L330.731 257H328.622L331.294 252.711L328.716 248.547H330.809L332.387 251.328Z" fill="black"/>
<path d="M345.456 255.641C345.93 255.641 346.323 255.503 346.636 255.227C346.948 254.951 347.115 254.609 347.136 254.203H348.925C348.904 254.729 348.74 255.221 348.433 255.68C348.126 256.133 347.709 256.492 347.183 256.758C346.657 257.023 346.089 257.156 345.48 257.156C344.297 257.156 343.36 256.773 342.667 256.008C341.974 255.242 341.628 254.185 341.628 252.836V252.641C341.628 251.354 341.972 250.326 342.659 249.555C343.347 248.779 344.284 248.391 345.472 248.391C346.477 248.391 347.295 248.685 347.925 249.273C348.56 249.857 348.894 250.625 348.925 251.578H347.136C347.115 251.094 346.948 250.695 346.636 250.383C346.329 250.07 345.935 249.914 345.456 249.914C344.842 249.914 344.368 250.138 344.034 250.586C343.701 251.029 343.532 251.703 343.527 252.609V252.914C343.527 253.831 343.691 254.516 344.019 254.969C344.352 255.417 344.831 255.641 345.456 255.641Z" fill="black"/>
<path d="M350.303 252.695C350.303 251.867 350.467 251.122 350.795 250.461C351.123 249.794 351.584 249.284 352.178 248.93C352.772 248.57 353.454 248.391 354.225 248.391C355.366 248.391 356.29 248.758 356.998 249.492C357.712 250.227 358.097 251.201 358.155 252.414L358.162 252.859C358.162 253.693 358.001 254.438 357.678 255.094C357.36 255.75 356.902 256.258 356.303 256.617C355.709 256.977 355.022 257.156 354.241 257.156C353.048 257.156 352.092 256.76 351.373 255.969C350.66 255.172 350.303 254.112 350.303 252.789V252.695ZM352.202 252.859C352.202 253.729 352.381 254.411 352.741 254.906C353.1 255.396 353.6 255.641 354.241 255.641C354.881 255.641 355.379 255.391 355.733 254.891C356.092 254.391 356.272 253.659 356.272 252.695C356.272 251.841 356.087 251.164 355.717 250.664C355.353 250.164 354.855 249.914 354.225 249.914C353.605 249.914 353.113 250.161 352.748 250.656C352.384 251.146 352.202 251.88 352.202 252.859Z" fill="black"/>
<path d="M361.83 248.547L361.884 249.523C362.509 248.768 363.33 248.391 364.345 248.391C366.106 248.391 367.002 249.398 367.033 251.414V257H365.134V251.523C365.134 250.987 365.017 250.591 364.783 250.336C364.554 250.076 364.176 249.945 363.65 249.945C362.884 249.945 362.314 250.292 361.939 250.984V257H360.041V248.547H361.83Z" fill="black"/>
<path d="M371.653 246.492V248.547H373.145V249.953H371.653V254.672C371.653 254.995 371.716 255.229 371.841 255.375C371.971 255.516 372.2 255.586 372.528 255.586C372.747 255.586 372.968 255.56 373.192 255.508V256.977C372.76 257.096 372.343 257.156 371.942 257.156C370.484 257.156 369.755 256.352 369.755 254.742V249.953H368.364V248.547H369.755V246.492H371.653Z" fill="black"/>
<path d="M379.953 257C379.87 256.839 379.797 256.576 379.734 256.211C379.13 256.841 378.391 257.156 377.516 257.156C376.667 257.156 375.974 256.914 375.437 256.43C374.901 255.945 374.633 255.346 374.633 254.633C374.633 253.732 374.966 253.042 375.633 252.562C376.305 252.078 377.263 251.836 378.508 251.836H379.672V251.281C379.672 250.844 379.549 250.495 379.305 250.234C379.06 249.969 378.687 249.836 378.187 249.836C377.755 249.836 377.401 249.945 377.125 250.164C376.849 250.378 376.711 250.651 376.711 250.984H374.812C374.812 250.521 374.966 250.089 375.273 249.688C375.581 249.281 375.997 248.964 376.523 248.734C377.055 248.505 377.646 248.391 378.297 248.391C379.286 248.391 380.076 248.641 380.664 249.141C381.253 249.635 381.555 250.333 381.57 251.234V255.047C381.57 255.807 381.677 256.414 381.891 256.867V257H379.953ZM377.867 255.633C378.242 255.633 378.594 255.542 378.922 255.359C379.255 255.177 379.505 254.932 379.672 254.625V253.031H378.648C377.945 253.031 377.417 253.154 377.062 253.398C376.708 253.643 376.531 253.99 376.531 254.438C376.531 254.802 376.651 255.094 376.891 255.312C377.135 255.526 377.461 255.633 377.867 255.633Z" fill="black"/>
<path d="M385.878 257H383.98V248.547H385.878V257ZM383.862 246.352C383.862 246.06 383.954 245.818 384.136 245.625C384.323 245.432 384.589 245.336 384.933 245.336C385.277 245.336 385.542 245.432 385.73 245.625C385.917 245.818 386.011 246.06 386.011 246.352C386.011 246.638 385.917 246.878 385.73 247.07C385.542 247.258 385.277 247.352 384.933 247.352C384.589 247.352 384.323 247.258 384.136 247.07C383.954 246.878 383.862 246.638 383.862 246.352Z" fill="black"/>
<path d="M390.014 248.547L390.069 249.523C390.694 248.768 391.514 248.391 392.53 248.391C394.29 248.391 395.186 249.398 395.217 251.414V257H393.319V251.523C393.319 250.987 393.202 250.591 392.967 250.336C392.738 250.076 392.36 249.945 391.834 249.945C391.069 249.945 390.498 250.292 390.123 250.984V257H388.225V248.547H390.014Z" fill="black"/>
<path d="M401.181 257.156C399.978 257.156 399.002 256.779 398.252 256.023C397.507 255.263 397.134 254.253 397.134 252.992V252.758C397.134 251.914 397.296 251.161 397.619 250.5C397.947 249.833 398.405 249.315 398.994 248.945C399.582 248.576 400.239 248.391 400.962 248.391C402.114 248.391 403.002 248.758 403.627 249.492C404.257 250.227 404.572 251.266 404.572 252.609V253.375H399.048C399.106 254.073 399.337 254.625 399.744 255.031C400.155 255.438 400.671 255.641 401.291 255.641C402.16 255.641 402.869 255.289 403.416 254.586L404.439 255.562C404.1 256.068 403.647 256.461 403.08 256.742C402.517 257.018 401.884 257.156 401.181 257.156ZM400.955 249.914C400.434 249.914 400.012 250.096 399.689 250.461C399.371 250.826 399.168 251.333 399.08 251.984H402.697V251.844C402.655 251.208 402.486 250.729 402.189 250.406C401.892 250.078 401.481 249.914 400.955 249.914Z" fill="black"/>
<path d="M410.778 250.281C410.528 250.24 410.27 250.219 410.005 250.219C409.135 250.219 408.549 250.552 408.247 251.219V257H406.348V248.547H408.161L408.208 249.492C408.666 248.758 409.302 248.391 410.114 248.391C410.385 248.391 410.609 248.427 410.786 248.5L410.778 250.281Z" fill="black"/>
<path d="M97.3536 276.646C97.1583 276.451 96.8417 276.451 96.6464 276.646L93.4645 279.828C93.2692 280.024 93.2692 280.34 93.4645 280.536C93.6597 280.731 93.9763 280.731 94.1716 280.536L97 277.707L99.8284 280.536C100.024 280.731 100.34 280.731 100.536 280.536C100.731 280.34 100.731 280.024 100.536 279.828L97.3536 276.646ZM97.5 300L97.5 277L96.5 277L96.5 300L97.5 300Z" fill="black"/>
<path d="M620.354 276.646C620.158 276.451 619.842 276.451 619.646 276.646L616.464 279.828C616.269 280.024 616.269 280.34 616.464 280.536C616.66 280.731 616.976 280.731 617.172 280.536L620 277.707L622.828 280.536C623.024 280.731 623.34 280.731 623.536 280.536C623.731 280.34 623.731 280.024 623.536 279.828L620.354 276.646ZM620.5 300L620.5 277L619.5 277L619.5 300L620.5 300Z" fill="black"/>
<line x1="97" y1="299.5" x2="620" y2="299.5" stroke="black"/>
<path d="M326.378 40.625L329.3 48.875L332.206 40.625H335.284V52H332.933V48.8906L333.167 43.5234L330.097 52H328.487L325.425 43.5312L325.659 48.8906V52H323.316V40.625H326.378Z" fill="#3740FF"/>
<path d="M342.381 52C342.277 51.7969 342.202 51.5443 342.155 51.2422C341.608 51.8516 340.897 52.1562 340.022 52.1562C339.194 52.1562 338.506 51.9167 337.959 51.4375C337.418 50.9583 337.147 50.3542 337.147 49.625C337.147 48.7292 337.478 48.0417 338.139 47.5625C338.806 47.0833 339.767 46.8411 341.022 46.8359H342.061V46.3516C342.061 45.9609 341.959 45.6484 341.756 45.4141C341.558 45.1797 341.243 45.0625 340.811 45.0625C340.431 45.0625 340.131 45.1536 339.913 45.3359C339.699 45.5182 339.592 45.7682 339.592 46.0859H337.334C337.334 45.5964 337.485 45.1432 337.788 44.7266C338.09 44.3099 338.517 43.9844 339.069 43.75C339.621 43.5104 340.241 43.3906 340.928 43.3906C341.97 43.3906 342.795 43.6536 343.405 44.1797C344.019 44.7005 344.327 45.4349 344.327 46.3828V50.0469C344.332 50.849 344.444 51.4557 344.663 51.8672V52H342.381ZM340.514 50.4297C340.847 50.4297 341.155 50.3568 341.436 50.2109C341.717 50.0599 341.926 49.8594 342.061 49.6094V48.1562H341.217C340.087 48.1562 339.485 48.5469 339.413 49.3281L339.405 49.4609C339.405 49.7422 339.504 49.974 339.702 50.1562C339.899 50.3385 340.17 50.4297 340.514 50.4297Z" fill="#3740FF"/>
<path d="M348.744 52H346.478V43.5469H348.744V52ZM346.345 41.3594C346.345 41.0208 346.457 40.7422 346.681 40.5234C346.91 40.3047 347.22 40.1953 347.611 40.1953C347.996 40.1953 348.304 40.3047 348.533 40.5234C348.762 40.7422 348.877 41.0208 348.877 41.3594C348.877 41.7031 348.759 41.9844 348.525 42.2031C348.296 42.4219 347.991 42.5312 347.611 42.5312C347.231 42.5312 346.923 42.4219 346.689 42.2031C346.46 41.9844 346.345 41.7031 346.345 41.3594Z" fill="#3740FF"/>
<path d="M352.989 43.5469L353.059 44.5234C353.664 43.7682 354.473 43.3906 355.489 43.3906C356.385 43.3906 357.052 43.6536 357.489 44.1797C357.927 44.7057 358.151 45.4922 358.161 46.5391V52H355.903V46.5938C355.903 46.1146 355.799 45.7682 355.591 45.5547C355.382 45.3359 355.036 45.2266 354.552 45.2266C353.916 45.2266 353.44 45.4974 353.122 46.0391V52H350.864V43.5469H352.989Z" fill="#3740FF"/>
<path d="M369.362 52C369.258 51.7969 369.183 51.5443 369.136 51.2422C368.589 51.8516 367.878 52.1562 367.003 52.1562C366.175 52.1562 365.487 51.9167 364.941 51.4375C364.399 50.9583 364.128 50.3542 364.128 49.625C364.128 48.7292 364.459 48.0417 365.12 47.5625C365.787 47.0833 366.748 46.8411 368.003 46.8359H369.042V46.3516C369.042 45.9609 368.941 45.6484 368.737 45.4141C368.54 45.1797 368.224 45.0625 367.792 45.0625C367.412 45.0625 367.112 45.1536 366.894 45.3359C366.68 45.5182 366.573 45.7682 366.573 46.0859H364.316C364.316 45.5964 364.467 45.1432 364.769 44.7266C365.071 44.3099 365.498 43.9844 366.05 43.75C366.602 43.5104 367.222 43.3906 367.909 43.3906C368.951 43.3906 369.777 43.6536 370.386 44.1797C371.001 44.7005 371.308 45.4349 371.308 46.3828V50.0469C371.313 50.849 371.425 51.4557 371.644 51.8672V52H369.362ZM367.495 50.4297C367.829 50.4297 368.136 50.3568 368.417 50.2109C368.698 50.0599 368.907 49.8594 369.042 49.6094V48.1562H368.198C367.068 48.1562 366.467 48.5469 366.394 49.3281L366.386 49.4609C366.386 49.7422 366.485 49.974 366.683 50.1562C366.881 50.3385 367.152 50.4297 367.495 50.4297Z" fill="#3740FF"/>
<path d="M376.561 46.0703L377.983 43.5469H380.397L377.991 47.6875L380.498 52H378.077L376.569 49.3438L375.069 52H372.639L375.147 47.6875L372.748 43.5469H375.17L376.561 46.0703Z" fill="#3740FF"/>
<path d="M384.166 52H381.9V43.5469H384.166V52ZM381.767 41.3594C381.767 41.0208 381.879 40.7422 382.103 40.5234C382.332 40.3047 382.642 40.1953 383.033 40.1953C383.418 40.1953 383.726 40.3047 383.955 40.5234C384.184 40.7422 384.298 41.0208 384.298 41.3594C384.298 41.7031 384.181 41.9844 383.947 42.2031C383.718 42.4219 383.413 42.5312 383.033 42.5312C382.653 42.5312 382.345 42.4219 382.111 42.2031C381.882 41.9844 381.767 41.7031 381.767 41.3594Z" fill="#3740FF"/>
<path d="M390.911 49.6641C390.911 49.388 390.773 49.1719 390.497 49.0156C390.226 48.8542 389.789 48.7109 389.184 48.5859C387.174 48.1641 386.169 47.3099 386.169 46.0234C386.169 45.2734 386.479 44.6484 387.098 44.1484C387.723 43.6432 388.539 43.3906 389.544 43.3906C390.617 43.3906 391.473 43.6432 392.114 44.1484C392.76 44.6536 393.083 45.3099 393.083 46.1172H390.825C390.825 45.7943 390.721 45.5286 390.512 45.3203C390.304 45.1068 389.979 45 389.536 45C389.156 45 388.861 45.0859 388.653 45.2578C388.445 45.4297 388.341 45.6484 388.341 45.9141C388.341 46.1641 388.458 46.3672 388.692 46.5234C388.932 46.6745 389.333 46.8073 389.895 46.9219C390.458 47.0312 390.932 47.1562 391.317 47.2969C392.51 47.7344 393.106 48.4922 393.106 49.5703C393.106 50.3411 392.776 50.9661 392.114 51.4453C391.453 51.9193 390.598 52.1562 389.552 52.1562C388.843 52.1562 388.213 52.0312 387.661 51.7812C387.114 51.526 386.684 51.1797 386.372 50.7422C386.059 50.2995 385.903 49.8229 385.903 49.3125H388.044C388.065 49.7135 388.213 50.0208 388.489 50.2344C388.765 50.4479 389.135 50.5547 389.598 50.5547C390.031 50.5547 390.356 50.474 390.575 50.3125C390.799 50.1458 390.911 49.9297 390.911 49.6641Z" fill="#3740FF"/>
<path d="M22.775 50.5469L22.8453 51.4922C23.4443 50.7578 24.2542 50.3906 25.275 50.3906C26.3635 50.3906 27.1109 50.8203 27.5172 51.6797C28.1109 50.8203 28.9573 50.3906 30.0562 50.3906C30.9729 50.3906 31.6552 50.6589 32.1031 51.1953C32.551 51.7266 32.775 52.5286 32.775 53.6016V59H30.5094V53.6094C30.5094 53.1302 30.4156 52.7812 30.2281 52.5625C30.0406 52.3385 29.7099 52.2266 29.2359 52.2266C28.5588 52.2266 28.0901 52.5495 27.8297 53.1953L27.8375 59H25.5797V53.6172C25.5797 53.1276 25.4833 52.7734 25.2906 52.5547C25.0979 52.3359 24.7698 52.2266 24.3062 52.2266C23.6656 52.2266 23.2021 52.4922 22.9156 53.0234V59H20.6578V50.5469H22.775Z" fill="#3740FF"/>
<path d="M39.7156 59C39.6115 58.7969 39.5359 58.5443 39.4891 58.2422C38.9422 58.8516 38.2312 59.1562 37.3562 59.1562C36.5281 59.1562 35.8406 58.9167 35.2937 58.4375C34.7521 57.9583 34.4812 57.3542 34.4812 56.625C34.4812 55.7292 34.812 55.0417 35.4734 54.5625C36.1401 54.0833 37.101 53.8411 38.3562 53.8359H39.3953V53.3516C39.3953 52.9609 39.2937 52.6484 39.0906 52.4141C38.8927 52.1797 38.5776 52.0625 38.1453 52.0625C37.7651 52.0625 37.4656 52.1536 37.2469 52.3359C37.0333 52.5182 36.9266 52.7682 36.9266 53.0859H34.6687C34.6687 52.5964 34.8198 52.1432 35.1219 51.7266C35.424 51.3099 35.851 50.9844 36.4031 50.75C36.9552 50.5104 37.575 50.3906 38.2625 50.3906C39.3042 50.3906 40.1297 50.6536 40.7391 51.1797C41.3536 51.7005 41.6609 52.4349 41.6609 53.3828V57.0469C41.6661 57.849 41.7781 58.4557 41.9969 58.8672V59H39.7156ZM37.8484 57.4297C38.1818 57.4297 38.4891 57.3568 38.7703 57.2109C39.0516 57.0599 39.2599 56.8594 39.3953 56.6094V55.1562H38.5516C37.4214 55.1562 36.8198 55.5469 36.7469 56.3281L36.7391 56.4609C36.7391 56.7422 36.838 56.974 37.0359 57.1562C37.2339 57.3385 37.5047 57.4297 37.8484 57.4297Z" fill="#3740FF"/>
<path d="M46.0781 59H43.8125V50.5469H46.0781V59ZM43.6797 48.3594C43.6797 48.0208 43.7917 47.7422 44.0156 47.5234C44.2448 47.3047 44.5547 47.1953 44.9453 47.1953C45.3307 47.1953 45.638 47.3047 45.8672 47.5234C46.0963 47.7422 46.2109 48.0208 46.2109 48.3594C46.2109 48.7031 46.0937 48.9844 45.8594 49.2031C45.6302 49.4219 45.3255 49.5312 44.9453 49.5312C44.5651 49.5312 44.2578 49.4219 44.0234 49.2031C43.7943 48.9844 43.6797 48.7031 43.6797 48.3594Z" fill="#3740FF"/>
<path d="M50.3234 50.5469L50.3937 51.5234C50.9979 50.7682 51.8078 50.3906 52.8234 50.3906C53.7193 50.3906 54.3859 50.6536 54.8234 51.1797C55.2609 51.7057 55.4849 52.4922 55.4953 53.5391V59H53.2375V53.5938C53.2375 53.1146 53.1333 52.7682 52.925 52.5547C52.7167 52.3359 52.3703 52.2266 51.8859 52.2266C51.2505 52.2266 50.774 52.4974 50.4562 53.0391V59H48.1984V50.5469H50.3234Z" fill="#3740FF"/>
<path d="M61.9047 55.0391H57.5062V53.2188H61.9047V55.0391Z" fill="#3740FF"/>
<path d="M68.5953 56.6641C68.5953 56.388 68.4573 56.1719 68.1812 56.0156C67.9104 55.8542 67.4729 55.7109 66.8687 55.5859C64.8583 55.1641 63.8531 54.3099 63.8531 53.0234C63.8531 52.2734 64.163 51.6484 64.7828 51.1484C65.4078 50.6432 66.2229 50.3906 67.2281 50.3906C68.301 50.3906 69.1578 50.6432 69.7984 51.1484C70.4443 51.6536 70.7672 52.3099 70.7672 53.1172H68.5094C68.5094 52.7943 68.4052 52.5286 68.1969 52.3203C67.9885 52.1068 67.663 52 67.2203 52C66.8401 52 66.5458 52.0859 66.3375 52.2578C66.1292 52.4297 66.025 52.6484 66.025 52.9141C66.025 53.1641 66.1422 53.3672 66.3766 53.5234C66.6161 53.6745 67.0172 53.8073 67.5797 53.9219C68.1422 54.0312 68.6161 54.1562 69.0016 54.2969C70.1943 54.7344 70.7906 55.4922 70.7906 56.5703C70.7906 57.3411 70.4599 57.9661 69.7984 58.4453C69.137 58.9193 68.2828 59.1562 67.2359 59.1562C66.5276 59.1562 65.8974 59.0312 65.3453 58.7812C64.7984 58.526 64.3687 58.1797 64.0562 57.7422C63.7437 57.2995 63.5875 56.8229 63.5875 56.3125H65.7281C65.749 56.7135 65.8974 57.0208 66.1734 57.2344C66.4495 57.4479 66.8193 57.5547 67.2828 57.5547C67.7151 57.5547 68.0406 57.474 68.2594 57.3125C68.4833 57.1458 68.5953 56.9297 68.5953 56.6641Z" fill="#3740FF"/>
<path d="M75.2547 48.4688V50.5469H76.7V52.2031H75.2547V56.4219C75.2547 56.7344 75.3146 56.9583 75.4344 57.0938C75.5542 57.2292 75.7833 57.2969 76.1219 57.2969C76.3719 57.2969 76.5932 57.2786 76.7859 57.2422V58.9531C76.3432 59.0885 75.8875 59.1562 75.4187 59.1562C73.8354 59.1562 73.0281 58.3568 72.9969 56.7578V52.2031H71.7625V50.5469H72.9969V48.4688H75.2547Z" fill="#3740FF"/>
<path d="M83.1562 59C83.0521 58.7969 82.9766 58.5443 82.9297 58.2422C82.3828 58.8516 81.6719 59.1562 80.7969 59.1562C79.9687 59.1562 79.2812 58.9167 78.7344 58.4375C78.1927 57.9583 77.9219 57.3542 77.9219 56.625C77.9219 55.7292 78.2526 55.0417 78.9141 54.5625C79.5807 54.0833 80.5417 53.8411 81.7969 53.8359H82.8359V53.3516C82.8359 52.9609 82.7344 52.6484 82.5312 52.4141C82.3333 52.1797 82.0182 52.0625 81.5859 52.0625C81.2057 52.0625 80.9062 52.1536 80.6875 52.3359C80.474 52.5182 80.3672 52.7682 80.3672 53.0859H78.1094C78.1094 52.5964 78.2604 52.1432 78.5625 51.7266C78.8646 51.3099 79.2917 50.9844 79.8437 50.75C80.3958 50.5104 81.0156 50.3906 81.7031 50.3906C82.7448 50.3906 83.5703 50.6536 84.1797 51.1797C84.7943 51.7005 85.1016 52.4349 85.1016 53.3828V57.0469C85.1068 57.849 85.2187 58.4557 85.4375 58.8672V59H83.1562ZM81.2891 57.4297C81.6224 57.4297 81.9297 57.3568 82.2109 57.2109C82.4922 57.0599 82.7005 56.8594 82.8359 56.6094V55.1562H81.9922C80.862 55.1562 80.2604 55.5469 80.1875 56.3281L80.1797 56.4609C80.1797 56.7422 80.2786 56.974 80.4766 57.1562C80.6745 57.3385 80.9453 57.4297 81.2891 57.4297Z" fill="#3740FF"/>
<path d="M91.8859 52.6641C91.5786 52.6224 91.3078 52.6016 91.0734 52.6016C90.2193 52.6016 89.6594 52.8906 89.3937 53.4688V59H87.1359V50.5469H89.2687L89.3312 51.5547C89.7844 50.7786 90.412 50.3906 91.2141 50.3906C91.4641 50.3906 91.6984 50.4245 91.9172 50.4922L91.8859 52.6641Z" fill="#3740FF"/>
<path d="M96.3734 48.4688V50.5469H97.8187V52.2031H96.3734V56.4219C96.3734 56.7344 96.4333 56.9583 96.5531 57.0938C96.6729 57.2292 96.9021 57.2969 97.2406 57.2969C97.4906 57.2969 97.712 57.2786 97.9047 57.2422V58.9531C97.462 59.0885 97.0062 59.1562 96.5375 59.1562C94.9542 59.1562 94.1469 58.3568 94.1156 56.7578V52.2031H92.8812V50.5469H94.1156V48.4688H96.3734Z" fill="#3740FF"/>
<path d="M620.684 50.5469L620.755 51.4922C621.354 50.7578 622.164 50.3906 623.184 50.3906C624.273 50.3906 625.02 50.8203 625.427 51.6797C626.02 50.8203 626.867 50.3906 627.966 50.3906C628.882 50.3906 629.565 50.6589 630.012 51.1953C630.46 51.7266 630.684 52.5286 630.684 53.6016V59H628.419V53.6094C628.419 53.1302 628.325 52.7812 628.137 52.5625C627.95 52.3385 627.619 52.2266 627.145 52.2266C626.468 52.2266 625.999 52.5495 625.739 53.1953L625.747 59H623.489V53.6172C623.489 53.1276 623.393 52.7734 623.2 52.5547C623.007 52.3359 622.679 52.2266 622.216 52.2266C621.575 52.2266 621.111 52.4922 620.825 53.0234V59H618.567V50.5469H620.684Z" fill="#3740FF"/>
<path d="M637.625 59C637.521 58.7969 637.445 58.5443 637.398 58.2422C636.852 58.8516 636.141 59.1562 635.266 59.1562C634.437 59.1562 633.75 58.9167 633.203 58.4375C632.661 57.9583 632.391 57.3542 632.391 56.625C632.391 55.7292 632.721 55.0417 633.383 54.5625C634.049 54.0833 635.01 53.8411 636.266 53.8359H637.305V53.3516C637.305 52.9609 637.203 52.6484 637 52.4141C636.802 52.1797 636.487 52.0625 636.055 52.0625C635.674 52.0625 635.375 52.1536 635.156 52.3359C634.943 52.5182 634.836 52.7682 634.836 53.0859H632.578C632.578 52.5964 632.729 52.1432 633.031 51.7266C633.333 51.3099 633.76 50.9844 634.312 50.75C634.865 50.5104 635.484 50.3906 636.172 50.3906C637.214 50.3906 638.039 50.6536 638.648 51.1797C639.263 51.7005 639.57 52.4349 639.57 53.3828V57.0469C639.575 57.849 639.687 58.4557 639.906 58.8672V59H637.625ZM635.758 57.4297C636.091 57.4297 636.398 57.3568 636.68 57.2109C636.961 57.0599 637.169 56.8594 637.305 56.6094V55.1562H636.461C635.331 55.1562 634.729 55.5469 634.656 56.3281L634.648 56.4609C634.648 56.7422 634.747 56.974 634.945 57.1562C635.143 57.3385 635.414 57.4297 635.758 57.4297Z" fill="#3740FF"/>
<path d="M643.988 59H641.722V50.5469H643.988V59ZM641.589 48.3594C641.589 48.0208 641.701 47.7422 641.925 47.5234C642.154 47.3047 642.464 47.1953 642.855 47.1953C643.24 47.1953 643.547 47.3047 643.777 47.5234C644.006 47.7422 644.12 48.0208 644.12 48.3594C644.12 48.7031 644.003 48.9844 643.769 49.2031C643.54 49.4219 643.235 49.5312 642.855 49.5312C642.474 49.5312 642.167 49.4219 641.933 49.2031C641.704 48.9844 641.589 48.7031 641.589 48.3594Z" fill="#3740FF"/>
<path d="M648.233 50.5469L648.303 51.5234C648.907 50.7682 649.717 50.3906 650.733 50.3906C651.629 50.3906 652.295 50.6536 652.733 51.1797C653.17 51.7057 653.394 52.4922 653.405 53.5391V59H651.147V53.5938C651.147 53.1146 651.043 52.7682 650.834 52.5547C650.626 52.3359 650.28 52.2266 649.795 52.2266C649.16 52.2266 648.683 52.4974 648.366 53.0391V59H646.108V50.5469H648.233Z" fill="#3740FF"/>
<path d="M659.814 55.0391H655.416V53.2188H659.814V55.0391Z" fill="#3740FF"/>
<path d="M665.817 59.1562C664.578 59.1562 663.567 58.776 662.786 58.0156C662.01 57.2552 661.622 56.2422 661.622 54.9766V54.7578C661.622 53.9089 661.786 53.151 662.114 52.4844C662.442 51.8125 662.906 51.2969 663.505 50.9375C664.109 50.5729 664.796 50.3906 665.567 50.3906C666.723 50.3906 667.632 50.7552 668.294 51.4844C668.96 52.2135 669.294 53.2474 669.294 54.5859V55.5078H663.911C663.984 56.0599 664.203 56.5026 664.567 56.8359C664.937 57.1693 665.403 57.3359 665.966 57.3359C666.835 57.3359 667.515 57.0208 668.005 56.3906L669.114 57.6328C668.776 58.112 668.317 58.487 667.739 58.7578C667.161 59.0234 666.52 59.1562 665.817 59.1562ZM665.559 52.2188C665.111 52.2188 664.747 52.3698 664.466 52.6719C664.19 52.974 664.012 53.4062 663.934 53.9688H667.075V53.7891C667.065 53.2891 666.929 52.9036 666.669 52.6328C666.408 52.3568 666.039 52.2188 665.559 52.2188Z" fill="#3740FF"/>
<path d="M672.961 50.5469L673.031 51.5234C673.635 50.7682 674.445 50.3906 675.461 50.3906C676.357 50.3906 677.023 50.6536 677.461 51.1797C677.898 51.7057 678.122 52.4922 678.133 53.5391V59H675.875V53.5938C675.875 53.1146 675.771 52.7682 675.562 52.5547C675.354 52.3359 675.008 52.2266 674.523 52.2266C673.888 52.2266 673.411 52.4974 673.094 53.0391V59H670.836V50.5469H672.961Z" fill="#3740FF"/>
<path d="M679.8 54.7109C679.8 53.3932 680.094 52.3438 680.683 51.5625C681.277 50.7812 682.086 50.3906 683.113 50.3906C683.935 50.3906 684.615 50.6979 685.152 51.3125V47H687.417V59H685.378L685.269 58.1016C684.706 58.8047 683.982 59.1562 683.097 59.1562C682.102 59.1562 681.303 58.7656 680.698 57.9844C680.099 57.1979 679.8 56.1068 679.8 54.7109ZM682.058 54.875C682.058 55.6667 682.196 56.2734 682.472 56.6953C682.748 57.1172 683.149 57.3281 683.675 57.3281C684.373 57.3281 684.865 57.0339 685.152 56.4453V53.1094C684.87 52.5208 684.383 52.2266 683.691 52.2266C682.602 52.2266 682.058 53.1094 682.058 54.875Z" fill="#3740FF"/>
<path d="M324.402 308.625L327.323 316.875L330.23 308.625H333.308V320H330.956V316.891L331.191 311.523L328.12 320H326.511L323.448 311.531L323.683 316.891V320H321.339V308.625H324.402Z" fill="#3740FF"/>
<path d="M340.405 320C340.301 319.797 340.225 319.544 340.178 319.242C339.631 319.852 338.92 320.156 338.045 320.156C337.217 320.156 336.53 319.917 335.983 319.438C335.441 318.958 335.17 318.354 335.17 317.625C335.17 316.729 335.501 316.042 336.163 315.562C336.829 315.083 337.79 314.841 339.045 314.836H340.084V314.352C340.084 313.961 339.983 313.648 339.78 313.414C339.582 313.18 339.267 313.062 338.834 313.062C338.454 313.062 338.155 313.154 337.936 313.336C337.722 313.518 337.616 313.768 337.616 314.086H335.358C335.358 313.596 335.509 313.143 335.811 312.727C336.113 312.31 336.54 311.984 337.092 311.75C337.644 311.51 338.264 311.391 338.952 311.391C339.993 311.391 340.819 311.654 341.428 312.18C342.043 312.701 342.35 313.435 342.35 314.383V318.047C342.355 318.849 342.467 319.456 342.686 319.867V320H340.405ZM338.538 318.43C338.871 318.43 339.178 318.357 339.459 318.211C339.741 318.06 339.949 317.859 340.084 317.609V316.156H339.241C338.11 316.156 337.509 316.547 337.436 317.328L337.428 317.461C337.428 317.742 337.527 317.974 337.725 318.156C337.923 318.339 338.194 318.43 338.538 318.43Z" fill="#3740FF"/>
<path d="M346.767 320H344.502V311.547H346.767V320ZM344.369 309.359C344.369 309.021 344.481 308.742 344.705 308.523C344.934 308.305 345.244 308.195 345.634 308.195C346.02 308.195 346.327 308.305 346.556 308.523C346.785 308.742 346.9 309.021 346.9 309.359C346.9 309.703 346.783 309.984 346.548 310.203C346.319 310.422 346.015 310.531 345.634 310.531C345.254 310.531 344.947 310.422 344.712 310.203C344.483 309.984 344.369 309.703 344.369 309.359Z" fill="#3740FF"/>
<path d="M351.012 311.547L351.083 312.523C351.687 311.768 352.497 311.391 353.512 311.391C354.408 311.391 355.075 311.654 355.512 312.18C355.95 312.706 356.174 313.492 356.184 314.539V320H353.927V314.594C353.927 314.115 353.822 313.768 353.614 313.555C353.406 313.336 353.059 313.227 352.575 313.227C351.94 313.227 351.463 313.497 351.145 314.039V320H348.887V311.547H351.012Z" fill="#3740FF"/>
<path d="M367.066 317.664C367.066 317.388 366.928 317.172 366.652 317.016C366.381 316.854 365.943 316.711 365.339 316.586C363.329 316.164 362.323 315.31 362.323 314.023C362.323 313.273 362.633 312.648 363.253 312.148C363.878 311.643 364.693 311.391 365.698 311.391C366.771 311.391 367.628 311.643 368.269 312.148C368.915 312.654 369.237 313.31 369.237 314.117H366.98C366.98 313.794 366.876 313.529 366.667 313.32C366.459 313.107 366.133 313 365.691 313C365.31 313 365.016 313.086 364.808 313.258C364.599 313.43 364.495 313.648 364.495 313.914C364.495 314.164 364.612 314.367 364.847 314.523C365.086 314.674 365.487 314.807 366.05 314.922C366.612 315.031 367.086 315.156 367.472 315.297C368.665 315.734 369.261 316.492 369.261 317.57C369.261 318.341 368.93 318.966 368.269 319.445C367.607 319.919 366.753 320.156 365.706 320.156C364.998 320.156 364.368 320.031 363.816 319.781C363.269 319.526 362.839 319.18 362.527 318.742C362.214 318.299 362.058 317.823 362.058 317.312H364.198C364.219 317.714 364.368 318.021 364.644 318.234C364.92 318.448 365.29 318.555 365.753 318.555C366.185 318.555 366.511 318.474 366.73 318.312C366.954 318.146 367.066 317.93 367.066 317.664Z" fill="#3740FF"/>
<path d="M373.405 320H371.139V311.547H373.405V320ZM371.006 309.359C371.006 309.021 371.118 308.742 371.342 308.523C371.571 308.305 371.881 308.195 372.272 308.195C372.657 308.195 372.965 308.305 373.194 308.523C373.423 308.742 373.538 309.021 373.538 309.359C373.538 309.703 373.42 309.984 373.186 310.203C372.957 310.422 372.652 310.531 372.272 310.531C371.892 310.531 371.584 310.422 371.35 310.203C371.121 309.984 371.006 309.703 371.006 309.359Z" fill="#3740FF"/>
<path d="M378.166 318.18H382.298V320H375.283V318.625L379.259 313.375H375.4V311.547H382.173V312.883L378.166 318.18Z" fill="#3740FF"/>
<path d="M387.778 320.156C386.539 320.156 385.528 319.776 384.747 319.016C383.971 318.255 383.583 317.242 383.583 315.977V315.758C383.583 314.909 383.747 314.151 384.075 313.484C384.403 312.812 384.867 312.297 385.466 311.938C386.07 311.573 386.757 311.391 387.528 311.391C388.684 311.391 389.593 311.755 390.255 312.484C390.921 313.214 391.255 314.247 391.255 315.586V316.508H385.872C385.945 317.06 386.164 317.503 386.528 317.836C386.898 318.169 387.364 318.336 387.927 318.336C388.796 318.336 389.476 318.021 389.966 317.391L391.075 318.633C390.736 319.112 390.278 319.487 389.7 319.758C389.122 320.023 388.481 320.156 387.778 320.156ZM387.52 313.219C387.072 313.219 386.708 313.37 386.427 313.672C386.151 313.974 385.973 314.406 385.895 314.969H389.036V314.789C389.026 314.289 388.89 313.904 388.63 313.633C388.369 313.357 387.999 313.219 387.52 313.219Z" fill="#3740FF"/>
<path d="M96.6464 77.3536C96.8417 77.5488 97.1583 77.5488 97.3536 77.3536L100.536 74.1716C100.731 73.9763 100.731 73.6597 100.536 73.4645C100.34 73.2692 100.024 73.2692 99.8284 73.4645L97 76.2929L94.1716 73.4645C93.9763 73.2692 93.6597 73.2692 93.4645 73.4645C93.2692 73.6597 93.2692 73.9763 93.4645 74.1716L96.6464 77.3536ZM96.5 64L96.5 77L97.5 77L97.5 64L96.5 64Z" fill="black"/>
<path d="M630.646 86.6464C630.451 86.8417 630.451 87.1583 630.646 87.3536L633.828 90.5355C634.024 90.7308 634.34 90.7308 634.536 90.5355C634.731 90.3403 634.731 90.0237 634.536 89.8284L631.707 87L634.536 84.1716C634.731 83.9763 634.731 83.6597 634.536 83.4645C634.34 83.2692 634.024 83.2692 633.828 83.4645L630.646 86.6464ZM644 86.5L631 86.5L631 87.5L644 87.5L644 86.5Z" fill="black"/>
<path d="M630.646 266.646C630.451 266.842 630.451 267.158 630.646 267.354L633.828 270.536C634.024 270.731 634.34 270.731 634.536 270.536C634.731 270.34 634.731 270.024 634.536 269.828L631.707 267L634.536 264.172C634.731 263.976 634.731 263.66 634.536 263.464C634.34 263.269 634.024 263.269 633.828 263.464L630.646 266.646ZM644 266.5L631 266.5L631 267.5L644 267.5L644 266.5Z" fill="black"/>
<path d="M618.646 77.3536C618.842 77.5488 619.158 77.5488 619.354 77.3536L622.536 74.1716C622.731 73.9763 622.731 73.6597 622.536 73.4645C622.34 73.2692 622.024 73.2692 621.828 73.4645L619 76.2929L616.172 73.4645C615.976 73.2692 615.66 73.2692 615.464 73.4645C615.269 73.6597 615.269 73.9763 615.464 74.1716L618.646 77.3536ZM618.5 64L618.5 77L619.5 77L619.5 64L618.5 64Z" fill="black"/>
</svg>
