<svg width="760" height="304" viewBox="0 0 760 304" fill="none" xmlns="http://www.w3.org/2000/svg">
<rect width="760" height="304" fill="white"/>
<rect x="112.5" y="87.5" width="149" height="149" fill="#E8F0FE" stroke="#3740FF"/>
<rect x="282.5" y="119.5" width="149" height="85" fill="#EFE1FF" stroke="#5F6368"/>
<rect x="452.5" y="103.5" width="149" height="117" fill="#E8F0FE" stroke="#3740FF"/>
<path d="M487.354 70.3536C487.549 70.1583 487.549 69.8418 487.354 69.6465L484.172 66.4645C483.976 66.2693 483.66 66.2693 483.464 66.4645C483.269 66.6598 483.269 66.9764 483.464 67.1716L486.293 70.0001L483.464 72.8285C483.269 73.0237 483.269 73.3403 483.464 73.5356C483.66 73.7308 483.976 73.7308 484.172 73.5356L487.354 70.3536ZM187 70.5L487 70.5001L487 69.5001L187 69.5L187 70.5Z" fill="black"/>
<path d="M620.646 237.354C620.842 237.549 621.158 237.549 621.354 237.354L624.536 234.172C624.731 233.976 624.731 233.66 624.536 233.464C624.34 233.269 624.024 233.269 623.828 233.464L621 236.293L618.172 233.464C617.976 233.269 617.66 233.269 617.464 233.464C617.269 233.66 617.269 233.976 617.464 234.172L620.646 237.354ZM620.5 87L620.5 237L621.5 237L621.5 87L620.5 87Z" fill="black"/>
<path d="M325.378 46.625L328.3 54.875L331.206 46.625H334.284V58H331.933V54.8906L332.167 49.5234L329.097 58H327.487L324.425 49.5312L324.659 54.8906V58H322.316V46.625H325.378Z" fill="#3740FF"/>
<path d="M341.381 58C341.277 57.7969 341.202 57.5443 341.155 57.2422C340.608 57.8516 339.897 58.1562 339.022 58.1562C338.194 58.1562 337.506 57.9167 336.959 57.4375C336.418 56.9583 336.147 56.3542 336.147 55.625C336.147 54.7292 336.478 54.0417 337.139 53.5625C337.806 53.0833 338.767 52.8411 340.022 52.8359H341.061V52.3516C341.061 51.9609 340.959 51.6484 340.756 51.4141C340.558 51.1797 340.243 51.0625 339.811 51.0625C339.431 51.0625 339.131 51.1536 338.912 51.3359C338.699 51.5182 338.592 51.7682 338.592 52.0859H336.334C336.334 51.5964 336.485 51.1432 336.787 50.7266C337.09 50.3099 337.517 49.9844 338.069 49.75C338.621 49.5104 339.241 49.3906 339.928 49.3906C340.97 49.3906 341.795 49.6536 342.405 50.1797C343.019 50.7005 343.327 51.4349 343.327 52.3828V56.0469C343.332 56.849 343.444 57.4557 343.662 57.8672V58H341.381ZM339.514 56.4297C339.847 56.4297 340.155 56.3568 340.436 56.2109C340.717 56.0599 340.926 55.8594 341.061 55.6094V54.1562H340.217C339.087 54.1562 338.485 54.5469 338.412 55.3281L338.405 55.4609C338.405 55.7422 338.504 55.974 338.702 56.1562C338.899 56.3385 339.17 56.4297 339.514 56.4297Z" fill="#3740FF"/>
<path d="M347.744 58H345.478V49.5469H347.744V58ZM345.345 47.3594C345.345 47.0208 345.457 46.7422 345.681 46.5234C345.91 46.3047 346.22 46.1953 346.611 46.1953C346.996 46.1953 347.304 46.3047 347.533 46.5234C347.762 46.7422 347.877 47.0208 347.877 47.3594C347.877 47.7031 347.759 47.9844 347.525 48.2031C347.296 48.4219 346.991 48.5312 346.611 48.5312C346.231 48.5312 345.923 48.4219 345.689 48.2031C345.46 47.9844 345.345 47.7031 345.345 47.3594Z" fill="#3740FF"/>
<path d="M351.989 49.5469L352.059 50.5234C352.664 49.7682 353.473 49.3906 354.489 49.3906C355.385 49.3906 356.052 49.6536 356.489 50.1797C356.927 50.7057 357.151 51.4922 357.161 52.5391V58H354.903V52.5938C354.903 52.1146 354.799 51.7682 354.591 51.5547C354.382 51.3359 354.036 51.2266 353.552 51.2266C352.916 51.2266 352.44 51.4974 352.122 52.0391V58H349.864V49.5469H351.989Z" fill="#3740FF"/>
<path d="M368.362 58C368.258 57.7969 368.183 57.5443 368.136 57.2422C367.589 57.8516 366.878 58.1562 366.003 58.1562C365.175 58.1562 364.487 57.9167 363.941 57.4375C363.399 56.9583 363.128 56.3542 363.128 55.625C363.128 54.7292 363.459 54.0417 364.12 53.5625C364.787 53.0833 365.748 52.8411 367.003 52.8359H368.042V52.3516C368.042 51.9609 367.941 51.6484 367.737 51.4141C367.54 51.1797 367.224 51.0625 366.792 51.0625C366.412 51.0625 366.112 51.1536 365.894 51.3359C365.68 51.5182 365.573 51.7682 365.573 52.0859H363.316C363.316 51.5964 363.467 51.1432 363.769 50.7266C364.071 50.3099 364.498 49.9844 365.05 49.75C365.602 49.5104 366.222 49.3906 366.909 49.3906C367.951 49.3906 368.777 49.6536 369.386 50.1797C370.001 50.7005 370.308 51.4349 370.308 52.3828V56.0469C370.313 56.849 370.425 57.4557 370.644 57.8672V58H368.362ZM366.495 56.4297C366.829 56.4297 367.136 56.3568 367.417 56.2109C367.698 56.0599 367.907 55.8594 368.042 55.6094V54.1562H367.198C366.068 54.1562 365.467 54.5469 365.394 55.3281L365.386 55.4609C365.386 55.7422 365.485 55.974 365.683 56.1562C365.881 56.3385 366.152 56.4297 366.495 56.4297Z" fill="#3740FF"/>
<path d="M375.561 52.0703L376.983 49.5469H379.397L376.991 53.6875L379.498 58H377.077L375.569 55.3438L374.069 58H371.639L374.147 53.6875L371.748 49.5469H374.17L375.561 52.0703Z" fill="#3740FF"/>
<path d="M383.166 58H380.9V49.5469H383.166V58ZM380.767 47.3594C380.767 47.0208 380.879 46.7422 381.103 46.5234C381.332 46.3047 381.642 46.1953 382.033 46.1953C382.418 46.1953 382.726 46.3047 382.955 46.5234C383.184 46.7422 383.298 47.0208 383.298 47.3594C383.298 47.7031 383.181 47.9844 382.947 48.2031C382.718 48.4219 382.413 48.5312 382.033 48.5312C381.653 48.5312 381.345 48.4219 381.111 48.2031C380.882 47.9844 380.767 47.7031 380.767 47.3594Z" fill="#3740FF"/>
<path d="M389.911 55.6641C389.911 55.388 389.773 55.1719 389.497 55.0156C389.226 54.8542 388.789 54.7109 388.184 54.5859C386.174 54.1641 385.169 53.3099 385.169 52.0234C385.169 51.2734 385.479 50.6484 386.098 50.1484C386.723 49.6432 387.539 49.3906 388.544 49.3906C389.617 49.3906 390.473 49.6432 391.114 50.1484C391.76 50.6536 392.083 51.3099 392.083 52.1172H389.825C389.825 51.7943 389.721 51.5286 389.512 51.3203C389.304 51.1068 388.979 51 388.536 51C388.156 51 387.861 51.0859 387.653 51.2578C387.445 51.4297 387.341 51.6484 387.341 51.9141C387.341 52.1641 387.458 52.3672 387.692 52.5234C387.932 52.6745 388.333 52.8073 388.895 52.9219C389.458 53.0312 389.932 53.1562 390.317 53.2969C391.51 53.7344 392.106 54.4922 392.106 55.5703C392.106 56.3411 391.776 56.9661 391.114 57.4453C390.453 57.9193 389.598 58.1562 388.552 58.1562C387.843 58.1562 387.213 58.0312 386.661 57.7812C386.114 57.526 385.684 57.1797 385.372 56.7422C385.059 56.2995 384.903 55.8229 384.903 55.3125H387.044C387.065 55.7135 387.213 56.0208 387.489 56.2344C387.765 56.4479 388.135 56.5547 388.598 56.5547C389.031 56.5547 389.356 56.474 389.575 56.3125C389.799 56.1458 389.911 55.9297 389.911 55.6641Z" fill="#3740FF"/>
<path d="M634.789 133.228C633.565 133.14 632.602 132.686 631.898 131.869C631.195 131.056 630.844 129.983 630.844 128.65C630.844 127.192 631.333 126.043 632.313 125.205C633.297 124.371 634.646 123.955 636.359 123.955L637.055 123.955C638.148 123.955 639.112 124.147 639.945 124.533C640.779 124.918 641.417 125.468 641.859 126.181C642.307 126.9 642.531 127.733 642.531 128.681C642.531 129.994 642.18 131.051 641.477 131.853C640.773 132.655 639.786 133.119 638.516 133.244V130.9C639.25 130.843 639.781 130.637 640.109 130.283C640.443 129.934 640.609 129.4 640.609 128.681C640.609 127.9 640.328 127.314 639.766 126.923C639.208 126.538 638.341 126.34 637.164 126.33H636.305C635.076 126.33 634.177 126.515 633.609 126.884C633.042 127.259 632.758 127.848 632.758 128.65C632.758 129.374 632.922 129.913 633.25 130.267C633.583 130.627 634.096 130.832 634.789 130.884V133.228Z" fill="#3740FF"/>
<path d="M637.336 139.669C637.378 139.361 637.398 139.091 637.398 138.856C637.398 138.002 637.109 137.442 636.531 137.177H631L631 134.919H639.453V137.052L638.445 137.114C639.221 137.567 639.609 138.195 639.609 138.997C639.609 139.247 639.576 139.481 639.508 139.7L637.336 139.669Z" fill="#3740FF"/>
<path d="M635.305 140.43C636.143 140.43 636.891 140.591 637.547 140.914C638.203 141.237 638.711 141.701 639.07 142.305C639.43 142.914 639.609 143.62 639.609 144.422C639.609 145.562 639.26 146.492 638.563 147.211C637.865 147.935 636.917 148.339 635.719 148.422L635.141 148.437C633.844 148.437 632.802 148.076 632.016 147.352C631.234 146.628 630.844 145.656 630.844 144.437C630.844 143.219 631.234 142.245 632.016 141.516C632.797 140.792 633.859 140.43 635.203 140.43H635.305ZM635.141 142.687C634.339 142.687 633.724 142.839 633.297 143.141C632.875 143.443 632.664 143.875 632.664 144.437C632.664 144.984 632.872 145.411 633.289 145.719C633.711 146.026 634.383 146.18 635.305 146.18C636.091 146.18 636.701 146.026 637.133 145.719C637.565 145.411 637.781 144.979 637.781 144.422C637.781 143.87 637.565 143.443 637.133 143.141C636.706 142.839 636.042 142.687 635.141 142.687Z" fill="#3740FF"/>
<path d="M633.336 154.706C633.612 154.706 633.828 154.568 633.984 154.292C634.146 154.021 634.289 153.584 634.414 152.98C634.836 150.969 635.69 149.964 636.977 149.964C637.727 149.964 638.352 150.274 638.852 150.894C639.357 151.519 639.609 152.334 639.609 153.339C639.609 154.412 639.357 155.269 638.852 155.909C638.346 156.555 637.69 156.878 636.883 156.878V154.62C637.206 154.62 637.471 154.516 637.68 154.308C637.893 154.099 638 153.774 638 153.331C638 152.951 637.914 152.657 637.742 152.448C637.57 152.24 637.352 152.136 637.086 152.136C636.836 152.136 636.633 152.253 636.477 152.487C636.326 152.727 636.193 153.128 636.078 153.691C635.969 154.253 635.844 154.727 635.703 155.112C635.266 156.305 634.508 156.902 633.43 156.902C632.659 156.902 632.034 156.571 631.555 155.909C631.081 155.248 630.844 154.394 630.844 153.347C630.844 152.639 630.969 152.008 631.219 151.456C631.474 150.909 631.82 150.48 632.258 150.167C632.701 149.855 633.177 149.698 633.688 149.698L633.688 151.839C633.286 151.86 632.979 152.008 632.766 152.284C632.552 152.56 632.445 152.93 632.445 153.394C632.445 153.826 632.526 154.152 632.688 154.37C632.854 154.594 633.07 154.706 633.336 154.706Z" fill="#3740FF"/>
<path d="M633.336 163.241C633.612 163.241 633.828 163.103 633.984 162.827C634.146 162.556 634.289 162.118 634.414 161.514C634.836 159.504 635.69 158.498 636.977 158.498C637.727 158.498 638.352 158.808 638.852 159.428C639.357 160.053 639.609 160.868 639.609 161.873C639.609 162.946 639.357 163.803 638.852 164.444C638.346 165.09 637.69 165.412 636.883 165.412V163.155C637.206 163.155 637.471 163.051 637.68 162.842C637.893 162.634 638 162.308 638 161.866C638 161.485 637.914 161.191 637.742 160.983C637.57 160.774 637.352 160.67 637.086 160.67C636.836 160.67 636.633 160.787 636.477 161.022C636.326 161.261 636.193 161.662 636.078 162.225C635.969 162.787 635.844 163.261 635.703 163.647C635.266 164.84 634.508 165.436 633.43 165.436C632.659 165.436 632.034 165.105 631.555 164.444C631.081 163.782 630.844 162.928 630.844 161.881C630.844 161.173 630.969 160.543 631.219 159.991C631.474 159.444 631.82 159.014 632.258 158.702C632.701 158.389 633.177 158.233 633.688 158.233V160.373C633.286 160.394 632.979 160.543 632.766 160.819C632.552 161.095 632.445 161.465 632.445 161.928C632.445 162.36 632.526 162.686 632.688 162.905C632.854 163.129 633.07 163.241 633.336 163.241Z" fill="#3740FF"/>
<path d="M631 176.38C631.203 176.276 631.456 176.2 631.758 176.153C631.148 175.606 630.844 174.895 630.844 174.02C630.844 173.192 631.083 172.505 631.563 171.958C632.042 171.416 632.646 171.145 633.375 171.145C634.271 171.145 634.958 171.476 635.438 172.137C635.917 172.804 636.159 173.765 636.164 175.02V176.059H636.648C637.039 176.059 637.352 175.958 637.586 175.755C637.82 175.557 637.938 175.242 637.938 174.809C637.938 174.429 637.846 174.13 637.664 173.911C637.482 173.697 637.232 173.591 636.914 173.591V171.333C637.404 171.333 637.857 171.484 638.273 171.786C638.69 172.088 639.016 172.515 639.25 173.067C639.49 173.619 639.609 174.239 639.609 174.927C639.609 175.968 639.346 176.794 638.82 177.403C638.299 178.018 637.565 178.325 636.617 178.325H632.953C632.151 178.33 631.544 178.442 631.133 178.661H631L631 176.38ZM632.57 174.512C632.57 174.846 632.643 175.153 632.789 175.434C632.94 175.716 633.141 175.924 633.391 176.059H634.844V175.216C634.844 174.085 634.453 173.484 633.672 173.411L633.539 173.403C633.258 173.403 633.026 173.502 632.844 173.7C632.661 173.898 632.57 174.169 632.57 174.512Z" fill="#3740FF"/>
<path d="M636.93 183.578L639.453 185L639.453 187.414L635.313 185.008L631 187.516L631 185.094L633.656 183.586L631 182.086L631 179.656L635.313 182.164L639.453 179.766V182.187L636.93 183.578Z" fill="#3740FF"/>
<path d="M631 191.183L631 188.917H639.453V191.183H631ZM641.641 188.784C641.979 188.784 642.258 188.896 642.477 189.12C642.695 189.349 642.805 189.659 642.805 190.05C642.805 190.435 642.695 190.743 642.477 190.972C642.258 191.201 641.979 191.316 641.641 191.316C641.297 191.316 641.016 191.198 640.797 190.964C640.578 190.735 640.469 190.43 640.469 190.05C640.469 189.67 640.578 189.362 640.797 189.128C641.016 188.899 641.297 188.784 641.641 188.784Z" fill="#3740FF"/>
<path d="M633.336 197.928C633.612 197.928 633.828 197.79 633.984 197.514C634.146 197.243 634.289 196.806 634.414 196.202C634.836 194.191 635.69 193.186 636.977 193.186C637.727 193.186 638.352 193.496 638.852 194.116C639.357 194.741 639.609 195.556 639.609 196.561C639.609 197.634 639.357 198.491 638.852 199.131C638.346 199.777 637.69 200.1 636.883 200.1V197.842C637.206 197.842 637.471 197.738 637.68 197.53C637.893 197.321 638 196.996 638 196.553C638 196.173 637.914 195.879 637.742 195.67C637.57 195.462 637.352 195.358 637.086 195.358C636.836 195.358 636.633 195.475 636.477 195.709C636.326 195.949 636.193 196.35 636.078 196.912C635.969 197.475 635.844 197.949 635.703 198.334C635.266 199.527 634.508 200.123 633.43 200.123C632.659 200.123 632.034 199.793 631.555 199.131C631.081 198.47 630.844 197.616 630.844 196.569C630.844 195.86 630.969 195.23 631.219 194.678C631.474 194.131 631.82 193.702 632.258 193.389C632.701 193.077 633.177 192.92 633.688 192.92L633.688 195.061C633.286 195.082 632.979 195.23 632.766 195.506C632.552 195.782 632.445 196.152 632.445 196.616C632.445 197.048 632.526 197.373 632.688 197.592C632.854 197.816 633.07 197.928 633.336 197.928Z" fill="#3740FF"/>
</svg>
