<svg width="760" height="304" viewBox="0 0 760 304" fill="none" xmlns="http://www.w3.org/2000/svg">
<rect width="760" height="304" fill="white"/>
<rect x="135.5" y="95.5" width="149" height="149" fill="#E8F0FE" stroke="#3740FF"/>
<rect x="305.5" y="95.5" width="149" height="149" fill="#EFE1FF" stroke="#5F6368"/>
<rect x="475.5" y="95.5" width="149" height="149" fill="#E8F0FE" stroke="#3740FF"/>
<path d="M510.354 78.3536C510.549 78.1583 510.549 77.8418 510.354 77.6465L507.172 74.4645C506.976 74.2693 506.66 74.2693 506.464 74.4645C506.269 74.6598 506.269 74.9764 506.464 75.1716L509.293 78.0001L506.464 80.8285C506.269 81.0237 506.269 81.3403 506.464 81.5356C506.66 81.7308 506.976 81.7308 507.172 81.5356L510.354 78.3536ZM210 78.5L510 78.5001L510 77.5001L210 77.5L210 78.5Z" fill="black"/>
<path d="M348.378 54.625L351.3 62.875L354.206 54.625H357.284V66H354.933V62.8906L355.167 57.5234L352.097 66H350.487L347.425 57.5312L347.659 62.8906V66H345.316V54.625H348.378Z" fill="#3740FF"/>
<path d="M364.381 66C364.277 65.7969 364.202 65.5443 364.155 65.2422C363.608 65.8516 362.897 66.1562 362.022 66.1562C361.194 66.1562 360.506 65.9167 359.959 65.4375C359.418 64.9583 359.147 64.3542 359.147 63.625C359.147 62.7292 359.478 62.0417 360.139 61.5625C360.806 61.0833 361.767 60.8411 363.022 60.8359H364.061V60.3516C364.061 59.9609 363.959 59.6484 363.756 59.4141C363.558 59.1797 363.243 59.0625 362.811 59.0625C362.431 59.0625 362.131 59.1536 361.912 59.3359C361.699 59.5182 361.592 59.7682 361.592 60.0859H359.334C359.334 59.5964 359.485 59.1432 359.787 58.7266C360.09 58.3099 360.517 57.9844 361.069 57.75C361.621 57.5104 362.241 57.3906 362.928 57.3906C363.97 57.3906 364.795 57.6536 365.405 58.1797C366.019 58.7005 366.327 59.4349 366.327 60.3828V64.0469C366.332 64.849 366.444 65.4557 366.662 65.8672V66H364.381ZM362.514 64.4297C362.847 64.4297 363.155 64.3568 363.436 64.2109C363.717 64.0599 363.926 63.8594 364.061 63.6094V62.1562H363.217C362.087 62.1562 361.485 62.5469 361.412 63.3281L361.405 63.4609C361.405 63.7422 361.504 63.974 361.702 64.1562C361.899 64.3385 362.17 64.4297 362.514 64.4297Z" fill="#3740FF"/>
<path d="M370.744 66H368.478V57.5469H370.744V66ZM368.345 55.3594C368.345 55.0208 368.457 54.7422 368.681 54.5234C368.91 54.3047 369.22 54.1953 369.611 54.1953C369.996 54.1953 370.304 54.3047 370.533 54.5234C370.762 54.7422 370.877 55.0208 370.877 55.3594C370.877 55.7031 370.759 55.9844 370.525 56.2031C370.296 56.4219 369.991 56.5312 369.611 56.5312C369.231 56.5312 368.923 56.4219 368.689 56.2031C368.46 55.9844 368.345 55.7031 368.345 55.3594Z" fill="#3740FF"/>
<path d="M374.989 57.5469L375.059 58.5234C375.664 57.7682 376.473 57.3906 377.489 57.3906C378.385 57.3906 379.052 57.6536 379.489 58.1797C379.927 58.7057 380.151 59.4922 380.161 60.5391V66H377.903V60.5938C377.903 60.1146 377.799 59.7682 377.591 59.5547C377.382 59.3359 377.036 59.2266 376.552 59.2266C375.916 59.2266 375.44 59.4974 375.122 60.0391V66H372.864V57.5469H374.989Z" fill="#3740FF"/>
<path d="M391.362 66C391.258 65.7969 391.183 65.5443 391.136 65.2422C390.589 65.8516 389.878 66.1562 389.003 66.1562C388.175 66.1562 387.487 65.9167 386.941 65.4375C386.399 64.9583 386.128 64.3542 386.128 63.625C386.128 62.7292 386.459 62.0417 387.12 61.5625C387.787 61.0833 388.748 60.8411 390.003 60.8359H391.042V60.3516C391.042 59.9609 390.941 59.6484 390.737 59.4141C390.54 59.1797 390.224 59.0625 389.792 59.0625C389.412 59.0625 389.112 59.1536 388.894 59.3359C388.68 59.5182 388.573 59.7682 388.573 60.0859H386.316C386.316 59.5964 386.467 59.1432 386.769 58.7266C387.071 58.3099 387.498 57.9844 388.05 57.75C388.602 57.5104 389.222 57.3906 389.909 57.3906C390.951 57.3906 391.777 57.6536 392.386 58.1797C393.001 58.7005 393.308 59.4349 393.308 60.3828V64.0469C393.313 64.849 393.425 65.4557 393.644 65.8672V66H391.362ZM389.495 64.4297C389.829 64.4297 390.136 64.3568 390.417 64.2109C390.698 64.0599 390.907 63.8594 391.042 63.6094V62.1562H390.198C389.068 62.1562 388.467 62.5469 388.394 63.3281L388.386 63.4609C388.386 63.7422 388.485 63.974 388.683 64.1562C388.881 64.3385 389.152 64.4297 389.495 64.4297Z" fill="#3740FF"/>
<path d="M398.561 60.0703L399.983 57.5469H402.397L399.991 61.6875L402.498 66H400.077L398.569 63.3438L397.069 66H394.639L397.147 61.6875L394.748 57.5469H397.17L398.561 60.0703Z" fill="#3740FF"/>
<path d="M406.166 66H403.9V57.5469H406.166V66ZM403.767 55.3594C403.767 55.0208 403.879 54.7422 404.103 54.5234C404.332 54.3047 404.642 54.1953 405.033 54.1953C405.418 54.1953 405.726 54.3047 405.955 54.5234C406.184 54.7422 406.298 55.0208 406.298 55.3594C406.298 55.7031 406.181 55.9844 405.947 56.2031C405.718 56.4219 405.413 56.5312 405.033 56.5312C404.653 56.5312 404.345 56.4219 404.111 56.2031C403.882 55.9844 403.767 55.7031 403.767 55.3594Z" fill="#3740FF"/>
<path d="M412.911 63.6641C412.911 63.388 412.773 63.1719 412.497 63.0156C412.226 62.8542 411.789 62.7109 411.184 62.5859C409.174 62.1641 408.169 61.3099 408.169 60.0234C408.169 59.2734 408.479 58.6484 409.098 58.1484C409.723 57.6432 410.539 57.3906 411.544 57.3906C412.617 57.3906 413.473 57.6432 414.114 58.1484C414.76 58.6536 415.083 59.3099 415.083 60.1172H412.825C412.825 59.7943 412.721 59.5286 412.512 59.3203C412.304 59.1068 411.979 59 411.536 59C411.156 59 410.861 59.0859 410.653 59.2578C410.445 59.4297 410.341 59.6484 410.341 59.9141C410.341 60.1641 410.458 60.3672 410.692 60.5234C410.932 60.6745 411.333 60.8073 411.895 60.9219C412.458 61.0312 412.932 61.1562 413.317 61.2969C414.51 61.7344 415.106 62.4922 415.106 63.5703C415.106 64.3411 414.776 64.9661 414.114 65.4453C413.453 65.9193 412.598 66.1562 411.552 66.1562C410.843 66.1562 410.213 66.0312 409.661 65.7812C409.114 65.526 408.684 65.1797 408.372 64.7422C408.059 64.2995 407.903 63.8229 407.903 63.3125H410.044C410.065 63.7135 410.213 64.0208 410.489 64.2344C410.765 64.4479 411.135 64.5547 411.598 64.5547C412.031 64.5547 412.356 64.474 412.575 64.3125C412.799 64.1458 412.911 63.9297 412.911 63.6641Z" fill="#3740FF"/>
</svg>
