<svg width="760" height="295" viewBox="0 0 760 295" fill="none" xmlns="http://www.w3.org/2000/svg">
<rect width="760" height="295" fill="white"/>
<rect x="207.5" y="85.5" width="228" height="46" fill="#E8F0FE" stroke="#DADCE0"/>
<rect x="446.5" y="84.5" width="98" height="47" fill="#DBFCFF" stroke="#DADCE0"/>
<rect x="573.5" y="84.5" width="117" height="47" fill="#DBFCFF" stroke="#DADCE0"/>
<rect x="82.5" y="134.5" width="405" height="47" fill="#EFE1FF" stroke="#DADCE0"/>
<path d="M55.9795 105.702V112.997H60.2568C60.9795 112.997 61.4922 113.139 61.7949 113.422C62.1074 113.695 62.2637 114.057 62.2637 114.506C62.2637 114.945 62.1074 115.307 61.7949 115.59C61.4922 115.863 60.9795 116 60.2568 116H51.1895C50.4668 116 49.9492 115.863 49.6367 115.59C49.334 115.307 49.1826 114.94 49.1826 114.491C49.1826 114.052 49.334 113.695 49.6367 113.422C49.9492 113.139 50.4668 112.997 51.1895 112.997H52.9766V105.702H51.541C50.8184 105.702 50.3008 105.565 49.9883 105.292C49.6855 105.009 49.5342 104.643 49.5342 104.193C49.5342 103.754 49.6855 103.397 49.9883 103.124C50.3008 102.841 50.8184 102.699 51.541 102.699H52.9766V101.557C52.9766 100.248 53.4648 99.1641 54.4414 98.3047C55.4277 97.4355 56.8535 97.001 58.7188 97.001C59.5488 97.001 60.5059 97.0791 61.5898 97.2354C62.6836 97.3818 63.3818 97.5918 63.6846 97.8652C63.9971 98.1387 64.1533 98.4902 64.1533 98.9199C64.1533 99.3789 64.0166 99.7549 63.7432 100.048C63.4697 100.331 63.1328 100.473 62.7324 100.473C62.5469 100.473 62.2686 100.438 61.8975 100.37C60.6572 100.126 59.5586 100.004 58.6016 100.004C57.6055 100.004 56.917 100.155 56.5361 100.458C56.165 100.751 55.9795 101.117 55.9795 101.557V102.699H60.6084C61.3311 102.699 61.8438 102.841 62.1465 103.124C62.459 103.397 62.6152 103.759 62.6152 104.208C62.6152 104.647 62.459 105.009 62.1465 105.292C61.8438 105.565 61.3311 105.702 60.6084 105.702H55.9795ZM80.6984 102.699V112.997C81.3332 112.997 81.802 113.139 82.1047 113.422C82.4074 113.705 82.5588 114.066 82.5588 114.506C82.5588 114.945 82.4025 115.307 82.09 115.59C81.7873 115.863 81.2746 116 80.552 116H77.6955V115.312C76.8361 115.702 76.0158 115.995 75.2346 116.19C74.4533 116.386 73.7111 116.483 73.008 116.483C72.0217 116.483 71.1672 116.278 70.4445 115.868C69.7219 115.448 69.1506 114.872 68.7307 114.14C68.4279 113.612 68.2766 112.953 68.2766 112.162V105.702H67.7639C67.0412 105.702 66.5236 105.565 66.2111 105.292C65.9084 105.009 65.757 104.643 65.757 104.193C65.757 103.754 65.9084 103.397 66.2111 103.124C66.5236 102.841 67.0412 102.699 67.7639 102.699H71.2795V111.635C71.2795 112.27 71.4309 112.738 71.7336 113.041C72.0461 113.334 72.5197 113.48 73.1545 113.48C73.76 113.48 74.4094 113.363 75.1027 113.129C75.8059 112.885 76.6701 112.45 77.6955 111.825V105.702H76.6115C75.8889 105.702 75.3713 105.565 75.0588 105.292C74.7561 105.009 74.6047 104.643 74.6047 104.193C74.6047 103.754 74.7561 103.397 75.0588 103.124C75.3713 102.841 75.8889 102.699 76.6115 102.699H80.6984ZM89.5971 102.699V103.71C90.1439 103.241 90.7445 102.89 91.3988 102.655C92.0629 102.421 92.7807 102.304 93.5521 102.304C95.3295 102.304 96.7357 102.855 97.7709 103.959C98.5912 104.838 99.0014 105.99 99.0014 107.416V112.997C99.6361 112.997 100.105 113.139 100.408 113.422C100.71 113.695 100.862 114.057 100.862 114.506C100.862 114.945 100.705 115.307 100.393 115.59C100.09 115.863 99.5775 116 98.8549 116H96.1449C95.4223 116 94.9047 115.863 94.5922 115.59C94.2895 115.307 94.1381 114.94 94.1381 114.491C94.1381 114.052 94.2895 113.695 94.5922 113.422C94.8949 113.139 95.3637 112.997 95.9984 112.997V107.328C95.9984 106.674 95.8227 106.195 95.4711 105.893C95.0121 105.502 94.3236 105.307 93.4057 105.307C92.7123 105.307 92.102 105.443 91.5746 105.717C91.057 105.98 90.3979 106.547 89.5971 107.416V112.997C90.3686 112.997 90.8666 113.07 91.0912 113.217C91.5697 113.51 91.809 113.939 91.809 114.506C91.809 114.945 91.6527 115.307 91.3402 115.59C91.0375 115.863 90.5248 116 89.8021 116H86.3891C85.6664 116 85.1488 115.863 84.8363 115.59C84.5336 115.307 84.3822 114.94 84.3822 114.491C84.3822 113.944 84.6166 113.52 85.0854 113.217C85.3197 113.07 85.8227 112.997 86.5941 112.997V105.702C85.9594 105.702 85.4906 105.561 85.1879 105.277C84.8852 104.994 84.7338 104.633 84.7338 104.193C84.7338 103.754 84.8852 103.397 85.1879 103.124C85.5004 102.841 86.018 102.699 86.7406 102.699H89.5971ZM115.634 103.241C115.996 102.899 116.367 102.729 116.748 102.729C117.177 102.729 117.529 102.885 117.802 103.197C118.086 103.5 118.227 104.008 118.227 104.721V106.654C118.227 107.377 118.086 107.89 117.802 108.192C117.529 108.495 117.168 108.646 116.718 108.646C116.308 108.646 115.962 108.529 115.678 108.295C115.473 108.119 115.312 107.763 115.195 107.226C115.078 106.679 114.795 106.273 114.345 106.01C113.554 105.541 112.544 105.307 111.313 105.307C109.897 105.307 108.759 105.722 107.9 106.552C107.05 107.382 106.626 108.432 106.626 109.701C106.626 110.873 107.036 111.801 107.856 112.484C108.676 113.158 110.039 113.495 111.943 113.495C113.193 113.495 114.213 113.368 115.004 113.114C115.473 112.958 115.918 112.694 116.338 112.323C116.757 111.942 117.138 111.752 117.48 111.752C117.89 111.752 118.242 111.903 118.535 112.206C118.838 112.509 118.989 112.865 118.989 113.275C118.989 113.939 118.535 114.569 117.627 115.165C116.279 116.054 114.306 116.498 111.709 116.498C109.375 116.498 107.558 116.015 106.259 115.048C104.502 113.749 103.623 111.972 103.623 109.716C103.623 107.577 104.336 105.81 105.761 104.413C107.187 103.007 109.047 102.304 111.342 102.304C112.172 102.304 112.944 102.382 113.657 102.538C114.37 102.694 115.029 102.929 115.634 103.241ZM128.532 105.702V111.723C128.532 112.367 128.664 112.792 128.928 112.997C129.338 113.319 130.07 113.48 131.125 113.48C132.658 113.48 134.074 113.153 135.373 112.499C135.871 112.245 136.262 112.118 136.545 112.118C136.935 112.118 137.272 112.265 137.555 112.558C137.848 112.851 137.995 113.207 137.995 113.627C137.995 114.018 137.839 114.354 137.526 114.638C137.048 115.097 136.1 115.521 134.684 115.912C133.278 116.293 132.092 116.483 131.125 116.483C129.26 116.483 127.858 116.083 126.921 115.282C125.993 114.472 125.529 113.48 125.529 112.309V105.702H124.445C123.722 105.702 123.205 105.565 122.892 105.292C122.59 105.009 122.438 104.643 122.438 104.193C122.438 103.754 122.59 103.397 122.892 103.124C123.205 102.841 123.722 102.699 124.445 102.699H125.529V99.9893C125.529 99.2666 125.666 98.7539 125.939 98.4512C126.222 98.1387 126.589 97.9824 127.038 97.9824C127.477 97.9824 127.834 98.1387 128.107 98.4512C128.39 98.7539 128.532 99.2666 128.532 99.9893V102.699H134.084C134.806 102.699 135.319 102.841 135.622 103.124C135.934 103.397 136.091 103.759 136.091 104.208C136.091 104.647 135.934 105.009 135.622 105.292C135.319 105.565 134.806 105.702 134.084 105.702H128.532ZM148.666 97.001V100.18H145.092V97.001H148.666ZM149.076 102.699V112.997H152.68C153.402 112.997 153.915 113.139 154.218 113.422C154.53 113.695 154.687 114.057 154.687 114.506C154.687 114.945 154.53 115.307 154.218 115.59C153.915 115.863 153.402 116 152.68 116H142.47C141.747 116 141.229 115.863 140.917 115.59C140.614 115.307 140.463 114.94 140.463 114.491C140.463 114.052 140.614 113.695 140.917 113.422C141.229 113.139 141.747 112.997 142.47 112.997H146.073V105.702H143.656C142.943 105.702 142.431 105.565 142.118 105.292C141.806 105.009 141.649 104.643 141.649 104.193C141.649 103.754 141.801 103.397 142.104 103.124C142.416 102.841 142.934 102.699 143.656 102.699H149.076ZM173.707 109.599C173.707 110.751 173.385 111.869 172.74 112.953C172.106 114.027 171.154 114.887 169.884 115.531C168.624 116.166 167.306 116.483 165.929 116.483C164.562 116.483 163.253 116.171 162.003 115.546C160.753 114.911 159.801 114.052 159.147 112.968C158.492 111.884 158.165 110.751 158.165 109.569C158.165 108.368 158.497 107.191 159.161 106.039C159.825 104.877 160.778 103.964 162.018 103.3C163.268 102.636 164.571 102.304 165.929 102.304C167.296 102.304 168.61 102.646 169.869 103.329C171.139 104.003 172.096 104.916 172.74 106.068C173.385 107.211 173.707 108.388 173.707 109.599ZM170.704 109.613C170.704 108.646 170.358 107.758 169.664 106.947C168.717 105.854 167.472 105.307 165.929 105.307C164.571 105.307 163.439 105.741 162.53 106.61C161.622 107.479 161.168 108.485 161.168 109.628C161.168 110.565 161.627 111.444 162.545 112.265C163.463 113.075 164.591 113.48 165.929 113.48C167.277 113.48 168.409 113.075 169.327 112.265C170.245 111.444 170.704 110.561 170.704 109.613ZM181.185 102.699V103.71C181.732 103.241 182.332 102.89 182.987 102.655C183.651 102.421 184.369 102.304 185.14 102.304C186.917 102.304 188.324 102.855 189.359 103.959C190.179 104.838 190.589 105.99 190.589 107.416V112.997C191.224 112.997 191.693 113.139 191.996 113.422C192.298 113.695 192.45 114.057 192.45 114.506C192.45 114.945 192.293 115.307 191.981 115.59C191.678 115.863 191.165 116 190.443 116H187.733C187.01 116 186.493 115.863 186.18 115.59C185.877 115.307 185.726 114.94 185.726 114.491C185.726 114.052 185.877 113.695 186.18 113.422C186.483 113.139 186.952 112.997 187.586 112.997V107.328C187.586 106.674 187.411 106.195 187.059 105.893C186.6 105.502 185.912 105.307 184.994 105.307C184.3 105.307 183.69 105.443 183.163 105.717C182.645 105.98 181.986 106.547 181.185 107.416V112.997C181.956 112.997 182.454 113.07 182.679 113.217C183.158 113.51 183.397 113.939 183.397 114.506C183.397 114.945 183.241 115.307 182.928 115.59C182.625 115.863 182.113 116 181.39 116H177.977C177.254 116 176.737 115.863 176.424 115.59C176.121 115.307 175.97 114.94 175.97 114.491C175.97 113.944 176.204 113.52 176.673 113.217C176.908 113.07 177.411 112.997 178.182 112.997V105.702C177.547 105.702 177.079 105.561 176.776 105.277C176.473 104.994 176.322 104.633 176.322 104.193C176.322 103.754 176.473 103.397 176.776 103.124C177.088 102.841 177.606 102.699 178.329 102.699H181.185ZM92.0141 152.699V154.574C93.2738 153.666 94.265 153.061 94.9877 152.758C95.7201 152.455 96.4037 152.304 97.0385 152.304C98.015 152.304 98.9623 152.665 99.8803 153.388C100.505 153.876 100.818 154.374 100.818 154.882C100.818 155.312 100.666 155.678 100.364 155.98C100.071 156.273 99.7143 156.42 99.2943 156.42C98.9232 156.42 98.5326 156.234 98.1225 155.863C97.7123 155.492 97.3461 155.307 97.0238 155.307C96.6039 155.307 95.974 155.57 95.1342 156.098C94.3041 156.625 93.2641 157.416 92.0141 158.471V162.997H96.2914C97.0141 162.997 97.5268 163.139 97.8295 163.422C98.142 163.695 98.2982 164.057 98.2982 164.506C98.2982 164.945 98.142 165.307 97.8295 165.59C97.5268 165.863 97.0141 166 96.2914 166H87.224C86.5014 166 85.9838 165.863 85.6713 165.59C85.3686 165.307 85.2172 164.94 85.2172 164.491C85.2172 164.052 85.3686 163.695 85.6713 163.422C85.9838 163.139 86.5014 162.997 87.224 162.997H89.0111V155.702H87.9271C87.2045 155.702 86.6869 155.565 86.3744 155.292C86.0717 155.009 85.9203 154.643 85.9203 154.193C85.9203 153.754 86.0717 153.397 86.3744 153.124C86.6869 152.841 87.2045 152.699 87.9271 152.699H92.0141ZM118.491 160.873H106.171C106.484 161.654 107.036 162.284 107.827 162.763C108.628 163.241 109.707 163.48 111.064 163.48C112.177 163.48 113.657 163.241 115.503 162.763C116.264 162.567 116.792 162.47 117.085 162.47C117.485 162.47 117.822 162.611 118.095 162.895C118.369 163.178 118.505 163.534 118.505 163.964C118.505 164.354 118.359 164.687 118.066 164.96C117.675 165.321 116.723 165.668 115.21 166C113.696 166.322 112.241 166.483 110.844 166.483C108.442 166.483 106.518 165.805 105.073 164.447C103.637 163.09 102.92 161.42 102.92 159.438C102.92 157.328 103.696 155.614 105.249 154.296C106.811 152.968 108.608 152.304 110.639 152.304C111.86 152.304 112.978 152.519 113.994 152.948C115.019 153.378 115.781 153.842 116.279 154.34C116.982 155.062 117.563 155.956 118.022 157.021C118.335 157.763 118.491 158.622 118.491 159.599V160.873ZM115.166 157.87C114.707 157.011 114.106 156.371 113.364 155.951C112.622 155.521 111.738 155.307 110.713 155.307C109.697 155.307 108.818 155.521 108.076 155.951C107.334 156.371 106.728 157.011 106.259 157.87H115.166ZM128.532 155.702V161.723C128.532 162.367 128.664 162.792 128.928 162.997C129.338 163.319 130.07 163.48 131.125 163.48C132.658 163.48 134.074 163.153 135.373 162.499C135.871 162.245 136.262 162.118 136.545 162.118C136.935 162.118 137.272 162.265 137.555 162.558C137.848 162.851 137.995 163.207 137.995 163.627C137.995 164.018 137.839 164.354 137.526 164.638C137.048 165.097 136.1 165.521 134.684 165.912C133.278 166.293 132.092 166.483 131.125 166.483C129.26 166.483 127.858 166.083 126.921 165.282C125.993 164.472 125.529 163.48 125.529 162.309V155.702H124.445C123.722 155.702 123.205 155.565 122.892 155.292C122.59 155.009 122.438 154.643 122.438 154.193C122.438 153.754 122.59 153.397 122.892 153.124C123.205 152.841 123.722 152.699 124.445 152.699H125.529V149.989C125.529 149.267 125.666 148.754 125.939 148.451C126.222 148.139 126.589 147.982 127.038 147.982C127.477 147.982 127.834 148.139 128.107 148.451C128.39 148.754 128.532 149.267 128.532 149.989V152.699H134.084C134.806 152.699 135.319 152.841 135.622 153.124C135.934 153.397 136.091 153.759 136.091 154.208C136.091 154.647 135.934 155.009 135.622 155.292C135.319 155.565 134.806 155.702 134.084 155.702H128.532ZM153.969 152.699V162.997C154.604 162.997 155.072 163.139 155.375 163.422C155.678 163.705 155.829 164.066 155.829 164.506C155.829 164.945 155.673 165.307 155.36 165.59C155.058 165.863 154.545 166 153.822 166H150.966V165.312C150.106 165.702 149.286 165.995 148.505 166.19C147.724 166.386 146.981 166.483 146.278 166.483C145.292 166.483 144.438 166.278 143.715 165.868C142.992 165.448 142.421 164.872 142.001 164.14C141.698 163.612 141.547 162.953 141.547 162.162V155.702H141.034C140.312 155.702 139.794 155.565 139.481 155.292C139.179 155.009 139.027 154.643 139.027 154.193C139.027 153.754 139.179 153.397 139.481 153.124C139.794 152.841 140.312 152.699 141.034 152.699H144.55V161.635C144.55 162.27 144.701 162.738 145.004 163.041C145.316 163.334 145.79 163.48 146.425 163.48C147.03 163.48 147.68 163.363 148.373 163.129C149.076 162.885 149.94 162.45 150.966 161.825V155.702H149.882C149.159 155.702 148.642 155.565 148.329 155.292C148.026 155.009 147.875 154.643 147.875 154.193C147.875 153.754 148.026 153.397 148.329 153.124C148.642 152.841 149.159 152.699 149.882 152.699H153.969ZM165.284 152.699V154.574C166.544 153.666 167.535 153.061 168.258 152.758C168.99 152.455 169.674 152.304 170.309 152.304C171.285 152.304 172.233 152.665 173.151 153.388C173.776 153.876 174.088 154.374 174.088 154.882C174.088 155.312 173.937 155.678 173.634 155.98C173.341 156.273 172.985 156.42 172.565 156.42C172.194 156.42 171.803 156.234 171.393 155.863C170.983 155.492 170.616 155.307 170.294 155.307C169.874 155.307 169.244 155.57 168.404 156.098C167.574 156.625 166.534 157.416 165.284 158.471V162.997H169.562C170.284 162.997 170.797 163.139 171.1 163.422C171.412 163.695 171.569 164.057 171.569 164.506C171.569 164.945 171.412 165.307 171.1 165.59C170.797 165.863 170.284 166 169.562 166H160.494C159.772 166 159.254 165.863 158.942 165.59C158.639 165.307 158.488 164.94 158.488 164.491C158.488 164.052 158.639 163.695 158.942 163.422C159.254 163.139 159.772 162.997 160.494 162.997H162.281V155.702H161.197C160.475 155.702 159.957 155.565 159.645 155.292C159.342 155.009 159.191 154.643 159.191 154.193C159.191 153.754 159.342 153.397 159.645 153.124C159.957 152.841 160.475 152.699 161.197 152.699H165.284ZM181.185 152.699V153.71C181.732 153.241 182.332 152.89 182.987 152.655C183.651 152.421 184.369 152.304 185.14 152.304C186.917 152.304 188.324 152.855 189.359 153.959C190.179 154.838 190.589 155.99 190.589 157.416V162.997C191.224 162.997 191.693 163.139 191.996 163.422C192.298 163.695 192.45 164.057 192.45 164.506C192.45 164.945 192.293 165.307 191.981 165.59C191.678 165.863 191.165 166 190.443 166H187.733C187.01 166 186.493 165.863 186.18 165.59C185.877 165.307 185.726 164.94 185.726 164.491C185.726 164.052 185.877 163.695 186.18 163.422C186.483 163.139 186.952 162.997 187.586 162.997V157.328C187.586 156.674 187.411 156.195 187.059 155.893C186.6 155.502 185.912 155.307 184.994 155.307C184.3 155.307 183.69 155.443 183.163 155.717C182.645 155.98 181.986 156.547 181.185 157.416V162.997C181.956 162.997 182.454 163.07 182.679 163.217C183.158 163.51 183.397 163.939 183.397 164.506C183.397 164.945 183.241 165.307 182.928 165.59C182.625 165.863 182.113 166 181.39 166H177.977C177.254 166 176.737 165.863 176.424 165.59C176.121 165.307 175.97 164.94 175.97 164.491C175.97 163.944 176.204 163.52 176.673 163.217C176.908 163.07 177.411 162.997 178.182 162.997V155.702C177.547 155.702 177.079 155.561 176.776 155.277C176.473 154.994 176.322 154.633 176.322 154.193C176.322 153.754 176.473 153.397 176.776 153.124C177.088 152.841 177.606 152.699 178.329 152.699H181.185Z" fill="#0C55FF"/>
<path d="M224.104 106.215C223.616 105.912 223.103 105.688 222.566 105.541C222.029 105.385 221.468 105.307 220.882 105.307C219.72 105.307 218.797 105.497 218.113 105.878C217.81 106.044 217.659 106.225 217.659 106.42C217.659 106.645 217.864 106.864 218.274 107.079C218.587 107.235 219.285 107.387 220.369 107.533C222.361 107.807 223.748 108.08 224.529 108.354C225.554 108.715 226.346 109.252 226.902 109.965C227.459 110.678 227.737 111.43 227.737 112.221C227.737 113.295 227.263 114.193 226.316 114.916C224.959 115.961 223.196 116.483 221.028 116.483C220.159 116.483 219.353 116.405 218.611 116.249C217.879 116.103 217.205 115.883 216.59 115.59C216.443 115.717 216.287 115.814 216.121 115.883C215.955 115.951 215.784 115.985 215.608 115.985C215.139 115.985 214.763 115.834 214.48 115.531C214.207 115.219 214.07 114.701 214.07 113.979V112.968C214.07 112.245 214.207 111.732 214.48 111.43C214.763 111.117 215.13 110.961 215.579 110.961C215.94 110.961 216.243 111.063 216.487 111.269C216.731 111.464 216.922 111.806 217.058 112.294C217.517 112.685 218.069 112.982 218.714 113.188C219.358 113.383 220.1 113.48 220.94 113.48C222.317 113.48 223.387 113.266 224.148 112.836C224.51 112.621 224.69 112.396 224.69 112.162C224.69 111.771 224.431 111.449 223.914 111.195C223.396 110.941 222.327 110.727 220.706 110.551C218.294 110.297 216.682 109.809 215.872 109.086C215.061 108.373 214.656 107.494 214.656 106.449C214.656 105.375 215.11 104.481 216.018 103.769C217.249 102.792 218.86 102.304 220.852 102.304C221.546 102.304 222.21 102.372 222.845 102.509C223.489 102.636 224.104 102.836 224.69 103.109C224.876 102.973 225.047 102.87 225.203 102.802C225.369 102.733 225.52 102.699 225.657 102.699C226.067 102.699 226.409 102.855 226.682 103.168C226.956 103.471 227.093 103.983 227.093 104.706V105.438C227.093 106.093 227.014 106.537 226.858 106.771C226.546 107.221 226.121 107.445 225.584 107.445C225.222 107.445 224.905 107.333 224.632 107.108C224.358 106.884 224.182 106.586 224.104 106.215ZM246.143 105.702V119.267H246.67C247.383 119.267 247.891 119.403 248.193 119.677C248.506 119.96 248.662 120.326 248.662 120.775C248.662 121.215 248.511 121.571 248.208 121.845C247.905 122.128 247.393 122.27 246.67 122.27H241.353C240.63 122.27 240.112 122.128 239.8 121.845C239.497 121.571 239.346 121.215 239.346 120.775C239.346 120.326 239.497 119.96 239.8 119.677C240.112 119.403 240.63 119.267 241.353 119.267H243.14V114.345C242.407 114.794 241.66 115.131 240.898 115.355C240.146 115.58 239.385 115.692 238.613 115.692C236.826 115.692 235.22 115.155 233.794 114.081C232.085 112.792 231.23 111.156 231.23 109.174C231.23 107.377 231.953 105.785 233.398 104.398C234.844 103.002 236.597 102.304 238.657 102.304C239.448 102.304 240.215 102.421 240.957 102.655C241.709 102.89 242.437 103.246 243.14 103.725V102.699H246.67C247.383 102.699 247.891 102.841 248.193 103.124C248.506 103.397 248.662 103.759 248.662 104.208C248.662 104.647 248.511 105.009 248.208 105.292C247.905 105.565 247.393 105.702 246.67 105.702H246.143ZM243.14 109.188C243.14 108.769 242.974 108.236 242.642 107.592C242.31 106.938 241.797 106.396 241.104 105.966C240.41 105.526 239.604 105.307 238.687 105.307C237.183 105.307 235.996 105.868 235.127 106.991C234.531 107.763 234.233 108.505 234.233 109.218C234.233 110.028 234.658 110.81 235.508 111.562C236.367 112.313 237.427 112.689 238.687 112.689C239.956 112.689 241.016 112.313 241.865 111.562C242.715 110.81 243.14 110.019 243.14 109.188ZM263.874 102.699V112.997C264.509 112.997 264.978 113.139 265.28 113.422C265.583 113.705 265.735 114.066 265.735 114.506C265.735 114.945 265.578 115.307 265.266 115.59C264.963 115.863 264.45 116 263.728 116H260.871V115.312C260.012 115.702 259.192 115.995 258.41 116.19C257.629 116.386 256.887 116.483 256.184 116.483C255.197 116.483 254.343 116.278 253.62 115.868C252.898 115.448 252.326 114.872 251.906 114.14C251.604 113.612 251.452 112.953 251.452 112.162V105.702H250.94C250.217 105.702 249.699 105.565 249.387 105.292C249.084 105.009 248.933 104.643 248.933 104.193C248.933 103.754 249.084 103.397 249.387 103.124C249.699 102.841 250.217 102.699 250.94 102.699H254.455V111.635C254.455 112.27 254.607 112.738 254.909 113.041C255.222 113.334 255.696 113.48 256.33 113.48C256.936 113.48 257.585 113.363 258.279 113.129C258.982 112.885 259.846 112.45 260.871 111.825V105.702H259.787C259.065 105.702 258.547 105.565 258.235 105.292C257.932 105.009 257.78 104.643 257.78 104.193C257.78 103.754 257.932 103.397 258.235 103.124C258.547 102.841 259.065 102.699 259.787 102.699H263.874ZM278.515 116V115.297C277.763 115.697 276.933 115.995 276.025 116.19C275.117 116.396 274.291 116.498 273.549 116.498C271.938 116.498 270.629 116.073 269.623 115.224C268.618 114.364 268.115 113.417 268.115 112.382C268.115 111.122 268.754 109.955 270.034 108.881C271.323 107.797 273.1 107.255 275.366 107.255C276.274 107.255 277.324 107.353 278.515 107.548V106.83C278.515 106.381 278.32 106.015 277.929 105.731C277.548 105.448 276.816 105.307 275.732 105.307C274.843 105.307 273.691 105.482 272.275 105.834C271.747 105.961 271.337 106.024 271.044 106.024C270.644 106.024 270.302 105.883 270.019 105.6C269.746 105.307 269.609 104.936 269.609 104.486C269.609 104.232 269.658 104.013 269.755 103.827C269.853 103.642 269.99 103.495 270.165 103.388C270.341 103.271 270.707 103.134 271.264 102.978C272.006 102.772 272.763 102.611 273.535 102.494C274.306 102.367 275.004 102.304 275.629 102.304C277.495 102.304 278.94 102.709 279.965 103.52C281 104.32 281.518 105.419 281.518 106.815V112.997H282.031C282.753 112.997 283.266 113.139 283.569 113.422C283.881 113.695 284.038 114.057 284.038 114.506C284.038 114.945 283.881 115.307 283.569 115.59C283.266 115.863 282.753 116 282.031 116H278.515ZM278.515 110.624C277.314 110.39 276.205 110.272 275.19 110.272C273.969 110.272 272.919 110.57 272.04 111.166C271.494 111.547 271.22 111.933 271.22 112.323C271.22 112.606 271.352 112.836 271.616 113.012C272.104 113.334 272.773 113.495 273.622 113.495C274.345 113.495 275.161 113.354 276.069 113.07C276.987 112.787 277.802 112.401 278.515 111.913V110.624ZM293.507 102.699V104.574C294.767 103.666 295.758 103.061 296.481 102.758C297.213 102.455 297.897 102.304 298.532 102.304C299.508 102.304 300.456 102.665 301.374 103.388C301.999 103.876 302.311 104.374 302.311 104.882C302.311 105.312 302.16 105.678 301.857 105.98C301.564 106.273 301.208 106.42 300.788 106.42C300.417 106.42 300.026 106.234 299.616 105.863C299.206 105.492 298.839 105.307 298.517 105.307C298.097 105.307 297.467 105.57 296.628 106.098C295.797 106.625 294.757 107.416 293.507 108.471V112.997H297.785C298.507 112.997 299.02 113.139 299.323 113.422C299.635 113.695 299.792 114.057 299.792 114.506C299.792 114.945 299.635 115.307 299.323 115.59C299.02 115.863 298.507 116 297.785 116H288.717C287.995 116 287.477 115.863 287.165 115.59C286.862 115.307 286.711 114.94 286.711 114.491C286.711 114.052 286.862 113.695 287.165 113.422C287.477 113.139 287.995 112.997 288.717 112.997H290.504V105.702H289.421C288.698 105.702 288.18 105.565 287.868 105.292C287.565 105.009 287.414 104.643 287.414 104.193C287.414 103.754 287.565 103.397 287.868 103.124C288.18 102.841 288.698 102.699 289.421 102.699H293.507ZM319.984 110.873H307.665C307.977 111.654 308.529 112.284 309.32 112.763C310.121 113.241 311.2 113.48 312.557 113.48C313.671 113.48 315.15 113.241 316.996 112.763C317.758 112.567 318.285 112.47 318.578 112.47C318.978 112.47 319.315 112.611 319.589 112.895C319.862 113.178 319.999 113.534 319.999 113.964C319.999 114.354 319.852 114.687 319.559 114.96C319.169 115.321 318.217 115.668 316.703 116C315.189 116.322 313.734 116.483 312.338 116.483C309.935 116.483 308.012 115.805 306.566 114.447C305.131 113.09 304.413 111.42 304.413 109.438C304.413 107.328 305.189 105.614 306.742 104.296C308.305 102.968 310.101 102.304 312.133 102.304C313.353 102.304 314.471 102.519 315.487 102.948C316.513 103.378 317.274 103.842 317.772 104.34C318.475 105.062 319.056 105.956 319.515 107.021C319.828 107.763 319.984 108.622 319.984 109.599V110.873ZM316.659 107.87C316.2 107.011 315.599 106.371 314.857 105.951C314.115 105.521 313.231 105.307 312.206 105.307C311.19 105.307 310.311 105.521 309.569 105.951C308.827 106.371 308.221 107.011 307.753 107.87H316.659ZM326.07 104.047V112.997H327.154C327.877 112.997 328.39 113.139 328.692 113.422C329.005 113.695 329.161 114.057 329.161 114.506C329.161 114.945 329.005 115.307 328.692 115.59C328.39 115.863 327.877 116 327.154 116H323.214C322.491 116 321.979 115.863 321.676 115.59C321.363 115.307 321.207 114.94 321.207 114.491C321.207 114.052 321.358 113.695 321.661 113.422C321.964 113.139 322.433 112.997 323.067 112.997V101.249C322.54 101.2 322.14 101.039 321.866 100.766C321.603 100.492 321.471 100.15 321.471 99.7402C321.471 99.291 321.622 98.9297 321.925 98.6562C322.237 98.373 322.755 98.2314 323.478 98.2314L326.773 98.2461L330.86 107.284L334.874 98.2314L338.199 98.2461C338.922 98.2461 339.435 98.3828 339.737 98.6562C340.05 98.9297 340.206 99.291 340.206 99.7402C340.206 100.15 340.069 100.492 339.796 100.766C339.522 101.039 339.127 101.2 338.609 101.249V112.997C339.244 112.997 339.713 113.139 340.016 113.422C340.318 113.705 340.47 114.066 340.47 114.506C340.47 114.945 340.313 115.307 340.001 115.59C339.698 115.863 339.186 116 338.463 116H334.508C333.795 116 333.282 115.863 332.97 115.59C332.667 115.307 332.516 114.94 332.516 114.491C332.516 114.052 332.667 113.695 332.97 113.422C333.282 113.139 333.795 112.997 334.508 112.997H335.606V104.047L332.164 111.781H329.557L326.07 104.047ZM356.619 110.873H344.3C344.612 111.654 345.164 112.284 345.955 112.763C346.756 113.241 347.835 113.48 349.193 113.48C350.306 113.48 351.785 113.241 353.631 112.763C354.393 112.567 354.92 112.47 355.213 112.47C355.613 112.47 355.95 112.611 356.224 112.895C356.497 113.178 356.634 113.534 356.634 113.964C356.634 114.354 356.487 114.687 356.195 114.96C355.804 115.321 354.852 115.668 353.338 116C351.824 116.322 350.369 116.483 348.973 116.483C346.57 116.483 344.647 115.805 343.201 114.447C341.766 113.09 341.048 111.42 341.048 109.438C341.048 107.328 341.824 105.614 343.377 104.296C344.94 102.968 346.737 102.304 348.768 102.304C349.988 102.304 351.107 102.519 352.122 102.948C353.148 103.378 353.909 103.842 354.407 104.34C355.111 105.062 355.692 105.956 356.151 107.021C356.463 107.763 356.619 108.622 356.619 109.599V110.873ZM353.294 107.87C352.835 107.011 352.235 106.371 351.492 105.951C350.75 105.521 349.866 105.307 348.841 105.307C347.825 105.307 346.946 105.521 346.204 105.951C345.462 106.371 344.857 107.011 344.388 107.87H353.294ZM366.661 105.702V111.723C366.661 112.367 366.792 112.792 367.056 112.997C367.466 113.319 368.199 113.48 369.253 113.48C370.787 113.48 372.203 113.153 373.501 112.499C373.999 112.245 374.39 112.118 374.673 112.118C375.064 112.118 375.401 112.265 375.684 112.558C375.977 112.851 376.123 113.207 376.123 113.627C376.123 114.018 375.967 114.354 375.655 114.638C375.176 115.097 374.229 115.521 372.813 115.912C371.407 116.293 370.22 116.483 369.253 116.483C367.388 116.483 365.987 116.083 365.049 115.282C364.121 114.472 363.658 113.48 363.658 112.309V105.702H362.574C361.851 105.702 361.333 105.565 361.021 105.292C360.718 105.009 360.567 104.643 360.567 104.193C360.567 103.754 360.718 103.397 361.021 103.124C361.333 102.841 361.851 102.699 362.574 102.699H363.658V99.9893C363.658 99.2666 363.794 98.7539 364.068 98.4512C364.351 98.1387 364.717 97.9824 365.166 97.9824C365.606 97.9824 365.962 98.1387 366.236 98.4512C366.519 98.7539 366.661 99.2666 366.661 99.9893V102.699H372.212C372.935 102.699 373.448 102.841 373.75 103.124C374.063 103.397 374.219 103.759 374.219 104.208C374.219 104.647 374.063 105.009 373.75 105.292C373.448 105.565 372.935 105.702 372.212 105.702H366.661ZM393.254 110.873H380.935C381.248 111.654 381.799 112.284 382.59 112.763C383.391 113.241 384.47 113.48 385.828 113.48C386.941 113.48 388.421 113.241 390.266 112.763C391.028 112.567 391.555 112.47 391.848 112.47C392.249 112.47 392.586 112.611 392.859 112.895C393.132 113.178 393.269 113.534 393.269 113.964C393.269 114.354 393.123 114.687 392.83 114.96C392.439 115.321 391.487 115.668 389.973 116C388.46 116.322 387.004 116.483 385.608 116.483C383.206 116.483 381.282 115.805 379.837 114.447C378.401 113.09 377.683 111.42 377.683 109.438C377.683 107.328 378.46 105.614 380.012 104.296C381.575 102.968 383.372 102.304 385.403 102.304C386.624 102.304 387.742 102.519 388.757 102.948C389.783 103.378 390.545 103.842 391.043 104.34C391.746 105.062 392.327 105.956 392.786 107.021C393.098 107.763 393.254 108.622 393.254 109.599V110.873ZM389.929 107.87C389.47 107.011 388.87 106.371 388.128 105.951C387.385 105.521 386.502 105.307 385.476 105.307C384.461 105.307 383.582 105.521 382.839 105.951C382.097 106.371 381.492 107.011 381.023 107.87H389.929ZM403.413 102.699V104.574C404.673 103.666 405.664 103.061 406.387 102.758C407.119 102.455 407.803 102.304 408.437 102.304C409.414 102.304 410.361 102.665 411.279 103.388C411.904 103.876 412.217 104.374 412.217 104.882C412.217 105.312 412.065 105.678 411.763 105.98C411.47 106.273 411.113 106.42 410.693 106.42C410.322 106.42 409.931 106.234 409.521 105.863C409.111 105.492 408.745 105.307 408.423 105.307C408.003 105.307 407.373 105.57 406.533 106.098C405.703 106.625 404.663 107.416 403.413 108.471V112.997H407.69C408.413 112.997 408.926 113.139 409.228 113.422C409.541 113.695 409.697 114.057 409.697 114.506C409.697 114.945 409.541 115.307 409.228 115.59C408.926 115.863 408.413 116 407.69 116H398.623C397.9 116 397.383 115.863 397.07 115.59C396.767 115.307 396.616 114.94 396.616 114.491C396.616 114.052 396.767 113.695 397.07 113.422C397.383 113.139 397.9 112.997 398.623 112.997H400.41V105.702H399.326C398.603 105.702 398.086 105.565 397.773 105.292C397.471 105.009 397.319 104.643 397.319 104.193C397.319 103.754 397.471 103.397 397.773 103.124C398.086 102.841 398.603 102.699 399.326 102.699H403.413ZM425.598 106.215C425.109 105.912 424.597 105.688 424.06 105.541C423.522 105.385 422.961 105.307 422.375 105.307C421.213 105.307 420.29 105.497 419.606 105.878C419.304 106.044 419.152 106.225 419.152 106.42C419.152 106.645 419.357 106.864 419.768 107.079C420.08 107.235 420.778 107.387 421.862 107.533C423.854 107.807 425.241 108.08 426.022 108.354C427.048 108.715 427.839 109.252 428.396 109.965C428.952 110.678 429.23 111.43 429.23 112.221C429.23 113.295 428.757 114.193 427.81 114.916C426.452 115.961 424.689 116.483 422.521 116.483C421.652 116.483 420.847 116.405 420.104 116.249C419.372 116.103 418.698 115.883 418.083 115.59C417.937 115.717 417.78 115.814 417.614 115.883C417.448 115.951 417.277 115.985 417.102 115.985C416.633 115.985 416.257 115.834 415.974 115.531C415.7 115.219 415.563 114.701 415.563 113.979V112.968C415.563 112.245 415.7 111.732 415.974 111.43C416.257 111.117 416.623 110.961 417.072 110.961C417.434 110.961 417.736 111.063 417.98 111.269C418.225 111.464 418.415 111.806 418.552 112.294C419.011 112.685 419.562 112.982 420.207 113.188C420.852 113.383 421.594 113.48 422.434 113.48C423.811 113.48 424.88 113.266 425.642 112.836C426.003 112.621 426.184 112.396 426.184 112.162C426.184 111.771 425.925 111.449 425.407 111.195C424.89 110.941 423.82 110.727 422.199 110.551C419.787 110.297 418.176 109.809 417.365 109.086C416.555 108.373 416.149 107.494 416.149 106.449C416.149 105.375 416.604 104.481 417.512 103.769C418.742 102.792 420.354 102.304 422.346 102.304C423.039 102.304 423.703 102.372 424.338 102.509C424.982 102.636 425.598 102.836 426.184 103.109C426.369 102.973 426.54 102.87 426.696 102.802C426.862 102.733 427.014 102.699 427.15 102.699C427.561 102.699 427.902 102.855 428.176 103.168C428.449 103.471 428.586 103.983 428.586 104.706V105.438C428.586 106.093 428.508 106.537 428.352 106.771C428.039 107.221 427.614 107.445 427.077 107.445C426.716 107.445 426.398 107.333 426.125 107.108C425.852 106.884 425.676 106.586 425.598 106.215ZM439.594 108.705C439.594 106.996 439.877 105.268 440.444 103.52C440.863 102.23 441.513 100.795 442.392 99.2129C443.027 98.0801 443.495 97.3867 443.798 97.1328C444.101 96.8691 444.438 96.7373 444.809 96.7373C445.238 96.7373 445.6 96.8838 445.893 97.1768C446.186 97.4697 446.332 97.8213 446.332 98.2314C446.332 98.5146 446.215 98.8516 445.981 99.2422C444.926 100.971 444.154 102.592 443.666 104.105C443.188 105.619 442.948 107.152 442.948 108.705C442.948 110.268 443.188 111.806 443.666 113.319C444.154 114.833 444.926 116.454 445.981 118.183C446.215 118.563 446.332 118.9 446.332 119.193C446.332 119.604 446.186 119.955 445.893 120.248C445.6 120.541 445.238 120.688 444.809 120.688C444.447 120.688 444.13 120.57 443.857 120.336C443.466 119.994 442.948 119.228 442.304 118.036C441.376 116.308 440.741 114.882 440.4 113.759C439.862 112.04 439.594 110.355 439.594 108.705ZM549.866 111.957H553.879L549.558 120.102C549.304 120.58 548.987 120.819 548.606 120.819C548.352 120.819 548.132 120.736 547.947 120.57C547.771 120.404 547.683 120.219 547.683 120.014C547.683 119.867 547.717 119.667 547.786 119.413L549.866 111.957ZM698.398 108.705C698.398 110.414 698.115 112.147 697.549 113.905C697.129 115.194 696.479 116.625 695.601 118.197C694.966 119.33 694.497 120.028 694.194 120.292C693.892 120.556 693.555 120.688 693.184 120.688C692.754 120.688 692.393 120.541 692.1 120.248C691.807 119.955 691.66 119.604 691.66 119.193C691.66 118.9 691.777 118.563 692.012 118.183C693.066 116.454 693.833 114.833 694.312 113.319C694.8 111.806 695.044 110.268 695.044 108.705C695.044 107.152 694.8 105.619 694.312 104.105C693.833 102.592 693.066 100.971 692.012 99.2422C691.777 98.8516 691.66 98.5146 691.66 98.2314C691.66 97.8213 691.807 97.4697 692.1 97.1768C692.393 96.8838 692.754 96.7373 693.184 96.7373C693.545 96.7373 693.862 96.8545 694.136 97.0889C694.526 97.4209 695.044 98.1875 695.688 99.3887C696.616 101.117 697.251 102.538 697.593 103.651C698.13 105.38 698.398 107.064 698.398 108.705ZM328.312 154.633L325.719 153.798C325.104 153.603 324.713 153.393 324.547 153.168C324.312 152.885 324.195 152.567 324.195 152.216C324.195 151.806 324.337 151.454 324.62 151.161C324.913 150.858 325.24 150.707 325.602 150.707C325.836 150.707 326.183 150.785 326.642 150.941L329.234 151.776V149.052C329.234 148.329 329.371 147.816 329.645 147.514C329.928 147.201 330.294 147.045 330.743 147.045C331.192 147.045 331.554 147.201 331.827 147.514C332.101 147.816 332.237 148.329 332.237 149.052V151.776L334.83 150.941C335.299 150.785 335.641 150.707 335.855 150.707C336.227 150.707 336.554 150.854 336.837 151.146C337.13 151.439 337.276 151.791 337.276 152.201C337.276 152.562 337.174 152.87 336.969 153.124C336.773 153.368 336.373 153.593 335.768 153.798L333.175 154.633L334.771 156.845C335.162 157.382 335.357 157.807 335.357 158.119C335.357 158.539 335.211 158.896 334.918 159.188C334.625 159.481 334.273 159.628 333.863 159.628C333.561 159.628 333.307 159.564 333.102 159.438C332.906 159.311 332.652 159.032 332.34 158.603L330.743 156.405L329.132 158.603C328.829 159.032 328.575 159.315 328.37 159.452C328.165 159.579 327.916 159.643 327.623 159.643C327.213 159.643 326.856 159.496 326.554 159.203C326.261 158.9 326.114 158.534 326.114 158.104C326.114 157.802 326.31 157.382 326.7 156.845L328.312 154.633ZM480.961 154.779C480.961 155.346 480.76 155.819 480.36 156.2C479.96 156.581 479.408 156.771 478.705 156.771C478.011 156.771 477.464 156.581 477.064 156.2C476.664 155.81 476.463 155.331 476.463 154.765C476.463 154.208 476.659 153.739 477.049 153.358C477.45 152.968 478.002 152.772 478.705 152.772C479.408 152.772 479.96 152.963 480.36 153.344C480.76 153.725 480.961 154.203 480.961 154.779ZM476.317 161.62H480.14L475.907 168.49C475.633 168.949 475.365 169.179 475.101 169.179C474.857 169.179 474.647 169.105 474.471 168.959C474.305 168.812 474.222 168.656 474.222 168.49C474.222 168.363 474.256 168.192 474.325 167.978L476.317 161.62ZM55.3203 208.72C54.9785 208.319 54.7393 207.934 54.6025 207.562C54.4756 207.182 54.4121 206.664 54.4121 206.01V201.234C54.4121 200.834 54.334 200.551 54.1777 200.385C54.0312 200.209 53.7529 200.102 53.3428 200.062C52.9326 200.023 52.5957 199.862 52.332 199.579C52.0684 199.296 51.9365 198.954 51.9365 198.554C51.9365 198.124 52.083 197.763 52.376 197.47C52.6787 197.177 53.0596 197.03 53.5186 197.03C54.1729 197.03 54.8027 197.206 55.4082 197.558C56.0137 197.899 56.541 198.461 56.9902 199.242C57.2734 199.75 57.415 200.336 57.415 201V206.01C57.415 206.43 57.4834 206.723 57.6201 206.889C57.7568 207.045 58.0498 207.147 58.499 207.196C58.9482 207.245 59.29 207.401 59.5244 207.665C59.7686 207.929 59.8906 208.28 59.8906 208.72C59.8906 209.149 59.7686 209.496 59.5244 209.76C59.29 210.023 58.9434 210.185 58.4844 210.243C58.0352 210.292 57.7617 210.38 57.6641 210.507C57.498 210.702 57.415 211.005 57.415 211.415V216.703C57.415 217.787 57.0244 218.72 56.2432 219.501C55.4619 220.292 54.5586 220.688 53.5332 220.688C53.0645 220.688 52.6787 220.541 52.376 220.248C52.083 219.955 51.9365 219.594 51.9365 219.164C51.9365 218.764 52.0684 218.422 52.332 218.139C52.5957 217.855 52.9375 217.694 53.3574 217.655C53.7773 217.616 54.041 217.528 54.1484 217.392C54.3242 217.187 54.4121 216.884 54.4121 216.483V211.708C54.4121 210.868 54.4707 210.263 54.5879 209.892C54.7148 209.521 54.959 209.13 55.3203 208.72Z" fill="#242526"/>
<path d="M459.01 110.463L456.93 116H454.103L451.583 105.702C451.037 105.673 450.621 105.521 450.338 105.248C450.065 104.965 449.928 104.613 449.928 104.193C449.928 103.754 450.079 103.397 450.382 103.124C450.695 102.841 451.212 102.699 451.935 102.699H454.733C455.455 102.699 455.968 102.841 456.271 103.124C456.583 103.397 456.74 103.759 456.74 104.208C456.74 104.657 456.564 105.038 456.212 105.351C455.949 105.585 455.431 105.702 454.66 105.702L455.802 110.463L457.663 105.585H460.329L462.204 110.463L463.375 105.702C462.633 105.702 462.145 105.629 461.911 105.482C461.442 105.18 461.207 104.75 461.207 104.193C461.207 103.754 461.359 103.397 461.662 103.124C461.974 102.841 462.492 102.699 463.214 102.699H466.041C466.764 102.699 467.277 102.841 467.579 103.124C467.892 103.397 468.048 103.759 468.048 104.208C468.048 104.608 467.912 104.95 467.638 105.233C467.374 105.507 466.979 105.663 466.452 105.702L463.991 116H461.207L459.01 110.463ZM478.382 97.001V100.18H474.808V97.001H478.382ZM478.793 102.699V112.997H482.396C483.119 112.997 483.631 113.139 483.934 113.422C484.247 113.695 484.403 114.057 484.403 114.506C484.403 114.945 484.247 115.307 483.934 115.59C483.631 115.863 483.119 116 482.396 116H472.186C471.463 116 470.946 115.863 470.633 115.59C470.331 115.307 470.179 114.94 470.179 114.491C470.179 114.052 470.331 113.695 470.633 113.422C470.946 113.139 471.463 112.997 472.186 112.997H475.79V105.702H473.373C472.66 105.702 472.147 105.565 471.835 105.292C471.522 105.009 471.366 104.643 471.366 104.193C471.366 103.754 471.517 103.397 471.82 103.124C472.132 102.841 472.65 102.699 473.373 102.699H478.793ZM502.515 97.001V112.997H503.028C503.741 112.997 504.254 113.139 504.566 113.422C504.879 113.695 505.035 114.057 505.035 114.506C505.035 114.945 504.879 115.307 504.566 115.59C504.263 115.863 503.751 116 503.028 116H499.513V115.268C498.829 115.668 498.111 115.971 497.359 116.176C496.617 116.381 495.846 116.483 495.045 116.483C492.789 116.483 490.972 115.834 489.596 114.535C488.219 113.227 487.53 111.601 487.53 109.657C487.53 107.626 488.253 105.893 489.698 104.457C491.143 103.021 492.906 102.304 494.986 102.304C495.767 102.304 496.534 102.426 497.286 102.67C498.038 102.904 498.78 103.261 499.513 103.739V100.004H499C498.277 100.004 497.76 99.8672 497.447 99.5938C497.144 99.3105 496.993 98.9492 496.993 98.5098C496.993 98.0605 497.144 97.6992 497.447 97.4258C497.76 97.1426 498.277 97.001 499 97.001H502.515ZM499.513 109.745C499.513 108.505 499.078 107.455 498.209 106.596C497.34 105.736 496.275 105.307 495.015 105.307C493.765 105.307 492.706 105.736 491.837 106.596C490.968 107.455 490.533 108.49 490.533 109.701C490.533 110.805 490.924 111.713 491.705 112.426C492.486 113.129 493.59 113.48 495.015 113.48C496.431 113.48 497.535 113.129 498.326 112.426C499.117 111.713 499.513 110.819 499.513 109.745ZM513.201 105.702V111.723C513.201 112.367 513.333 112.792 513.597 112.997C514.007 113.319 514.739 113.48 515.794 113.48C517.327 113.48 518.743 113.153 520.042 112.499C520.54 112.245 520.931 112.118 521.214 112.118C521.604 112.118 521.941 112.265 522.225 112.558C522.518 112.851 522.664 113.207 522.664 113.627C522.664 114.018 522.508 114.354 522.195 114.638C521.717 115.097 520.77 115.521 519.354 115.912C517.947 116.293 516.761 116.483 515.794 116.483C513.929 116.483 512.527 116.083 511.59 115.282C510.662 114.472 510.198 113.48 510.198 112.309V105.702H509.114C508.392 105.702 507.874 105.565 507.562 105.292C507.259 105.009 507.107 104.643 507.107 104.193C507.107 103.754 507.259 103.397 507.562 103.124C507.874 102.841 508.392 102.699 509.114 102.699H510.198V99.9893C510.198 99.2666 510.335 98.7539 510.608 98.4512C510.892 98.1387 511.258 97.9824 511.707 97.9824C512.146 97.9824 512.503 98.1387 512.776 98.4512C513.06 98.7539 513.201 99.2666 513.201 99.9893V102.699H518.753C519.476 102.699 519.988 102.841 520.291 103.124C520.604 103.397 520.76 103.759 520.76 104.208C520.76 104.647 520.604 105.009 520.291 105.292C519.988 105.565 519.476 105.702 518.753 105.702H513.201ZM529.16 97.001V103.402C529.785 103.031 530.415 102.758 531.05 102.582C531.695 102.396 532.344 102.304 532.998 102.304C534.033 102.304 534.956 102.479 535.767 102.831C536.577 103.183 537.246 103.739 537.774 104.501C538.311 105.253 538.579 106.205 538.579 107.357V112.997C539.341 112.997 539.839 113.07 540.073 113.217C540.542 113.52 540.777 113.949 540.777 114.506C540.777 114.945 540.625 115.307 540.322 115.59C540.02 115.863 539.507 116 538.784 116H535.357C534.644 116 534.131 115.863 533.819 115.59C533.516 115.307 533.364 114.94 533.364 114.491C533.364 113.944 533.599 113.52 534.068 113.217C534.312 113.061 534.81 112.987 535.562 112.997V107.562C535.562 106.791 535.386 106.249 535.034 105.937C534.575 105.517 533.897 105.307 532.998 105.307C532.334 105.307 531.743 105.438 531.226 105.702C530.718 105.956 530.029 106.513 529.16 107.372V112.997C529.932 112.997 530.43 113.07 530.654 113.217C531.133 113.52 531.372 113.949 531.372 114.506C531.372 114.945 531.216 115.307 530.904 115.59C530.601 115.863 530.088 116 529.365 116H525.952C525.23 116 524.712 115.863 524.4 115.59C524.097 115.307 523.945 114.94 523.945 114.491C523.945 113.944 524.185 113.52 524.663 113.217C524.898 113.061 525.396 112.987 526.157 112.997V100.004H525.645C524.922 100.004 524.404 99.8672 524.092 99.5938C523.789 99.3105 523.638 98.9443 523.638 98.4951C523.638 98.0557 523.789 97.6992 524.092 97.4258C524.404 97.1426 524.922 97.001 525.645 97.001H529.16ZM584.113 97.001V103.402C584.738 103.031 585.368 102.758 586.003 102.582C586.647 102.396 587.297 102.304 587.951 102.304C588.986 102.304 589.909 102.479 590.72 102.831C591.53 103.183 592.199 103.739 592.726 104.501C593.263 105.253 593.532 106.205 593.532 107.357V112.997C594.294 112.997 594.792 113.07 595.026 113.217C595.495 113.52 595.729 113.949 595.729 114.506C595.729 114.945 595.578 115.307 595.275 115.59C594.972 115.863 594.46 116 593.737 116H590.309C589.596 116 589.084 115.863 588.771 115.59C588.469 115.307 588.317 114.94 588.317 114.491C588.317 113.944 588.552 113.52 589.02 113.217C589.264 113.061 589.763 112.987 590.514 112.997V107.562C590.514 106.791 590.339 106.249 589.987 105.937C589.528 105.517 588.849 105.307 587.951 105.307C587.287 105.307 586.696 105.438 586.179 105.702C585.671 105.956 584.982 106.513 584.113 107.372V112.997C584.885 112.997 585.383 113.07 585.607 113.217C586.086 113.52 586.325 113.949 586.325 114.506C586.325 114.945 586.169 115.307 585.856 115.59C585.554 115.863 585.041 116 584.318 116H580.905C580.182 116 579.665 115.863 579.352 115.59C579.05 115.307 578.898 114.94 578.898 114.491C578.898 113.944 579.138 113.52 579.616 113.217C579.85 113.061 580.348 112.987 581.11 112.997V100.004H580.597C579.875 100.004 579.357 99.8672 579.045 99.5938C578.742 99.3105 578.591 98.9443 578.591 98.4951C578.591 98.0557 578.742 97.6992 579.045 97.4258C579.357 97.1426 579.875 97.001 580.597 97.001H584.113ZM613.065 110.873H600.746C601.059 111.654 601.61 112.284 602.401 112.763C603.202 113.241 604.281 113.48 605.639 113.48C606.752 113.48 608.231 113.241 610.077 112.763C610.839 112.567 611.366 112.47 611.659 112.47C612.06 112.47 612.396 112.611 612.67 112.895C612.943 113.178 613.08 113.534 613.08 113.964C613.08 114.354 612.934 114.687 612.641 114.96C612.25 115.321 611.298 115.668 609.784 116C608.271 116.322 606.815 116.483 605.419 116.483C603.017 116.483 601.093 115.805 599.647 114.447C598.212 113.09 597.494 111.42 597.494 109.438C597.494 107.328 598.271 105.614 599.823 104.296C601.386 102.968 603.183 102.304 605.214 102.304C606.435 102.304 607.553 102.519 608.568 102.948C609.594 103.378 610.355 103.842 610.854 104.34C611.557 105.062 612.138 105.956 612.597 107.021C612.909 107.763 613.065 108.622 613.065 109.599V110.873ZM609.74 107.87C609.281 107.011 608.681 106.371 607.938 105.951C607.196 105.521 606.312 105.307 605.287 105.307C604.271 105.307 603.393 105.521 602.65 105.951C601.908 106.371 601.303 107.011 600.834 107.87H609.74ZM624.923 97.001V100.18H621.349V97.001H624.923ZM625.333 102.699V112.997H628.937C629.659 112.997 630.172 113.139 630.475 113.422C630.787 113.695 630.944 114.057 630.944 114.506C630.944 114.945 630.787 115.307 630.475 115.59C630.172 115.863 629.659 116 628.937 116H618.727C618.004 116 617.487 115.863 617.174 115.59C616.871 115.307 616.72 114.94 616.72 114.491C616.72 114.052 616.871 113.695 617.174 113.422C617.487 113.139 618.004 112.997 618.727 112.997H622.33V105.702H619.913C619.2 105.702 618.688 105.565 618.375 105.292C618.063 105.009 617.906 104.643 617.906 104.193C617.906 103.754 618.058 103.397 618.361 103.124C618.673 102.841 619.191 102.699 619.913 102.699H625.333ZM645.467 103.593V102.699H648.983C649.705 102.699 650.218 102.841 650.521 103.124C650.833 103.397 650.99 103.759 650.99 104.208C650.99 104.647 650.833 105.009 650.521 105.292C650.218 105.565 649.705 105.702 648.983 105.702H648.47V116.63C648.47 117.685 648.245 118.603 647.796 119.384C647.357 120.175 646.678 120.854 645.76 121.42C644.842 121.986 643.807 122.27 642.655 122.27H639.256C638.534 122.27 638.016 122.128 637.703 121.845C637.401 121.571 637.249 121.215 637.249 120.775C637.249 120.326 637.401 119.96 637.703 119.677C638.016 119.403 638.534 119.267 639.256 119.267H642.567C643.485 119.267 644.198 119.018 644.705 118.52C645.213 118.021 645.467 117.392 645.467 116.63V115.165C644.803 115.595 644.124 115.917 643.431 116.132C642.747 116.347 642.044 116.454 641.322 116.454C639.281 116.454 637.572 115.775 636.195 114.418C634.818 113.051 634.129 111.366 634.129 109.364C634.129 107.353 634.818 105.668 636.195 104.311C637.572 102.943 639.281 102.26 641.322 102.26C642.083 102.26 642.806 102.372 643.49 102.597C644.183 102.812 644.842 103.144 645.467 103.593ZM645.453 109.35C645.453 108.246 645.042 107.289 644.222 106.479C643.411 105.668 642.435 105.263 641.292 105.263C640.15 105.263 639.168 105.668 638.348 106.479C637.537 107.289 637.132 108.246 637.132 109.35C637.132 110.463 637.537 111.425 638.348 112.235C639.168 113.036 640.15 113.437 641.292 113.437C642.435 113.437 643.411 113.036 644.222 112.235C645.042 111.425 645.453 110.463 645.453 109.35ZM657.383 97.001V103.402C658.008 103.031 658.638 102.758 659.273 102.582C659.918 102.396 660.567 102.304 661.221 102.304C662.256 102.304 663.179 102.479 663.99 102.831C664.8 103.183 665.469 103.739 665.997 104.501C666.534 105.253 666.802 106.205 666.802 107.357V112.997C667.564 112.997 668.062 113.07 668.297 113.217C668.765 113.52 669 113.949 669 114.506C669 114.945 668.848 115.307 668.546 115.59C668.243 115.863 667.73 116 667.007 116H663.58C662.867 116 662.354 115.863 662.042 115.59C661.739 115.307 661.588 114.94 661.588 114.491C661.588 113.944 661.822 113.52 662.291 113.217C662.535 113.061 663.033 112.987 663.785 112.997V107.562C663.785 106.791 663.609 106.249 663.257 105.937C662.798 105.517 662.12 105.307 661.221 105.307C660.557 105.307 659.966 105.438 659.449 105.702C658.941 105.956 658.253 106.513 657.383 107.372V112.997C658.155 112.997 658.653 113.07 658.878 113.217C659.356 113.52 659.595 113.949 659.595 114.506C659.595 114.945 659.439 115.307 659.127 115.59C658.824 115.863 658.311 116 657.589 116H654.175C653.453 116 652.935 115.863 652.623 115.59C652.32 115.307 652.169 114.94 652.169 114.491C652.169 113.944 652.408 113.52 652.886 113.217C653.121 113.061 653.619 112.987 654.38 112.997V100.004H653.868C653.145 100.004 652.628 99.8672 652.315 99.5938C652.012 99.3105 651.861 98.9443 651.861 98.4951C651.861 98.0557 652.012 97.6992 652.315 97.4258C652.628 97.1426 653.145 97.001 653.868 97.001H657.383ZM678.059 105.702V111.723C678.059 112.367 678.191 112.792 678.455 112.997C678.865 113.319 679.597 113.48 680.652 113.48C682.185 113.48 683.601 113.153 684.9 112.499C685.398 112.245 685.789 112.118 686.072 112.118C686.463 112.118 686.8 112.265 687.083 112.558C687.376 112.851 687.522 113.207 687.522 113.627C687.522 114.018 687.366 114.354 687.054 114.638C686.575 115.097 685.628 115.521 684.212 115.912C682.805 116.293 681.619 116.483 680.652 116.483C678.787 116.483 677.386 116.083 676.448 115.282C675.52 114.472 675.056 113.48 675.056 112.309V105.702H673.972C673.25 105.702 672.732 105.565 672.42 105.292C672.117 105.009 671.966 104.643 671.966 104.193C671.966 103.754 672.117 103.397 672.42 103.124C672.732 102.841 673.25 102.699 673.972 102.699H675.056V99.9893C675.056 99.2666 675.193 98.7539 675.467 98.4512C675.75 98.1387 676.116 97.9824 676.565 97.9824C677.005 97.9824 677.361 98.1387 677.635 98.4512C677.918 98.7539 678.059 99.2666 678.059 99.9893V102.699H683.611C684.334 102.699 684.846 102.841 685.149 103.124C685.462 103.397 685.618 103.759 685.618 104.208C685.618 104.647 685.462 105.009 685.149 105.292C684.846 105.565 684.334 105.702 683.611 105.702H678.059ZM220.882 160.463L218.802 166H215.974L213.455 155.702C212.908 155.673 212.493 155.521 212.21 155.248C211.936 154.965 211.8 154.613 211.8 154.193C211.8 153.754 211.951 153.397 212.254 153.124C212.566 152.841 213.084 152.699 213.806 152.699H216.604C217.327 152.699 217.84 152.841 218.142 153.124C218.455 153.397 218.611 153.759 218.611 154.208C218.611 154.657 218.435 155.038 218.084 155.351C217.82 155.585 217.303 155.702 216.531 155.702L217.674 160.463L219.534 155.585H222.2L224.075 160.463L225.247 155.702C224.505 155.702 224.016 155.629 223.782 155.482C223.313 155.18 223.079 154.75 223.079 154.193C223.079 153.754 223.23 153.397 223.533 153.124C223.846 152.841 224.363 152.699 225.086 152.699H227.913C228.636 152.699 229.148 152.841 229.451 153.124C229.763 153.397 229.92 153.759 229.92 154.208C229.92 154.608 229.783 154.95 229.51 155.233C229.246 155.507 228.85 155.663 228.323 155.702L225.862 166H223.079L220.882 160.463ZM240.254 147.001V150.18H236.68V147.001H240.254ZM240.664 152.699V162.997H244.268C244.99 162.997 245.503 163.139 245.806 163.422C246.118 163.695 246.274 164.057 246.274 164.506C246.274 164.945 246.118 165.307 245.806 165.59C245.503 165.863 244.99 166 244.268 166H234.058C233.335 166 232.817 165.863 232.505 165.59C232.202 165.307 232.051 164.94 232.051 164.491C232.051 164.052 232.202 163.695 232.505 163.422C232.817 163.139 233.335 162.997 234.058 162.997H237.661V155.702H235.244C234.531 155.702 234.019 155.565 233.706 155.292C233.394 155.009 233.237 154.643 233.237 154.193C233.237 153.754 233.389 153.397 233.691 153.124C234.004 152.841 234.521 152.699 235.244 152.699H240.664ZM264.387 147.001V162.997H264.9C265.613 162.997 266.125 163.139 266.438 163.422C266.75 163.695 266.906 164.057 266.906 164.506C266.906 164.945 266.75 165.307 266.438 165.59C266.135 165.863 265.622 166 264.9 166H261.384V165.268C260.7 165.668 259.983 165.971 259.231 166.176C258.488 166.381 257.717 166.483 256.916 166.483C254.66 166.483 252.844 165.834 251.467 164.535C250.09 163.227 249.402 161.601 249.402 159.657C249.402 157.626 250.124 155.893 251.57 154.457C253.015 153.021 254.778 152.304 256.858 152.304C257.639 152.304 258.405 152.426 259.157 152.67C259.909 152.904 260.652 153.261 261.384 153.739V150.004H260.871C260.149 150.004 259.631 149.867 259.319 149.594C259.016 149.311 258.864 148.949 258.864 148.51C258.864 148.061 259.016 147.699 259.319 147.426C259.631 147.143 260.149 147.001 260.871 147.001H264.387ZM261.384 159.745C261.384 158.505 260.949 157.455 260.08 156.596C259.211 155.736 258.147 155.307 256.887 155.307C255.637 155.307 254.577 155.736 253.708 156.596C252.839 157.455 252.404 158.49 252.404 159.701C252.404 160.805 252.795 161.713 253.576 162.426C254.358 163.129 255.461 163.48 256.887 163.48C258.303 163.48 259.406 163.129 260.197 162.426C260.988 161.713 261.384 160.819 261.384 159.745ZM275.073 155.702V161.723C275.073 162.367 275.204 162.792 275.468 162.997C275.878 163.319 276.611 163.48 277.665 163.48C279.199 163.48 280.615 163.153 281.913 162.499C282.412 162.245 282.802 162.118 283.085 162.118C283.476 162.118 283.813 162.265 284.096 162.558C284.389 162.851 284.536 163.207 284.536 163.627C284.536 164.018 284.379 164.354 284.067 164.638C283.588 165.097 282.641 165.521 281.225 165.912C279.819 166.293 278.632 166.483 277.665 166.483C275.8 166.483 274.399 166.083 273.461 165.282C272.534 164.472 272.07 163.48 272.07 162.309V155.702H270.986C270.263 155.702 269.746 155.565 269.433 155.292C269.13 155.009 268.979 154.643 268.979 154.193C268.979 153.754 269.13 153.397 269.433 153.124C269.746 152.841 270.263 152.699 270.986 152.699H272.07V149.989C272.07 149.267 272.206 148.754 272.48 148.451C272.763 148.139 273.129 147.982 273.579 147.982C274.018 147.982 274.374 148.139 274.648 148.451C274.931 148.754 275.073 149.267 275.073 149.989V152.699H280.624C281.347 152.699 281.86 152.841 282.163 153.124C282.475 153.397 282.631 153.759 282.631 154.208C282.631 154.647 282.475 155.009 282.163 155.292C281.86 155.565 281.347 155.702 280.624 155.702H275.073ZM291.032 147.001V153.402C291.657 153.031 292.287 152.758 292.921 152.582C293.566 152.396 294.215 152.304 294.87 152.304C295.905 152.304 296.828 152.479 297.638 152.831C298.449 153.183 299.118 153.739 299.645 154.501C300.182 155.253 300.451 156.205 300.451 157.357V162.997C301.212 162.997 301.711 163.07 301.945 163.217C302.414 163.52 302.648 163.949 302.648 164.506C302.648 164.945 302.497 165.307 302.194 165.59C301.891 165.863 301.379 166 300.656 166H297.228C296.515 166 296.003 165.863 295.69 165.59C295.387 165.307 295.236 164.94 295.236 164.491C295.236 163.944 295.47 163.52 295.939 163.217C296.183 163.061 296.681 162.987 297.433 162.997V157.562C297.433 156.791 297.257 156.249 296.906 155.937C296.447 155.517 295.768 155.307 294.87 155.307C294.206 155.307 293.615 155.438 293.097 155.702C292.589 155.956 291.901 156.513 291.032 157.372V162.997C291.803 162.997 292.301 163.07 292.526 163.217C293.004 163.52 293.244 163.949 293.244 164.506C293.244 164.945 293.087 165.307 292.775 165.59C292.472 165.863 291.96 166 291.237 166H287.824C287.101 166 286.584 165.863 286.271 165.59C285.968 165.307 285.817 164.94 285.817 164.491C285.817 163.944 286.056 163.52 286.535 163.217C286.769 163.061 287.267 162.987 288.029 162.997V150.004H287.516C286.794 150.004 286.276 149.867 285.963 149.594C285.661 149.311 285.509 148.944 285.509 148.495C285.509 148.056 285.661 147.699 285.963 147.426C286.276 147.143 286.794 147.001 287.516 147.001H291.032ZM364.302 147.001V153.402C364.927 153.031 365.557 152.758 366.192 152.582C366.836 152.396 367.486 152.304 368.14 152.304C369.175 152.304 370.098 152.479 370.909 152.831C371.719 153.183 372.388 153.739 372.915 154.501C373.453 155.253 373.721 156.205 373.721 157.357V162.997C374.483 162.997 374.981 163.07 375.215 163.217C375.684 163.52 375.918 163.949 375.918 164.506C375.918 164.945 375.767 165.307 375.464 165.59C375.162 165.863 374.649 166 373.926 166H370.498C369.786 166 369.273 165.863 368.96 165.59C368.658 165.307 368.506 164.94 368.506 164.491C368.506 163.944 368.741 163.52 369.209 163.217C369.454 163.061 369.952 162.987 370.704 162.997V157.562C370.704 156.791 370.528 156.249 370.176 155.937C369.717 155.517 369.038 155.307 368.14 155.307C367.476 155.307 366.885 155.438 366.368 155.702C365.86 155.956 365.171 156.513 364.302 157.372V162.997C365.074 162.997 365.572 163.07 365.796 163.217C366.275 163.52 366.514 163.949 366.514 164.506C366.514 164.945 366.358 165.307 366.045 165.59C365.743 165.863 365.23 166 364.507 166H361.094C360.371 166 359.854 165.863 359.541 165.59C359.239 165.307 359.087 164.94 359.087 164.491C359.087 163.944 359.327 163.52 359.805 163.217C360.039 163.061 360.538 162.987 361.299 162.997V150.004H360.787C360.064 150.004 359.546 149.867 359.234 149.594C358.931 149.311 358.78 148.944 358.78 148.495C358.78 148.056 358.931 147.699 359.234 147.426C359.546 147.143 360.064 147.001 360.787 147.001H364.302ZM393.254 160.873H380.935C381.248 161.654 381.799 162.284 382.59 162.763C383.391 163.241 384.47 163.48 385.828 163.48C386.941 163.48 388.421 163.241 390.266 162.763C391.028 162.567 391.555 162.47 391.848 162.47C392.249 162.47 392.586 162.611 392.859 162.895C393.132 163.178 393.269 163.534 393.269 163.964C393.269 164.354 393.123 164.687 392.83 164.96C392.439 165.321 391.487 165.668 389.973 166C388.46 166.322 387.004 166.483 385.608 166.483C383.206 166.483 381.282 165.805 379.837 164.447C378.401 163.09 377.683 161.42 377.683 159.438C377.683 157.328 378.46 155.614 380.012 154.296C381.575 152.968 383.372 152.304 385.403 152.304C386.624 152.304 387.742 152.519 388.757 152.948C389.783 153.378 390.545 153.842 391.043 154.34C391.746 155.062 392.327 155.956 392.786 157.021C393.098 157.763 393.254 158.622 393.254 159.599V160.873ZM389.929 157.87C389.47 157.011 388.87 156.371 388.128 155.951C387.385 155.521 386.502 155.307 385.476 155.307C384.461 155.307 383.582 155.521 382.839 155.951C382.097 156.371 381.492 157.011 381.023 157.87H389.929ZM405.112 147.001V150.18H401.538V147.001H405.112ZM405.522 152.699V162.997H409.126C409.848 162.997 410.361 163.139 410.664 163.422C410.976 163.695 411.133 164.057 411.133 164.506C411.133 164.945 410.976 165.307 410.664 165.59C410.361 165.863 409.848 166 409.126 166H398.916C398.193 166 397.676 165.863 397.363 165.59C397.06 165.307 396.909 164.94 396.909 164.491C396.909 164.052 397.06 163.695 397.363 163.422C397.676 163.139 398.193 162.997 398.916 162.997H402.519V155.702H400.102C399.389 155.702 398.877 155.565 398.564 155.292C398.252 155.009 398.096 154.643 398.096 154.193C398.096 153.754 398.247 153.397 398.55 153.124C398.862 152.841 399.38 152.699 400.102 152.699H405.522ZM425.656 153.593V152.699H429.172C429.895 152.699 430.407 152.841 430.71 153.124C431.022 153.397 431.179 153.759 431.179 154.208C431.179 154.647 431.022 155.009 430.71 155.292C430.407 155.565 429.895 155.702 429.172 155.702H428.659V166.63C428.659 167.685 428.435 168.603 427.985 169.384C427.546 170.175 426.867 170.854 425.949 171.42C425.031 171.986 423.996 172.27 422.844 172.27H419.445C418.723 172.27 418.205 172.128 417.893 171.845C417.59 171.571 417.438 171.215 417.438 170.775C417.438 170.326 417.59 169.96 417.893 169.677C418.205 169.403 418.723 169.267 419.445 169.267H422.756C423.674 169.267 424.387 169.018 424.895 168.52C425.402 168.021 425.656 167.392 425.656 166.63V165.165C424.992 165.595 424.313 165.917 423.62 166.132C422.937 166.347 422.233 166.454 421.511 166.454C419.47 166.454 417.761 165.775 416.384 164.418C415.007 163.051 414.318 161.366 414.318 159.364C414.318 157.353 415.007 155.668 416.384 154.311C417.761 152.943 419.47 152.26 421.511 152.26C422.272 152.26 422.995 152.372 423.679 152.597C424.372 152.812 425.031 153.144 425.656 153.593ZM425.642 159.35C425.642 158.246 425.231 157.289 424.411 156.479C423.601 155.668 422.624 155.263 421.481 155.263C420.339 155.263 419.357 155.668 418.537 156.479C417.727 157.289 417.321 158.246 417.321 159.35C417.321 160.463 417.727 161.425 418.537 162.235C419.357 163.036 420.339 163.437 421.481 163.437C422.624 163.437 423.601 163.036 424.411 162.235C425.231 161.425 425.642 160.463 425.642 159.35ZM437.572 147.001V153.402C438.197 153.031 438.827 152.758 439.462 152.582C440.107 152.396 440.756 152.304 441.41 152.304C442.445 152.304 443.368 152.479 444.179 152.831C444.989 153.183 445.658 153.739 446.186 154.501C446.723 155.253 446.991 156.205 446.991 157.357V162.997C447.753 162.997 448.251 163.07 448.486 163.217C448.954 163.52 449.189 163.949 449.189 164.506C449.189 164.945 449.037 165.307 448.735 165.59C448.432 165.863 447.919 166 447.196 166H443.769C443.056 166 442.543 165.863 442.231 165.59C441.928 165.307 441.777 164.94 441.777 164.491C441.777 163.944 442.011 163.52 442.48 163.217C442.724 163.061 443.222 162.987 443.974 162.997V157.562C443.974 156.791 443.798 156.249 443.446 155.937C442.987 155.517 442.309 155.307 441.41 155.307C440.746 155.307 440.155 155.438 439.638 155.702C439.13 155.956 438.442 156.513 437.572 157.372V162.997C438.344 162.997 438.842 163.07 439.067 163.217C439.545 163.52 439.784 163.949 439.784 164.506C439.784 164.945 439.628 165.307 439.316 165.59C439.013 165.863 438.5 166 437.778 166H434.364C433.642 166 433.124 165.863 432.812 165.59C432.509 165.307 432.358 164.94 432.358 164.491C432.358 163.944 432.597 163.52 433.075 163.217C433.31 163.061 433.808 162.987 434.57 162.997V150.004H434.057C433.334 150.004 432.817 149.867 432.504 149.594C432.201 149.311 432.05 148.944 432.05 148.495C432.05 148.056 432.201 147.699 432.504 147.426C432.817 147.143 433.334 147.001 434.057 147.001H437.572ZM458.248 155.702V161.723C458.248 162.367 458.38 162.792 458.644 162.997C459.054 163.319 459.787 163.48 460.841 163.48C462.374 163.48 463.79 163.153 465.089 162.499C465.587 162.245 465.978 162.118 466.261 162.118C466.652 162.118 466.989 162.265 467.272 162.558C467.565 162.851 467.711 163.207 467.711 163.627C467.711 164.018 467.555 164.354 467.243 164.638C466.764 165.097 465.817 165.521 464.401 165.912C462.995 166.293 461.808 166.483 460.841 166.483C458.976 166.483 457.575 166.083 456.637 165.282C455.709 164.472 455.246 163.48 455.246 162.309V155.702H454.162C453.439 155.702 452.921 155.565 452.609 155.292C452.306 155.009 452.155 154.643 452.155 154.193C452.155 153.754 452.306 153.397 452.609 153.124C452.921 152.841 453.439 152.699 454.162 152.699H455.246V149.989C455.246 149.267 455.382 148.754 455.656 148.451C455.939 148.139 456.305 147.982 456.754 147.982C457.194 147.982 457.55 148.139 457.824 148.451C458.107 148.754 458.248 149.267 458.248 149.989V152.699H463.8C464.523 152.699 465.036 152.841 465.338 153.124C465.651 153.397 465.807 153.759 465.807 154.208C465.807 154.647 465.651 155.009 465.338 155.292C465.036 155.565 464.523 155.702 463.8 155.702H458.248Z" fill="#7000F2"/>
<path d="M212.646 72.3536C212.842 72.5488 213.158 72.5488 213.354 72.3536L216.536 69.1716C216.731 68.9763 216.731 68.6597 216.536 68.4645C216.34 68.2692 216.024 68.2692 215.828 68.4645L213 71.2929L210.172 68.4645C209.976 68.2692 209.66 68.2692 209.464 68.4645C209.269 68.6597 209.269 68.9763 209.464 69.1716L212.646 72.3536ZM212.5 50L212.5 72L213.5 72L213.5 50L212.5 50Z" fill="black"/>
<path d="M213.354 194.646C213.158 194.451 212.842 194.451 212.646 194.646L209.464 197.828C209.269 198.024 209.269 198.34 209.464 198.536C209.66 198.731 209.976 198.731 210.172 198.536L213 195.707L215.828 198.536C216.024 198.731 216.34 198.731 216.536 198.536C216.731 198.34 216.731 198.024 216.536 197.828L213.354 194.646ZM213.5 217L213.5 195L212.5 195L212.5 217L213.5 217Z" fill="black"/>
<path d="M224.859 57.3516H220.359V62H218.016V50.625H225.422V52.5234H220.359V55.4609H224.859V57.3516Z" fill="black"/>
<path d="M231.823 61.1406C231.266 61.8177 230.495 62.1562 229.511 62.1562C228.605 62.1562 227.912 61.8958 227.433 61.375C226.959 60.8542 226.717 60.0911 226.706 59.0859V53.5469H228.964V59.0078C228.964 59.888 229.365 60.3281 230.167 60.3281C230.933 60.3281 231.459 60.0625 231.745 59.5312V53.5469H234.011V62H231.886L231.823 61.1406Z" fill="black"/>
<path d="M238.092 53.5469L238.163 54.5234C238.767 53.7682 239.577 53.3906 240.592 53.3906C241.488 53.3906 242.155 53.6536 242.592 54.1797C243.03 54.7057 243.254 55.4922 243.264 56.5391V62H241.006V56.5938C241.006 56.1146 240.902 55.7682 240.694 55.5547C240.485 55.3359 240.139 55.2266 239.655 55.2266C239.019 55.2266 238.543 55.4974 238.225 56.0391V62H235.967V53.5469H238.092Z" fill="black"/>
<path d="M248.798 60.3359C249.215 60.3359 249.554 60.2214 249.814 59.9922C250.074 59.763 250.21 59.4583 250.22 59.0781H252.338C252.332 59.651 252.176 60.1771 251.869 60.6562C251.561 61.1302 251.14 61.5 250.603 61.7656C250.072 62.026 249.483 62.1562 248.837 62.1562C247.629 62.1562 246.676 61.7734 245.978 61.0078C245.28 60.237 244.931 59.1745 244.931 57.8203V57.6719C244.931 56.3698 245.278 55.3307 245.97 54.5547C246.663 53.7786 247.614 53.3906 248.822 53.3906C249.879 53.3906 250.726 53.6927 251.361 54.2969C252.002 54.8958 252.327 55.6953 252.338 56.6953H250.22C250.21 56.2578 250.074 55.9036 249.814 55.6328C249.554 55.3568 249.21 55.2188 248.783 55.2188C248.257 55.2188 247.858 55.4115 247.587 55.7969C247.322 56.1771 247.189 56.7969 247.189 57.6562V57.8906C247.189 58.7604 247.322 59.3854 247.587 59.7656C247.853 60.1458 248.257 60.3359 248.798 60.3359Z" fill="black"/>
<path d="M256.63 51.4688V53.5469H258.075V55.2031H256.63V59.4219C256.63 59.7344 256.69 59.9583 256.809 60.0938C256.929 60.2292 257.158 60.2969 257.497 60.2969C257.747 60.2969 257.968 60.2786 258.161 60.2422V61.9531C257.718 62.0885 257.263 62.1562 256.794 62.1562C255.21 62.1562 254.403 61.3568 254.372 59.7578V55.2031H253.138V53.5469H254.372V51.4688H256.63Z" fill="black"/>
<path d="M262.016 62H259.75V53.5469H262.016V62ZM259.617 51.3594C259.617 51.0208 259.729 50.7422 259.953 50.5234C260.182 50.3047 260.492 50.1953 260.883 50.1953C261.268 50.1953 261.576 50.3047 261.805 50.5234C262.034 50.7422 262.148 51.0208 262.148 51.3594C262.148 51.7031 262.031 51.9844 261.797 52.2031C261.568 52.4219 261.263 52.5312 260.883 52.5312C260.503 52.5312 260.195 52.4219 259.961 52.2031C259.732 51.9844 259.617 51.7031 259.617 51.3594Z" fill="black"/>
<path d="M263.831 57.6953C263.831 56.8568 263.993 56.1094 264.316 55.4531C264.639 54.7969 265.102 54.2891 265.706 53.9297C266.316 53.5703 267.021 53.3906 267.823 53.3906C268.964 53.3906 269.894 53.7396 270.612 54.4375C271.336 55.1354 271.74 56.0833 271.823 57.2812L271.839 57.8594C271.839 59.1562 271.477 60.1979 270.753 60.9844C270.029 61.7656 269.058 62.1562 267.839 62.1562C266.62 62.1562 265.646 61.7656 264.917 60.9844C264.193 60.2031 263.831 59.1406 263.831 57.7969V57.6953ZM266.089 57.8594C266.089 58.6615 266.24 59.276 266.542 59.7031C266.844 60.125 267.277 60.3359 267.839 60.3359C268.386 60.3359 268.813 60.1276 269.12 59.7109C269.428 59.2891 269.581 58.6172 269.581 57.6953C269.581 56.9089 269.428 56.2995 269.12 55.8672C268.813 55.4349 268.381 55.2188 267.823 55.2188C267.271 55.2188 266.844 55.4349 266.542 55.8672C266.24 56.2943 266.089 56.9583 266.089 57.8594Z" fill="black"/>
<path d="M275.608 53.5469L275.678 54.5234C276.282 53.7682 277.092 53.3906 278.108 53.3906C279.004 53.3906 279.67 53.6536 280.108 54.1797C280.545 54.7057 280.769 55.4922 280.78 56.5391V62H278.522V56.5938C278.522 56.1146 278.418 55.7682 278.209 55.5547C278.001 55.3359 277.655 55.2266 277.17 55.2266C276.535 55.2266 276.058 55.4974 275.741 56.0391V62H273.483V53.5469H275.608Z" fill="black"/>
<path d="M289.161 53.5469L289.231 54.5234C289.835 53.7682 290.645 53.3906 291.661 53.3906C292.557 53.3906 293.223 53.6536 293.661 54.1797C294.098 54.7057 294.322 55.4922 294.333 56.5391V62H292.075V56.5938C292.075 56.1146 291.971 55.7682 291.762 55.5547C291.554 55.3359 291.208 55.2266 290.723 55.2266C290.088 55.2266 289.611 55.4974 289.294 56.0391V62H287.036V53.5469H289.161Z" fill="black"/>
<path d="M301.25 62C301.146 61.7969 301.07 61.5443 301.023 61.2422C300.477 61.8516 299.766 62.1562 298.891 62.1562C298.062 62.1562 297.375 61.9167 296.828 61.4375C296.286 60.9583 296.016 60.3542 296.016 59.625C296.016 58.7292 296.346 58.0417 297.008 57.5625C297.674 57.0833 298.635 56.8411 299.891 56.8359H300.93V56.3516C300.93 55.9609 300.828 55.6484 300.625 55.4141C300.427 55.1797 300.112 55.0625 299.68 55.0625C299.299 55.0625 299 55.1536 298.781 55.3359C298.568 55.5182 298.461 55.7682 298.461 56.0859H296.203C296.203 55.5964 296.354 55.1432 296.656 54.7266C296.958 54.3099 297.385 53.9844 297.938 53.75C298.49 53.5104 299.109 53.3906 299.797 53.3906C300.839 53.3906 301.664 53.6536 302.273 54.1797C302.888 54.7005 303.195 55.4349 303.195 56.3828V60.0469C303.201 60.849 303.312 61.4557 303.531 61.8672V62H301.25ZM299.383 60.4297C299.716 60.4297 300.023 60.3568 300.305 60.2109C300.586 60.0599 300.794 59.8594 300.93 59.6094V58.1562H300.086C298.956 58.1562 298.354 58.5469 298.281 59.3281L298.273 59.4609C298.273 59.7422 298.372 59.974 298.57 60.1562C298.768 60.3385 299.039 60.4297 299.383 60.4297Z" fill="black"/>
<path d="M307.347 53.5469L307.417 54.4922C308.016 53.7578 308.826 53.3906 309.847 53.3906C310.935 53.3906 311.683 53.8203 312.089 54.6797C312.683 53.8203 313.529 53.3906 314.628 53.3906C315.545 53.3906 316.227 53.6589 316.675 54.1953C317.123 54.7266 317.347 55.5286 317.347 56.6016V62H315.081V56.6094C315.081 56.1302 314.988 55.7812 314.8 55.5625C314.613 55.3385 314.282 55.2266 313.808 55.2266C313.131 55.2266 312.662 55.5495 312.402 56.1953L312.409 62H310.152V56.6172C310.152 56.1276 310.055 55.7734 309.863 55.5547C309.67 55.3359 309.342 55.2266 308.878 55.2266C308.238 55.2266 307.774 55.4922 307.488 56.0234V62H305.23V53.5469H307.347Z" fill="black"/>
<path d="M323.28 62.1562C322.04 62.1562 321.03 61.776 320.248 61.0156C319.472 60.2552 319.084 59.2422 319.084 57.9766V57.7578C319.084 56.9089 319.248 56.151 319.577 55.4844C319.905 54.8125 320.368 54.2969 320.967 53.9375C321.571 53.5729 322.259 53.3906 323.03 53.3906C324.186 53.3906 325.095 53.7552 325.756 54.4844C326.423 55.2135 326.756 56.2474 326.756 57.5859V58.5078H321.373C321.446 59.0599 321.665 59.5026 322.03 59.8359C322.399 60.1693 322.866 60.3359 323.428 60.3359C324.298 60.3359 324.978 60.0208 325.467 59.3906L326.577 60.6328C326.238 61.112 325.78 61.487 325.202 61.7578C324.623 62.0234 323.983 62.1562 323.28 62.1562ZM323.022 55.2188C322.574 55.2188 322.209 55.3698 321.928 55.6719C321.652 55.974 321.475 56.4062 321.397 56.9688H324.537V56.7891C324.527 56.2891 324.392 55.9036 324.131 55.6328C323.871 55.3568 323.501 55.2188 323.022 55.2188Z" fill="black"/>
<path d="M225.227 202.836H223.359V207H221.016V195.625H225.242C226.586 195.625 227.622 195.924 228.352 196.523C229.081 197.122 229.445 197.969 229.445 199.062C229.445 199.839 229.276 200.487 228.938 201.008C228.604 201.523 228.096 201.935 227.414 202.242L229.875 206.891V207H227.359L225.227 202.836ZM223.359 200.938H225.25C225.839 200.938 226.294 200.789 226.617 200.492C226.94 200.19 227.102 199.776 227.102 199.25C227.102 198.714 226.948 198.292 226.641 197.984C226.339 197.677 225.872 197.523 225.242 197.523H223.359V200.938Z" fill="black"/>
<path d="M235.277 207.156C234.037 207.156 233.027 206.776 232.245 206.016C231.469 205.255 231.081 204.242 231.081 202.977V202.758C231.081 201.909 231.245 201.151 231.573 200.484C231.902 199.812 232.365 199.297 232.964 198.938C233.568 198.573 234.256 198.391 235.027 198.391C236.183 198.391 237.092 198.755 237.753 199.484C238.42 200.214 238.753 201.247 238.753 202.586V203.508H233.37C233.443 204.06 233.662 204.503 234.027 204.836C234.396 205.169 234.862 205.336 235.425 205.336C236.295 205.336 236.974 205.021 237.464 204.391L238.573 205.633C238.235 206.112 237.777 206.487 237.198 206.758C236.62 207.023 235.98 207.156 235.277 207.156ZM235.019 200.219C234.571 200.219 234.206 200.37 233.925 200.672C233.649 200.974 233.472 201.406 233.394 201.969H236.534V201.789C236.524 201.289 236.389 200.904 236.128 200.633C235.868 200.357 235.498 200.219 235.019 200.219Z" fill="black"/>
<path d="M243.045 196.469V198.547H244.491V200.203H243.045V204.422C243.045 204.734 243.105 204.958 243.225 205.094C243.345 205.229 243.574 205.297 243.913 205.297C244.163 205.297 244.384 205.279 244.577 205.242V206.953C244.134 207.089 243.678 207.156 243.209 207.156C241.626 207.156 240.819 206.357 240.788 204.758V200.203H239.553V198.547H240.788V196.469H243.045Z" fill="black"/>
<path d="M251.111 206.141C250.554 206.818 249.783 207.156 248.798 207.156C247.892 207.156 247.199 206.896 246.72 206.375C246.246 205.854 246.004 205.091 245.994 204.086V198.547H248.252V204.008C248.252 204.888 248.653 205.328 249.455 205.328C250.22 205.328 250.746 205.062 251.033 204.531V198.547H253.298V207H251.173L251.111 206.141Z" fill="black"/>
<path d="M260.052 200.664C259.744 200.622 259.473 200.602 259.239 200.602C258.385 200.602 257.825 200.891 257.559 201.469V207H255.302V198.547H257.434L257.497 199.555C257.95 198.779 258.578 198.391 259.38 198.391C259.63 198.391 259.864 198.424 260.083 198.492L260.052 200.664Z" fill="black"/>
<path d="M263.523 198.547L263.594 199.523C264.198 198.768 265.008 198.391 266.023 198.391C266.919 198.391 267.586 198.654 268.023 199.18C268.461 199.706 268.685 200.492 268.695 201.539V207H266.438V201.594C266.438 201.115 266.333 200.768 266.125 200.555C265.917 200.336 265.57 200.227 265.086 200.227C264.451 200.227 263.974 200.497 263.656 201.039V207H261.398V198.547H263.523Z" fill="black"/>
<path d="M274.605 207.156C273.365 207.156 272.355 206.776 271.573 206.016C270.797 205.255 270.409 204.242 270.409 202.977V202.758C270.409 201.909 270.573 201.151 270.902 200.484C271.23 199.812 271.693 199.297 272.292 198.938C272.896 198.573 273.584 198.391 274.355 198.391C275.511 198.391 276.42 198.755 277.081 199.484C277.748 200.214 278.081 201.247 278.081 202.586V203.508H272.698C272.771 204.06 272.99 204.503 273.355 204.836C273.724 205.169 274.191 205.336 274.753 205.336C275.623 205.336 276.303 205.021 276.792 204.391L277.902 205.633C277.563 206.112 277.105 206.487 276.527 206.758C275.948 207.023 275.308 207.156 274.605 207.156ZM274.347 200.219C273.899 200.219 273.534 200.37 273.253 200.672C272.977 200.974 272.8 201.406 272.722 201.969H275.862V201.789C275.852 201.289 275.717 200.904 275.456 200.633C275.196 200.357 274.826 200.219 274.347 200.219Z" fill="black"/>
<path d="M279.319 202.711C279.319 201.393 279.613 200.344 280.202 199.562C280.795 198.781 281.605 198.391 282.631 198.391C283.454 198.391 284.134 198.698 284.67 199.312V195H286.936V207H284.897L284.787 206.102C284.225 206.805 283.501 207.156 282.616 207.156C281.621 207.156 280.821 206.766 280.217 205.984C279.618 205.198 279.319 204.107 279.319 202.711ZM281.577 202.875C281.577 203.667 281.715 204.273 281.991 204.695C282.267 205.117 282.668 205.328 283.194 205.328C283.892 205.328 284.384 205.034 284.67 204.445V201.109C284.389 200.521 283.902 200.227 283.209 200.227C282.121 200.227 281.577 201.109 281.577 202.875Z" fill="black"/>
<path d="M298.02 200.664C297.713 200.622 297.442 200.602 297.208 200.602C296.354 200.602 295.794 200.891 295.528 201.469V207H293.27V198.547H295.403L295.466 199.555C295.919 198.779 296.546 198.391 297.348 198.391C297.598 198.391 297.833 198.424 298.052 198.492L298.02 200.664Z" fill="black"/>
<path d="M303.148 207.156C301.909 207.156 300.898 206.776 300.117 206.016C299.341 205.255 298.953 204.242 298.953 202.977V202.758C298.953 201.909 299.117 201.151 299.445 200.484C299.773 199.812 300.237 199.297 300.836 198.938C301.44 198.573 302.128 198.391 302.898 198.391C304.055 198.391 304.964 198.755 305.625 199.484C306.292 200.214 306.625 201.247 306.625 202.586V203.508H301.242C301.315 204.06 301.534 204.503 301.898 204.836C302.268 205.169 302.734 205.336 303.297 205.336C304.167 205.336 304.846 205.021 305.336 204.391L306.445 205.633C306.107 206.112 305.648 206.487 305.07 206.758C304.492 207.023 303.852 207.156 303.148 207.156ZM302.891 200.219C302.443 200.219 302.078 200.37 301.797 200.672C301.521 200.974 301.344 201.406 301.266 201.969H304.406V201.789C304.396 201.289 304.26 200.904 304 200.633C303.74 200.357 303.37 200.219 302.891 200.219Z" fill="black"/>
<path d="M312.792 204.664C312.792 204.388 312.654 204.172 312.378 204.016C312.107 203.854 311.67 203.711 311.066 203.586C309.055 203.164 308.05 202.31 308.05 201.023C308.05 200.273 308.36 199.648 308.98 199.148C309.605 198.643 310.42 198.391 311.425 198.391C312.498 198.391 313.355 198.643 313.995 199.148C314.641 199.654 314.964 200.31 314.964 201.117H312.706C312.706 200.794 312.602 200.529 312.394 200.32C312.185 200.107 311.86 200 311.417 200C311.037 200 310.743 200.086 310.534 200.258C310.326 200.43 310.222 200.648 310.222 200.914C310.222 201.164 310.339 201.367 310.573 201.523C310.813 201.674 311.214 201.807 311.777 201.922C312.339 202.031 312.813 202.156 313.198 202.297C314.391 202.734 314.988 203.492 314.988 204.57C314.988 205.341 314.657 205.966 313.995 206.445C313.334 206.919 312.48 207.156 311.433 207.156C310.724 207.156 310.094 207.031 309.542 206.781C308.995 206.526 308.566 206.18 308.253 205.742C307.941 205.299 307.784 204.823 307.784 204.312H309.925C309.946 204.714 310.094 205.021 310.37 205.234C310.646 205.448 311.016 205.555 311.48 205.555C311.912 205.555 312.238 205.474 312.456 205.312C312.68 205.146 312.792 204.93 312.792 204.664Z" fill="black"/>
<path d="M321.811 206.141C321.254 206.818 320.483 207.156 319.498 207.156C318.592 207.156 317.899 206.896 317.42 206.375C316.946 205.854 316.704 205.091 316.694 204.086V198.547H318.952V204.008C318.952 204.888 319.353 205.328 320.155 205.328C320.92 205.328 321.446 205.062 321.733 204.531V198.547H323.998V207H321.873L321.811 206.141Z" fill="black"/>
<path d="M328.384 207H326.119V195H328.384V207Z" fill="black"/>
<path d="M333.255 196.469V198.547H334.7V200.203H333.255V204.422C333.255 204.734 333.315 204.958 333.434 205.094C333.554 205.229 333.783 205.297 334.122 205.297C334.372 205.297 334.593 205.279 334.786 205.242V206.953C334.343 207.089 333.887 207.156 333.419 207.156C331.835 207.156 331.028 206.357 330.997 204.758V200.203H329.762V198.547H330.997V196.469H333.255Z" fill="black"/>
<path d="M534.438 59.6562H530.328L529.547 62H527.055L531.289 50.625H533.461L537.719 62H535.227L534.438 59.6562ZM530.961 57.7578H533.805L532.375 53.5L530.961 57.7578ZM543.683 55.6641C543.376 55.6224 543.105 55.6016 542.87 55.6016C542.016 55.6016 541.456 55.8906 541.191 56.4688V62H538.933V53.5469H541.066L541.128 54.5547C541.581 53.7786 542.209 53.3906 543.011 53.3906C543.261 53.3906 543.495 53.4245 543.714 53.4922L543.683 55.6641ZM544.592 57.7109C544.592 56.4141 544.899 55.3698 545.514 54.5781C546.134 53.7865 546.967 53.3906 548.014 53.3906C548.941 53.3906 549.663 53.7083 550.178 54.3438L550.272 53.5469H552.319V61.7188C552.319 62.4583 552.149 63.1016 551.811 63.6484C551.478 64.1953 551.006 64.612 550.397 64.8984C549.788 65.1849 549.074 65.3281 548.256 65.3281C547.636 65.3281 547.032 65.2031 546.444 64.9531C545.855 64.7083 545.41 64.3906 545.108 64L546.108 62.625C546.67 63.2552 547.353 63.5703 548.155 63.5703C548.754 63.5703 549.22 63.4089 549.553 63.0859C549.886 62.7682 550.053 62.3151 550.053 61.7266V61.2734C549.532 61.862 548.847 62.1562 547.998 62.1562C546.983 62.1562 546.16 61.7604 545.53 60.9688C544.905 60.1719 544.592 59.1172 544.592 57.8047V57.7109ZM546.85 57.875C546.85 58.6406 547.004 59.2422 547.311 59.6797C547.618 60.112 548.04 60.3281 548.577 60.3281C549.264 60.3281 549.756 60.0703 550.053 59.5547V56C549.751 55.4844 549.264 55.2266 548.592 55.2266C548.051 55.2266 547.623 55.4479 547.311 55.8906C547.004 56.3333 546.85 56.9948 546.85 57.875ZM559.423 61.1406C558.866 61.8177 558.095 62.1562 557.111 62.1562C556.205 62.1562 555.512 61.8958 555.033 61.375C554.559 60.8542 554.317 60.0911 554.306 59.0859V53.5469H556.564V59.0078C556.564 59.888 556.965 60.3281 557.767 60.3281C558.533 60.3281 559.059 60.0625 559.345 59.5312V53.5469H561.611V62H559.486L559.423 61.1406ZM565.731 53.5469L565.802 54.4922C566.401 53.7578 567.21 53.3906 568.231 53.3906C569.32 53.3906 570.067 53.8203 570.473 54.6797C571.067 53.8203 571.914 53.3906 573.013 53.3906C573.929 53.3906 574.611 53.6589 575.059 54.1953C575.507 54.7266 575.731 55.5286 575.731 56.6016V62H573.466V56.6094C573.466 56.1302 573.372 55.7812 573.184 55.5625C572.997 55.3385 572.666 55.2266 572.192 55.2266C571.515 55.2266 571.046 55.5495 570.786 56.1953L570.794 62H568.536V56.6172C568.536 56.1276 568.44 55.7734 568.247 55.5547C568.054 55.3359 567.726 55.2266 567.263 55.2266C566.622 55.2266 566.158 55.4922 565.872 56.0234V62H563.614V53.5469H565.731ZM581.664 62.1562C580.424 62.1562 579.414 61.776 578.633 61.0156C577.857 60.2552 577.469 59.2422 577.469 57.9766V57.7578C577.469 56.9089 577.633 56.151 577.961 55.4844C578.289 54.8125 578.753 54.2969 579.352 53.9375C579.956 53.5729 580.643 53.3906 581.414 53.3906C582.57 53.3906 583.479 53.7552 584.141 54.4844C584.807 55.2135 585.141 56.2474 585.141 57.5859V58.5078H579.758C579.831 59.0599 580.049 59.5026 580.414 59.8359C580.784 60.1693 581.25 60.3359 581.812 60.3359C582.682 60.3359 583.362 60.0208 583.852 59.3906L584.961 60.6328C584.622 61.112 584.164 61.487 583.586 61.7578C583.008 62.0234 582.367 62.1562 581.664 62.1562ZM581.406 55.2188C580.958 55.2188 580.594 55.3698 580.312 55.6719C580.036 55.974 579.859 56.4062 579.781 56.9688H582.922V56.7891C582.911 56.2891 582.776 55.9036 582.516 55.6328C582.255 55.3568 581.885 55.2188 581.406 55.2188ZM588.808 53.5469L588.878 54.5234C589.482 53.7682 590.292 53.3906 591.308 53.3906C592.204 53.3906 592.87 53.6536 593.308 54.1797C593.745 54.7057 593.969 55.4922 593.98 56.5391V62H591.722V56.5938C591.722 56.1146 591.618 55.7682 591.409 55.5547C591.201 55.3359 590.855 55.2266 590.37 55.2266C589.735 55.2266 589.258 55.4974 588.941 56.0391V62H586.683V53.5469H588.808ZM598.702 51.4688V53.5469H600.147V55.2031H598.702V59.4219C598.702 59.7344 598.761 59.9583 598.881 60.0938C599.001 60.2292 599.23 60.2969 599.569 60.2969C599.819 60.2969 600.04 60.2786 600.233 60.2422V61.9531C599.79 62.0885 599.334 62.1562 598.866 62.1562C597.282 62.1562 596.475 61.3568 596.444 59.7578V55.2031H595.209V53.5469H596.444V51.4688H598.702ZM606.283 59.6641C606.283 59.388 606.145 59.1719 605.869 59.0156C605.598 58.8542 605.16 58.7109 604.556 58.5859C602.546 58.1641 601.541 57.3099 601.541 56.0234C601.541 55.2734 601.851 54.6484 602.47 54.1484C603.095 53.6432 603.91 53.3906 604.916 53.3906C605.989 53.3906 606.845 53.6432 607.486 54.1484C608.132 54.6536 608.455 55.3099 608.455 56.1172H606.197C606.197 55.7943 606.093 55.5286 605.884 55.3203C605.676 55.1068 605.351 55 604.908 55C604.528 55 604.233 55.0859 604.025 55.2578C603.817 55.4297 603.712 55.6484 603.712 55.9141C603.712 56.1641 603.83 56.3672 604.064 56.5234C604.304 56.6745 604.705 56.8073 605.267 56.9219C605.83 57.0312 606.304 57.1562 606.689 57.2969C607.882 57.7344 608.478 58.4922 608.478 59.5703C608.478 60.3411 608.147 60.9661 607.486 61.4453C606.824 61.9193 605.97 62.1562 604.923 62.1562C604.215 62.1562 603.585 62.0312 603.033 61.7812C602.486 61.526 602.056 61.1797 601.744 60.7422C601.431 60.2995 601.275 59.8229 601.275 59.3125H603.416C603.436 59.7135 603.585 60.0208 603.861 60.2344C604.137 60.4479 604.507 60.5547 604.97 60.5547C605.403 60.5547 605.728 60.474 605.947 60.3125C606.171 60.1458 606.283 59.9297 606.283 59.6641Z" fill="black"/>
<path d="M498.504 69.938C498.47 70.212 498.664 70.4619 498.938 70.4961L503.403 71.0543C503.677 71.0885 503.927 70.8942 503.961 70.6202C503.996 70.3462 503.801 70.0963 503.527 70.062L499.558 69.5659L500.054 65.5968C500.089 65.3228 499.894 65.0729 499.62 65.0386C499.346 65.0044 499.096 65.1987 499.062 65.4727L498.504 69.938ZM516.693 55.6053L498.693 69.6053L499.307 70.3947L517.307 56.3947L516.693 55.6053Z" fill="black"/>
<path d="M633.062 72.5623C633.338 72.5623 633.562 72.3384 633.562 72.0623L633.562 67.5623C633.562 67.2861 633.338 67.0623 633.062 67.0623C632.786 67.0623 632.562 67.2861 632.562 67.5623L632.562 71.5623L628.562 71.5623C628.286 71.5623 628.062 71.7861 628.062 72.0623C628.062 72.3384 628.286 72.5623 628.562 72.5623L633.062 72.5623ZM616.584 56.2913L632.709 72.4158L633.416 71.7087L617.291 55.5842L616.584 56.2913Z" fill="black"/>
</svg>
