<svg width="710" height="385" viewBox="0 0 710 385" fill="none" xmlns="http://www.w3.org/2000/svg">
<rect width="710" height="385" fill="white"/>
<rect x="60.5" y="56.5" width="147" height="147" fill="#E8F0FE" stroke="#4E74D3" stroke-width="3"/>
<rect x="60.5" y="203.5" width="147" height="147" fill="#E8F0FE" stroke="#4E74D3" stroke-width="3"/>
<rect x="354.5" y="56.5" width="147" height="147" fill="#E8F0FE" stroke="#4E74D3" stroke-width="3"/>
<rect x="354.5" y="203.5" width="147" height="147" fill="#E8F0FE" stroke="#4E74D3" stroke-width="3"/>
<rect x="207.5" y="56.5" width="147" height="147" fill="#E8F0FE" stroke="#4E74D3" stroke-width="3"/>
<rect x="207.5" y="203.5" width="147" height="147" fill="#E8F0FE" stroke="#4E74D3" stroke-width="3"/>
<rect x="501.5" y="56.5" width="147" height="147" fill="#E8F0FE" stroke="#4E74D3" stroke-width="3"/>
<rect x="501.5" y="203.5" width="147" height="147" fill="#E8F0FE" stroke="#4E74D3" stroke-width="3"/>
<path d="M70.1094 38.3389C69.6465 38.9424 69.0049 39.3994 68.1846 39.71C67.3643 40.0205 66.4326 40.1758 65.3896 40.1758C64.3174 40.1758 63.3682 39.9326 62.542 39.4463C61.7158 38.96 61.0771 38.2656 60.626 37.3633C60.1807 36.4551 59.9492 35.3975 59.9316 34.1904V33.1885C59.9316 31.2549 60.3945 29.7461 61.3203 28.6621C62.2461 27.5723 63.5381 27.0273 65.1963 27.0273C66.6201 27.0273 67.751 27.3789 68.5889 28.082C69.4268 28.7852 69.9307 29.7988 70.1006 31.123H67.9209C67.6748 29.582 66.7812 28.8115 65.2402 28.8115C64.2441 28.8115 63.4854 29.1719 62.9639 29.8926C62.4482 30.6074 62.1816 31.6592 62.1641 33.0479V34.0322C62.1641 35.415 62.4541 36.4902 63.0342 37.2578C63.6201 38.0195 64.4316 38.4004 65.4688 38.4004C66.6055 38.4004 67.4141 38.1426 67.8945 37.627V35.1221H65.2578V33.4346H70.1094V38.3389Z" fill="black"/>
<path d="M77.6252 32.4414C77.3439 32.3945 77.0539 32.3711 76.7551 32.3711C75.7766 32.3711 75.1174 32.7461 74.7775 33.4961V40H72.6418V30.4902H74.6809L74.7336 31.5537C75.2492 30.7275 75.9641 30.3145 76.8781 30.3145C77.1828 30.3145 77.4348 30.3555 77.634 30.4375L77.6252 32.4414Z" fill="black"/>
<path d="M81.5463 40H79.4105V30.4902H81.5463V40ZM79.2787 28.0205C79.2787 27.6924 79.3813 27.4199 79.5863 27.2031C79.7973 26.9863 80.0961 26.8779 80.4828 26.8779C80.8695 26.8779 81.1684 26.9863 81.3793 27.2031C81.5902 27.4199 81.6957 27.6924 81.6957 28.0205C81.6957 28.3428 81.5902 28.6123 81.3793 28.8291C81.1684 29.04 80.8695 29.1455 80.4828 29.1455C80.0961 29.1455 79.7973 29.04 79.5863 28.8291C79.3813 28.6123 79.2787 28.3428 79.2787 28.0205Z" fill="black"/>
<path d="M83.7799 35.1748C83.7799 33.71 84.1197 32.5352 84.7994 31.6504C85.4791 30.7598 86.3902 30.3145 87.5328 30.3145C88.5406 30.3145 89.3551 30.666 89.9762 31.3691V26.5H92.1119V40H90.1783L90.0729 39.0156C89.4342 39.7891 88.5816 40.1758 87.5152 40.1758C86.402 40.1758 85.4996 39.7275 84.8082 38.8311C84.1227 37.9346 83.7799 36.7158 83.7799 35.1748ZM85.9156 35.3594C85.9156 36.3262 86.1002 37.082 86.4693 37.627C86.8443 38.166 87.3746 38.4355 88.0602 38.4355C88.9332 38.4355 89.5719 38.0459 89.9762 37.2666V33.2061C89.5836 32.4443 88.9508 32.0635 88.0777 32.0635C87.3863 32.0635 86.8531 32.3389 86.4781 32.8896C86.1031 33.4346 85.9156 34.2578 85.9156 35.3594Z" fill="black"/>
<path d="M109.394 35.834C109.265 37.1992 108.761 38.2656 107.882 39.0332C107.003 39.7949 105.834 40.1758 104.375 40.1758C103.355 40.1758 102.456 39.9355 101.677 39.4551C100.903 38.9688 100.306 38.2803 99.8838 37.3896C99.4619 36.499 99.2422 35.4648 99.2246 34.2871V33.0918C99.2246 31.8848 99.4385 30.8213 99.8662 29.9014C100.294 28.9814 100.906 28.2725 101.703 27.7744C102.506 27.2764 103.432 27.0273 104.48 27.0273C105.893 27.0273 107.029 27.4111 107.891 28.1787C108.752 28.9463 109.253 30.0303 109.394 31.4307H107.179C107.073 30.5107 106.804 29.8486 106.37 29.4443C105.942 29.0342 105.312 28.8291 104.48 28.8291C103.514 28.8291 102.77 29.1836 102.248 29.8926C101.732 30.5957 101.469 31.6299 101.457 32.9951V34.1289C101.457 35.5117 101.703 36.5664 102.195 37.293C102.693 38.0195 103.42 38.3828 104.375 38.3828C105.248 38.3828 105.904 38.1865 106.344 37.7939C106.783 37.4014 107.062 36.748 107.179 35.834H109.394Z" fill="black"/>
<path d="M115.67 40.1758C114.317 40.1758 113.218 39.751 112.374 38.9014C111.536 38.0459 111.117 36.9092 111.117 35.4912V35.2275C111.117 34.2783 111.299 33.4316 111.662 32.6875C112.031 31.9375 112.547 31.3545 113.209 30.9385C113.871 30.5225 114.61 30.3145 115.424 30.3145C116.719 30.3145 117.718 30.7275 118.421 31.5537C119.13 32.3799 119.485 33.5488 119.485 35.0605V35.9219H113.271C113.335 36.707 113.596 37.3281 114.053 37.7852C114.516 38.2422 115.096 38.4707 115.793 38.4707C116.772 38.4707 117.569 38.0752 118.184 37.2842L119.335 38.3828C118.954 38.9512 118.445 39.3936 117.806 39.71C117.173 40.0205 116.461 40.1758 115.67 40.1758ZM115.415 32.0283C114.829 32.0283 114.355 32.2334 113.991 32.6436C113.634 33.0537 113.405 33.625 113.306 34.3574H117.375V34.1992C117.328 33.4844 117.138 32.9453 116.804 32.582C116.47 32.2129 116.007 32.0283 115.415 32.0283Z" fill="black"/>
<path d="M123.722 40H121.586V26.5H123.722V40Z" fill="black"/>
<path d="M128.628 40H126.492V26.5H128.628V40Z" fill="black"/>
<rect x="209" y="58" width="144" height="144" fill="#00C9DB"/>
<path d="M227.255 80.9669C227.789 80.8259 228.108 80.2787 227.967 79.7447L225.67 71.0429C225.529 70.5089 224.981 70.1903 224.447 70.3313C223.913 70.4722 223.595 71.0194 223.736 71.5534L225.778 79.2884L218.043 81.3304C217.509 81.4714 217.19 82.0186 217.331 82.5525C217.472 83.0865 218.019 83.4051 218.553 83.2642L227.255 80.9669ZM147.497 34.8642L226.497 80.8642L227.503 79.1358L148.503 33.1358L147.497 34.8642Z" fill="#242526"/>
</svg>
