<svg width="710" height="385" viewBox="0 0 710 385" fill="none" xmlns="http://www.w3.org/2000/svg">
<rect width="710" height="385" fill="white"/>
<rect x="60.5" y="56.5" width="147" height="147" fill="#E8F0FE" stroke="#4E74D3" stroke-width="3"/>
<rect x="60.5" y="203.5" width="147" height="147" fill="#E8F0FE" stroke="#4E74D3" stroke-width="3"/>
<rect x="354.5" y="56.5" width="147" height="147" fill="#00C9DB" stroke="#4E74D3" stroke-width="3"/>
<rect x="354.5" y="203.5" width="147" height="147" fill="#00C9DB" stroke="#4E74D3" stroke-width="3"/>
<rect x="207.5" y="56.5" width="147" height="147" fill="#00C9DB" stroke="#4E74D3" stroke-width="3"/>
<rect x="207.5" y="203.5" width="147" height="147" fill="#00C9DB" stroke="#4E74D3" stroke-width="3"/>
<rect x="501.5" y="56.5" width="147" height="147" fill="#E8F0FE" stroke="#4E74D3" stroke-width="3"/>
<rect x="501.5" y="203.5" width="147" height="147" fill="#E8F0FE" stroke="#4E74D3" stroke-width="3"/>
<path d="M70.1094 38.3389C69.6465 38.9424 69.0049 39.3994 68.1846 39.71C67.3643 40.0205 66.4326 40.1758 65.3896 40.1758C64.3174 40.1758 63.3682 39.9326 62.542 39.4463C61.7158 38.96 61.0771 38.2656 60.626 37.3633C60.1807 36.4551 59.9492 35.3975 59.9316 34.1904V33.1885C59.9316 31.2549 60.3945 29.7461 61.3203 28.6621C62.2461 27.5723 63.5381 27.0273 65.1963 27.0273C66.6201 27.0273 67.751 27.3789 68.5889 28.082C69.4268 28.7852 69.9307 29.7988 70.1006 31.123H67.9209C67.6748 29.582 66.7812 28.8115 65.2402 28.8115C64.2441 28.8115 63.4854 29.1719 62.9639 29.8926C62.4482 30.6074 62.1816 31.6592 62.1641 33.0479V34.0322C62.1641 35.415 62.4541 36.4902 63.0342 37.2578C63.6201 38.0195 64.4316 38.4004 65.4688 38.4004C66.6055 38.4004 67.4141 38.1426 67.8945 37.627V35.1221H65.2578V33.4346H70.1094V38.3389Z" fill="black"/>
<path d="M77.6252 32.4414C77.3439 32.3945 77.0539 32.3711 76.7551 32.3711C75.7766 32.3711 75.1174 32.7461 74.7775 33.4961V40H72.6418V30.4902H74.6809L74.7336 31.5537C75.2492 30.7275 75.9641 30.3145 76.8781 30.3145C77.1828 30.3145 77.4348 30.3555 77.634 30.4375L77.6252 32.4414Z" fill="black"/>
<path d="M81.5463 40H79.4105V30.4902H81.5463V40ZM79.2787 28.0205C79.2787 27.6924 79.3813 27.4199 79.5863 27.2031C79.7973 26.9863 80.0961 26.8779 80.4828 26.8779C80.8695 26.8779 81.1684 26.9863 81.3793 27.2031C81.5902 27.4199 81.6957 27.6924 81.6957 28.0205C81.6957 28.3428 81.5902 28.6123 81.3793 28.8291C81.1684 29.04 80.8695 29.1455 80.4828 29.1455C80.0961 29.1455 79.7973 29.04 79.5863 28.8291C79.3813 28.6123 79.2787 28.3428 79.2787 28.0205Z" fill="black"/>
<path d="M83.7799 35.1748C83.7799 33.71 84.1197 32.5352 84.7994 31.6504C85.4791 30.7598 86.3902 30.3145 87.5328 30.3145C88.5406 30.3145 89.3551 30.666 89.9762 31.3691V26.5H92.1119V40H90.1783L90.0729 39.0156C89.4342 39.7891 88.5816 40.1758 87.5152 40.1758C86.402 40.1758 85.4996 39.7275 84.8082 38.8311C84.1227 37.9346 83.7799 36.7158 83.7799 35.1748ZM85.9156 35.3594C85.9156 36.3262 86.1002 37.082 86.4693 37.627C86.8443 38.166 87.3746 38.4355 88.0602 38.4355C88.9332 38.4355 89.5719 38.0459 89.9762 37.2666V33.2061C89.5836 32.4443 88.9508 32.0635 88.0777 32.0635C87.3863 32.0635 86.8531 32.3389 86.4781 32.8896C86.1031 33.4346 85.9156 34.2578 85.9156 35.3594Z" fill="black"/>
<path d="M106.792 37.0205H101.835L100.798 40H98.4863L103.32 27.2031H105.315L110.158 40H107.838L106.792 37.0205ZM102.459 35.2275H106.168L104.313 29.9189L102.459 35.2275Z" fill="black"/>
<path d="M116.69 32.4414C116.408 32.3945 116.118 32.3711 115.82 32.3711C114.841 32.3711 114.182 32.7461 113.842 33.4961V40H111.706V30.4902H113.745L113.798 31.5537C114.314 30.7275 115.029 30.3145 115.943 30.3145C116.247 30.3145 116.499 30.3555 116.698 30.4375L116.69 32.4414Z" fill="black"/>
<path d="M122.351 40.1758C120.997 40.1758 119.899 39.751 119.055 38.9014C118.217 38.0459 117.798 36.9092 117.798 35.4912V35.2275C117.798 34.2783 117.98 33.4316 118.343 32.6875C118.712 31.9375 119.228 31.3545 119.89 30.9385C120.552 30.5225 121.29 30.3145 122.105 30.3145C123.4 30.3145 124.399 30.7275 125.102 31.5537C125.811 32.3799 126.165 33.5488 126.165 35.0605V35.9219H119.952C120.016 36.707 120.277 37.3281 120.734 37.7852C121.197 38.2422 121.777 38.4707 122.474 38.4707C123.453 38.4707 124.249 38.0752 124.865 37.2842L126.016 38.3828C125.635 38.9512 125.125 39.3936 124.487 39.71C123.854 40.0205 123.142 40.1758 122.351 40.1758ZM122.096 32.0283C121.51 32.0283 121.036 32.2334 120.672 32.6436C120.315 33.0537 120.086 33.625 119.987 34.3574H124.056V34.1992C124.009 33.4844 123.819 32.9453 123.485 32.582C123.151 32.2129 122.688 32.0283 122.096 32.0283Z" fill="black"/>
<path d="M133.813 40C133.719 39.8184 133.637 39.5225 133.567 39.1123C132.887 39.8213 132.055 40.1758 131.071 40.1758C130.116 40.1758 129.337 39.9033 128.733 39.3584C128.129 38.8135 127.828 38.1396 127.828 37.3369C127.828 36.3232 128.203 35.5469 128.953 35.0078C129.709 34.4629 130.787 34.1904 132.187 34.1904H133.497V33.5664C133.497 33.0742 133.359 32.6816 133.084 32.3887C132.808 32.0898 132.389 31.9404 131.827 31.9404C131.34 31.9404 130.942 32.0635 130.631 32.3096C130.321 32.5498 130.166 32.8574 130.166 33.2324H128.03C128.03 32.7109 128.203 32.2246 128.548 31.7734C128.894 31.3164 129.363 30.959 129.955 30.7012C130.552 30.4434 131.217 30.3145 131.95 30.3145C133.063 30.3145 133.951 30.5957 134.613 31.1582C135.275 31.7148 135.615 32.5 135.632 33.5137V37.8027C135.632 38.6582 135.753 39.3408 135.993 39.8506V40H133.813ZM131.466 38.4619C131.888 38.4619 132.284 38.3594 132.653 38.1543C133.028 37.9492 133.309 37.6738 133.497 37.3281V35.5352H132.345C131.554 35.5352 130.96 35.6729 130.561 35.9482C130.163 36.2236 129.963 36.6133 129.963 37.1172C129.963 37.5273 130.098 37.8555 130.368 38.1016C130.643 38.3418 131.009 38.4619 131.466 38.4619Z" fill="black"/>
<path d="M227.203 80.9793C227.743 80.8674 228.091 80.3382 227.979 79.7974L226.156 70.9841C226.044 70.4432 225.515 70.0955 224.974 70.2074C224.433 70.3193 224.085 70.8484 224.197 71.3893L225.818 79.2233L217.984 80.8442C217.443 80.9561 217.095 81.4852 217.207 82.0261C217.319 82.5669 217.848 82.9146 218.389 82.8027L227.203 80.9793ZM156.451 34.8357L226.451 80.8357L227.549 79.1643L157.549 33.1643L156.451 34.8357Z" fill="#242526"/>
</svg>
