<svg width="710" height="385" viewBox="0 0 710 385" fill="none" xmlns="http://www.w3.org/2000/svg">
<rect width="710" height="385" fill="white"/>
<rect x="60.5" y="56.5" width="147" height="147" fill="#00C9DB" stroke="#4E74D3" stroke-width="3"/>
<rect x="60.5" y="203.5" width="147" height="147" fill="#E8F0FE" stroke="#4E74D3" stroke-width="3"/>
<rect x="354.5" y="56.5" width="147" height="147" fill="#00C9DB" stroke="#4E74D3" stroke-width="3"/>
<rect x="354.5" y="203.5" width="147" height="147" fill="#E8F0FE" stroke="#4E74D3" stroke-width="3"/>
<rect x="207.5" y="56.5" width="147" height="147" fill="#00C9DB" stroke="#4E74D3" stroke-width="3"/>
<rect x="207.5" y="203.5" width="147" height="147" fill="#E8F0FE" stroke="#4E74D3" stroke-width="3"/>
<rect x="501.5" y="56.5" width="147" height="147" fill="#00C9DB" stroke="#4E74D3" stroke-width="3"/>
<rect x="501.5" y="203.5" width="147" height="147" fill="#E8F0FE" stroke="#4E74D3" stroke-width="3"/>
<path d="M70.1094 38.3389C69.6465 38.9424 69.0049 39.3994 68.1846 39.71C67.3643 40.0205 66.4326 40.1758 65.3896 40.1758C64.3174 40.1758 63.3682 39.9326 62.542 39.4463C61.7158 38.96 61.0771 38.2656 60.626 37.3633C60.1807 36.4551 59.9492 35.3975 59.9316 34.1904V33.1885C59.9316 31.2549 60.3945 29.7461 61.3203 28.6621C62.2461 27.5723 63.5381 27.0273 65.1963 27.0273C66.6201 27.0273 67.751 27.3789 68.5889 28.082C69.4268 28.7852 69.9307 29.7988 70.1006 31.123H67.9209C67.6748 29.582 66.7812 28.8115 65.2402 28.8115C64.2441 28.8115 63.4854 29.1719 62.9639 29.8926C62.4482 30.6074 62.1816 31.6592 62.1641 33.0479V34.0322C62.1641 35.415 62.4541 36.4902 63.0342 37.2578C63.6201 38.0195 64.4316 38.4004 65.4688 38.4004C66.6055 38.4004 67.4141 38.1426 67.8945 37.627V35.1221H65.2578V33.4346H70.1094V38.3389Z" fill="black"/>
<path d="M77.6252 32.4414C77.3439 32.3945 77.0539 32.3711 76.7551 32.3711C75.7766 32.3711 75.1174 32.7461 74.7775 33.4961V40H72.6418V30.4902H74.6809L74.7336 31.5537C75.2492 30.7275 75.9641 30.3145 76.8781 30.3145C77.1828 30.3145 77.4348 30.3555 77.634 30.4375L77.6252 32.4414Z" fill="black"/>
<path d="M81.5463 40H79.4105V30.4902H81.5463V40ZM79.2787 28.0205C79.2787 27.6924 79.3813 27.4199 79.5863 27.2031C79.7973 26.9863 80.0961 26.8779 80.4828 26.8779C80.8695 26.8779 81.1684 26.9863 81.3793 27.2031C81.5902 27.4199 81.6957 27.6924 81.6957 28.0205C81.6957 28.3428 81.5902 28.6123 81.3793 28.8291C81.1684 29.04 80.8695 29.1455 80.4828 29.1455C80.0961 29.1455 79.7973 29.04 79.5863 28.8291C79.3813 28.6123 79.2787 28.3428 79.2787 28.0205Z" fill="black"/>
<path d="M83.7799 35.1748C83.7799 33.71 84.1197 32.5352 84.7994 31.6504C85.4791 30.7598 86.3902 30.3145 87.5328 30.3145C88.5406 30.3145 89.3551 30.666 89.9762 31.3691V26.5H92.1119V40H90.1783L90.0729 39.0156C89.4342 39.7891 88.5816 40.1758 87.5152 40.1758C86.402 40.1758 85.4996 39.7275 84.8082 38.8311C84.1227 37.9346 83.7799 36.7158 83.7799 35.1748ZM85.9156 35.3594C85.9156 36.3262 86.1002 37.082 86.4693 37.627C86.8443 38.166 87.3746 38.4355 88.0602 38.4355C88.9332 38.4355 89.5719 38.0459 89.9762 37.2666V33.2061C89.5836 32.4443 88.9508 32.0635 88.0777 32.0635C87.3863 32.0635 86.8531 32.3389 86.4781 32.8896C86.1031 33.4346 85.9156 34.2578 85.9156 35.3594Z" fill="black"/>
<path d="M108.348 28.9961H104.357V40H102.151V28.9961H98.1963V27.2031H108.348V28.9961Z" fill="black"/>
<path d="M114.528 32.4414C114.246 32.3945 113.956 32.3711 113.657 32.3711C112.679 32.3711 112.02 32.7461 111.68 33.4961V40H109.544V30.4902H111.583L111.636 31.5537C112.152 30.7275 112.866 30.3145 113.78 30.3145C114.085 30.3145 114.337 30.3555 114.536 30.4375L114.528 32.4414Z" fill="black"/>
<path d="M121.595 40C121.501 39.8184 121.419 39.5225 121.349 39.1123C120.669 39.8213 119.837 40.1758 118.853 40.1758C117.898 40.1758 117.119 39.9033 116.515 39.3584C115.912 38.8135 115.61 38.1396 115.61 37.3369C115.61 36.3232 115.985 35.5469 116.735 35.0078C117.491 34.4629 118.569 34.1904 119.969 34.1904H121.279V33.5664C121.279 33.0742 121.141 32.6816 120.866 32.3887C120.59 32.0898 120.171 31.9404 119.609 31.9404C119.122 31.9404 118.724 32.0635 118.413 32.3096C118.103 32.5498 117.948 32.8574 117.948 33.2324H115.812C115.812 32.7109 115.985 32.2246 116.33 31.7734C116.676 31.3164 117.145 30.959 117.737 30.7012C118.334 30.4434 118.999 30.3145 119.732 30.3145C120.845 30.3145 121.733 30.5957 122.395 31.1582C123.057 31.7148 123.397 32.5 123.414 33.5137V37.8027C123.414 38.6582 123.535 39.3408 123.775 39.8506V40H121.595ZM119.248 38.4619C119.67 38.4619 120.066 38.3594 120.435 38.1543C120.81 37.9492 121.091 37.6738 121.279 37.3281V35.5352H120.127C119.336 35.5352 118.742 35.6729 118.343 35.9482C117.945 36.2236 117.746 36.6133 117.746 37.1172C117.746 37.5273 117.88 37.8555 118.15 38.1016C118.425 38.3418 118.791 38.4619 119.248 38.4619Z" fill="black"/>
<path d="M129.858 38.4707C130.391 38.4707 130.834 38.3154 131.185 38.0049C131.537 37.6943 131.724 37.3105 131.748 36.8535H133.76C133.737 37.4453 133.552 37.999 133.207 38.5146C132.861 39.0244 132.392 39.4287 131.8 39.7275C131.209 40.0264 130.57 40.1758 129.884 40.1758C128.554 40.1758 127.5 39.7451 126.72 38.8838C125.941 38.0225 125.551 36.833 125.551 35.3154V35.0957C125.551 33.6484 125.938 32.4912 126.712 31.624C127.485 30.751 128.54 30.3145 129.876 30.3145C131.006 30.3145 131.926 30.6455 132.635 31.3076C133.35 31.9639 133.725 32.8281 133.76 33.9004H131.748C131.724 33.3555 131.537 32.9072 131.185 32.5557C130.839 32.2041 130.397 32.0283 129.858 32.0283C129.167 32.0283 128.633 32.2803 128.258 32.7842C127.883 33.2822 127.693 34.041 127.687 35.0605V35.4033C127.687 36.4346 127.872 37.2051 128.241 37.7148C128.616 38.2188 129.155 38.4707 129.858 38.4707Z" fill="black"/>
<path d="M138.762 35.9219L137.813 36.8975V40H135.678V26.5H137.813V34.2871L138.481 33.4521L141.109 30.4902H143.676L140.142 34.4541L144.054 40H141.584L138.762 35.9219Z" fill="black"/>
<path d="M227.203 80.9793C227.743 80.8674 228.091 80.3382 227.979 79.7974L226.156 70.9841C226.044 70.4432 225.515 70.0955 224.974 70.2074C224.433 70.3193 224.085 70.8484 224.197 71.3893L225.818 79.2233L217.984 80.8442C217.443 80.9561 217.095 81.4852 217.207 82.0261C217.319 82.5669 217.848 82.9146 218.389 82.8027L227.203 80.9793ZM156.451 34.8357L226.451 80.8357L227.549 79.1643L157.549 33.1643L156.451 34.8357Z" fill="#242526"/>
</svg>
