<svg width="710" height="385" viewBox="0 0 710 385" fill="none" xmlns="http://www.w3.org/2000/svg">
<rect width="710" height="385" fill="white"/>
<rect x="60.5" y="56.5" width="147" height="147" fill="#E8F0FE" stroke="#4E74D3" stroke-width="3"/>
<rect x="60.5" y="203.5" width="147" height="147" fill="#E8F0FE" stroke="#4E74D3" stroke-width="3"/>
<rect x="354.5" y="56.5" width="147" height="147" fill="#E8F0FE" stroke="#4E74D3" stroke-width="3"/>
<rect x="354.5" y="203.5" width="147" height="147" fill="#E8F0FE" stroke="#4E74D3" stroke-width="3"/>
<rect x="207.5" y="56.5" width="147" height="147" fill="#E8F0FE" stroke="#4E74D3" stroke-width="3"/>
<rect x="207.5" y="203.5" width="147" height="147" fill="#E8F0FE" stroke="#4E74D3" stroke-width="3"/>
<rect x="501.5" y="56.5" width="147" height="147" fill="#E8F0FE" stroke="#4E74D3" stroke-width="3"/>
<rect x="501.5" y="203.5" width="147" height="147" fill="#E8F0FE" stroke="#4E74D3" stroke-width="3"/>
<path d="M70.1094 38.3389C69.6465 38.9424 69.0049 39.3994 68.1846 39.71C67.3643 40.0205 66.4326 40.1758 65.3896 40.1758C64.3174 40.1758 63.3682 39.9326 62.542 39.4463C61.7158 38.96 61.0771 38.2656 60.626 37.3633C60.1807 36.4551 59.9492 35.3975 59.9316 34.1904V33.1885C59.9316 31.2549 60.3945 29.7461 61.3203 28.6621C62.2461 27.5723 63.5381 27.0273 65.1963 27.0273C66.6201 27.0273 67.751 27.3789 68.5889 28.082C69.4268 28.7852 69.9307 29.7988 70.1006 31.123H67.9209C67.6748 29.582 66.7812 28.8115 65.2402 28.8115C64.2441 28.8115 63.4854 29.1719 62.9639 29.8926C62.4482 30.6074 62.1816 31.6592 62.1641 33.0479V34.0322C62.1641 35.415 62.4541 36.4902 63.0342 37.2578C63.6201 38.0195 64.4316 38.4004 65.4688 38.4004C66.6055 38.4004 67.4141 38.1426 67.8945 37.627V35.1221H65.2578V33.4346H70.1094V38.3389Z" fill="black"/>
<path d="M77.6252 32.4414C77.3439 32.3945 77.0539 32.3711 76.7551 32.3711C75.7766 32.3711 75.1174 32.7461 74.7775 33.4961V40H72.6418V30.4902H74.6809L74.7336 31.5537C75.2492 30.7275 75.9641 30.3145 76.8781 30.3145C77.1828 30.3145 77.4348 30.3555 77.634 30.4375L77.6252 32.4414Z" fill="black"/>
<path d="M81.5463 40H79.4105V30.4902H81.5463V40ZM79.2787 28.0205C79.2787 27.6924 79.3813 27.4199 79.5863 27.2031C79.7973 26.9863 80.0961 26.8779 80.4828 26.8779C80.8695 26.8779 81.1684 26.9863 81.3793 27.2031C81.5902 27.4199 81.6957 27.6924 81.6957 28.0205C81.6957 28.3428 81.5902 28.6123 81.3793 28.8291C81.1684 29.04 80.8695 29.1455 80.4828 29.1455C80.0961 29.1455 79.7973 29.04 79.5863 28.8291C79.3813 28.6123 79.2787 28.3428 79.2787 28.0205Z" fill="black"/>
<path d="M83.7799 35.1748C83.7799 33.71 84.1197 32.5352 84.7994 31.6504C85.4791 30.7598 86.3902 30.3145 87.5328 30.3145C88.5406 30.3145 89.3551 30.666 89.9762 31.3691V26.5H92.1119V40H90.1783L90.0729 39.0156C89.4342 39.7891 88.5816 40.1758 87.5152 40.1758C86.402 40.1758 85.4996 39.7275 84.8082 38.8311C84.1227 37.9346 83.7799 36.7158 83.7799 35.1748ZM85.9156 35.3594C85.9156 36.3262 86.1002 37.082 86.4693 37.627C86.8443 38.166 87.3746 38.4355 88.0602 38.4355C88.9332 38.4355 89.5719 38.0459 89.9762 37.2666V33.2061C89.5836 32.4443 88.9508 32.0635 88.0777 32.0635C87.3863 32.0635 86.8531 32.3389 86.4781 32.8896C86.1031 33.4346 85.9156 34.2578 85.9156 35.3594Z" fill="black"/>
<path d="M101.853 38.2246H107.662V40H99.6289V27.2031H101.853V38.2246Z" fill="black"/>
<path d="M111.733 40H109.597V30.4902H111.733V40ZM109.465 28.0205C109.465 27.6924 109.568 27.4199 109.773 27.2031C109.984 26.9863 110.282 26.8779 110.669 26.8779C111.056 26.8779 111.355 26.9863 111.566 27.2031C111.777 27.4199 111.882 27.6924 111.882 28.0205C111.882 28.3428 111.777 28.6123 111.566 28.8291C111.355 29.04 111.056 29.1455 110.669 29.1455C110.282 29.1455 109.984 29.04 109.773 28.8291C109.568 28.6123 109.465 28.3428 109.465 28.0205Z" fill="black"/>
<path d="M116.348 30.4902L116.41 31.5889C117.113 30.7393 118.036 30.3145 119.178 30.3145C121.159 30.3145 122.166 31.4482 122.202 33.7158V40H120.066V33.8389C120.066 33.2354 119.934 32.79 119.67 32.5029C119.412 32.21 118.988 32.0635 118.396 32.0635C117.535 32.0635 116.893 32.4531 116.471 33.2324V40H114.335V30.4902H116.348Z" fill="black"/>
<path d="M128.874 40.1758C127.52 40.1758 126.421 39.751 125.578 38.9014C124.74 38.0459 124.321 36.9092 124.321 35.4912V35.2275C124.321 34.2783 124.503 33.4316 124.866 32.6875C125.235 31.9375 125.751 31.3545 126.413 30.9385C127.075 30.5225 127.813 30.3145 128.628 30.3145C129.922 30.3145 130.921 30.7275 131.625 31.5537C132.334 32.3799 132.688 33.5488 132.688 35.0605V35.9219H126.474C126.539 36.707 126.799 37.3281 127.256 37.7852C127.719 38.2422 128.299 38.4707 128.997 38.4707C129.975 38.4707 130.772 38.0752 131.387 37.2842L132.539 38.3828C132.158 38.9512 131.648 39.3936 131.009 39.71C130.377 40.0205 129.665 40.1758 128.874 40.1758ZM128.619 32.0283C128.033 32.0283 127.558 32.2334 127.195 32.6436C126.838 33.0537 126.609 33.625 126.509 34.3574H130.579V34.1992C130.532 33.4844 130.341 32.9453 130.007 32.582C129.673 32.2129 129.211 32.0283 128.619 32.0283Z" fill="black"/>
<path d="M202.184 71.983C202.727 71.8816 203.084 71.3593 202.983 70.8164L201.33 61.9694C201.229 61.4265 200.707 61.0686 200.164 61.1701C199.621 61.2715 199.263 61.7938 199.364 62.3367L200.833 70.2006L192.969 71.6697C192.427 71.7712 192.069 72.2935 192.17 72.8364C192.271 73.3793 192.794 73.7371 193.337 73.6357L202.184 71.983ZM147.435 34.8249L201.435 71.8249L202.565 70.1751L148.565 33.1751L147.435 34.8249Z" fill="#242526"/>
<rect x="205" y="55" width="4" height="297" fill="#00C9DB"/>
</svg>
