<svg width="760" height="270" viewBox="0 0 760 270" fill="none" xmlns="http://www.w3.org/2000/svg">
<rect width="760" height="270" fill="white"/>
<path d="M296.017 64.2637C295.907 65.7936 295.34 66.998 294.318 67.877C293.302 68.7559 291.961 69.1953 290.295 69.1953C288.472 69.1953 287.036 68.5833 285.988 67.3594C284.946 66.1289 284.425 64.4427 284.425 62.3008V61.4316C284.425 60.0645 284.666 58.86 285.148 57.8184C285.63 56.7767 286.317 55.9792 287.209 55.4258C288.107 54.8659 289.149 54.5859 290.334 54.5859C291.974 54.5859 293.296 55.0254 294.298 55.9043C295.301 56.7832 295.88 58.0169 296.037 59.6055H293.107C293.035 58.6875 292.778 58.0234 292.336 57.6133C291.899 57.1966 291.232 56.9883 290.334 56.9883C289.357 56.9883 288.625 57.3398 288.136 58.043C287.655 58.7396 287.407 59.8236 287.394 61.2949V62.3691C287.394 63.9056 287.625 65.0286 288.088 65.7383C288.556 66.4479 289.292 66.8027 290.295 66.8027C291.2 66.8027 291.873 66.5977 292.316 66.1875C292.765 65.7708 293.022 65.1296 293.088 64.2637H296.017Z" fill="black"/>
<path d="M305.614 65.2695C305.614 64.7161 305.419 64.293 305.028 64C304.638 63.7005 303.934 63.388 302.919 63.0625C301.903 62.7305 301.099 62.4049 300.507 62.0859C298.892 61.2135 298.085 60.0384 298.085 58.5605C298.085 57.7923 298.3 57.1087 298.729 56.5098C299.166 55.9043 299.787 55.4323 300.595 55.0938C301.408 54.7552 302.32 54.5859 303.329 54.5859C304.345 54.5859 305.249 54.7715 306.044 55.1426C306.838 55.5072 307.453 56.0247 307.889 56.6953C308.332 57.3659 308.554 58.1276 308.554 58.9805H305.624C305.624 58.3294 305.419 57.8249 305.009 57.4668C304.598 57.1022 304.022 56.9199 303.28 56.9199C302.564 56.9199 302.007 57.0729 301.61 57.3789C301.213 57.6784 301.014 58.0755 301.014 58.5703C301.014 59.0326 301.246 59.4199 301.708 59.7324C302.177 60.0449 302.863 60.3379 303.768 60.6113C305.435 61.1126 306.649 61.7344 307.411 62.4766C308.173 63.2188 308.554 64.1432 308.554 65.25C308.554 66.4805 308.088 67.4473 307.157 68.1504C306.226 68.847 304.973 69.1953 303.397 69.1953C302.304 69.1953 301.307 68.9967 300.409 68.5996C299.511 68.196 298.824 67.6458 298.348 66.9492C297.88 66.2526 297.645 65.4453 297.645 64.5273H300.585C300.585 66.0964 301.522 66.8809 303.397 66.8809C304.094 66.8809 304.638 66.7409 305.028 66.4609C305.419 66.1745 305.614 65.7773 305.614 65.2695Z" fill="black"/>
<path d="M318.219 65.2695C318.219 64.7161 318.023 64.293 317.633 64C317.242 63.7005 316.539 63.388 315.523 63.0625C314.508 62.7305 313.704 62.4049 313.111 62.0859C311.497 61.2135 310.689 60.0384 310.689 58.5605C310.689 57.7923 310.904 57.1087 311.334 56.5098C311.77 55.9043 312.392 55.4323 313.199 55.0938C314.013 54.7552 314.925 54.5859 315.934 54.5859C316.949 54.5859 317.854 54.7715 318.648 55.1426C319.443 55.5072 320.058 56.0247 320.494 56.6953C320.937 57.3659 321.158 58.1276 321.158 58.9805H318.229C318.229 58.3294 318.023 57.8249 317.613 57.4668C317.203 57.1022 316.627 56.9199 315.885 56.9199C315.169 56.9199 314.612 57.0729 314.215 57.3789C313.818 57.6784 313.619 58.0755 313.619 58.5703C313.619 59.0326 313.85 59.4199 314.313 59.7324C314.781 60.0449 315.468 60.3379 316.373 60.6113C318.04 61.1126 319.254 61.7344 320.016 62.4766C320.777 63.2188 321.158 64.1432 321.158 65.25C321.158 66.4805 320.693 67.4473 319.762 68.1504C318.831 68.847 317.578 69.1953 316.002 69.1953C314.908 69.1953 313.912 68.9967 313.014 68.5996C312.115 68.196 311.428 67.6458 310.953 66.9492C310.484 66.2526 310.25 65.4453 310.25 64.5273H313.189C313.189 66.0964 314.127 66.8809 316.002 66.8809C316.699 66.8809 317.242 66.7409 317.633 66.4609C318.023 66.1745 318.219 65.7773 318.219 65.2695Z" fill="black"/>
<path d="M331.524 69H328.692V54H331.524V69Z" fill="black"/>
<path d="M340.281 69C340.151 68.7461 340.056 68.4303 339.998 68.0527C339.314 68.8145 338.425 69.1953 337.332 69.1953C336.297 69.1953 335.437 68.8958 334.754 68.2969C334.076 67.6979 333.738 66.9427 333.738 66.0312C333.738 64.9115 334.151 64.0521 334.978 63.4531C335.811 62.8542 337.013 62.5514 338.582 62.5449H339.88V61.9395C339.88 61.4512 339.754 61.0605 339.5 60.7676C339.252 60.4746 338.858 60.3281 338.318 60.3281C337.843 60.3281 337.468 60.4421 337.195 60.6699C336.928 60.8978 336.795 61.2103 336.795 61.6074H333.972C333.972 60.9954 334.161 60.429 334.539 59.9082C334.916 59.3874 335.45 58.9805 336.14 58.6875C336.83 58.388 337.605 58.2383 338.464 58.2383C339.767 58.2383 340.798 58.5671 341.56 59.2246C342.328 59.8757 342.713 60.7936 342.713 61.9785V66.5586C342.719 67.5612 342.859 68.3197 343.132 68.834V69H340.281ZM337.947 67.0371C338.364 67.0371 338.748 66.946 339.099 66.7637C339.451 66.5749 339.711 66.3242 339.88 66.0117V64.1953H338.826C337.413 64.1953 336.661 64.6836 336.57 65.6602L336.56 65.8262C336.56 66.1777 336.684 66.4674 336.931 66.6953C337.179 66.9232 337.517 67.0371 337.947 67.0371Z" fill="black"/>
<path d="M348.97 65.0059L350.923 58.4336H353.95L349.702 70.6406L349.468 71.1973C348.836 72.5775 347.794 73.2676 346.343 73.2676C345.932 73.2676 345.516 73.2057 345.093 73.082V70.9434L345.522 70.9531C346.056 70.9531 346.453 70.8717 346.714 70.709C346.981 70.5462 347.189 70.276 347.339 69.8984L347.671 69.0293L343.97 58.4336H347.007L348.97 65.0059Z" fill="black"/>
<path d="M354.768 63.6191C354.768 62.571 354.969 61.6367 355.373 60.8164C355.777 59.9961 356.356 59.3613 357.111 58.9121C357.873 58.4629 358.755 58.2383 359.758 58.2383C361.184 58.2383 362.346 58.6745 363.244 59.5469C364.149 60.4193 364.654 61.6042 364.758 63.1016L364.777 63.8242C364.777 65.4453 364.325 66.7474 363.42 67.7305C362.515 68.707 361.301 69.1953 359.777 69.1953C358.254 69.1953 357.036 68.707 356.125 67.7305C355.22 66.7539 354.768 65.4258 354.768 63.7461V63.6191ZM357.59 63.8242C357.59 64.8268 357.779 65.5951 358.156 66.1289C358.534 66.6562 359.074 66.9199 359.777 66.9199C360.461 66.9199 360.995 66.6595 361.379 66.1387C361.763 65.6113 361.955 64.7715 361.955 63.6191C361.955 62.6361 361.763 61.8743 361.379 61.334C360.995 60.7936 360.454 60.5234 359.758 60.5234C359.068 60.5234 358.534 60.7936 358.156 61.334C357.779 61.8678 357.59 62.6979 357.59 63.8242Z" fill="black"/>
<path d="M373.144 67.9258C372.447 68.7721 371.484 69.1953 370.253 69.1953C369.12 69.1953 368.254 68.8698 367.655 68.2188C367.063 67.5677 366.76 66.6139 366.747 65.3574V58.4336H369.57V65.2598C369.57 66.36 370.071 66.9102 371.073 66.9102C372.03 66.9102 372.688 66.5781 373.046 65.9141V58.4336H375.878V69H373.222L373.144 67.9258Z" fill="black"/>
<path d="M381.686 55.8359V58.4336H383.493V60.5039H381.686V65.7773C381.686 66.168 381.761 66.4479 381.911 66.6172C382.06 66.7865 382.347 66.8711 382.77 66.8711C383.082 66.8711 383.359 66.8483 383.6 66.8027V68.9414C383.047 69.1107 382.477 69.1953 381.891 69.1953C379.912 69.1953 378.903 68.196 378.864 66.1973V60.5039H377.321V58.4336H378.864V55.8359H381.686Z" fill="black"/>
<path d="M390.206 63.6191C390.206 62.571 390.408 61.6367 390.811 60.8164C391.215 59.9961 391.794 59.3613 392.55 58.9121C393.311 58.4629 394.194 58.2383 395.196 58.2383C396.622 58.2383 397.784 58.6745 398.682 59.5469C399.587 60.4193 400.092 61.6042 400.196 63.1016L400.216 63.8242C400.216 65.4453 399.763 66.7474 398.858 67.7305C397.953 68.707 396.739 69.1953 395.216 69.1953C393.692 69.1953 392.475 68.707 391.563 67.7305C390.658 66.7539 390.206 65.4258 390.206 63.7461V63.6191ZM393.028 63.8242C393.028 64.8268 393.217 65.5951 393.595 66.1289C393.972 66.6562 394.513 66.9199 395.216 66.9199C395.899 66.9199 396.433 66.6595 396.817 66.1387C397.201 65.6113 397.393 64.7715 397.393 63.6191C397.393 62.6361 397.201 61.8743 396.817 61.334C396.433 60.7936 395.893 60.5234 395.196 60.5234C394.506 60.5234 393.972 60.7936 393.595 61.334C393.217 61.8678 393.028 62.6979 393.028 63.8242Z" fill="black"/>
<path d="M406.053 65.5527L408.016 58.4336H410.965L407.4 69H404.705L401.141 58.4336H404.09L406.053 65.5527Z" fill="black"/>
<path d="M417.241 69.1953C415.692 69.1953 414.429 68.7201 413.452 67.7695C412.482 66.819 411.997 65.5527 411.997 63.9707V63.6973C411.997 62.6361 412.202 61.6888 412.613 60.8555C413.023 60.0156 413.602 59.3711 414.351 58.9219C415.106 58.4661 415.965 58.2383 416.929 58.2383C418.374 58.2383 419.51 58.694 420.337 59.6055C421.17 60.5169 421.587 61.8092 421.587 63.4824V64.6348H414.859C414.95 65.3249 415.223 65.8783 415.679 66.2949C416.141 66.7116 416.724 66.9199 417.427 66.9199C418.514 66.9199 419.364 66.526 419.976 65.7383L421.363 67.291C420.939 67.89 420.366 68.3587 419.644 68.6973C418.921 69.0293 418.12 69.1953 417.241 69.1953ZM416.919 60.5234C416.359 60.5234 415.904 60.7122 415.552 61.0898C415.207 61.4674 414.986 62.0078 414.888 62.7109H418.814V62.4863C418.801 61.8613 418.631 61.3796 418.306 61.041C417.98 60.696 417.518 60.5234 416.919 60.5234Z" fill="black"/>
<path d="M429.436 61.0801C429.052 61.028 428.713 61.002 428.42 61.002C427.353 61.002 426.653 61.3633 426.321 62.0859V69H423.498V58.4336H426.164L426.243 59.6934C426.809 58.7233 427.593 58.2383 428.596 58.2383C428.909 58.2383 429.202 58.2806 429.475 58.3652L429.436 61.0801Z" fill="black"/>
<path d="M439.763 55.8359V58.4336H441.569V60.5039H439.763V65.7773C439.763 66.168 439.837 66.4479 439.987 66.6172C440.137 66.7865 440.423 66.8711 440.847 66.8711C441.159 66.8711 441.436 66.8483 441.677 66.8027V68.9414C441.123 69.1107 440.554 69.1953 439.968 69.1953C437.988 69.1953 436.979 68.196 436.94 66.1973V60.5039H435.397V58.4336H436.94V55.8359H439.763Z" fill="black"/>
<path d="M446.42 69H443.588V58.4336H446.42V69ZM443.422 55.6992C443.422 55.276 443.562 54.9277 443.842 54.6543C444.128 54.3809 444.516 54.2441 445.004 54.2441C445.486 54.2441 445.87 54.3809 446.156 54.6543C446.443 54.9277 446.586 55.276 446.586 55.6992C446.586 56.1289 446.439 56.4805 446.147 56.7539C445.86 57.0273 445.479 57.1641 445.004 57.1641C444.529 57.1641 444.145 57.0273 443.852 56.7539C443.565 56.4805 443.422 56.1289 443.422 55.6992Z" fill="black"/>
<path d="M451.7 58.4336L451.788 59.6152C452.537 58.6973 453.549 58.2383 454.825 58.2383C456.186 58.2383 457.12 58.7754 457.628 59.8496C458.37 58.7754 459.428 58.2383 460.802 58.2383C461.948 58.2383 462.801 58.5736 463.361 59.2441C463.92 59.9082 464.2 60.9108 464.2 62.252V69H461.368V62.2617C461.368 61.6628 461.251 61.2266 461.017 60.9531C460.782 60.6732 460.369 60.5332 459.777 60.5332C458.93 60.5332 458.344 60.9368 458.019 61.7441L458.029 69H455.206V62.2715C455.206 61.6595 455.086 61.2168 454.845 60.9434C454.604 60.6699 454.194 60.5332 453.614 60.5332C452.814 60.5332 452.234 60.8652 451.876 61.5293V69H449.054V58.4336H451.7Z" fill="black"/>
<path d="M471.541 69.1953C469.992 69.1953 468.729 68.7201 467.752 67.7695C466.782 66.819 466.297 65.5527 466.297 63.9707V63.6973C466.297 62.6361 466.502 61.6888 466.913 60.8555C467.323 60.0156 467.902 59.3711 468.651 58.9219C469.406 58.4661 470.265 58.2383 471.229 58.2383C472.674 58.2383 473.81 58.694 474.637 59.6055C475.47 60.5169 475.887 61.8092 475.887 63.4824V64.6348H469.159C469.25 65.3249 469.523 65.8783 469.979 66.2949C470.441 66.7116 471.024 66.9199 471.727 66.9199C472.814 66.9199 473.664 66.526 474.276 65.7383L475.663 67.291C475.239 67.89 474.666 68.3587 473.944 68.6973C473.221 69.0293 472.42 69.1953 471.541 69.1953ZM471.219 60.5234C470.659 60.5234 470.204 60.7122 469.852 61.0898C469.507 61.4674 469.286 62.0078 469.188 62.7109H473.114V62.4863C473.101 61.8613 472.931 61.3796 472.606 61.041C472.28 60.696 471.818 60.5234 471.219 60.5234Z" fill="black"/>
<path d="M75.2578 123H73V114.297L70.3047 115.133V113.297L75.0156 111.609H75.2578V123Z" fill="#3740FF"/>
<path d="M84.5422 118.453C83.9536 119.031 83.2661 119.32 82.4797 119.32C81.4745 119.32 80.6698 118.977 80.0656 118.289C79.4615 117.596 79.1594 116.664 79.1594 115.492C79.1594 114.747 79.3208 114.065 79.6438 113.445C79.9719 112.82 80.4276 112.336 81.0109 111.992C81.5943 111.643 82.2505 111.469 82.9797 111.469C83.7297 111.469 84.3964 111.656 84.9797 112.031C85.563 112.406 86.0161 112.945 86.3391 113.648C86.662 114.352 86.826 115.156 86.8312 116.062V116.898C86.8312 118.794 86.3599 120.284 85.4172 121.367C84.4745 122.451 83.1385 123.029 81.4094 123.102L80.8547 123.109V121.227L81.3547 121.219C83.3182 121.13 84.3807 120.208 84.5422 118.453ZM83.0344 117.594C83.399 117.594 83.7115 117.5 83.9719 117.312C84.2375 117.125 84.438 116.898 84.5734 116.633V115.703C84.5734 114.938 84.4276 114.344 84.1359 113.922C83.8443 113.5 83.4536 113.289 82.9641 113.289C82.5109 113.289 82.1385 113.497 81.8469 113.914C81.5552 114.326 81.4094 114.844 81.4094 115.469C81.4094 116.089 81.55 116.599 81.8313 117C82.1177 117.396 82.5188 117.594 83.0344 117.594Z" fill="#3740FF"/>
<path d="M94.0297 118.453C93.4411 119.031 92.7536 119.32 91.9672 119.32C90.962 119.32 90.1573 118.977 89.5531 118.289C88.949 117.596 88.6469 116.664 88.6469 115.492C88.6469 114.747 88.8083 114.065 89.1313 113.445C89.4594 112.82 89.9151 112.336 90.4984 111.992C91.0818 111.643 91.738 111.469 92.4672 111.469C93.2172 111.469 93.8839 111.656 94.4672 112.031C95.0505 112.406 95.5036 112.945 95.8266 113.648C96.1495 114.352 96.3135 115.156 96.3188 116.062V116.898C96.3188 118.794 95.8474 120.284 94.9047 121.367C93.962 122.451 92.626 123.029 90.8969 123.102L90.3422 123.109V121.227L90.8422 121.219C92.8057 121.13 93.8682 120.208 94.0297 118.453ZM92.5219 117.594C92.8865 117.594 93.199 117.5 93.4594 117.312C93.725 117.125 93.9255 116.898 94.0609 116.633V115.703C94.0609 114.938 93.9151 114.344 93.6234 113.922C93.3318 113.5 92.9411 113.289 92.4516 113.289C91.9984 113.289 91.626 113.497 91.3344 113.914C91.0427 114.326 90.8969 114.844 90.8969 115.469C90.8969 116.089 91.0375 116.599 91.3188 117C91.6052 117.396 92.0063 117.594 92.5219 117.594Z" fill="#3740FF"/>
<path d="M104.361 111.508V113.367H104.142C103.121 113.383 102.298 113.648 101.673 114.164C101.054 114.68 100.681 115.396 100.556 116.312C101.16 115.698 101.923 115.391 102.845 115.391C103.835 115.391 104.621 115.745 105.205 116.453C105.788 117.161 106.08 118.094 106.08 119.25C106.08 119.99 105.918 120.659 105.595 121.258C105.278 121.857 104.824 122.323 104.236 122.656C103.653 122.99 102.991 123.156 102.252 123.156C101.054 123.156 100.085 122.74 99.3453 121.906C98.6109 121.073 98.2437 119.961 98.2437 118.57V117.758C98.2437 116.523 98.4755 115.435 98.9391 114.492C99.4078 113.544 100.077 112.812 100.947 112.297C101.822 111.776 102.835 111.513 103.986 111.508H104.361ZM102.158 117.203C101.793 117.203 101.462 117.299 101.166 117.492C100.869 117.68 100.65 117.93 100.509 118.242V118.93C100.509 119.685 100.658 120.276 100.955 120.703C101.252 121.125 101.668 121.336 102.205 121.336C102.689 121.336 103.08 121.146 103.377 120.766C103.679 120.38 103.83 119.883 103.83 119.273C103.83 118.654 103.679 118.154 103.377 117.773C103.074 117.393 102.668 117.203 102.158 117.203Z" fill="#3740FF"/>
<path d="M177.258 123H175V114.297L172.305 115.133V113.297L177.016 111.609H177.258V123Z" fill="#3740FF"/>
<path d="M186.542 118.453C185.954 119.031 185.266 119.32 184.48 119.32C183.474 119.32 182.67 118.977 182.066 118.289C181.461 117.596 181.159 116.664 181.159 115.492C181.159 114.747 181.321 114.065 181.644 113.445C181.972 112.82 182.428 112.336 183.011 111.992C183.594 111.643 184.251 111.469 184.98 111.469C185.73 111.469 186.396 111.656 186.98 112.031C187.563 112.406 188.016 112.945 188.339 113.648C188.662 114.352 188.826 115.156 188.831 116.062V116.898C188.831 118.794 188.36 120.284 187.417 121.367C186.474 122.451 185.139 123.029 183.409 123.102L182.855 123.109V121.227L183.355 121.219C185.318 121.13 186.381 120.208 186.542 118.453ZM185.034 117.594C185.399 117.594 185.711 117.5 185.972 117.312C186.238 117.125 186.438 116.898 186.573 116.633V115.703C186.573 114.938 186.428 114.344 186.136 113.922C185.844 113.5 185.454 113.289 184.964 113.289C184.511 113.289 184.139 113.497 183.847 113.914C183.555 114.326 183.409 114.844 183.409 115.469C183.409 116.089 183.55 116.599 183.831 117C184.118 117.396 184.519 117.594 185.034 117.594Z" fill="#3740FF"/>
<path d="M196.03 118.453C195.441 119.031 194.754 119.32 193.967 119.32C192.962 119.32 192.157 118.977 191.553 118.289C190.949 117.596 190.647 116.664 190.647 115.492C190.647 114.747 190.808 114.065 191.131 113.445C191.459 112.82 191.915 112.336 192.498 111.992C193.082 111.643 193.738 111.469 194.467 111.469C195.217 111.469 195.884 111.656 196.467 112.031C197.051 112.406 197.504 112.945 197.827 113.648C198.149 114.352 198.314 115.156 198.319 116.062V116.898C198.319 118.794 197.847 120.284 196.905 121.367C195.962 122.451 194.626 123.029 192.897 123.102L192.342 123.109V121.227L192.842 121.219C194.806 121.13 195.868 120.208 196.03 118.453ZM194.522 117.594C194.886 117.594 195.199 117.5 195.459 117.312C195.725 117.125 195.926 116.898 196.061 116.633V115.703C196.061 114.938 195.915 114.344 195.623 113.922C195.332 113.5 194.941 113.289 194.452 113.289C193.998 113.289 193.626 113.497 193.334 113.914C193.043 114.326 192.897 114.844 192.897 115.469C192.897 116.089 193.037 116.599 193.319 117C193.605 117.396 194.006 117.594 194.522 117.594Z" fill="#3740FF"/>
<path d="M207.65 114.648C207.65 115.201 207.512 115.69 207.236 116.117C206.96 116.544 206.58 116.885 206.095 117.141C206.647 117.406 207.085 117.773 207.408 118.242C207.731 118.706 207.892 119.253 207.892 119.883C207.892 120.893 207.548 121.693 206.861 122.281C206.173 122.865 205.239 123.156 204.056 123.156C202.874 123.156 201.936 122.862 201.244 122.273C200.551 121.685 200.205 120.888 200.205 119.883C200.205 119.253 200.366 118.703 200.689 118.234C201.012 117.766 201.447 117.401 201.994 117.141C201.509 116.885 201.129 116.544 200.853 116.117C200.582 115.69 200.447 115.201 200.447 114.648C200.447 113.68 200.77 112.909 201.416 112.336C202.061 111.758 202.939 111.469 204.048 111.469C205.153 111.469 206.028 111.755 206.673 112.328C207.324 112.896 207.65 113.669 207.65 114.648ZM205.627 119.719C205.627 119.224 205.483 118.828 205.197 118.531C204.91 118.234 204.525 118.086 204.041 118.086C203.561 118.086 203.179 118.234 202.892 118.531C202.606 118.823 202.462 119.219 202.462 119.719C202.462 120.203 202.603 120.594 202.884 120.891C203.166 121.188 203.556 121.336 204.056 121.336C204.546 121.336 204.929 121.193 205.205 120.906C205.486 120.62 205.627 120.224 205.627 119.719ZM205.392 114.758C205.392 114.315 205.275 113.961 205.041 113.695C204.806 113.424 204.476 113.289 204.048 113.289C203.627 113.289 203.298 113.419 203.064 113.68C202.83 113.94 202.712 114.299 202.712 114.758C202.712 115.211 202.83 115.576 203.064 115.852C203.298 116.128 203.629 116.266 204.056 116.266C204.483 116.266 204.811 116.128 205.041 115.852C205.275 115.576 205.392 115.211 205.392 114.758Z" fill="#3740FF"/>
<path d="M302.57 123H294.773V121.453L298.453 117.531C298.958 116.979 299.331 116.497 299.57 116.086C299.815 115.674 299.938 115.284 299.938 114.914C299.938 114.409 299.81 114.013 299.555 113.727C299.299 113.435 298.935 113.289 298.461 113.289C297.951 113.289 297.547 113.466 297.25 113.82C296.958 114.169 296.812 114.63 296.812 115.203H294.547C294.547 114.51 294.711 113.878 295.039 113.305C295.372 112.732 295.841 112.284 296.445 111.961C297.049 111.633 297.734 111.469 298.5 111.469C299.672 111.469 300.581 111.75 301.227 112.312C301.878 112.875 302.203 113.669 302.203 114.695C302.203 115.258 302.057 115.831 301.766 116.414C301.474 116.997 300.974 117.677 300.266 118.453L297.68 121.18H302.57V123Z" fill="#3740FF"/>
<path d="M311.917 118.297C311.917 119.87 311.592 121.073 310.941 121.906C310.29 122.74 309.336 123.156 308.081 123.156C306.842 123.156 305.894 122.747 305.238 121.93C304.581 121.112 304.245 119.94 304.23 118.414V116.32C304.23 114.732 304.558 113.526 305.214 112.703C305.876 111.88 306.826 111.469 308.066 111.469C309.305 111.469 310.253 111.878 310.909 112.695C311.566 113.508 311.902 114.677 311.917 116.203V118.297ZM309.659 116C309.659 115.057 309.529 114.372 309.269 113.945C309.014 113.513 308.613 113.297 308.066 113.297C307.534 113.297 307.141 113.503 306.886 113.914C306.636 114.32 306.503 114.958 306.488 115.828V118.594C306.488 119.521 306.613 120.211 306.863 120.664C307.118 121.112 307.524 121.336 308.081 121.336C308.633 121.336 309.032 121.12 309.277 120.688C309.521 120.255 309.649 119.594 309.659 118.703V116Z" fill="#3740FF"/>
<path d="M319.233 123H316.975V114.297L314.28 115.133V113.297L318.991 111.609H319.233V123Z" fill="#3740FF"/>
<path d="M330.892 118.297C330.892 119.87 330.567 121.073 329.916 121.906C329.265 122.74 328.311 123.156 327.056 123.156C325.817 123.156 324.869 122.747 324.212 121.93C323.556 121.112 323.22 119.94 323.205 118.414V116.32C323.205 114.732 323.533 113.526 324.189 112.703C324.851 111.88 325.801 111.469 327.041 111.469C328.28 111.469 329.228 111.878 329.884 112.695C330.541 113.508 330.877 114.677 330.892 116.203V118.297ZM328.634 116C328.634 115.057 328.504 114.372 328.244 113.945C327.989 113.513 327.587 113.297 327.041 113.297C326.509 113.297 326.116 113.503 325.861 113.914C325.611 114.32 325.478 114.958 325.462 115.828V118.594C325.462 119.521 325.587 120.211 325.837 120.664C326.093 121.112 326.499 121.336 327.056 121.336C327.608 121.336 328.007 121.12 328.252 120.688C328.496 120.255 328.624 119.594 328.634 118.703V116Z" fill="#3740FF"/>
<path d="M394.57 123H386.773V121.453L390.453 117.531C390.958 116.979 391.331 116.497 391.57 116.086C391.815 115.674 391.938 115.284 391.938 114.914C391.938 114.409 391.81 114.013 391.555 113.727C391.299 113.435 390.935 113.289 390.461 113.289C389.951 113.289 389.547 113.466 389.25 113.82C388.958 114.169 388.812 114.63 388.812 115.203H386.547C386.547 114.51 386.711 113.878 387.039 113.305C387.372 112.732 387.841 112.284 388.445 111.961C389.049 111.633 389.734 111.469 390.5 111.469C391.672 111.469 392.581 111.75 393.227 112.312C393.878 112.875 394.203 113.669 394.203 114.695C394.203 115.258 394.057 115.831 393.766 116.414C393.474 116.997 392.974 117.677 392.266 118.453L389.68 121.18H394.57V123Z" fill="#3740FF"/>
<path d="M403.917 118.297C403.917 119.87 403.592 121.073 402.941 121.906C402.29 122.74 401.336 123.156 400.081 123.156C398.842 123.156 397.894 122.747 397.237 121.93C396.581 121.112 396.245 119.94 396.23 118.414V116.32C396.23 114.732 396.558 113.526 397.214 112.703C397.876 111.88 398.826 111.469 400.066 111.469C401.305 111.469 402.253 111.878 402.909 112.695C403.566 113.508 403.902 114.677 403.917 116.203V118.297ZM401.659 116C401.659 115.057 401.529 114.372 401.269 113.945C401.014 113.513 400.612 113.297 400.066 113.297C399.534 113.297 399.141 113.503 398.886 113.914C398.636 114.32 398.503 114.958 398.487 115.828V118.594C398.487 119.521 398.612 120.211 398.862 120.664C399.118 121.112 399.524 121.336 400.081 121.336C400.633 121.336 401.032 121.12 401.277 120.688C401.521 120.255 401.649 119.594 401.659 118.703V116Z" fill="#3740FF"/>
<path d="M411.233 123H408.975V114.297L406.28 115.133V113.297L410.991 111.609H411.233V123Z" fill="#3740FF"/>
<path d="M423.033 123H415.236V121.453L418.916 117.531C419.421 116.979 419.793 116.497 420.033 116.086C420.278 115.674 420.4 115.284 420.4 114.914C420.4 114.409 420.272 114.013 420.017 113.727C419.762 113.435 419.397 113.289 418.923 113.289C418.413 113.289 418.009 113.466 417.712 113.82C417.421 114.169 417.275 114.63 417.275 115.203H415.009C415.009 114.51 415.173 113.878 415.502 113.305C415.835 112.732 416.304 112.284 416.908 111.961C417.512 111.633 418.197 111.469 418.962 111.469C420.134 111.469 421.043 111.75 421.689 112.312C422.34 112.875 422.666 113.669 422.666 114.695C422.666 115.258 422.52 115.831 422.228 116.414C421.936 116.997 421.436 117.677 420.728 118.453L418.142 121.18H423.033V123Z" fill="#3740FF"/>
<path d="M585.57 123H577.773V121.453L581.453 117.531C581.958 116.979 582.331 116.497 582.57 116.086C582.815 115.674 582.938 115.284 582.938 114.914C582.938 114.409 582.81 114.013 582.555 113.727C582.299 113.435 581.935 113.289 581.461 113.289C580.951 113.289 580.547 113.466 580.25 113.82C579.958 114.169 579.812 114.63 579.812 115.203H577.547C577.547 114.51 577.711 113.878 578.039 113.305C578.372 112.732 578.841 112.284 579.445 111.961C580.049 111.633 580.734 111.469 581.5 111.469C582.672 111.469 583.581 111.75 584.227 112.312C584.878 112.875 585.203 113.669 585.203 114.695C585.203 115.258 585.057 115.831 584.766 116.414C584.474 116.997 583.974 117.677 583.266 118.453L580.68 121.18H585.57V123Z" fill="#3740FF"/>
<path d="M594.917 118.297C594.917 119.87 594.592 121.073 593.941 121.906C593.29 122.74 592.336 123.156 591.081 123.156C589.842 123.156 588.894 122.747 588.237 121.93C587.581 121.112 587.245 119.94 587.23 118.414V116.32C587.23 114.732 587.558 113.526 588.214 112.703C588.875 111.88 589.826 111.469 591.066 111.469C592.305 111.469 593.253 111.878 593.909 112.695C594.566 113.508 594.902 114.677 594.917 116.203V118.297ZM592.659 116C592.659 115.057 592.529 114.372 592.269 113.945C592.014 113.513 591.612 113.297 591.066 113.297C590.534 113.297 590.141 113.503 589.886 113.914C589.636 114.32 589.503 114.958 589.487 115.828V118.594C589.487 119.521 589.612 120.211 589.862 120.664C590.118 121.112 590.524 121.336 591.081 121.336C591.633 121.336 592.032 121.12 592.277 120.688C592.521 120.255 592.649 119.594 592.659 118.703V116Z" fill="#3740FF"/>
<path d="M602.233 123H599.975V114.297L597.28 115.133V113.297L601.991 111.609H602.233V123Z" fill="#3740FF"/>
<path d="M611.517 118.453C610.929 119.031 610.241 119.32 609.455 119.32C608.45 119.32 607.645 118.977 607.041 118.289C606.436 117.596 606.134 116.664 606.134 115.492C606.134 114.747 606.296 114.065 606.619 113.445C606.947 112.82 607.403 112.336 607.986 111.992C608.569 111.643 609.226 111.469 609.955 111.469C610.705 111.469 611.371 111.656 611.955 112.031C612.538 112.406 612.991 112.945 613.314 113.648C613.637 114.352 613.801 115.156 613.806 116.062V116.898C613.806 118.794 613.335 120.284 612.392 121.367C611.45 122.451 610.114 123.029 608.384 123.102L607.83 123.109V121.227L608.33 121.219C610.293 121.13 611.356 120.208 611.517 118.453ZM610.009 117.594C610.374 117.594 610.686 117.5 610.947 117.312C611.213 117.125 611.413 116.898 611.548 116.633V115.703C611.548 114.938 611.403 114.344 611.111 113.922C610.819 113.5 610.429 113.289 609.939 113.289C609.486 113.289 609.114 113.497 608.822 113.914C608.53 114.326 608.384 114.844 608.384 115.469C608.384 116.089 608.525 116.599 608.806 117C609.093 117.396 609.494 117.594 610.009 117.594Z" fill="#3740FF"/>
<path d="M510.57 123H502.773V121.453L506.453 117.531C506.958 116.979 507.331 116.497 507.57 116.086C507.815 115.674 507.938 115.284 507.938 114.914C507.938 114.409 507.81 114.013 507.555 113.727C507.299 113.435 506.935 113.289 506.461 113.289C505.951 113.289 505.547 113.466 505.25 113.82C504.958 114.169 504.812 114.63 504.812 115.203H502.547C502.547 114.51 502.711 113.878 503.039 113.305C503.372 112.732 503.841 112.284 504.445 111.961C505.049 111.633 505.734 111.469 506.5 111.469C507.672 111.469 508.581 111.75 509.227 112.312C509.878 112.875 510.203 113.669 510.203 114.695C510.203 115.258 510.057 115.831 509.766 116.414C509.474 116.997 508.974 117.677 508.266 118.453L505.68 121.18H510.57V123Z" fill="#3740FF"/>
<path d="M519.917 118.297C519.917 119.87 519.592 121.073 518.941 121.906C518.29 122.74 517.336 123.156 516.081 123.156C514.842 123.156 513.894 122.747 513.237 121.93C512.581 121.112 512.245 119.94 512.23 118.414V116.32C512.23 114.732 512.558 113.526 513.214 112.703C513.876 111.88 514.826 111.469 516.066 111.469C517.305 111.469 518.253 111.878 518.909 112.695C519.566 113.508 519.902 114.677 519.917 116.203V118.297ZM517.659 116C517.659 115.057 517.529 114.372 517.269 113.945C517.014 113.513 516.612 113.297 516.066 113.297C515.534 113.297 515.141 113.503 514.886 113.914C514.636 114.32 514.503 114.958 514.487 115.828V118.594C514.487 119.521 514.612 120.211 514.862 120.664C515.118 121.112 515.524 121.336 516.081 121.336C516.633 121.336 517.032 121.12 517.277 120.688C517.521 120.255 517.649 119.594 517.659 118.703V116Z" fill="#3740FF"/>
<path d="M527.233 123H524.975V114.297L522.28 115.133V113.297L526.991 111.609H527.233V123Z" fill="#3740FF"/>
<path d="M538.97 112.891L534.572 123H532.189L536.595 113.453H530.939V111.625H538.97V112.891Z" fill="#3740FF"/>
<path d="M659.92 123H652.123V121.453L655.803 117.531C656.308 116.979 656.681 116.497 656.92 116.086C657.165 115.674 657.287 115.284 657.287 114.914C657.287 114.409 657.16 114.013 656.905 113.727C656.649 113.435 656.285 113.289 655.811 113.289C655.3 113.289 654.897 113.466 654.6 113.82C654.308 114.169 654.162 114.63 654.162 115.203H651.897C651.897 114.51 652.061 113.878 652.389 113.305C652.722 112.732 653.191 112.284 653.795 111.961C654.399 111.633 655.084 111.469 655.85 111.469C657.022 111.469 657.931 111.75 658.577 112.312C659.228 112.875 659.553 113.669 659.553 114.695C659.553 115.258 659.407 115.831 659.116 116.414C658.824 116.997 658.324 117.677 657.616 118.453L655.03 121.18H659.92V123Z" fill="#3740FF"/>
<path d="M669.267 118.297C669.267 119.87 668.942 121.073 668.291 121.906C667.64 122.74 666.686 123.156 665.431 123.156C664.192 123.156 663.244 122.747 662.588 121.93C661.931 121.112 661.595 119.94 661.58 118.414V116.32C661.58 114.732 661.908 113.526 662.564 112.703C663.226 111.88 664.176 111.469 665.416 111.469C666.655 111.469 667.603 111.878 668.259 112.695C668.916 113.508 669.252 114.677 669.267 116.203V118.297ZM667.009 116C667.009 115.057 666.879 114.372 666.619 113.945C666.364 113.513 665.963 113.297 665.416 113.297C664.884 113.297 664.491 113.503 664.236 113.914C663.986 114.32 663.853 114.958 663.838 115.828V118.594C663.838 119.521 663.963 120.211 664.213 120.664C664.468 121.112 664.874 121.336 665.431 121.336C665.983 121.336 666.382 121.12 666.627 120.688C666.871 120.255 666.999 119.594 667.009 118.703V116Z" fill="#3740FF"/>
<path d="M678.895 123H671.098V121.453L674.778 117.531C675.283 116.979 675.656 116.497 675.895 116.086C676.14 115.674 676.263 115.284 676.263 114.914C676.263 114.409 676.135 114.013 675.88 113.727C675.625 113.435 675.26 113.289 674.786 113.289C674.276 113.289 673.872 113.466 673.575 113.82C673.283 114.169 673.138 114.63 673.138 115.203H670.872C670.872 114.51 671.036 113.878 671.364 113.305C671.697 112.732 672.166 112.284 672.77 111.961C673.375 111.633 674.059 111.469 674.825 111.469C675.997 111.469 676.906 111.75 677.552 112.312C678.203 112.875 678.528 113.669 678.528 114.695C678.528 115.258 678.382 115.831 678.091 116.414C677.799 116.997 677.299 117.677 676.591 118.453L674.005 121.18H678.895V123Z" fill="#3740FF"/>
<path d="M686.07 123H683.812V114.297L681.117 115.133V113.297L685.828 111.609H686.07V123Z" fill="#3740FF"/>
<line x1="70" y1="144" x2="688" y2="144" stroke="#C4C4C4" stroke-width="2" stroke-linecap="round"/>
<circle cx="87.5" cy="143.5" r="5" fill="#DBFCFF" stroke="#00C9DB"/>
<circle cx="189.5" cy="144.5" r="5" fill="#DBFCFF" stroke="#00C9DB"/>
<circle cx="312.5" cy="144.5" r="5" fill="#DBFCFF" stroke="#00C9DB"/>
<circle cx="403.5" cy="144.5" r="5" fill="#DBFCFF" stroke="#00C9DB"/>
<circle cx="520.5" cy="144.5" r="5" fill="#DBFCFF" stroke="#00C9DB"/>
<circle cx="670.5" cy="144.5" r="5" fill="#DBFCFF" stroke="#00C9DB"/>
<circle cx="596.5" cy="144.5" r="5" fill="#DBFCFF" stroke="#00C9DB"/>
<path d="M75.7622 166.454C75.6834 167.288 75.3755 167.94 74.8384 168.409C74.3013 168.875 73.5869 169.107 72.6953 169.107C72.0723 169.107 71.5226 168.961 71.0464 168.667C70.5737 168.37 70.2085 167.949 69.9507 167.405C69.6929 166.861 69.5586 166.229 69.5479 165.509V164.778C69.5479 164.041 69.6785 163.391 69.9399 162.829C70.2013 162.266 70.5755 161.833 71.0625 161.529C71.5531 161.224 72.1188 161.072 72.7598 161.072C73.6227 161.072 74.3174 161.307 74.8438 161.776C75.3701 162.245 75.6763 162.907 75.7622 163.763H74.4087C74.3442 163.201 74.1795 162.796 73.9146 162.549C73.6532 162.299 73.2682 162.173 72.7598 162.173C72.1689 162.173 71.7142 162.39 71.3955 162.823C71.0804 163.253 70.9193 163.885 70.9121 164.719V165.412C70.9121 166.257 71.0625 166.902 71.3633 167.346C71.6676 167.79 72.1117 168.012 72.6953 168.012C73.2288 168.012 73.6299 167.892 73.8984 167.652C74.167 167.412 74.3371 167.013 74.4087 166.454H75.7622ZM81.3688 166.986C81.3688 166.642 81.2471 166.377 81.0036 166.191C80.7637 166.005 80.3286 165.817 79.6984 165.627C79.0682 165.437 78.5669 165.226 78.1945 164.993C77.482 164.546 77.1257 163.962 77.1257 163.242C77.1257 162.612 77.3817 162.093 77.8938 161.685C78.4094 161.276 79.0772 161.072 79.8972 161.072C80.4414 161.072 80.9266 161.173 81.3527 161.373C81.7788 161.574 82.1136 161.86 82.3571 162.232C82.6006 162.601 82.7224 163.011 82.7224 163.462H81.3688C81.3688 163.054 81.2399 162.736 80.9821 162.506C80.7279 162.274 80.3627 162.157 79.8864 162.157C79.4424 162.157 79.0969 162.252 78.8498 162.442C78.6063 162.632 78.4846 162.897 78.4846 163.237C78.4846 163.523 78.6171 163.763 78.882 163.957C79.147 164.146 79.5839 164.333 80.1926 164.515C80.8013 164.694 81.2901 164.9 81.6589 165.133C82.0277 165.362 82.298 165.627 82.4699 165.928C82.6418 166.225 82.7277 166.574 82.7277 166.975C82.7277 167.627 82.4771 168.146 81.9758 168.533C81.4781 168.916 80.8013 169.107 79.9455 169.107C79.3798 169.107 78.8588 169.004 78.3825 168.796C77.9099 168.585 77.541 168.295 77.2761 167.926C77.0147 167.557 76.884 167.127 76.884 166.637H78.2429C78.2429 167.081 78.3897 167.424 78.6833 167.668C78.9769 167.911 79.3977 168.033 79.9455 168.033C80.4182 168.033 80.7727 167.938 81.009 167.749C81.2489 167.555 81.3688 167.301 81.3688 166.986ZM88.3075 166.986C88.3075 166.642 88.1858 166.377 87.9423 166.191C87.7024 166.005 87.2673 165.817 86.6371 165.627C86.0069 165.437 85.5056 165.226 85.1332 164.993C84.4206 164.546 84.0644 163.962 84.0644 163.242C84.0644 162.612 84.3204 162.093 84.8324 161.685C85.348 161.276 86.0159 161.072 86.8358 161.072C87.3801 161.072 87.8653 161.173 88.2914 161.373C88.7175 161.574 89.0523 161.86 89.2958 162.232C89.5393 162.601 89.661 163.011 89.661 163.462H88.3075C88.3075 163.054 88.1786 162.736 87.9208 162.506C87.6666 162.274 87.3013 162.157 86.8251 162.157C86.3811 162.157 86.0355 162.252 85.7885 162.442C85.545 162.632 85.4232 162.897 85.4232 163.237C85.4232 163.523 85.5557 163.763 85.8207 163.957C86.0857 164.146 86.5225 164.333 87.1313 164.515C87.74 164.694 88.2287 164.9 88.5976 165.133C88.9664 165.362 89.2367 165.627 89.4086 165.928C89.5805 166.225 89.6664 166.574 89.6664 166.975C89.6664 167.627 89.4158 168.146 88.9145 168.533C88.4167 168.916 87.74 169.107 86.8842 169.107C86.3184 169.107 85.7974 169.004 85.3212 168.796C84.8485 168.585 84.4797 168.295 84.2147 167.926C83.9534 167.557 83.8227 167.127 83.8227 166.637H85.1815C85.1815 167.081 85.3284 167.424 85.622 167.668C85.9156 167.911 86.3363 168.033 86.8842 168.033C87.3568 168.033 87.7113 167.938 87.9477 167.749C88.1876 167.555 88.3075 167.301 88.3075 166.986ZM97.5228 169H96.2229V162.721L94.3055 163.376V162.275L97.3563 161.153H97.5228V169Z" fill="black"/>
<path d="M75.7622 166.454C75.6834 167.288 75.3755 167.94 74.8384 168.409C74.3013 168.875 73.5869 169.107 72.6953 169.107C72.0723 169.107 71.5226 168.961 71.0464 168.667C70.5737 168.37 70.2085 167.949 69.9507 167.405C69.6929 166.861 69.5586 166.229 69.5479 165.509V164.778C69.5479 164.041 69.6785 163.391 69.9399 162.829C70.2013 162.266 70.5755 161.833 71.0625 161.529C71.5531 161.224 72.1188 161.072 72.7598 161.072C73.6227 161.072 74.3174 161.307 74.8438 161.776C75.3701 162.245 75.6763 162.907 75.7622 163.763H74.4087C74.3442 163.201 74.1795 162.796 73.9146 162.549C73.6532 162.299 73.2682 162.173 72.7598 162.173C72.1689 162.173 71.7142 162.39 71.3955 162.823C71.0804 163.253 70.9193 163.885 70.9121 164.719V165.412C70.9121 166.257 71.0625 166.902 71.3633 167.346C71.6676 167.79 72.1117 168.012 72.6953 168.012C73.2288 168.012 73.6299 167.892 73.8984 167.652C74.167 167.412 74.3371 167.013 74.4087 166.454H75.7622Z" fill="black"/>
<path d="M81.3688 166.986C81.3688 166.642 81.2471 166.377 81.0036 166.191C80.7637 166.005 80.3286 165.817 79.6984 165.627C79.0682 165.437 78.5669 165.226 78.1945 164.993C77.482 164.546 77.1257 163.962 77.1257 163.242C77.1257 162.612 77.3817 162.093 77.8938 161.685C78.4094 161.276 79.0772 161.072 79.8972 161.072C80.4414 161.072 80.9266 161.173 81.3527 161.373C81.7788 161.574 82.1136 161.86 82.3571 162.232C82.6006 162.601 82.7224 163.011 82.7224 163.462H81.3688C81.3688 163.054 81.2399 162.736 80.9821 162.506C80.7279 162.274 80.3627 162.157 79.8864 162.157C79.4424 162.157 79.0969 162.252 78.8498 162.442C78.6063 162.632 78.4846 162.897 78.4846 163.237C78.4846 163.523 78.6171 163.763 78.882 163.957C79.147 164.146 79.5839 164.333 80.1926 164.515C80.8013 164.694 81.2901 164.9 81.6589 165.133C82.0277 165.362 82.298 165.627 82.4699 165.928C82.6418 166.225 82.7277 166.574 82.7277 166.975C82.7277 167.627 82.4771 168.146 81.9758 168.533C81.4781 168.916 80.8013 169.107 79.9455 169.107C79.3798 169.107 78.8588 169.004 78.3825 168.796C77.9099 168.585 77.541 168.295 77.2761 167.926C77.0147 167.557 76.884 167.127 76.884 166.637H78.2429C78.2429 167.081 78.3897 167.424 78.6833 167.668C78.9769 167.911 79.3977 168.033 79.9455 168.033C80.4182 168.033 80.7727 167.938 81.009 167.749C81.2489 167.555 81.3688 167.301 81.3688 166.986Z" fill="black"/>
<path d="M88.3075 166.986C88.3075 166.642 88.1858 166.377 87.9423 166.191C87.7024 166.005 87.2673 165.817 86.6371 165.627C86.0069 165.437 85.5056 165.226 85.1332 164.993C84.4206 164.546 84.0644 163.962 84.0644 163.242C84.0644 162.612 84.3204 162.093 84.8324 161.685C85.348 161.276 86.0159 161.072 86.8358 161.072C87.3801 161.072 87.8653 161.173 88.2914 161.373C88.7175 161.574 89.0523 161.86 89.2958 162.232C89.5393 162.601 89.661 163.011 89.661 163.462H88.3075C88.3075 163.054 88.1786 162.736 87.9208 162.506C87.6666 162.274 87.3013 162.157 86.8251 162.157C86.3811 162.157 86.0355 162.252 85.7885 162.442C85.545 162.632 85.4232 162.897 85.4232 163.237C85.4232 163.523 85.5557 163.763 85.8207 163.957C86.0857 164.146 86.5225 164.333 87.1313 164.515C87.74 164.694 88.2287 164.9 88.5976 165.133C88.9664 165.362 89.2367 165.627 89.4086 165.928C89.5805 166.225 89.6664 166.574 89.6664 166.975C89.6664 167.627 89.4158 168.146 88.9145 168.533C88.4167 168.916 87.74 169.107 86.8842 169.107C86.3184 169.107 85.7974 169.004 85.3212 168.796C84.8485 168.585 84.4797 168.295 84.2147 167.926C83.9534 167.557 83.8227 167.127 83.8227 166.637H85.1815C85.1815 167.081 85.3284 167.424 85.622 167.668C85.9156 167.911 86.3363 168.033 86.8842 168.033C87.3568 168.033 87.7113 167.938 87.9477 167.749C88.1876 167.555 88.3075 167.301 88.3075 166.986Z" fill="black"/>
<path d="M97.5228 169H96.2229V162.721L94.3055 163.376V162.275L97.3563 161.153H97.5228V169Z" fill="black"/>
<path d="M74.3013 191.686H71.1538V195H69.7949V187.18H74.7632V188.275H71.1538V190.601H74.3013V191.686Z" fill="black"/>
<path d="M77.405 195H76.0998V186.75H77.405V195Z" fill="black"/>
<path d="M78.8866 192.041C78.8866 191.471 78.9994 190.959 79.225 190.504C79.4506 190.046 79.7675 189.695 80.1757 189.452C80.5839 189.205 81.053 189.081 81.5829 189.081C82.3671 189.081 83.0027 189.333 83.4896 189.838C83.9802 190.343 84.2452 191.013 84.2846 191.847L84.2899 192.153C84.2899 192.726 84.1789 193.238 83.9569 193.689C83.7385 194.141 83.4234 194.49 83.0116 194.737C82.6034 194.984 82.1308 195.107 81.5937 195.107C80.7737 195.107 80.1166 194.835 79.6225 194.291C79.1319 193.743 78.8866 193.014 78.8866 192.105V192.041ZM80.1918 192.153C80.1918 192.751 80.3153 193.22 80.5624 193.561C80.8095 193.897 81.1532 194.065 81.5937 194.065C82.0341 194.065 82.376 193.894 82.6195 193.55C82.8666 193.206 82.9901 192.703 82.9901 192.041C82.9901 191.453 82.863 190.988 82.6088 190.644C82.3581 190.3 82.0162 190.128 81.5829 190.128C81.1568 190.128 80.8184 190.299 80.5678 190.639C80.3171 190.975 80.1918 191.48 80.1918 192.153Z" fill="black"/>
<path d="M89.1661 195C89.1088 194.889 89.0587 194.708 89.0157 194.458C88.6004 194.891 88.0919 195.107 87.4903 195.107C86.9067 195.107 86.4304 194.941 86.0616 194.608C85.6928 194.275 85.5084 193.863 85.5084 193.373C85.5084 192.753 85.7376 192.279 86.1959 191.949C86.6578 191.616 87.3167 191.45 88.1725 191.45H88.9728V191.068C88.9728 190.768 88.8886 190.528 88.7203 190.349C88.552 190.166 88.296 190.075 87.9522 190.075C87.655 190.075 87.4116 190.15 87.2218 190.3C87.032 190.447 86.9371 190.635 86.9371 190.864H85.6319C85.6319 190.546 85.7376 190.248 85.9488 189.973C86.1601 189.693 86.4465 189.475 86.8082 189.317C87.1734 189.16 87.5798 189.081 88.0274 189.081C88.7078 189.081 89.2503 189.253 89.6549 189.597C90.0595 189.937 90.2672 190.417 90.2779 191.036V193.657C90.2779 194.18 90.3513 194.597 90.4981 194.909V195H89.1661ZM87.732 194.06C87.9898 194.06 88.2315 193.997 88.4571 193.872C88.6863 193.747 88.8582 193.578 88.9728 193.367V192.271H88.2691C87.7857 192.271 87.4223 192.356 87.1788 192.524C86.9353 192.692 86.8136 192.93 86.8136 193.238C86.8136 193.489 86.8959 193.689 87.0606 193.84C87.2289 193.987 87.4527 194.06 87.732 194.06Z" fill="black"/>
<path d="M93.5804 187.776V189.188H94.6063V190.155H93.5804V193.399C93.5804 193.621 93.6233 193.783 93.7093 193.883C93.7988 193.979 93.9563 194.028 94.1819 194.028C94.3323 194.028 94.4845 194.01 94.6385 193.974V194.984C94.3413 195.066 94.0548 195.107 93.7791 195.107C92.7765 195.107 92.2752 194.554 92.2752 193.448V190.155H91.3191V189.188H92.2752V187.776H93.5804Z" fill="black"/>
<path d="M99.1655 193.421C99.1655 193.188 99.0688 193.011 98.8755 192.889C98.6857 192.767 98.3688 192.66 97.9248 192.567C97.4808 192.474 97.1102 192.356 96.813 192.212C96.1613 191.897 95.8354 191.441 95.8354 190.843C95.8354 190.341 96.0467 189.923 96.4692 189.586C96.8918 189.249 97.4289 189.081 98.0806 189.081C98.7752 189.081 99.3356 189.253 99.7617 189.597C100.191 189.94 100.406 190.386 100.406 190.934H99.1011C99.1011 190.683 99.008 190.476 98.8218 190.311C98.6356 190.143 98.3885 190.059 98.0806 190.059C97.7941 190.059 97.5596 190.125 97.377 190.257C97.1979 190.39 97.1084 190.567 97.1084 190.789C97.1084 190.99 97.1925 191.145 97.3608 191.256C97.5291 191.367 97.8693 191.48 98.3813 191.595C98.8934 191.706 99.2944 191.84 99.5845 191.998C99.8781 192.152 100.095 192.338 100.234 192.556C100.378 192.775 100.449 193.04 100.449 193.351C100.449 193.874 100.233 194.298 99.7993 194.624C99.366 194.946 98.7985 195.107 98.0967 195.107C97.6204 195.107 97.1961 195.021 96.8237 194.85C96.4513 194.678 96.1613 194.441 95.9536 194.141C95.7459 193.84 95.6421 193.516 95.6421 193.168H96.9097C96.9276 193.476 97.0439 193.715 97.2588 193.883C97.4736 194.048 97.7583 194.13 98.1128 194.13C98.4565 194.13 98.7179 194.065 98.897 193.937C99.076 193.804 99.1655 193.632 99.1655 193.421Z" fill="black"/>
<path d="M177.762 166.454C177.683 167.288 177.375 167.94 176.838 168.409C176.301 168.875 175.587 169.107 174.695 169.107C174.072 169.107 173.523 168.961 173.046 168.667C172.574 168.37 172.208 167.949 171.951 167.405C171.693 166.861 171.559 166.229 171.548 165.509V164.778C171.548 164.041 171.679 163.391 171.94 162.829C172.201 162.266 172.576 161.833 173.062 161.529C173.553 161.224 174.119 161.072 174.76 161.072C175.623 161.072 176.317 161.307 176.844 161.776C177.37 162.245 177.676 162.907 177.762 163.763H176.409C176.344 163.201 176.18 162.796 175.915 162.549C175.653 162.299 175.268 162.173 174.76 162.173C174.169 162.173 173.714 162.39 173.396 162.823C173.08 163.253 172.919 163.885 172.912 164.719V165.412C172.912 166.257 173.062 166.902 173.363 167.346C173.668 167.79 174.112 168.012 174.695 168.012C175.229 168.012 175.63 167.892 175.898 167.652C176.167 167.412 176.337 167.013 176.409 166.454H177.762ZM183.369 166.986C183.369 166.642 183.247 166.377 183.004 166.191C182.764 166.005 182.329 165.817 181.698 165.627C181.068 165.437 180.567 165.226 180.195 164.993C179.482 164.546 179.126 163.962 179.126 163.242C179.126 162.612 179.382 162.093 179.894 161.685C180.409 161.276 181.077 161.072 181.897 161.072C182.441 161.072 182.927 161.173 183.353 161.373C183.779 161.574 184.114 161.86 184.357 162.232C184.601 162.601 184.722 163.011 184.722 163.462H183.369C183.369 163.054 183.24 162.736 182.982 162.506C182.728 162.274 182.363 162.157 181.886 162.157C181.442 162.157 181.097 162.252 180.85 162.442C180.606 162.632 180.485 162.897 180.485 163.237C180.485 163.523 180.617 163.763 180.882 163.957C181.147 164.146 181.584 164.333 182.193 164.515C182.801 164.694 183.29 164.9 183.659 165.133C184.028 165.362 184.298 165.627 184.47 165.928C184.642 166.225 184.728 166.574 184.728 166.975C184.728 167.627 184.477 168.146 183.976 168.533C183.478 168.916 182.801 169.107 181.946 169.107C181.38 169.107 180.859 169.004 180.383 168.796C179.91 168.585 179.541 168.295 179.276 167.926C179.015 167.557 178.884 167.127 178.884 166.637H180.243C180.243 167.081 180.39 167.424 180.683 167.668C180.977 167.911 181.398 168.033 181.946 168.033C182.418 168.033 182.773 167.938 183.009 167.749C183.249 167.555 183.369 167.301 183.369 166.986ZM190.308 166.986C190.308 166.642 190.186 166.377 189.942 166.191C189.702 166.005 189.267 165.817 188.637 165.627C188.007 165.437 187.506 165.226 187.133 164.993C186.421 164.546 186.064 163.962 186.064 163.242C186.064 162.612 186.32 162.093 186.832 161.685C187.348 161.276 188.016 161.072 188.836 161.072C189.38 161.072 189.865 161.173 190.291 161.373C190.718 161.574 191.052 161.86 191.296 162.232C191.539 162.601 191.661 163.011 191.661 163.462H190.308C190.308 163.054 190.179 162.736 189.921 162.506C189.667 162.274 189.301 162.157 188.825 162.157C188.381 162.157 188.036 162.252 187.788 162.442C187.545 162.632 187.423 162.897 187.423 163.237C187.423 163.523 187.556 163.763 187.821 163.957C188.086 164.146 188.523 164.333 189.131 164.515C189.74 164.694 190.229 164.9 190.598 165.133C190.966 165.362 191.237 165.627 191.409 165.928C191.58 166.225 191.666 166.574 191.666 166.975C191.666 167.627 191.416 168.146 190.914 168.533C190.417 168.916 189.74 169.107 188.884 169.107C188.318 169.107 187.797 169.004 187.321 168.796C186.849 168.585 186.48 168.295 186.215 167.926C185.953 167.557 185.823 167.127 185.823 166.637H187.182C187.182 167.081 187.328 167.424 187.622 167.668C187.916 167.911 188.336 168.033 188.884 168.033C189.357 168.033 189.711 167.938 189.948 167.749C190.188 167.555 190.308 167.301 190.308 166.986ZM201.247 169H195.989V168.103L198.594 165.262C198.97 164.843 199.236 164.494 199.394 164.214C199.555 163.931 199.636 163.649 199.636 163.366C199.636 162.993 199.53 162.693 199.319 162.463C199.111 162.234 198.83 162.12 198.475 162.12C198.053 162.12 197.725 162.249 197.492 162.506C197.26 162.764 197.143 163.117 197.143 163.564H195.838C195.838 163.088 195.946 162.66 196.16 162.281C196.379 161.898 196.689 161.6 197.09 161.389C197.494 161.178 197.96 161.072 198.486 161.072C199.245 161.072 199.843 161.264 200.28 161.647C200.721 162.027 200.941 162.553 200.941 163.226C200.941 163.616 200.83 164.026 200.608 164.456C200.389 164.882 200.029 165.367 199.528 165.912L197.616 167.958H201.247V169Z" fill="black"/>
<path d="M300.762 166.454C300.683 167.288 300.375 167.94 299.838 168.409C299.301 168.875 298.587 169.107 297.695 169.107C297.072 169.107 296.523 168.961 296.046 168.667C295.574 168.37 295.208 167.949 294.951 167.405C294.693 166.861 294.559 166.229 294.548 165.509V164.778C294.548 164.041 294.679 163.391 294.94 162.829C295.201 162.266 295.576 161.833 296.062 161.529C296.553 161.224 297.119 161.072 297.76 161.072C298.623 161.072 299.317 161.307 299.844 161.776C300.37 162.245 300.676 162.907 300.762 163.763H299.409C299.344 163.201 299.18 162.796 298.915 162.549C298.653 162.299 298.268 162.173 297.76 162.173C297.169 162.173 296.714 162.39 296.396 162.823C296.08 163.253 295.919 163.885 295.912 164.719V165.412C295.912 166.257 296.062 166.902 296.363 167.346C296.668 167.79 297.112 168.012 297.695 168.012C298.229 168.012 298.63 167.892 298.898 167.652C299.167 167.412 299.337 167.013 299.409 166.454H300.762ZM306.369 166.986C306.369 166.642 306.247 166.377 306.004 166.191C305.764 166.005 305.329 165.817 304.698 165.627C304.068 165.437 303.567 165.226 303.195 164.993C302.482 164.546 302.126 163.962 302.126 163.242C302.126 162.612 302.382 162.093 302.894 161.685C303.409 161.276 304.077 161.072 304.897 161.072C305.441 161.072 305.927 161.173 306.353 161.373C306.779 161.574 307.114 161.86 307.357 162.232C307.601 162.601 307.722 163.011 307.722 163.462H306.369C306.369 163.054 306.24 162.736 305.982 162.506C305.728 162.274 305.363 162.157 304.886 162.157C304.442 162.157 304.097 162.252 303.85 162.442C303.606 162.632 303.485 162.897 303.485 163.237C303.485 163.523 303.617 163.763 303.882 163.957C304.147 164.146 304.584 164.333 305.193 164.515C305.801 164.694 306.29 164.9 306.659 165.133C307.028 165.362 307.298 165.627 307.47 165.928C307.642 166.225 307.728 166.574 307.728 166.975C307.728 167.627 307.477 168.146 306.976 168.533C306.478 168.916 305.801 169.107 304.946 169.107C304.38 169.107 303.859 169.004 303.383 168.796C302.91 168.585 302.541 168.295 302.276 167.926C302.015 167.557 301.884 167.127 301.884 166.637H303.243C303.243 167.081 303.39 167.424 303.683 167.668C303.977 167.911 304.398 168.033 304.946 168.033C305.418 168.033 305.773 167.938 306.009 167.749C306.249 167.555 306.369 167.301 306.369 166.986ZM313.308 166.986C313.308 166.642 313.186 166.377 312.942 166.191C312.702 166.005 312.267 165.817 311.637 165.627C311.007 165.437 310.506 165.226 310.133 164.993C309.421 164.546 309.064 163.962 309.064 163.242C309.064 162.612 309.32 162.093 309.832 161.685C310.348 161.276 311.016 161.072 311.836 161.072C312.38 161.072 312.865 161.173 313.291 161.373C313.718 161.574 314.052 161.86 314.296 162.232C314.539 162.601 314.661 163.011 314.661 163.462H313.308C313.308 163.054 313.179 162.736 312.921 162.506C312.667 162.274 312.301 162.157 311.825 162.157C311.381 162.157 311.036 162.252 310.788 162.442C310.545 162.632 310.423 162.897 310.423 163.237C310.423 163.523 310.556 163.763 310.821 163.957C311.086 164.146 311.523 164.333 312.131 164.515C312.74 164.694 313.229 164.9 313.598 165.133C313.966 165.362 314.237 165.627 314.409 165.928C314.58 166.225 314.666 166.574 314.666 166.975C314.666 167.627 314.416 168.146 313.914 168.533C313.417 168.916 312.74 169.107 311.884 169.107C311.318 169.107 310.797 169.004 310.321 168.796C309.849 168.585 309.48 168.295 309.215 167.926C308.953 167.557 308.823 167.127 308.823 166.637H310.182C310.182 167.081 310.328 167.424 310.622 167.668C310.916 167.911 311.336 168.033 311.884 168.033C312.357 168.033 312.711 167.938 312.948 167.749C313.188 167.555 313.308 167.301 313.308 166.986ZM320.498 164.494H321.293C321.694 164.49 322.011 164.386 322.243 164.182C322.48 163.978 322.598 163.683 322.598 163.296C322.598 162.924 322.499 162.635 322.303 162.431C322.109 162.223 321.812 162.12 321.411 162.12C321.06 162.12 320.772 162.222 320.546 162.426C320.321 162.626 320.208 162.889 320.208 163.215H318.903C318.903 162.814 319.008 162.449 319.22 162.12C319.434 161.79 319.732 161.534 320.111 161.352C320.494 161.165 320.922 161.072 321.395 161.072C322.175 161.072 322.788 161.269 323.232 161.663C323.679 162.053 323.903 162.598 323.903 163.296C323.903 163.647 323.79 163.978 323.565 164.29C323.343 164.597 323.054 164.83 322.7 164.988C323.13 165.135 323.456 165.366 323.678 165.681C323.903 165.996 324.016 166.372 324.016 166.809C324.016 167.51 323.774 168.069 323.291 168.484C322.811 168.9 322.179 169.107 321.395 169.107C320.643 169.107 320.027 168.907 319.547 168.506C319.067 168.105 318.827 167.571 318.827 166.905H320.133C320.133 167.249 320.247 167.528 320.476 167.743C320.709 167.958 321.021 168.065 321.411 168.065C321.816 168.065 322.134 167.958 322.367 167.743C322.6 167.528 322.716 167.217 322.716 166.809C322.716 166.397 322.594 166.08 322.351 165.858C322.107 165.636 321.746 165.525 321.266 165.525H320.498V164.494ZM297.668 191.987H296.154V195H294.795V187.18H297.545C298.447 187.18 299.144 187.382 299.634 187.787C300.125 188.191 300.37 188.777 300.37 189.543C300.37 190.066 300.243 190.504 299.989 190.859C299.738 191.21 299.387 191.48 298.936 191.67L300.692 194.93V195H299.237L297.668 191.987ZM296.154 190.896H297.55C298.009 190.896 298.367 190.782 298.625 190.553C298.882 190.32 299.011 190.003 299.011 189.602C299.011 189.183 298.891 188.859 298.651 188.63C298.415 188.401 298.061 188.283 297.588 188.275H296.154V190.896ZM304.392 195.107C303.565 195.107 302.894 194.848 302.378 194.329C301.866 193.806 301.61 193.111 301.61 192.245V192.083C301.61 191.503 301.721 190.986 301.943 190.531C302.169 190.073 302.484 189.717 302.888 189.462C303.293 189.208 303.744 189.081 304.242 189.081C305.033 189.081 305.644 189.333 306.073 189.838C306.507 190.343 306.723 191.058 306.723 191.981V192.508H302.926C302.965 192.988 303.125 193.367 303.404 193.646C303.687 193.926 304.041 194.065 304.467 194.065C305.065 194.065 305.552 193.824 305.928 193.34L306.632 194.012C306.399 194.359 306.088 194.629 305.697 194.823C305.311 195.013 304.876 195.107 304.392 195.107ZM304.237 190.128C303.878 190.128 303.588 190.254 303.366 190.504C303.148 190.755 303.008 191.104 302.947 191.552H305.434V191.455C305.406 191.018 305.289 190.689 305.085 190.467C304.881 190.241 304.598 190.128 304.237 190.128ZM311.299 193.421C311.299 193.188 311.202 193.011 311.009 192.889C310.819 192.767 310.502 192.66 310.058 192.567C309.614 192.474 309.243 192.356 308.946 192.212C308.294 191.897 307.969 191.441 307.969 190.843C307.969 190.341 308.18 189.923 308.602 189.586C309.025 189.249 309.562 189.081 310.214 189.081C310.908 189.081 311.469 189.253 311.895 189.597C312.325 189.94 312.539 190.386 312.539 190.934H311.234C311.234 190.683 311.141 190.476 310.955 190.311C310.769 190.143 310.522 190.059 310.214 190.059C309.927 190.059 309.693 190.125 309.51 190.257C309.331 190.39 309.242 190.567 309.242 190.789C309.242 190.99 309.326 191.145 309.494 191.256C309.662 191.367 310.003 191.48 310.515 191.595C311.027 191.706 311.428 191.84 311.718 191.998C312.011 192.152 312.228 192.338 312.368 192.556C312.511 192.775 312.582 193.04 312.582 193.351C312.582 193.874 312.366 194.298 311.933 194.624C311.499 194.946 310.932 195.107 310.23 195.107C309.754 195.107 309.329 195.021 308.957 194.85C308.585 194.678 308.294 194.441 308.087 194.141C307.879 193.84 307.775 193.516 307.775 193.168H309.043C309.061 193.476 309.177 193.715 309.392 193.883C309.607 194.048 309.892 194.13 310.246 194.13C310.59 194.13 310.851 194.065 311.03 193.937C311.209 193.804 311.299 193.632 311.299 193.421ZM319.113 192.153C319.113 193.052 318.909 193.77 318.501 194.307C318.092 194.841 317.545 195.107 316.857 195.107C316.22 195.107 315.709 194.898 315.326 194.479V197.234H314.021V189.188H315.224L315.278 189.779C315.661 189.314 316.182 189.081 316.841 189.081C317.55 189.081 318.105 189.346 318.506 189.876C318.911 190.402 319.113 191.135 319.113 192.073V192.153ZM317.813 192.041C317.813 191.46 317.697 191 317.464 190.66C317.235 190.32 316.905 190.15 316.476 190.15C315.942 190.15 315.559 190.37 315.326 190.811V193.389C315.563 193.84 315.949 194.065 316.486 194.065C316.902 194.065 317.226 193.899 317.459 193.566C317.695 193.229 317.813 192.721 317.813 192.041ZM320.278 192.041C320.278 191.471 320.39 190.959 320.616 190.504C320.842 190.046 321.158 189.695 321.567 189.452C321.975 189.205 322.444 189.081 322.974 189.081C323.758 189.081 324.394 189.333 324.881 189.838C325.371 190.343 325.636 191.013 325.676 191.847L325.681 192.153C325.681 192.726 325.57 193.238 325.348 193.689C325.13 194.141 324.814 194.49 324.403 194.737C323.994 194.984 323.522 195.107 322.985 195.107C322.165 195.107 321.508 194.835 321.013 194.291C320.523 193.743 320.278 193.014 320.278 192.105V192.041ZM321.583 192.153C321.583 192.751 321.706 193.22 321.953 193.561C322.2 193.897 322.544 194.065 322.985 194.065C323.425 194.065 323.767 193.894 324.011 193.55C324.258 193.206 324.381 192.703 324.381 192.041C324.381 191.453 324.254 190.988 324 190.644C323.749 190.3 323.407 190.128 322.974 190.128C322.548 190.128 322.209 190.299 321.959 190.639C321.708 190.975 321.583 191.48 321.583 192.153ZM328.296 189.188L328.333 189.86C328.763 189.341 329.327 189.081 330.025 189.081C331.236 189.081 331.852 189.774 331.873 191.16V195H330.568V191.235C330.568 190.866 330.487 190.594 330.326 190.418C330.169 190.239 329.909 190.15 329.547 190.15C329.021 190.15 328.629 190.388 328.371 190.864V195H327.066V189.188H328.296ZM336.765 193.421C336.765 193.188 336.669 193.011 336.475 192.889C336.286 192.767 335.969 192.66 335.525 192.567C335.081 192.474 334.71 192.356 334.413 192.212C333.761 191.897 333.435 191.441 333.435 190.843C333.435 190.341 333.647 189.923 334.069 189.586C334.492 189.249 335.029 189.081 335.68 189.081C336.375 189.081 336.935 189.253 337.362 189.597C337.791 189.94 338.006 190.386 338.006 190.934H336.701C336.701 190.683 336.608 190.476 336.422 190.311C336.235 190.143 335.988 190.059 335.68 190.059C335.394 190.059 335.159 190.125 334.977 190.257C334.798 190.39 334.708 190.567 334.708 190.789C334.708 190.99 334.792 191.145 334.961 191.256C335.129 191.367 335.469 191.48 335.981 191.595C336.493 191.706 336.894 191.84 337.184 191.998C337.478 192.152 337.695 192.338 337.834 192.556C337.977 192.775 338.049 193.04 338.049 193.351C338.049 193.874 337.832 194.298 337.399 194.624C336.966 194.946 336.398 195.107 335.696 195.107C335.22 195.107 334.796 195.021 334.424 194.85C334.051 194.678 333.761 194.441 333.553 194.141C333.346 193.84 333.242 193.516 333.242 193.168H334.509C334.527 193.476 334.644 193.715 334.859 193.883C335.073 194.048 335.358 194.13 335.713 194.13C336.056 194.13 336.318 194.065 336.497 193.937C336.676 193.804 336.765 193.632 336.765 193.421ZM340.879 195H339.574V189.188H340.879V195ZM339.493 187.679C339.493 187.479 339.556 187.312 339.681 187.18C339.81 187.047 339.993 186.981 340.229 186.981C340.465 186.981 340.648 187.047 340.777 187.18C340.906 187.312 340.97 187.479 340.97 187.679C340.97 187.876 340.906 188.041 340.777 188.173C340.648 188.302 340.465 188.367 340.229 188.367C339.993 188.367 339.81 188.302 339.681 188.173C339.556 188.041 339.493 187.876 339.493 187.679ZM344.654 193.346L345.884 189.188H347.232L345.218 195H344.085L342.054 189.188H343.408L344.654 193.346ZM350.835 195.107C350.008 195.107 349.337 194.848 348.821 194.329C348.309 193.806 348.053 193.111 348.053 192.245V192.083C348.053 191.503 348.164 190.986 348.386 190.531C348.612 190.073 348.927 189.717 349.331 189.462C349.736 189.208 350.187 189.081 350.685 189.081C351.476 189.081 352.087 189.333 352.516 189.838C352.95 190.343 353.166 191.058 353.166 191.981V192.508H349.369C349.408 192.988 349.568 193.367 349.847 193.646C350.13 193.926 350.484 194.065 350.91 194.065C351.508 194.065 351.995 193.824 352.371 193.34L353.075 194.012C352.842 194.359 352.531 194.629 352.14 194.823C351.754 195.013 351.319 195.107 350.835 195.107ZM350.679 190.128C350.321 190.128 350.031 190.254 349.809 190.504C349.591 190.755 349.451 191.104 349.39 191.552H351.877V191.455C351.849 191.018 351.732 190.689 351.528 190.467C351.324 190.241 351.041 190.128 350.679 190.128ZM300.929 206.066L302.132 200.18H303.48L301.675 208H300.375L298.888 202.291L297.368 208H296.062L294.258 200.18H295.606L296.82 206.056L298.313 200.18H299.452L300.929 206.066ZM307.035 208.107C306.208 208.107 305.536 207.848 305.021 207.329C304.509 206.806 304.253 206.111 304.253 205.245V205.083C304.253 204.503 304.364 203.986 304.586 203.531C304.811 203.073 305.126 202.717 305.531 202.462C305.936 202.208 306.387 202.081 306.884 202.081C307.676 202.081 308.286 202.333 308.716 202.838C309.149 203.343 309.366 204.058 309.366 204.981V205.508H305.569C305.608 205.988 305.767 206.367 306.047 206.646C306.329 206.926 306.684 207.065 307.11 207.065C307.708 207.065 308.195 206.824 308.571 206.34L309.275 207.012C309.042 207.359 308.73 207.629 308.34 207.823C307.953 208.013 307.518 208.107 307.035 208.107ZM306.879 203.128C306.521 203.128 306.231 203.254 306.009 203.504C305.791 203.755 305.651 204.104 305.59 204.552H308.077V204.455C308.048 204.018 307.932 203.689 307.728 203.467C307.524 203.241 307.241 203.128 306.879 203.128ZM315.784 205.153C315.784 206.056 315.581 206.774 315.177 207.307C314.776 207.841 314.222 208.107 313.517 208.107C312.837 208.107 312.307 207.862 311.927 207.372L311.863 208H310.681V199.75H311.986V202.747C312.362 202.303 312.869 202.081 313.506 202.081C314.215 202.081 314.772 202.344 315.177 202.871C315.581 203.397 315.784 204.133 315.784 205.078V205.153ZM314.478 205.041C314.478 204.41 314.367 203.938 314.145 203.623C313.923 203.307 313.601 203.15 313.179 203.15C312.613 203.15 312.215 203.397 311.986 203.891V206.287C312.219 206.792 312.62 207.044 313.189 207.044C313.598 207.044 313.913 206.892 314.135 206.587C314.357 206.283 314.471 205.823 314.478 205.207V205.041ZM320.347 208V200.18H322.657C323.348 200.18 323.96 200.334 324.494 200.642C325.031 200.95 325.446 201.386 325.74 201.952C326.034 202.518 326.18 203.166 326.18 203.896V204.289C326.18 205.03 326.032 205.681 325.735 206.244C325.441 206.806 325.02 207.239 324.472 207.543C323.928 207.848 323.303 208 322.598 208H320.347ZM321.706 201.275V206.915H322.593C323.305 206.915 323.851 206.693 324.231 206.249C324.614 205.801 324.809 205.16 324.816 204.326V203.891C324.816 203.042 324.632 202.394 324.263 201.947C323.894 201.499 323.359 201.275 322.657 201.275H321.706ZM330.267 208.107C329.44 208.107 328.769 207.848 328.253 207.329C327.741 206.806 327.485 206.111 327.485 205.245V205.083C327.485 204.503 327.596 203.986 327.818 203.531C328.043 203.073 328.359 202.717 328.763 202.462C329.168 202.208 329.619 202.081 330.117 202.081C330.908 202.081 331.519 202.333 331.948 202.838C332.382 203.343 332.598 204.058 332.598 204.981V205.508H328.801C328.84 205.988 329 206.367 329.279 206.646C329.562 206.926 329.916 207.065 330.342 207.065C330.94 207.065 331.427 206.824 331.803 206.34L332.507 207.012C332.274 207.359 331.963 207.629 331.572 207.823C331.186 208.013 330.75 208.107 330.267 208.107ZM330.111 203.128C329.753 203.128 329.463 203.254 329.241 203.504C329.023 203.755 328.883 204.104 328.822 204.552H331.309V204.455C331.28 204.018 331.164 203.689 330.96 203.467C330.756 203.241 330.473 203.128 330.111 203.128ZM337.174 206.421C337.174 206.188 337.077 206.011 336.883 205.889C336.694 205.767 336.377 205.66 335.933 205.567C335.489 205.474 335.118 205.356 334.821 205.212C334.169 204.897 333.843 204.441 333.843 203.843C333.843 203.341 334.055 202.923 334.477 202.586C334.9 202.249 335.437 202.081 336.089 202.081C336.783 202.081 337.344 202.253 337.77 202.597C338.199 202.94 338.414 203.386 338.414 203.934H337.109C337.109 203.683 337.016 203.476 336.83 203.311C336.644 203.143 336.397 203.059 336.089 203.059C335.802 203.059 335.568 203.125 335.385 203.257C335.206 203.39 335.116 203.567 335.116 203.789C335.116 203.99 335.201 204.145 335.369 204.256C335.537 204.367 335.877 204.48 336.389 204.595C336.901 204.706 337.302 204.84 337.592 204.998C337.886 205.152 338.103 205.338 338.242 205.556C338.386 205.775 338.457 206.04 338.457 206.351C338.457 206.874 338.241 207.298 337.807 207.624C337.374 207.946 336.807 208.107 336.105 208.107C335.628 208.107 335.204 208.021 334.832 207.85C334.459 207.678 334.169 207.441 333.962 207.141C333.754 206.84 333.65 206.516 333.65 206.168H334.918C334.936 206.476 335.052 206.715 335.267 206.883C335.482 207.048 335.766 207.13 336.121 207.13C336.465 207.13 336.726 207.065 336.905 206.937C337.084 206.804 337.174 206.632 337.174 206.421ZM341.287 208H339.982V202.188H341.287V208ZM339.901 200.679C339.901 200.479 339.964 200.312 340.089 200.18C340.218 200.047 340.401 199.981 340.637 199.981C340.873 199.981 341.056 200.047 341.185 200.18C341.314 200.312 341.378 200.479 341.378 200.679C341.378 200.876 341.314 201.041 341.185 201.173C341.056 201.302 340.873 201.367 340.637 201.367C340.401 201.367 340.218 201.302 340.089 201.173C339.964 201.041 339.901 200.876 339.901 200.679ZM342.785 205.051C342.785 204.149 342.996 203.429 343.419 202.892C343.845 202.351 344.409 202.081 345.11 202.081C345.773 202.081 346.294 202.312 346.673 202.774L346.733 202.188H347.909V207.823C347.909 208.585 347.671 209.187 347.194 209.627C346.722 210.068 346.083 210.288 345.277 210.288C344.851 210.288 344.434 210.199 344.025 210.02C343.621 209.844 343.313 209.613 343.102 209.327L343.719 208.542C344.12 209.019 344.615 209.257 345.202 209.257C345.635 209.257 345.977 209.139 346.228 208.902C346.478 208.67 346.604 208.326 346.604 207.871V207.479C346.228 207.898 345.726 208.107 345.1 208.107C344.419 208.107 343.863 207.837 343.429 207.296C343 206.756 342.785 206.007 342.785 205.051ZM344.085 205.164C344.085 205.748 344.203 206.208 344.439 206.544C344.679 206.877 345.01 207.044 345.433 207.044C345.959 207.044 346.349 206.818 346.604 206.367V203.811C346.357 203.37 345.97 203.15 345.443 203.15C345.014 203.15 344.679 203.32 344.439 203.66C344.203 204 344.085 204.502 344.085 205.164ZM350.765 202.188L350.803 202.86C351.233 202.341 351.797 202.081 352.495 202.081C353.705 202.081 354.321 202.774 354.343 204.16V208H353.037V204.235C353.037 203.866 352.957 203.594 352.796 203.418C352.638 203.239 352.379 203.15 352.017 203.15C351.491 203.15 351.098 203.388 350.841 203.864V208H349.535V202.188H350.765Z" fill="black"/>
<path d="M508.789 167.985C508.506 168.354 508.114 168.633 507.613 168.823C507.111 169.013 506.542 169.107 505.905 169.107C505.25 169.107 504.669 168.959 504.165 168.662C503.66 168.364 503.269 167.94 502.994 167.389C502.722 166.834 502.58 166.187 502.569 165.45V164.837C502.569 163.656 502.852 162.734 503.418 162.071C503.984 161.405 504.773 161.072 505.787 161.072C506.657 161.072 507.348 161.287 507.86 161.717C508.372 162.146 508.68 162.766 508.784 163.575H507.452C507.301 162.633 506.755 162.163 505.813 162.163C505.205 162.163 504.741 162.383 504.422 162.823C504.107 163.26 503.944 163.903 503.934 164.751V165.353C503.934 166.198 504.111 166.855 504.465 167.324C504.823 167.79 505.319 168.022 505.953 168.022C506.648 168.022 507.142 167.865 507.436 167.55V166.019H505.824V164.988H508.789V167.985ZM513.499 164.381C513.327 164.352 513.15 164.338 512.967 164.338C512.369 164.338 511.966 164.567 511.758 165.025V169H510.453V163.188H511.699L511.732 163.838C512.047 163.333 512.484 163.081 513.042 163.081C513.228 163.081 513.382 163.106 513.504 163.156L513.499 164.381ZM516.012 169H514.706V163.188H516.012V169ZM514.626 161.679C514.626 161.479 514.689 161.312 514.814 161.18C514.943 161.047 515.125 160.981 515.362 160.981C515.598 160.981 515.781 161.047 515.91 161.18C516.038 161.312 516.103 161.479 516.103 161.679C516.103 161.876 516.038 162.041 515.91 162.173C515.781 162.302 515.598 162.367 515.362 162.367C515.125 162.367 514.943 162.302 514.814 162.173C514.689 162.041 514.626 161.876 514.626 161.679ZM517.493 166.051C517.493 165.156 517.701 164.438 518.116 163.897C518.532 163.353 519.088 163.081 519.787 163.081C520.403 163.081 520.9 163.296 521.28 163.726V160.75H522.585V169H521.403L521.339 168.398C520.949 168.871 520.428 169.107 519.776 169.107C519.096 169.107 518.544 168.833 518.122 168.286C517.703 167.738 517.493 166.993 517.493 166.051ZM518.798 166.164C518.798 166.755 518.911 167.217 519.137 167.55C519.366 167.879 519.69 168.044 520.109 168.044C520.643 168.044 521.033 167.806 521.28 167.33V164.848C521.04 164.383 520.653 164.15 520.12 164.15C519.697 164.15 519.371 164.318 519.142 164.655C518.913 164.988 518.798 165.491 518.798 166.164Z" fill="black"/>
<path d="M579.229 169H577.875V161.18H579.229V169ZM582.284 163.188L582.322 163.86C582.752 163.341 583.316 163.081 584.014 163.081C585.224 163.081 585.84 163.774 585.862 165.16V169H584.556V165.235C584.556 164.866 584.476 164.594 584.315 164.418C584.157 164.239 583.897 164.15 583.536 164.15C583.009 164.15 582.617 164.388 582.36 164.864V169H581.054V163.188H582.284ZM589.132 161.776V163.188H590.158V164.155H589.132V167.399C589.132 167.621 589.175 167.783 589.261 167.883C589.35 167.979 589.508 168.028 589.733 168.028C589.884 168.028 590.036 168.01 590.19 167.974V168.984C589.893 169.066 589.606 169.107 589.33 169.107C588.328 169.107 587.827 168.554 587.827 167.448V164.155H586.871V163.188H587.827V161.776H589.132ZM594.502 164.381C594.33 164.352 594.153 164.338 593.97 164.338C593.372 164.338 592.969 164.567 592.762 165.025V169H591.457V163.188H592.703L592.735 163.838C593.05 163.333 593.487 163.081 594.046 163.081C594.232 163.081 594.386 163.106 594.507 163.156L594.502 164.381ZM597.015 169H595.71V163.188H597.015V169ZM595.629 161.679C595.629 161.479 595.692 161.312 595.817 161.18C595.946 161.047 596.129 160.981 596.365 160.981C596.601 160.981 596.784 161.047 596.913 161.18C597.042 161.312 597.106 161.479 597.106 161.679C597.106 161.876 597.042 162.041 596.913 162.173C596.784 162.302 596.601 162.367 596.365 162.367C596.129 162.367 595.946 162.302 595.817 162.173C595.692 162.041 595.629 161.876 595.629 161.679ZM599.952 163.188L599.99 163.86C600.419 163.341 600.983 163.081 601.682 163.081C602.892 163.081 603.508 163.774 603.529 165.16V169H602.224V165.235C602.224 164.866 602.144 164.594 601.982 164.418C601.825 164.239 601.565 164.15 601.204 164.15C600.677 164.15 600.285 164.388 600.027 164.864V169H598.722V163.188H599.952ZM608.422 167.421C608.422 167.188 608.325 167.011 608.132 166.889C607.942 166.767 607.625 166.66 607.181 166.567C606.737 166.474 606.366 166.356 606.069 166.212C605.417 165.897 605.092 165.441 605.092 164.843C605.092 164.341 605.303 163.923 605.725 163.586C606.148 163.249 606.685 163.081 607.337 163.081C608.031 163.081 608.592 163.253 609.018 163.597C609.447 163.94 609.662 164.386 609.662 164.934H608.357C608.357 164.683 608.264 164.476 608.078 164.311C607.892 164.143 607.645 164.059 607.337 164.059C607.05 164.059 606.816 164.125 606.633 164.257C606.454 164.39 606.364 164.567 606.364 164.789C606.364 164.99 606.449 165.145 606.617 165.256C606.785 165.367 607.125 165.48 607.637 165.595C608.149 165.706 608.55 165.84 608.841 165.998C609.134 166.152 609.351 166.338 609.49 166.556C609.634 166.775 609.705 167.04 609.705 167.351C609.705 167.874 609.489 168.298 609.055 168.624C608.622 168.946 608.055 169.107 607.353 169.107C606.876 169.107 606.452 169.021 606.08 168.85C605.707 168.678 605.417 168.441 605.21 168.141C605.002 167.84 604.898 167.516 604.898 167.168H606.166C606.184 167.476 606.3 167.715 606.515 167.883C606.73 168.048 607.014 168.13 607.369 168.13C607.713 168.13 607.974 168.065 608.153 167.937C608.332 167.804 608.422 167.632 608.422 167.421ZM612.535 169H611.23V163.188H612.535V169ZM611.149 161.679C611.149 161.479 611.212 161.312 611.337 161.18C611.466 161.047 611.649 160.981 611.885 160.981C612.121 160.981 612.304 161.047 612.433 161.18C612.562 161.312 612.626 161.479 612.626 161.679C612.626 161.876 612.562 162.041 612.433 162.173C612.304 162.302 612.121 162.367 611.885 162.367C611.649 162.367 611.466 162.302 611.337 162.173C611.212 162.041 611.149 161.876 611.149 161.679ZM616.649 168.065C616.974 168.065 617.245 167.971 617.46 167.781C617.674 167.591 617.789 167.356 617.803 167.077H619.033C619.019 167.439 618.906 167.777 618.695 168.092C618.484 168.404 618.197 168.651 617.836 168.833C617.474 169.016 617.084 169.107 616.665 169.107C615.852 169.107 615.207 168.844 614.731 168.318C614.255 167.792 614.017 167.065 614.017 166.137V166.003C614.017 165.118 614.253 164.411 614.726 163.881C615.198 163.348 615.843 163.081 616.659 163.081C617.35 163.081 617.913 163.283 618.346 163.688C618.783 164.089 619.012 164.617 619.033 165.272H617.803C617.789 164.939 617.674 164.666 617.46 164.451C617.248 164.236 616.978 164.128 616.649 164.128C616.226 164.128 615.9 164.282 615.671 164.59C615.442 164.895 615.325 165.358 615.322 165.981V166.191C615.322 166.821 615.435 167.292 615.66 167.604C615.889 167.911 616.219 168.065 616.649 168.065ZM583.929 180.066L585.132 174.18H586.48L584.675 182H583.375L581.888 176.291L580.368 182H579.062L577.258 174.18H578.606L579.82 180.056L581.313 174.18H582.452L583.929 180.066ZM590.035 182.107C589.208 182.107 588.536 181.848 588.021 181.329C587.509 180.806 587.253 180.111 587.253 179.245V179.083C587.253 178.503 587.364 177.986 587.586 177.531C587.811 177.073 588.126 176.717 588.531 176.462C588.936 176.208 589.387 176.081 589.884 176.081C590.676 176.081 591.286 176.333 591.716 176.838C592.149 177.343 592.366 178.058 592.366 178.981V179.508H588.569C588.608 179.988 588.767 180.367 589.047 180.646C589.329 180.926 589.684 181.065 590.11 181.065C590.708 181.065 591.195 180.824 591.571 180.34L592.275 181.012C592.042 181.359 591.73 181.629 591.34 181.823C590.953 182.013 590.518 182.107 590.035 182.107ZM589.879 177.128C589.521 177.128 589.231 177.254 589.009 177.504C588.791 177.755 588.651 178.104 588.59 178.552H591.077V178.455C591.048 178.018 590.932 177.689 590.728 177.467C590.524 177.241 590.241 177.128 589.879 177.128ZM598.784 179.153C598.784 180.056 598.581 180.774 598.177 181.307C597.776 181.841 597.222 182.107 596.517 182.107C595.837 182.107 595.307 181.862 594.927 181.372L594.863 182H593.681V173.75H594.986V176.747C595.362 176.303 595.869 176.081 596.506 176.081C597.215 176.081 597.772 176.344 598.177 176.871C598.581 177.397 598.784 178.133 598.784 179.078V179.153ZM597.478 179.041C597.478 178.41 597.367 177.938 597.145 177.623C596.923 177.307 596.601 177.15 596.179 177.15C595.613 177.15 595.215 177.397 594.986 177.891V180.287C595.219 180.792 595.62 181.044 596.189 181.044C596.598 181.044 596.913 180.892 597.135 180.587C597.357 180.283 597.471 179.823 597.478 179.207V179.041ZM603.347 182V174.18H605.657C606.348 174.18 606.96 174.334 607.494 174.642C608.031 174.95 608.446 175.386 608.74 175.952C609.034 176.518 609.18 177.166 609.18 177.896V178.289C609.18 179.03 609.032 179.681 608.735 180.244C608.441 180.806 608.02 181.239 607.472 181.543C606.928 181.848 606.303 182 605.598 182H603.347ZM604.706 175.275V180.915H605.593C606.305 180.915 606.851 180.693 607.231 180.249C607.614 179.801 607.809 179.16 607.816 178.326V177.891C607.816 177.042 607.632 176.394 607.263 175.947C606.894 175.499 606.359 175.275 605.657 175.275H604.706ZM613.267 182.107C612.44 182.107 611.769 181.848 611.253 181.329C610.741 180.806 610.485 180.111 610.485 179.245V179.083C610.485 178.503 610.596 177.986 610.818 177.531C611.043 177.073 611.359 176.717 611.763 176.462C612.168 176.208 612.619 176.081 613.117 176.081C613.908 176.081 614.519 176.333 614.948 176.838C615.382 177.343 615.598 178.058 615.598 178.981V179.508H611.801C611.84 179.988 612 180.367 612.279 180.646C612.562 180.926 612.916 181.065 613.342 181.065C613.94 181.065 614.427 180.824 614.803 180.34L615.507 181.012C615.274 181.359 614.963 181.629 614.572 181.823C614.186 182.013 613.75 182.107 613.267 182.107ZM613.111 177.128C612.753 177.128 612.463 177.254 612.241 177.504C612.023 177.755 611.883 178.104 611.822 178.552H614.309V178.455C614.28 178.018 614.164 177.689 613.96 177.467C613.756 177.241 613.473 177.128 613.111 177.128ZM620.174 180.421C620.174 180.188 620.077 180.011 619.883 179.889C619.694 179.767 619.377 179.66 618.933 179.567C618.489 179.474 618.118 179.356 617.821 179.212C617.169 178.897 616.843 178.441 616.843 177.843C616.843 177.341 617.055 176.923 617.477 176.586C617.9 176.249 618.437 176.081 619.089 176.081C619.783 176.081 620.344 176.253 620.77 176.597C621.199 176.94 621.414 177.386 621.414 177.934H620.109C620.109 177.683 620.016 177.476 619.83 177.311C619.644 177.143 619.397 177.059 619.089 177.059C618.802 177.059 618.568 177.125 618.385 177.257C618.206 177.39 618.116 177.567 618.116 177.789C618.116 177.99 618.201 178.145 618.369 178.256C618.537 178.367 618.877 178.48 619.389 178.595C619.901 178.706 620.302 178.84 620.592 178.998C620.886 179.152 621.103 179.338 621.242 179.556C621.386 179.775 621.457 180.04 621.457 180.351C621.457 180.874 621.241 181.298 620.807 181.624C620.374 181.946 619.807 182.107 619.105 182.107C618.628 182.107 618.204 182.021 617.832 181.85C617.459 181.678 617.169 181.441 616.962 181.141C616.754 180.84 616.65 180.516 616.65 180.168H617.918C617.936 180.476 618.052 180.715 618.267 180.883C618.482 181.048 618.766 181.13 619.121 181.13C619.465 181.13 619.726 181.065 619.905 180.937C620.084 180.804 620.174 180.632 620.174 180.421ZM624.287 182H622.982V176.188H624.287V182ZM622.901 174.679C622.901 174.479 622.964 174.312 623.089 174.18C623.218 174.047 623.401 173.981 623.637 173.981C623.873 173.981 624.056 174.047 624.185 174.18C624.314 174.312 624.378 174.479 624.378 174.679C624.378 174.876 624.314 175.041 624.185 175.173C624.056 175.302 623.873 175.367 623.637 175.367C623.401 175.367 623.218 175.302 623.089 175.173C622.964 175.041 622.901 174.876 622.901 174.679ZM625.785 179.051C625.785 178.149 625.996 177.429 626.419 176.892C626.845 176.351 627.409 176.081 628.11 176.081C628.773 176.081 629.294 176.312 629.673 176.774L629.733 176.188H630.909V181.823C630.909 182.585 630.671 183.187 630.194 183.627C629.722 184.068 629.083 184.288 628.277 184.288C627.851 184.288 627.434 184.199 627.025 184.02C626.621 183.844 626.313 183.613 626.102 183.327L626.719 182.542C627.12 183.019 627.615 183.257 628.202 183.257C628.635 183.257 628.977 183.139 629.228 182.902C629.478 182.67 629.604 182.326 629.604 181.871V181.479C629.228 181.898 628.726 182.107 628.1 182.107C627.419 182.107 626.863 181.837 626.429 181.296C626 180.756 625.785 180.007 625.785 179.051ZM627.085 179.164C627.085 179.748 627.203 180.208 627.439 180.544C627.679 180.877 628.01 181.044 628.433 181.044C628.959 181.044 629.349 180.818 629.604 180.367V177.811C629.357 177.37 628.97 177.15 628.443 177.15C628.014 177.15 627.679 177.32 627.439 177.66C627.203 178 627.085 178.502 627.085 179.164ZM633.765 176.188L633.803 176.86C634.233 176.341 634.797 176.081 635.495 176.081C636.705 176.081 637.321 176.774 637.343 178.16V182H636.037V178.235C636.037 177.866 635.957 177.594 635.796 177.418C635.638 177.239 635.379 177.15 635.017 177.15C634.491 177.15 634.098 177.388 633.841 177.864V182H632.535V176.188H633.765Z" fill="black"/>
<path d="M656.762 166.454C656.683 167.288 656.375 167.94 655.838 168.409C655.301 168.875 654.587 169.107 653.695 169.107C653.072 169.107 652.523 168.961 652.046 168.667C651.574 168.37 651.208 167.949 650.951 167.405C650.693 166.861 650.559 166.229 650.548 165.509V164.778C650.548 164.041 650.679 163.391 650.94 162.829C651.201 162.266 651.576 161.833 652.062 161.529C652.553 161.224 653.119 161.072 653.76 161.072C654.623 161.072 655.317 161.307 655.844 161.776C656.37 162.245 656.676 162.907 656.762 163.763H655.409C655.344 163.201 655.18 162.796 654.915 162.549C654.653 162.299 654.268 162.173 653.76 162.173C653.169 162.173 652.714 162.39 652.396 162.823C652.08 163.253 651.919 163.885 651.912 164.719V165.412C651.912 166.257 652.062 166.902 652.363 167.346C652.668 167.79 653.112 168.012 653.695 168.012C654.229 168.012 654.63 167.892 654.898 167.652C655.167 167.412 655.337 167.013 655.409 166.454H656.762ZM657.911 166.041C657.911 165.471 658.024 164.959 658.249 164.504C658.475 164.046 658.792 163.695 659.2 163.452C659.608 163.205 660.077 163.081 660.607 163.081C661.391 163.081 662.027 163.333 662.514 163.838C663.004 164.343 663.269 165.013 663.309 165.847L663.314 166.153C663.314 166.726 663.203 167.238 662.981 167.689C662.763 168.141 662.448 168.49 662.036 168.737C661.628 168.984 661.155 169.107 660.618 169.107C659.798 169.107 659.141 168.835 658.647 168.291C658.156 167.743 657.911 167.014 657.911 166.105V166.041ZM659.216 166.153C659.216 166.751 659.34 167.22 659.587 167.561C659.834 167.897 660.177 168.065 660.618 168.065C661.058 168.065 661.4 167.894 661.644 167.55C661.891 167.206 662.014 166.703 662.014 166.041C662.014 165.453 661.887 164.988 661.633 164.644C661.382 164.3 661.04 164.128 660.607 164.128C660.181 164.128 659.843 164.299 659.592 164.639C659.341 164.975 659.216 165.48 659.216 166.153ZM665.929 163.188L665.967 163.86C666.396 163.341 666.96 163.081 667.659 163.081C668.869 163.081 669.485 163.774 669.506 165.16V169H668.201V165.235C668.201 164.866 668.121 164.594 667.959 164.418C667.802 164.239 667.542 164.15 667.181 164.15C666.654 164.15 666.262 164.388 666.004 164.864V169H664.699V163.188H665.929ZM672.776 161.776V163.188H673.802V164.155H672.776V167.399C672.776 167.621 672.819 167.783 672.905 167.883C672.995 167.979 673.152 168.028 673.378 168.028C673.528 168.028 673.681 168.01 673.835 167.974V168.984C673.537 169.066 673.251 169.107 672.975 169.107C671.973 169.107 671.471 168.554 671.471 167.448V164.155H670.515V163.188H671.471V161.776H672.776ZM678.576 169C678.519 168.889 678.469 168.708 678.426 168.458C678.011 168.891 677.502 169.107 676.901 169.107C676.317 169.107 675.841 168.941 675.472 168.608C675.103 168.275 674.919 167.863 674.919 167.373C674.919 166.753 675.148 166.279 675.606 165.949C676.068 165.616 676.727 165.45 677.583 165.45H678.383V165.068C678.383 164.768 678.299 164.528 678.131 164.349C677.962 164.166 677.706 164.075 677.363 164.075C677.065 164.075 676.822 164.15 676.632 164.3C676.442 164.447 676.347 164.635 676.347 164.864H675.042C675.042 164.546 675.148 164.248 675.359 163.973C675.57 163.693 675.857 163.475 676.219 163.317C676.584 163.16 676.99 163.081 677.438 163.081C678.118 163.081 678.661 163.253 679.065 163.597C679.47 163.937 679.678 164.417 679.688 165.036V167.657C679.688 168.18 679.762 168.597 679.908 168.909V169H678.576ZM677.142 168.06C677.4 168.06 677.642 167.997 677.867 167.872C678.097 167.747 678.269 167.578 678.383 167.367V166.271H677.679C677.196 166.271 676.833 166.356 676.589 166.524C676.346 166.692 676.224 166.93 676.224 167.238C676.224 167.489 676.306 167.689 676.471 167.84C676.639 167.987 676.863 168.06 677.142 168.06ZM682.744 169H681.438V163.188H682.744V169ZM681.358 161.679C681.358 161.479 681.421 161.312 681.546 161.18C681.675 161.047 681.857 160.981 682.094 160.981C682.33 160.981 682.513 161.047 682.642 161.18C682.771 161.312 682.835 161.479 682.835 161.679C682.835 161.876 682.771 162.041 682.642 162.173C682.513 162.302 682.33 162.367 682.094 162.367C681.857 162.367 681.675 162.302 681.546 162.173C681.421 162.041 681.358 161.876 681.358 161.679ZM685.681 163.188L685.718 163.86C686.148 163.341 686.712 163.081 687.41 163.081C688.621 163.081 689.237 163.774 689.258 165.16V169H687.953V165.235C687.953 164.866 687.872 164.594 687.711 164.418C687.554 164.239 687.294 164.15 686.932 164.15C686.406 164.15 686.014 164.388 685.756 164.864V169H684.451V163.188H685.681ZM693.452 169.107C692.625 169.107 691.954 168.848 691.438 168.329C690.926 167.806 690.67 167.111 690.67 166.245V166.083C690.67 165.503 690.781 164.986 691.003 164.531C691.228 164.073 691.544 163.717 691.948 163.462C692.353 163.208 692.804 163.081 693.302 163.081C694.093 163.081 694.704 163.333 695.133 163.838C695.566 164.343 695.783 165.058 695.783 165.981V166.508H691.986C692.025 166.988 692.184 167.367 692.464 167.646C692.747 167.926 693.101 168.065 693.527 168.065C694.125 168.065 694.612 167.824 694.988 167.34L695.692 168.012C695.459 168.359 695.148 168.629 694.757 168.823C694.371 169.013 693.935 169.107 693.452 169.107ZM693.296 164.128C692.938 164.128 692.648 164.254 692.426 164.504C692.208 164.755 692.068 165.104 692.007 165.552H694.494V165.455C694.465 165.018 694.349 164.689 694.145 164.467C693.941 164.241 693.658 164.128 693.296 164.128ZM700.144 164.381C699.972 164.352 699.795 164.338 699.612 164.338C699.014 164.338 698.611 164.567 698.403 165.025V169H697.098V163.188H698.344L698.377 163.838C698.692 163.333 699.129 163.081 699.687 163.081C699.873 163.081 700.027 163.106 700.149 163.156L700.144 164.381ZM657.009 178.294C657.009 179.035 656.891 179.678 656.655 180.222C656.422 180.763 656.094 181.193 655.672 181.511L657.015 182.559L656.134 183.354L654.469 182.038C654.25 182.084 654.016 182.107 653.765 182.107C653.135 182.107 652.571 181.953 652.073 181.646C651.579 181.334 651.196 180.892 650.924 180.319C650.655 179.746 650.519 179.085 650.516 178.337V177.896C650.516 177.134 650.65 176.461 650.918 175.877C651.191 175.293 651.572 174.847 652.062 174.54C652.557 174.228 653.121 174.072 653.754 174.072C654.399 174.072 654.966 174.226 655.457 174.534C655.951 174.839 656.333 175.279 656.601 175.855C656.87 176.428 657.006 177.096 657.009 177.859V178.294ZM655.645 177.886C655.645 177.005 655.48 176.337 655.151 175.882C654.821 175.428 654.356 175.2 653.754 175.2C653.171 175.2 652.712 175.431 652.379 175.893C652.05 176.351 651.882 177 651.875 177.837V178.294C651.875 179.139 652.039 179.8 652.369 180.276C652.702 180.752 653.167 180.99 653.765 180.99C654.37 180.99 654.834 180.761 655.156 180.303C655.482 179.844 655.645 179.175 655.645 178.294V177.886ZM662.084 181.431C661.701 181.882 661.157 182.107 660.451 182.107C659.821 182.107 659.343 181.923 659.017 181.554C658.695 181.185 658.534 180.652 658.534 179.954V176.188H659.839V179.938C659.839 180.675 660.145 181.044 660.758 181.044C661.391 181.044 661.819 180.817 662.041 180.362V176.188H663.346V182H662.116L662.084 181.431ZM667.535 182.107C666.708 182.107 666.037 181.848 665.521 181.329C665.009 180.806 664.753 180.111 664.753 179.245V179.083C664.753 178.503 664.864 177.986 665.086 177.531C665.311 177.073 665.627 176.717 666.031 176.462C666.436 176.208 666.887 176.081 667.385 176.081C668.176 176.081 668.787 176.333 669.216 176.838C669.649 177.343 669.866 178.058 669.866 178.981V179.508H666.069C666.108 179.988 666.267 180.367 666.547 180.646C666.83 180.926 667.184 181.065 667.61 181.065C668.208 181.065 668.695 180.824 669.071 180.34L669.775 181.012C669.542 181.359 669.231 181.629 668.84 181.823C668.454 182.013 668.018 182.107 667.535 182.107ZM667.379 177.128C667.021 177.128 666.731 177.254 666.509 177.504C666.291 177.755 666.151 178.104 666.09 178.552H668.577V178.455C668.548 178.018 668.432 177.689 668.228 177.467C668.024 177.241 667.741 177.128 667.379 177.128ZM674.227 177.381C674.055 177.352 673.878 177.338 673.695 177.338C673.097 177.338 672.694 177.567 672.486 178.025V182H671.181V176.188H672.427L672.46 176.838C672.775 176.333 673.212 176.081 673.77 176.081C673.956 176.081 674.11 176.106 674.232 176.156L674.227 177.381ZM676.74 182H675.434V176.188H676.74V182ZM675.354 174.679C675.354 174.479 675.416 174.312 675.542 174.18C675.671 174.047 675.853 173.981 676.09 173.981C676.326 173.981 676.509 174.047 676.638 174.18C676.766 174.312 676.831 174.479 676.831 174.679C676.831 174.876 676.766 175.041 676.638 175.173C676.509 175.302 676.326 175.367 676.09 175.367C675.853 175.367 675.671 175.302 675.542 175.173C675.416 175.041 675.354 174.876 675.354 174.679ZM681.025 182.107C680.198 182.107 679.526 181.848 679.011 181.329C678.499 180.806 678.243 180.111 678.243 179.245V179.083C678.243 178.503 678.354 177.986 678.576 177.531C678.801 177.073 679.116 176.717 679.521 176.462C679.926 176.208 680.377 176.081 680.875 176.081C681.666 176.081 682.276 176.333 682.706 176.838C683.139 177.343 683.356 178.058 683.356 178.981V179.508H679.559C679.598 179.988 679.757 180.367 680.037 180.646C680.319 180.926 680.674 181.065 681.1 181.065C681.698 181.065 682.185 180.824 682.561 180.34L683.265 181.012C683.032 181.359 682.72 181.629 682.33 181.823C681.943 182.013 681.508 182.107 681.025 182.107ZM680.869 177.128C680.511 177.128 680.221 177.254 679.999 177.504C679.781 177.755 679.641 178.104 679.58 178.552H682.067V178.455C682.038 178.018 681.922 177.689 681.718 177.467C681.514 177.241 681.231 177.128 680.869 177.128ZM687.931 180.421C687.931 180.188 687.835 180.011 687.641 179.889C687.452 179.767 687.135 179.66 686.691 179.567C686.247 179.474 685.876 179.356 685.579 179.212C684.927 178.897 684.601 178.441 684.601 177.843C684.601 177.341 684.813 176.923 685.235 176.586C685.658 176.249 686.195 176.081 686.846 176.081C687.541 176.081 688.101 176.253 688.528 176.597C688.957 176.94 689.172 177.386 689.172 177.934H687.867C687.867 177.683 687.774 177.476 687.588 177.311C687.401 177.143 687.154 177.059 686.846 177.059C686.56 177.059 686.325 177.125 686.143 177.257C685.964 177.39 685.874 177.567 685.874 177.789C685.874 177.99 685.958 178.145 686.127 178.256C686.295 178.367 686.635 178.48 687.147 178.595C687.659 178.706 688.06 178.84 688.35 178.998C688.644 179.152 688.861 179.338 689 179.556C689.143 179.775 689.215 180.04 689.215 180.351C689.215 180.874 688.998 181.298 688.565 181.624C688.132 181.946 687.564 182.107 686.862 182.107C686.386 182.107 685.962 182.021 685.59 181.85C685.217 181.678 684.927 181.441 684.719 181.141C684.512 180.84 684.408 180.516 684.408 180.168H685.675C685.693 180.476 685.81 180.715 686.025 180.883C686.239 181.048 686.524 181.13 686.879 181.13C687.222 181.13 687.484 181.065 687.663 180.937C687.842 180.804 687.931 180.632 687.931 180.421Z" fill="black"/>
<path d="M386.557 161.18L388.812 167.174L391.063 161.18H392.819V169H391.466V166.422L391.6 162.974L389.291 169H388.318L386.014 162.979L386.148 166.422V169H384.795V161.18H386.557ZM397.164 169.107C396.337 169.107 395.665 168.848 395.15 168.329C394.638 167.806 394.382 167.111 394.382 166.245V166.083C394.382 165.503 394.493 164.986 394.715 164.531C394.94 164.073 395.255 163.717 395.66 163.462C396.064 163.208 396.516 163.081 397.013 163.081C397.805 163.081 398.415 163.333 398.845 163.838C399.278 164.343 399.495 165.058 399.495 165.981V166.508H395.697C395.737 166.988 395.896 167.367 396.175 167.646C396.458 167.926 396.813 168.065 397.239 168.065C397.837 168.065 398.324 167.824 398.7 167.34L399.404 168.012C399.171 168.359 398.859 168.629 398.469 168.823C398.082 169.013 397.647 169.107 397.164 169.107ZM397.008 164.128C396.65 164.128 396.36 164.254 396.138 164.504C395.919 164.755 395.78 165.104 395.719 165.552H398.206V165.455C398.177 165.018 398.061 164.689 397.857 164.467C397.653 164.241 397.37 164.128 397.008 164.128ZM400.568 166.051C400.568 165.156 400.776 164.438 401.191 163.897C401.607 163.353 402.163 163.081 402.862 163.081C403.478 163.081 403.975 163.296 404.355 163.726V160.75H405.66V169H404.478L404.414 168.398C404.024 168.871 403.503 169.107 402.851 169.107C402.171 169.107 401.619 168.833 401.197 168.286C400.778 167.738 400.568 166.993 400.568 166.051ZM401.873 166.164C401.873 166.755 401.986 167.217 402.212 167.55C402.441 167.879 402.765 168.044 403.184 168.044C403.718 168.044 404.108 167.806 404.355 167.33V164.848C404.115 164.383 403.728 164.15 403.195 164.15C402.772 164.15 402.446 164.318 402.217 164.655C401.988 164.988 401.873 165.491 401.873 166.164ZM408.71 169H407.405V163.188H408.71V169ZM407.324 161.679C407.324 161.479 407.387 161.312 407.512 161.18C407.641 161.047 407.824 160.981 408.06 160.981C408.296 160.981 408.479 161.047 408.608 161.18C408.737 161.312 408.801 161.479 408.801 161.679C408.801 161.876 408.737 162.041 408.608 162.173C408.479 162.302 408.296 162.367 408.06 162.367C407.824 162.367 407.641 162.302 407.512 162.173C407.387 162.041 407.324 161.876 407.324 161.679ZM413.908 169C413.851 168.889 413.801 168.708 413.758 168.458C413.343 168.891 412.834 169.107 412.233 169.107C411.649 169.107 411.173 168.941 410.804 168.608C410.435 168.275 410.251 167.863 410.251 167.373C410.251 166.753 410.48 166.279 410.938 165.949C411.4 165.616 412.059 165.45 412.915 165.45H413.715V165.068C413.715 164.768 413.631 164.528 413.463 164.349C413.294 164.166 413.038 164.075 412.695 164.075C412.397 164.075 412.154 164.15 411.964 164.3C411.774 164.447 411.679 164.635 411.679 164.864H410.374C410.374 164.546 410.48 164.248 410.691 163.973C410.902 163.693 411.189 163.475 411.551 163.317C411.916 163.16 412.322 163.081 412.77 163.081C413.45 163.081 413.993 163.253 414.397 163.597C414.802 163.937 415.01 164.417 415.02 165.036V167.657C415.02 168.18 415.094 168.597 415.241 168.909V169H413.908ZM412.474 168.06C412.732 168.06 412.974 167.997 413.2 167.872C413.429 167.747 413.601 167.578 413.715 167.367V166.271H413.012C412.528 166.271 412.165 166.356 411.921 166.524C411.678 166.692 411.556 166.93 411.556 167.238C411.556 167.489 411.638 167.689 411.803 167.84C411.971 167.987 412.195 168.06 412.474 168.06ZM426.067 165.294C426.067 166.035 425.949 166.678 425.713 167.222C425.48 167.763 425.152 168.193 424.73 168.511L426.072 169.559L425.192 170.354L423.527 169.038C423.308 169.084 423.074 169.107 422.823 169.107C422.193 169.107 421.629 168.953 421.131 168.646C420.637 168.334 420.254 167.892 419.982 167.319C419.713 166.746 419.577 166.085 419.573 165.337V164.896C419.573 164.134 419.708 163.461 419.976 162.877C420.248 162.293 420.63 161.847 421.12 161.54C421.614 161.228 422.178 161.072 422.812 161.072C423.457 161.072 424.024 161.226 424.515 161.534C425.009 161.839 425.39 162.279 425.659 162.855C425.927 163.428 426.064 164.096 426.067 164.859V165.294ZM424.703 164.886C424.703 164.005 424.538 163.337 424.209 162.882C423.879 162.428 423.414 162.2 422.812 162.2C422.229 162.2 421.77 162.431 421.437 162.893C421.108 163.351 420.939 164 420.932 164.837V165.294C420.932 166.139 421.097 166.8 421.426 167.276C421.759 167.752 422.225 167.99 422.823 167.99C423.428 167.99 423.892 167.761 424.214 167.303C424.54 166.844 424.703 166.175 424.703 165.294V164.886ZM431.142 168.431C430.759 168.882 430.215 169.107 429.509 169.107C428.879 169.107 428.401 168.923 428.075 168.554C427.753 168.185 427.592 167.652 427.592 166.954V163.188H428.897V166.938C428.897 167.675 429.203 168.044 429.815 168.044C430.449 168.044 430.877 167.817 431.099 167.362V163.188H432.404V169H431.174L431.142 168.431ZM436.593 169.107C435.766 169.107 435.094 168.848 434.579 168.329C434.067 167.806 433.811 167.111 433.811 166.245V166.083C433.811 165.503 433.922 164.986 434.144 164.531C434.369 164.073 434.684 163.717 435.089 163.462C435.494 163.208 435.945 163.081 436.442 163.081C437.234 163.081 437.844 163.333 438.274 163.838C438.707 164.343 438.924 165.058 438.924 165.981V166.508H435.127C435.166 166.988 435.325 167.367 435.605 167.646C435.887 167.926 436.242 168.065 436.668 168.065C437.266 168.065 437.753 167.824 438.129 167.34L438.833 168.012C438.6 168.359 438.288 168.629 437.898 168.823C437.511 169.013 437.076 169.107 436.593 169.107ZM436.437 164.128C436.079 164.128 435.789 164.254 435.567 164.504C435.349 164.755 435.209 165.104 435.148 165.552H437.635V165.455C437.606 165.018 437.49 164.689 437.286 164.467C437.082 164.241 436.799 164.128 436.437 164.128ZM443.284 164.381C443.113 164.352 442.935 164.338 442.753 164.338C442.155 164.338 441.752 164.567 441.544 165.025V169H440.239V163.188H441.485L441.517 163.838C441.832 163.333 442.269 163.081 442.828 163.081C443.014 163.081 443.168 163.106 443.29 163.156L443.284 164.381ZM445.797 169H444.492V163.188H445.797V169ZM444.412 161.679C444.412 161.479 444.474 161.312 444.6 161.18C444.729 161.047 444.911 160.981 445.147 160.981C445.384 160.981 445.566 161.047 445.695 161.18C445.824 161.312 445.889 161.479 445.889 161.679C445.889 161.876 445.824 162.041 445.695 162.173C445.566 162.302 445.384 162.367 445.147 162.367C444.911 162.367 444.729 162.302 444.6 162.173C444.474 162.041 444.412 161.876 444.412 161.679ZM450.083 169.107C449.256 169.107 448.584 168.848 448.069 168.329C447.557 167.806 447.3 167.111 447.3 166.245V166.083C447.3 165.503 447.411 164.986 447.633 164.531C447.859 164.073 448.174 163.717 448.579 163.462C448.983 163.208 449.435 163.081 449.932 163.081C450.724 163.081 451.334 163.333 451.764 163.838C452.197 164.343 452.414 165.058 452.414 165.981V166.508H448.616C448.656 166.988 448.815 167.367 449.094 167.646C449.377 167.926 449.732 168.065 450.158 168.065C450.756 168.065 451.243 167.824 451.619 167.34L452.322 168.012C452.09 168.359 451.778 168.629 451.388 168.823C451.001 169.013 450.566 169.107 450.083 169.107ZM449.927 164.128C449.569 164.128 449.279 164.254 449.057 164.504C448.838 164.755 448.699 165.104 448.638 165.552H451.125V165.455C451.096 165.018 450.98 164.689 450.776 164.467C450.571 164.241 450.289 164.128 449.927 164.128ZM456.989 167.421C456.989 167.188 456.892 167.011 456.699 166.889C456.509 166.767 456.192 166.66 455.748 166.567C455.304 166.474 454.934 166.356 454.637 166.212C453.985 165.897 453.659 165.441 453.659 164.843C453.659 164.341 453.87 163.923 454.293 163.586C454.715 163.249 455.253 163.081 455.904 163.081C456.599 163.081 457.159 163.253 457.585 163.597C458.015 163.94 458.23 164.386 458.23 164.934H456.925C456.925 164.683 456.832 164.476 456.645 164.311C456.459 164.143 456.212 164.059 455.904 164.059C455.618 164.059 455.383 164.125 455.201 164.257C455.022 164.39 454.932 164.567 454.932 164.789C454.932 164.99 455.016 165.145 455.184 165.256C455.353 165.367 455.693 165.48 456.205 165.595C456.717 165.706 457.118 165.84 457.408 165.998C457.702 166.152 457.918 166.338 458.058 166.556C458.201 166.775 458.273 167.04 458.273 167.351C458.273 167.874 458.056 168.298 457.623 168.624C457.19 168.946 456.622 169.107 455.92 169.107C455.444 169.107 455.02 169.021 454.647 168.85C454.275 168.678 453.985 168.441 453.777 168.141C453.57 167.84 453.466 167.516 453.466 167.168H454.733C454.751 167.476 454.868 167.715 455.082 167.883C455.297 168.048 455.582 168.13 455.936 168.13C456.28 168.13 456.542 168.065 456.721 167.937C456.9 167.804 456.989 167.632 456.989 167.421ZM389.301 191.686H386.154V195H384.795V187.18H389.763V188.275H386.154V190.601H389.301V191.686ZM392.405 195H391.1V186.75H392.405V195ZM396.69 195.107C395.863 195.107 395.192 194.848 394.676 194.329C394.164 193.806 393.908 193.111 393.908 192.245V192.083C393.908 191.503 394.019 190.986 394.241 190.531C394.467 190.073 394.782 189.717 395.186 189.462C395.591 189.208 396.042 189.081 396.54 189.081C397.331 189.081 397.942 189.333 398.371 189.838C398.805 190.343 399.021 191.058 399.021 191.981V192.508H395.224C395.263 192.988 395.423 193.367 395.702 193.646C395.985 193.926 396.339 194.065 396.766 194.065C397.364 194.065 397.85 193.824 398.226 193.34L398.93 194.012C398.697 194.359 398.386 194.629 397.996 194.823C397.609 195.013 397.174 195.107 396.69 195.107ZM396.535 190.128C396.176 190.128 395.886 190.254 395.664 190.504C395.446 190.755 395.306 191.104 395.246 191.552H397.732V191.455C397.704 191.018 397.587 190.689 397.383 190.467C397.179 190.241 396.896 190.128 396.535 190.128ZM402.426 191.101L403.532 189.188H404.983L403.205 192.051L405.042 195H403.602L402.442 193.013L401.287 195H399.837L401.674 192.051L399.901 189.188H401.341L402.426 191.101ZM411.271 192.153C411.271 193.056 411.069 193.774 410.664 194.307C410.263 194.841 409.71 195.107 409.005 195.107C408.324 195.107 407.794 194.862 407.415 194.372L407.35 195H406.169V186.75H407.474V189.747C407.85 189.303 408.357 189.081 408.994 189.081C409.703 189.081 410.26 189.344 410.664 189.871C411.069 190.397 411.271 191.133 411.271 192.078V192.153ZM409.966 192.041C409.966 191.41 409.855 190.938 409.633 190.623C409.411 190.307 409.089 190.15 408.666 190.15C408.101 190.15 407.703 190.397 407.474 190.891V193.287C407.707 193.792 408.108 194.044 408.677 194.044C409.085 194.044 409.4 193.892 409.622 193.587C409.844 193.283 409.959 192.823 409.966 192.207V192.041ZM412.425 192.041C412.425 191.471 412.538 190.959 412.764 190.504C412.989 190.046 413.306 189.695 413.714 189.452C414.123 189.205 414.592 189.081 415.122 189.081C415.906 189.081 416.541 189.333 417.028 189.838C417.519 190.343 417.784 191.013 417.823 191.847L417.829 192.153C417.829 192.726 417.718 193.238 417.496 193.689C417.277 194.141 416.962 194.49 416.55 194.737C416.142 194.984 415.669 195.107 415.132 195.107C414.312 195.107 413.655 194.835 413.161 194.291C412.671 193.743 412.425 193.014 412.425 192.105V192.041ZM413.73 192.153C413.73 192.751 413.854 193.22 414.101 193.561C414.348 193.897 414.692 194.065 415.132 194.065C415.573 194.065 415.915 193.894 416.158 193.55C416.405 193.206 416.529 192.703 416.529 192.041C416.529 191.453 416.402 190.988 416.147 190.644C415.897 190.3 415.555 190.128 415.122 190.128C414.695 190.128 414.357 190.299 414.106 190.639C413.856 190.975 413.73 191.48 413.73 192.153ZM421.201 191.101L422.307 189.188H423.758L421.98 192.051L423.817 195H422.377L421.217 193.013L420.062 195H418.612L420.449 192.051L418.676 189.188H420.116L421.201 191.101Z" fill="black"/>
</svg>
