<svg width="760" height="482" viewBox="0 0 760 482" fill="none" xmlns="http://www.w3.org/2000/svg">
<rect width="760" height="482" fill="white"/>
<rect x="160.5" y="176.5" width="362" height="129" fill="#E8F0FE" stroke="#3740FF"/>
<rect x="160.5" y="324.5" width="362" height="129" fill="#E8F0FE" stroke="#3740FF"/>
<rect x="160.5" y="28.5" width="362" height="129" fill="#E8F0FE" stroke="#3740FF"/>
<path d="M273.4 101.256L264.136 95.256V92.808L273.4 86.808V90L267.04 93.984V94.08L273.4 98.064V101.256Z" fill="#242526"/>
<path d="M282.186 102.288C281.434 102.288 280.746 102.144 280.122 101.856C279.514 101.568 278.986 101.16 278.538 100.632C278.106 100.088 277.77 99.432 277.53 98.664C277.29 97.896 277.17 97.024 277.17 96.048C277.17 95.072 277.314 94.2 277.602 93.432C277.89 92.664 278.266 92.016 278.73 91.488C279.21 90.944 279.754 90.528 280.362 90.24C280.97 89.952 281.602 89.808 282.258 89.808C282.93 89.808 283.498 89.92 283.962 90.144C284.426 90.352 284.858 90.664 285.258 91.08H285.354L285.186 89.232V85.176H288.714V102H285.834L285.57 100.776H285.498C285.05 101.208 284.538 101.568 283.962 101.856C283.386 102.144 282.794 102.288 282.186 102.288ZM283.098 99.408C283.498 99.408 283.866 99.328 284.202 99.168C284.538 98.992 284.866 98.704 285.186 98.304V93.48C284.866 93.192 284.538 92.992 284.202 92.88C283.882 92.752 283.546 92.688 283.194 92.688C282.538 92.688 281.97 92.96 281.49 93.504C281.026 94.048 280.794 94.88 280.794 96C280.794 97.184 280.994 98.048 281.394 98.592C281.794 99.136 282.362 99.408 283.098 99.408Z" fill="#242526"/>
<path d="M297.405 102V92.856H292.629V90.096H300.933V102H297.405ZM299.013 88.224C298.325 88.224 297.757 88.032 297.309 87.648C296.877 87.264 296.661 86.744 296.661 86.088C296.661 85.432 296.877 84.904 297.309 84.504C297.757 84.088 298.325 83.88 299.013 83.88C299.701 83.88 300.261 84.088 300.693 84.504C301.141 84.904 301.365 85.432 301.365 86.088C301.365 86.744 301.141 87.264 300.693 87.648C300.261 88.032 299.701 88.224 299.013 88.224Z" fill="#242526"/>
<path d="M310.655 102L306.167 90.096H309.719L311.591 95.712C311.783 96.32 311.967 96.928 312.143 97.536C312.319 98.144 312.495 98.76 312.671 99.384H312.767C312.943 98.76 313.111 98.144 313.271 97.536C313.447 96.928 313.631 96.32 313.823 95.712L315.695 90.096H319.079L314.711 102H310.655Z" fill="#242526"/>
<path d="M322.466 101.256V98.064L328.826 94.08V93.984L322.466 90V86.808L331.73 92.808V95.256L322.466 101.256Z" fill="#242526"/>
<path d="M346.853 101.256L337.589 95.256V92.808L346.853 86.808V90L340.493 93.984V94.08L346.853 98.064V101.256Z" fill="#242526"/>
<path d="M351.271 105.84L359.167 84.96H362.119L354.223 105.84H351.271Z" fill="#242526"/>
<path d="M370.33 102.288C369.578 102.288 368.89 102.144 368.266 101.856C367.658 101.568 367.13 101.16 366.682 100.632C366.25 100.088 365.914 99.432 365.674 98.664C365.434 97.896 365.314 97.024 365.314 96.048C365.314 95.072 365.458 94.2 365.746 93.432C366.034 92.664 366.41 92.016 366.874 91.488C367.354 90.944 367.898 90.528 368.506 90.24C369.114 89.952 369.746 89.808 370.402 89.808C371.074 89.808 371.642 89.92 372.106 90.144C372.57 90.352 373.002 90.664 373.402 91.08H373.498L373.33 89.232V85.176H376.858V102H373.978L373.714 100.776H373.642C373.194 101.208 372.682 101.568 372.106 101.856C371.53 102.144 370.938 102.288 370.33 102.288ZM371.242 99.408C371.642 99.408 372.01 99.328 372.346 99.168C372.682 98.992 373.01 98.704 373.33 98.304V93.48C373.01 93.192 372.682 92.992 372.346 92.88C372.026 92.752 371.69 92.688 371.338 92.688C370.682 92.688 370.114 92.96 369.634 93.504C369.17 94.048 368.938 94.88 368.938 96C368.938 97.184 369.138 98.048 369.538 98.592C369.938 99.136 370.506 99.408 371.242 99.408Z" fill="#242526"/>
<path d="M385.549 102V92.856H380.773V90.096H389.077V102H385.549ZM387.157 88.224C386.469 88.224 385.901 88.032 385.453 87.648C385.021 87.264 384.805 86.744 384.805 86.088C384.805 85.432 385.021 84.904 385.453 84.504C385.901 84.088 386.469 83.88 387.157 83.88C387.845 83.88 388.405 84.088 388.837 84.504C389.285 84.904 389.509 85.432 389.509 86.088C389.509 86.744 389.285 87.264 388.837 87.648C388.405 88.032 387.845 88.224 387.157 88.224Z" fill="#242526"/>
<path d="M398.799 102L394.311 90.096H397.863L399.735 95.712C399.927 96.32 400.111 96.928 400.287 97.536C400.463 98.144 400.639 98.76 400.815 99.384H400.911C401.087 98.76 401.255 98.144 401.415 97.536C401.591 96.928 401.775 96.32 401.967 95.712L403.839 90.096H407.223L402.855 102H398.799Z" fill="#242526"/>
<path d="M410.61 101.256V98.064L416.97 94.08V93.984L410.61 90V86.808L419.874 92.808V95.256L410.61 101.256Z" fill="#242526"/>
<path d="M272.4 248.256L263.136 242.256V239.808L272.4 233.808V237L266.04 240.984V241.08L272.4 245.064V248.256Z" fill="#242526"/>
<path d="M281.186 249.288C280.434 249.288 279.746 249.144 279.122 248.856C278.514 248.568 277.986 248.16 277.538 247.632C277.106 247.088 276.77 246.432 276.53 245.664C276.29 244.896 276.17 244.024 276.17 243.048C276.17 242.072 276.314 241.2 276.602 240.432C276.89 239.664 277.266 239.016 277.73 238.488C278.21 237.944 278.754 237.528 279.362 237.24C279.97 236.952 280.602 236.808 281.258 236.808C281.93 236.808 282.498 236.92 282.962 237.144C283.426 237.352 283.858 237.664 284.258 238.08H284.354L284.186 236.232V232.176H287.714V249H284.834L284.57 247.776H284.498C284.05 248.208 283.538 248.568 282.962 248.856C282.386 249.144 281.794 249.288 281.186 249.288ZM282.098 246.408C282.498 246.408 282.866 246.328 283.202 246.168C283.538 245.992 283.866 245.704 284.186 245.304V240.48C283.866 240.192 283.538 239.992 283.202 239.88C282.882 239.752 282.546 239.688 282.194 239.688C281.538 239.688 280.97 239.96 280.49 240.504C280.026 241.048 279.794 241.88 279.794 243C279.794 244.184 279.994 245.048 280.394 245.592C280.794 246.136 281.362 246.408 282.098 246.408Z" fill="#242526"/>
<path d="M296.405 249V239.856H291.629V237.096H299.933V249H296.405ZM298.013 235.224C297.325 235.224 296.757 235.032 296.309 234.648C295.877 234.264 295.661 233.744 295.661 233.088C295.661 232.432 295.877 231.904 296.309 231.504C296.757 231.088 297.325 230.88 298.013 230.88C298.701 230.88 299.261 231.088 299.693 231.504C300.141 231.904 300.365 232.432 300.365 233.088C300.365 233.744 300.141 234.264 299.693 234.648C299.261 235.032 298.701 235.224 298.013 235.224Z" fill="#242526"/>
<path d="M309.655 249L305.167 237.096H308.719L310.591 242.712C310.783 243.32 310.967 243.928 311.143 244.536C311.319 245.144 311.495 245.76 311.671 246.384H311.767C311.943 245.76 312.111 245.144 312.271 244.536C312.447 243.928 312.631 243.32 312.823 242.712L314.695 237.096H318.079L313.711 249H309.655Z" fill="#242526"/>
<path d="M321.466 248.256V245.064L327.826 241.08V240.984L321.466 237V233.808L330.73 239.808V242.256L321.466 248.256Z" fill="#242526"/>
<path d="M345.853 248.256L336.589 242.256V239.808L345.853 233.808V237L339.493 240.984V241.08L345.853 245.064V248.256Z" fill="#242526"/>
<path d="M350.271 252.84L358.167 231.96H361.119L353.223 252.84H350.271Z" fill="#242526"/>
<path d="M369.33 249.288C368.578 249.288 367.89 249.144 367.266 248.856C366.658 248.568 366.13 248.16 365.682 247.632C365.25 247.088 364.914 246.432 364.674 245.664C364.434 244.896 364.314 244.024 364.314 243.048C364.314 242.072 364.458 241.2 364.746 240.432C365.034 239.664 365.41 239.016 365.874 238.488C366.354 237.944 366.898 237.528 367.506 237.24C368.114 236.952 368.746 236.808 369.402 236.808C370.074 236.808 370.642 236.92 371.106 237.144C371.57 237.352 372.002 237.664 372.402 238.08H372.498L372.33 236.232V232.176H375.858V249H372.978L372.714 247.776H372.642C372.194 248.208 371.682 248.568 371.106 248.856C370.53 249.144 369.938 249.288 369.33 249.288ZM370.242 246.408C370.642 246.408 371.01 246.328 371.346 246.168C371.682 245.992 372.01 245.704 372.33 245.304V240.48C372.01 240.192 371.682 239.992 371.346 239.88C371.026 239.752 370.69 239.688 370.338 239.688C369.682 239.688 369.114 239.96 368.634 240.504C368.17 241.048 367.938 241.88 367.938 243C367.938 244.184 368.138 245.048 368.538 245.592C368.938 246.136 369.506 246.408 370.242 246.408Z" fill="#242526"/>
<path d="M384.549 249V239.856H379.773V237.096H388.077V249H384.549ZM386.157 235.224C385.469 235.224 384.901 235.032 384.453 234.648C384.021 234.264 383.805 233.744 383.805 233.088C383.805 232.432 384.021 231.904 384.453 231.504C384.901 231.088 385.469 230.88 386.157 230.88C386.845 230.88 387.405 231.088 387.837 231.504C388.285 231.904 388.509 232.432 388.509 233.088C388.509 233.744 388.285 234.264 387.837 234.648C387.405 235.032 386.845 235.224 386.157 235.224Z" fill="#242526"/>
<path d="M397.799 249L393.311 237.096H396.863L398.735 242.712C398.927 243.32 399.111 243.928 399.287 244.536C399.463 245.144 399.639 245.76 399.815 246.384H399.911C400.087 245.76 400.255 245.144 400.415 244.536C400.591 243.928 400.775 243.32 400.967 242.712L402.839 237.096H406.223L401.855 249H397.799Z" fill="#242526"/>
<path d="M409.61 248.256V245.064L415.97 241.08V240.984L409.61 237V233.808L418.874 239.808V242.256L409.61 248.256Z" fill="#242526"/>
<path d="M273.4 396.256L264.136 390.256V387.808L273.4 381.808V385L267.04 388.984V389.08L273.4 393.064V396.256Z" fill="#242526"/>
<path d="M282.186 397.288C281.434 397.288 280.746 397.144 280.122 396.856C279.514 396.568 278.986 396.16 278.538 395.632C278.106 395.088 277.77 394.432 277.53 393.664C277.29 392.896 277.17 392.024 277.17 391.048C277.17 390.072 277.314 389.2 277.602 388.432C277.89 387.664 278.266 387.016 278.73 386.488C279.21 385.944 279.754 385.528 280.362 385.24C280.97 384.952 281.602 384.808 282.258 384.808C282.93 384.808 283.498 384.92 283.962 385.144C284.426 385.352 284.858 385.664 285.258 386.08H285.354L285.186 384.232V380.176H288.714V397H285.834L285.57 395.776H285.498C285.05 396.208 284.538 396.568 283.962 396.856C283.386 397.144 282.794 397.288 282.186 397.288ZM283.098 394.408C283.498 394.408 283.866 394.328 284.202 394.168C284.538 393.992 284.866 393.704 285.186 393.304V388.48C284.866 388.192 284.538 387.992 284.202 387.88C283.882 387.752 283.546 387.688 283.194 387.688C282.538 387.688 281.97 387.96 281.49 388.504C281.026 389.048 280.794 389.88 280.794 391C280.794 392.184 280.994 393.048 281.394 393.592C281.794 394.136 282.362 394.408 283.098 394.408Z" fill="#242526"/>
<path d="M297.405 397V387.856H292.629V385.096H300.933V397H297.405ZM299.013 383.224C298.325 383.224 297.757 383.032 297.309 382.648C296.877 382.264 296.661 381.744 296.661 381.088C296.661 380.432 296.877 379.904 297.309 379.504C297.757 379.088 298.325 378.88 299.013 378.88C299.701 378.88 300.261 379.088 300.693 379.504C301.141 379.904 301.365 380.432 301.365 381.088C301.365 381.744 301.141 382.264 300.693 382.648C300.261 383.032 299.701 383.224 299.013 383.224Z" fill="#242526"/>
<path d="M310.655 397L306.167 385.096H309.719L311.591 390.712C311.783 391.32 311.967 391.928 312.143 392.536C312.319 393.144 312.495 393.76 312.671 394.384H312.767C312.943 393.76 313.111 393.144 313.271 392.536C313.447 391.928 313.631 391.32 313.823 390.712L315.695 385.096H319.079L314.711 397H310.655Z" fill="#242526"/>
<path d="M322.466 396.256V393.064L328.826 389.08V388.984L322.466 385V381.808L331.73 387.808V390.256L322.466 396.256Z" fill="#242526"/>
<path d="M346.853 396.256L337.589 390.256V387.808L346.853 381.808V385L340.493 388.984V389.08L346.853 393.064V396.256Z" fill="#242526"/>
<path d="M351.271 400.84L359.167 379.96H362.119L354.223 400.84H351.271Z" fill="#242526"/>
<path d="M370.33 397.288C369.578 397.288 368.89 397.144 368.266 396.856C367.658 396.568 367.13 396.16 366.682 395.632C366.25 395.088 365.914 394.432 365.674 393.664C365.434 392.896 365.314 392.024 365.314 391.048C365.314 390.072 365.458 389.2 365.746 388.432C366.034 387.664 366.41 387.016 366.874 386.488C367.354 385.944 367.898 385.528 368.506 385.24C369.114 384.952 369.746 384.808 370.402 384.808C371.074 384.808 371.642 384.92 372.106 385.144C372.57 385.352 373.002 385.664 373.402 386.08H373.498L373.33 384.232V380.176H376.858V397H373.978L373.714 395.776H373.642C373.194 396.208 372.682 396.568 372.106 396.856C371.53 397.144 370.938 397.288 370.33 397.288ZM371.242 394.408C371.642 394.408 372.01 394.328 372.346 394.168C372.682 393.992 373.01 393.704 373.33 393.304V388.48C373.01 388.192 372.682 387.992 372.346 387.88C372.026 387.752 371.69 387.688 371.338 387.688C370.682 387.688 370.114 387.96 369.634 388.504C369.17 389.048 368.938 389.88 368.938 391C368.938 392.184 369.138 393.048 369.538 393.592C369.938 394.136 370.506 394.408 371.242 394.408Z" fill="#242526"/>
<path d="M385.549 397V387.856H380.773V385.096H389.077V397H385.549ZM387.157 383.224C386.469 383.224 385.901 383.032 385.453 382.648C385.021 382.264 384.805 381.744 384.805 381.088C384.805 380.432 385.021 379.904 385.453 379.504C385.901 379.088 386.469 378.88 387.157 378.88C387.845 378.88 388.405 379.088 388.837 379.504C389.285 379.904 389.509 380.432 389.509 381.088C389.509 381.744 389.285 382.264 388.837 382.648C388.405 383.032 387.845 383.224 387.157 383.224Z" fill="#242526"/>
<path d="M398.799 397L394.311 385.096H397.863L399.735 390.712C399.927 391.32 400.111 391.928 400.287 392.536C400.463 393.144 400.639 393.76 400.815 394.384H400.911C401.087 393.76 401.255 393.144 401.415 392.536C401.591 391.928 401.775 391.32 401.967 390.712L403.839 385.096H407.223L402.855 397H398.799Z" fill="#242526"/>
<path d="M410.61 396.256V393.064L416.97 389.08V388.984L410.61 385V381.808L419.874 387.808V390.256L410.61 396.256Z" fill="#242526"/>
<rect x="552" y="77" width="6" height="276" fill="#00C9DB"/>
<path d="M569 347H541L555.627 370L569 347Z" fill="#00C9DB"/>
<path d="M588.523 233V215.938H594.5C596.57 215.938 598.141 216.336 599.211 217.133C600.281 217.922 600.816 219.082 600.816 220.613C600.816 221.449 600.602 222.188 600.172 222.828C599.742 223.461 599.145 223.926 598.379 224.223C599.254 224.441 599.941 224.883 600.441 225.547C600.949 226.211 601.203 227.023 601.203 227.984C601.203 229.625 600.68 230.867 599.633 231.711C598.586 232.555 597.094 232.984 595.156 233H588.523ZM592.039 225.57V230.176H595.051C595.879 230.176 596.523 229.98 596.984 229.59C597.453 229.191 597.688 228.645 597.688 227.949C597.688 226.387 596.879 225.594 595.262 225.57H592.039ZM592.039 223.086H594.641C596.414 223.055 597.301 222.348 597.301 220.965C597.301 220.191 597.074 219.637 596.621 219.301C596.176 218.957 595.469 218.785 594.5 218.785H592.039V223.086Z" fill="#272EB5"/>
<path d="M607.503 233H604.105V215H607.503V233Z" fill="#272EB5"/>
<path d="M610.077 226.543C610.077 225.285 610.319 224.164 610.803 223.18C611.288 222.195 611.983 221.434 612.889 220.895C613.803 220.355 614.862 220.086 616.065 220.086C617.776 220.086 619.17 220.609 620.248 221.656C621.334 222.703 621.94 224.125 622.065 225.922L622.088 226.789C622.088 228.734 621.545 230.297 620.459 231.477C619.373 232.648 617.916 233.234 616.088 233.234C614.26 233.234 612.799 232.648 611.705 231.477C610.62 230.305 610.077 228.711 610.077 226.695V226.543ZM613.463 226.789C613.463 227.992 613.69 228.914 614.143 229.555C614.596 230.188 615.245 230.504 616.088 230.504C616.909 230.504 617.549 230.191 618.01 229.566C618.471 228.934 618.702 227.926 618.702 226.543C618.702 225.363 618.471 224.449 618.01 223.801C617.549 223.152 616.901 222.828 616.065 222.828C615.237 222.828 614.596 223.152 614.143 223.801C613.69 224.441 613.463 225.438 613.463 226.789Z" fill="#272EB5"/>
<path d="M629.748 230.504C630.373 230.504 630.88 230.332 631.271 229.988C631.662 229.645 631.865 229.188 631.88 228.617H635.056C635.048 229.477 634.814 230.266 634.353 230.984C633.892 231.695 633.259 232.25 632.455 232.648C631.658 233.039 630.775 233.234 629.806 233.234C627.994 233.234 626.564 232.66 625.517 231.512C624.47 230.355 623.947 228.762 623.947 226.73V226.508C623.947 224.555 624.466 222.996 625.505 221.832C626.545 220.668 627.97 220.086 629.783 220.086C631.369 220.086 632.638 220.539 633.591 221.445C634.552 222.344 635.041 223.543 635.056 225.043H631.88C631.865 224.387 631.662 223.855 631.271 223.449C630.88 223.035 630.365 222.828 629.724 222.828C628.935 222.828 628.338 223.117 627.931 223.695C627.533 224.266 627.334 225.195 627.334 226.484V226.836C627.334 228.141 627.533 229.078 627.931 229.648C628.33 230.219 628.935 230.504 629.748 230.504Z" fill="#272EB5"/>
<path d="M641.895 227.914L640.677 229.133V233H637.29V215H640.677V224.973L641.333 224.129L644.579 220.32H648.645L644.063 225.605L649.044 233H645.153L641.895 227.914Z" fill="#272EB5"/>
<path d="M598.789 254.027H592.039V261H588.523V243.938H599.633V246.785H592.039V251.191H598.789V254.027Z" fill="#272EB5"/>
<path d="M605.323 261H601.925V243H605.323V261Z" fill="#272EB5"/>
<path d="M607.897 254.543C607.897 253.285 608.139 252.164 608.623 251.18C609.108 250.195 609.803 249.434 610.709 248.895C611.623 248.355 612.682 248.086 613.885 248.086C615.596 248.086 616.991 248.609 618.069 249.656C619.155 250.703 619.76 252.125 619.885 253.922L619.909 254.789C619.909 256.734 619.366 258.297 618.28 259.477C617.194 260.648 615.737 261.234 613.909 261.234C612.08 261.234 610.62 260.648 609.526 259.477C608.44 258.305 607.897 256.711 607.897 254.695V254.543ZM611.284 254.789C611.284 255.992 611.51 256.914 611.963 257.555C612.416 258.188 613.065 258.504 613.909 258.504C614.729 258.504 615.37 258.191 615.83 257.566C616.291 256.934 616.522 255.926 616.522 254.543C616.522 253.363 616.291 252.449 615.83 251.801C615.37 251.152 614.721 250.828 613.885 250.828C613.057 250.828 612.416 251.152 611.963 251.801C611.51 252.441 611.284 253.438 611.284 254.789Z" fill="#272EB5"/>
<path d="M633.322 256.395L634.986 248.32H638.255L635.021 261H632.185L629.783 253.02L627.38 261H624.556L621.322 248.32H624.591L626.244 256.383L628.564 248.32H631.013L633.322 256.395Z" fill="#272EB5"/>
</svg>
