<svg width="760" height="304" viewBox="0 0 760 304" fill="none" xmlns="http://www.w3.org/2000/svg">
<rect width="760" height="304" fill="white"/>
<rect x="117.5" y="96.5" width="98" height="53" fill="#E8F0FE" stroke="#3740FF"/>
<rect x="226.5" y="96.5" width="147" height="53" fill="#E8F0FE" stroke="#3740FF"/>
<rect x="384.5" y="96.5" width="256" height="53" fill="#E8F0FE" stroke="#3740FF"/>
<path d="M139.275 137.528C137.339 137.528 135.418 137.191 133.511 136.516C131.634 135.812 129.918 134.771 128.363 133.392L132.103 128.948C133.189 129.828 134.377 130.547 135.667 131.104C136.958 131.661 138.307 131.94 139.715 131.94C141.123 131.94 142.15 131.705 142.795 131.236C143.441 130.767 143.763 130.165 143.763 129.432C143.763 128.933 143.661 128.523 143.455 128.2C143.25 127.848 142.957 127.54 142.575 127.276C142.194 127.012 141.725 126.763 141.167 126.528C140.61 126.293 139.994 126.029 139.319 125.736L135.623 124.152C134.831 123.859 134.054 123.477 133.291 123.008C132.558 122.539 131.913 121.996 131.355 121.38C130.798 120.735 130.343 120.001 129.991 119.18C129.669 118.329 129.507 117.376 129.507 116.32C129.507 115.147 129.757 114.047 130.255 113.02C130.783 111.964 131.502 111.055 132.411 110.292C133.35 109.5 134.465 108.884 135.755 108.444C137.046 108.004 138.469 107.784 140.023 107.784C141.783 107.784 143.485 108.107 145.127 108.752C146.77 109.397 148.251 110.336 149.571 111.568L146.271 115.66C145.274 114.927 144.277 114.369 143.279 113.988C142.282 113.577 141.079 113.372 139.671 113.372C138.586 113.372 137.706 113.592 137.031 114.032C136.386 114.472 136.063 115.117 136.063 115.968C136.063 116.819 136.489 117.479 137.339 117.948C138.219 118.388 139.363 118.857 140.771 119.356L144.247 120.852C146.154 121.556 147.65 122.524 148.735 123.756C149.85 124.988 150.407 126.616 150.407 128.64C150.407 129.843 150.158 130.987 149.659 132.072C149.161 133.128 148.442 134.067 147.503 134.888C146.565 135.68 145.406 136.325 144.027 136.824C142.649 137.293 141.065 137.528 139.275 137.528Z" fill="#242526"/>
<path d="M156.014 137V106.156H162.482V113.724L162.13 117.904H162.262C163.083 117.053 164.081 116.305 165.254 115.66C166.427 114.985 167.85 114.648 169.522 114.648C171.986 114.648 173.775 115.44 174.89 117.024C176.034 118.608 176.606 120.779 176.606 123.536V137H170.138V124.372C170.138 122.905 169.903 121.835 169.434 121.16C168.965 120.485 168.129 120.148 166.926 120.148C166.046 120.148 165.269 120.339 164.594 120.72C163.949 121.101 163.245 121.673 162.482 122.436V137H156.014Z" fill="#242526"/>
<path d="M194.049 137.528C192.348 137.528 190.749 137.279 189.253 136.78C187.786 136.252 186.51 135.504 185.425 134.536C184.34 133.568 183.489 132.38 182.873 130.972C182.257 129.535 181.949 127.907 181.949 126.088C181.949 124.299 182.257 122.7 182.873 121.292C183.518 119.855 184.369 118.652 185.425 117.684C186.481 116.687 187.684 115.939 189.033 115.44C190.412 114.912 191.834 114.648 193.301 114.648C194.973 114.648 196.454 114.912 197.745 115.44C199.036 115.968 200.106 116.701 200.957 117.64C201.837 118.579 202.497 119.693 202.937 120.984C203.377 122.245 203.597 123.624 203.597 125.12C203.597 125.707 203.553 126.279 203.465 126.836C203.406 127.364 203.348 127.76 203.289 128.024H188.417C188.74 129.608 189.458 130.767 190.573 131.5C191.688 132.233 193.14 132.6 194.929 132.6C195.926 132.6 196.865 132.468 197.745 132.204C198.654 131.94 199.593 131.559 200.561 131.06L202.717 134.976C201.456 135.768 200.062 136.399 198.537 136.868C197.012 137.308 195.516 137.528 194.049 137.528ZM193.521 119.576C192.23 119.576 191.145 119.913 190.265 120.588C189.414 121.263 188.828 122.289 188.505 123.668H197.833C197.51 120.94 196.073 119.576 193.521 119.576Z" fill="#242526"/>
<path d="M245.919 137.528C243.953 137.528 242.032 137.205 240.155 136.56C238.277 135.915 236.635 135.123 235.227 134.184L237.999 130.136C239.348 130.987 240.756 131.632 242.223 132.072C243.689 132.512 245.215 132.732 246.799 132.732C248.001 132.732 248.881 132.556 249.439 132.204C249.996 131.852 250.275 131.412 250.275 130.884C250.275 130.591 250.187 130.327 250.011 130.092C249.864 129.857 249.585 129.652 249.175 129.476C248.793 129.271 248.251 129.08 247.547 128.904C246.843 128.728 245.963 128.523 244.907 128.288C241.944 127.643 239.817 126.777 238.527 125.692C237.236 124.577 236.591 123.169 236.591 121.468C236.591 120.471 236.825 119.547 237.295 118.696C237.764 117.845 238.424 117.127 239.275 116.54C240.155 115.953 241.211 115.499 242.443 115.176C243.675 114.824 245.068 114.648 246.623 114.648C248.588 114.648 250.363 114.971 251.947 115.616C253.56 116.232 254.939 116.907 256.083 117.64L253.179 121.512C252.064 120.837 250.905 120.324 249.703 119.972C248.5 119.62 247.283 119.444 246.051 119.444C245.024 119.444 244.261 119.605 243.763 119.928C243.264 120.251 243.015 120.661 243.015 121.16C243.015 121.776 243.396 122.216 244.159 122.48C244.921 122.744 246.227 123.081 248.075 123.492C249.747 123.873 251.14 124.284 252.255 124.724C253.369 125.164 254.249 125.663 254.895 126.22C255.54 126.777 255.995 127.408 256.259 128.112C256.523 128.816 256.655 129.608 256.655 130.488C256.655 131.485 256.42 132.409 255.951 133.26C255.481 134.111 254.792 134.859 253.883 135.504C253.003 136.12 251.888 136.619 250.539 137C249.219 137.352 247.679 137.528 245.919 137.528Z" fill="#242526"/>
<path d="M274.097 137.528C272.396 137.528 270.797 137.279 269.301 136.78C267.835 136.252 266.559 135.504 265.473 134.536C264.388 133.568 263.537 132.38 262.921 130.972C262.305 129.535 261.997 127.907 261.997 126.088C261.997 124.299 262.305 122.7 262.921 121.292C263.567 119.855 264.417 118.652 265.473 117.684C266.529 116.687 267.732 115.939 269.081 115.44C270.46 114.912 271.883 114.648 273.349 114.648C275.021 114.648 276.503 114.912 277.793 115.44C279.084 115.968 280.155 116.701 281.005 117.64C281.885 118.579 282.545 119.693 282.985 120.984C283.425 122.245 283.645 123.624 283.645 125.12C283.645 125.707 283.601 126.279 283.513 126.836C283.455 127.364 283.396 127.76 283.337 128.024H268.465C268.788 129.608 269.507 130.767 270.621 131.5C271.736 132.233 273.188 132.6 274.977 132.6C275.975 132.6 276.913 132.468 277.793 132.204C278.703 131.94 279.641 131.559 280.609 131.06L282.765 134.976C281.504 135.768 280.111 136.399 278.585 136.868C277.06 137.308 275.564 137.528 274.097 137.528ZM273.569 119.576C272.279 119.576 271.193 119.913 270.313 120.588C269.463 121.263 268.876 122.289 268.553 123.668H277.881C277.559 120.94 276.121 119.576 273.569 119.576Z" fill="#242526"/>
<path d="M303.64 137.528C300.883 137.528 298.8 136.721 297.392 135.108C296.013 133.465 295.324 131.251 295.324 128.464V111.26H288.46V106.156H301.792V128.728C301.792 129.403 301.88 129.975 302.056 130.444C302.262 130.884 302.525 131.251 302.848 131.544C303.2 131.808 303.581 131.999 303.992 132.116C304.432 132.233 304.887 132.292 305.356 132.292C305.855 132.292 306.368 132.248 306.896 132.16C307.453 132.043 308.069 131.852 308.744 131.588L310.196 136.34C309.61 136.516 309.067 136.677 308.568 136.824C308.069 136.971 307.571 137.088 307.072 137.176C306.573 137.293 306.045 137.381 305.488 137.44C304.931 137.499 304.315 137.528 303.64 137.528Z" fill="#242526"/>
<path d="M330.323 137.528C327.566 137.528 325.483 136.721 324.075 135.108C322.696 133.465 322.007 131.251 322.007 128.464V111.26H315.143V106.156H328.475V128.728C328.475 129.403 328.563 129.975 328.739 130.444C328.944 130.884 329.208 131.251 329.531 131.544C329.883 131.808 330.264 131.999 330.675 132.116C331.115 132.233 331.57 132.292 332.039 132.292C332.538 132.292 333.051 132.248 333.579 132.16C334.136 132.043 334.752 131.852 335.427 131.588L336.879 136.34C336.292 136.516 335.75 136.677 335.251 136.824C334.752 136.971 334.254 137.088 333.755 137.176C333.256 137.293 332.728 137.381 332.171 137.44C331.614 137.499 330.998 137.528 330.323 137.528Z" fill="#242526"/>
<path d="M352.65 137.528C350.684 137.528 348.763 137.205 346.886 136.56C345.008 135.915 343.366 135.123 341.958 134.184L344.73 130.136C346.079 130.987 347.487 131.632 348.954 132.072C350.42 132.512 351.946 132.732 353.53 132.732C354.732 132.732 355.612 132.556 356.17 132.204C356.727 131.852 357.006 131.412 357.006 130.884C357.006 130.591 356.918 130.327 356.742 130.092C356.595 129.857 356.316 129.652 355.906 129.476C355.524 129.271 354.982 129.08 354.278 128.904C353.574 128.728 352.694 128.523 351.638 128.288C348.675 127.643 346.548 126.777 345.258 125.692C343.967 124.577 343.322 123.169 343.322 121.468C343.322 120.471 343.556 119.547 344.026 118.696C344.495 117.845 345.155 117.127 346.006 116.54C346.886 115.953 347.942 115.499 349.174 115.176C350.406 114.824 351.799 114.648 353.354 114.648C355.319 114.648 357.094 114.971 358.678 115.616C360.291 116.232 361.67 116.907 362.814 117.64L359.91 121.512C358.795 120.837 357.636 120.324 356.434 119.972C355.231 119.62 354.014 119.444 352.782 119.444C351.755 119.444 350.992 119.605 350.494 119.928C349.995 120.251 349.746 120.661 349.746 121.16C349.746 121.776 350.127 122.216 350.89 122.48C351.652 122.744 352.958 123.081 354.806 123.492C356.478 123.873 357.871 124.284 358.986 124.724C360.1 125.164 360.98 125.663 361.626 126.22C362.271 126.777 362.726 127.408 362.99 128.112C363.254 128.816 363.386 129.608 363.386 130.488C363.386 131.485 363.151 132.409 362.682 133.26C362.212 134.111 361.523 134.859 360.614 135.504C359.734 136.12 358.619 136.619 357.27 137C355.95 137.352 354.41 137.528 352.65 137.528Z" fill="#242526"/>
<path d="M406.015 137.528C404.05 137.528 402.129 137.205 400.251 136.56C398.374 135.915 396.731 135.123 395.323 134.184L398.095 130.136C399.445 130.987 400.853 131.632 402.319 132.072C403.786 132.512 405.311 132.732 406.895 132.732C408.098 132.732 408.978 132.556 409.535 132.204C410.093 131.852 410.371 131.412 410.371 130.884C410.371 130.591 410.283 130.327 410.107 130.092C409.961 129.857 409.682 129.652 409.271 129.476C408.89 129.271 408.347 129.08 407.643 128.904C406.939 128.728 406.059 128.523 405.003 128.288C402.041 127.643 399.914 126.777 398.623 125.692C397.333 124.577 396.687 123.169 396.687 121.468C396.687 120.471 396.922 119.547 397.391 118.696C397.861 117.845 398.521 117.127 399.371 116.54C400.251 115.953 401.307 115.499 402.539 115.176C403.771 114.824 405.165 114.648 406.719 114.648C408.685 114.648 410.459 114.971 412.043 115.616C413.657 116.232 415.035 116.907 416.179 117.64L413.275 121.512C412.161 120.837 411.002 120.324 409.799 119.972C408.597 119.62 407.379 119.444 406.147 119.444C405.121 119.444 404.358 119.605 403.859 119.928C403.361 120.251 403.111 120.661 403.111 121.16C403.111 121.776 403.493 122.216 404.255 122.48C405.018 122.744 406.323 123.081 408.171 123.492C409.843 123.873 411.237 124.284 412.351 124.724C413.466 125.164 414.346 125.663 414.991 126.22C415.637 126.777 416.091 127.408 416.355 128.112C416.619 128.816 416.751 129.608 416.751 130.488C416.751 131.485 416.517 132.409 416.047 133.26C415.578 134.111 414.889 134.859 413.979 135.504C413.099 136.12 411.985 136.619 410.635 137C409.315 137.352 407.775 137.528 406.015 137.528Z" fill="#242526"/>
<path d="M434.194 137.528C432.493 137.528 430.894 137.279 429.398 136.78C427.932 136.252 426.656 135.504 425.57 134.536C424.485 133.568 423.634 132.38 423.018 130.972C422.402 129.535 422.094 127.907 422.094 126.088C422.094 124.299 422.402 122.7 423.018 121.292C423.664 119.855 424.514 118.652 425.57 117.684C426.626 116.687 427.829 115.939 429.178 115.44C430.557 114.912 431.98 114.648 433.446 114.648C435.118 114.648 436.6 114.912 437.89 115.44C439.181 115.968 440.252 116.701 441.102 117.64C441.982 118.579 442.642 119.693 443.082 120.984C443.522 122.245 443.742 123.624 443.742 125.12C443.742 125.707 443.698 126.279 443.61 126.836C443.552 127.364 443.493 127.76 443.434 128.024H428.562C428.885 129.608 429.604 130.767 430.718 131.5C431.833 132.233 433.285 132.6 435.074 132.6C436.072 132.6 437.01 132.468 437.89 132.204C438.8 131.94 439.738 131.559 440.706 131.06L442.862 134.976C441.601 135.768 440.208 136.399 438.682 136.868C437.157 137.308 435.661 137.528 434.194 137.528ZM433.666 119.576C432.376 119.576 431.29 119.913 430.41 120.588C429.56 121.263 428.973 122.289 428.65 123.668H437.978C437.656 120.94 436.218 119.576 433.666 119.576Z" fill="#242526"/>
<path d="M456.213 137.528C455.098 137.528 454.101 137.352 453.221 137C452.341 136.677 451.593 136.223 450.977 135.636C450.361 135.02 449.877 134.316 449.525 133.524C449.202 132.732 449.041 131.867 449.041 130.928C449.041 129.696 449.305 128.625 449.833 127.716C450.361 126.777 451.197 125.985 452.341 125.34C453.514 124.695 455.01 124.181 456.829 123.8C458.648 123.389 460.848 123.111 463.429 122.964C463.312 121.967 462.872 121.189 462.109 120.632C461.376 120.075 460.261 119.796 458.765 119.796C457.709 119.796 456.638 119.987 455.553 120.368C454.497 120.72 453.353 121.204 452.121 121.82L449.833 117.596C451.329 116.745 452.928 116.041 454.629 115.484C456.36 114.927 458.164 114.648 460.041 114.648C463.092 114.648 465.497 115.455 467.257 117.068C469.017 118.681 469.897 121.16 469.897 124.504V137H464.617L464.133 134.536H463.957C462.842 135.387 461.625 136.105 460.305 136.692C458.985 137.249 457.621 137.528 456.213 137.528ZM458.281 132.512C459.249 132.512 460.158 132.321 461.009 131.94C461.86 131.529 462.666 131.031 463.429 130.444V126.836C461.816 126.924 460.481 127.071 459.425 127.276C458.369 127.481 457.533 127.745 456.917 128.068C456.301 128.361 455.861 128.713 455.597 129.124C455.362 129.535 455.245 129.975 455.245 130.444C455.245 131.148 455.509 131.676 456.037 132.028C456.594 132.351 457.342 132.512 458.281 132.512Z" fill="#242526"/>
<path d="M486.064 137.528C484.099 137.528 482.177 137.205 480.3 136.56C478.423 135.915 476.78 135.123 475.372 134.184L478.144 130.136C479.493 130.987 480.901 131.632 482.368 132.072C483.835 132.512 485.36 132.732 486.944 132.732C488.147 132.732 489.027 132.556 489.584 132.204C490.141 131.852 490.42 131.412 490.42 130.884C490.42 130.591 490.332 130.327 490.156 130.092C490.009 129.857 489.731 129.652 489.32 129.476C488.939 129.271 488.396 129.08 487.692 128.904C486.988 128.728 486.108 128.523 485.052 128.288C482.089 127.643 479.963 126.777 478.672 125.692C477.381 124.577 476.736 123.169 476.736 121.468C476.736 120.471 476.971 119.547 477.44 118.696C477.909 117.845 478.569 117.127 479.42 116.54C480.3 115.953 481.356 115.499 482.588 115.176C483.82 114.824 485.213 114.648 486.768 114.648C488.733 114.648 490.508 114.971 492.092 115.616C493.705 116.232 495.084 116.907 496.228 117.64L493.324 121.512C492.209 120.837 491.051 120.324 489.848 119.972C488.645 119.62 487.428 119.444 486.196 119.444C485.169 119.444 484.407 119.605 483.908 119.928C483.409 120.251 483.16 120.661 483.16 121.16C483.16 121.776 483.541 122.216 484.304 122.48C485.067 122.744 486.372 123.081 488.22 123.492C489.892 123.873 491.285 124.284 492.4 124.724C493.515 125.164 494.395 125.663 495.04 126.22C495.685 126.777 496.14 127.408 496.404 128.112C496.668 128.816 496.8 129.608 496.8 130.488C496.8 131.485 496.565 132.409 496.096 133.26C495.627 134.111 494.937 134.859 494.028 135.504C493.148 136.12 492.033 136.619 490.684 137C489.364 137.352 487.824 137.528 486.064 137.528Z" fill="#242526"/>
<path d="M502.891 137V106.156H509.359V113.724L509.007 117.904H509.139C509.96 117.053 510.957 116.305 512.131 115.66C513.304 114.985 514.727 114.648 516.399 114.648C518.863 114.648 520.652 115.44 521.767 117.024C522.911 118.608 523.483 120.779 523.483 123.536V137H517.015V124.372C517.015 122.905 516.78 121.835 516.311 121.16C515.841 120.485 515.005 120.148 513.803 120.148C512.923 120.148 512.145 120.339 511.471 120.72C510.825 121.101 510.121 121.673 509.359 122.436V137H502.891Z" fill="#242526"/>
<path d="M540.925 137.528C539.224 137.528 537.625 137.279 536.129 136.78C534.663 136.252 533.387 135.504 532.301 134.536C531.216 133.568 530.365 132.38 529.749 130.972C529.133 129.535 528.825 127.907 528.825 126.088C528.825 124.299 529.133 122.7 529.749 121.292C530.395 119.855 531.245 118.652 532.301 117.684C533.357 116.687 534.56 115.939 535.909 115.44C537.288 114.912 538.711 114.648 540.177 114.648C541.849 114.648 543.331 114.912 544.621 115.44C545.912 115.968 546.983 116.701 547.833 117.64C548.713 118.579 549.373 119.693 549.813 120.984C550.253 122.245 550.473 123.624 550.473 125.12C550.473 125.707 550.429 126.279 550.341 126.836C550.283 127.364 550.224 127.76 550.165 128.024H535.293C535.616 129.608 536.335 130.767 537.449 131.5C538.564 132.233 540.016 132.6 541.805 132.6C542.803 132.6 543.741 132.468 544.621 132.204C545.531 131.94 546.469 131.559 547.437 131.06L549.593 134.976C548.332 135.768 546.939 136.399 545.413 136.868C543.888 137.308 542.392 137.528 540.925 137.528ZM540.397 119.576C539.107 119.576 538.021 119.913 537.141 120.588C536.291 121.263 535.704 122.289 535.381 123.668H544.709C544.387 120.94 542.949 119.576 540.397 119.576Z" fill="#242526"/>
<path d="M570.468 137.528C567.711 137.528 565.628 136.721 564.22 135.108C562.842 133.465 562.152 131.251 562.152 128.464V111.26H555.288V106.156H568.62V128.728C568.62 129.403 568.708 129.975 568.884 130.444C569.09 130.884 569.354 131.251 569.676 131.544C570.028 131.808 570.41 131.999 570.82 132.116C571.26 132.233 571.715 132.292 572.184 132.292C572.683 132.292 573.196 132.248 573.724 132.16C574.282 132.043 574.898 131.852 575.572 131.588L577.024 136.34C576.438 136.516 575.895 136.677 575.396 136.824C574.898 136.971 574.399 137.088 573.9 137.176C573.402 137.293 572.874 137.381 572.316 137.44C571.759 137.499 571.143 137.528 570.468 137.528Z" fill="#242526"/>
<path d="M597.151 137.528C594.394 137.528 592.311 136.721 590.903 135.108C589.524 133.465 588.835 131.251 588.835 128.464V111.26H581.971V106.156H595.303V128.728C595.303 129.403 595.391 129.975 595.567 130.444C595.772 130.884 596.036 131.251 596.359 131.544C596.711 131.808 597.092 131.999 597.503 132.116C597.943 132.233 598.398 132.292 598.867 132.292C599.366 132.292 599.879 132.248 600.407 132.16C600.964 132.043 601.58 131.852 602.255 131.588L603.707 136.34C603.12 136.516 602.578 136.677 602.079 136.824C601.58 136.971 601.082 137.088 600.583 137.176C600.084 137.293 599.556 137.381 598.999 137.44C598.442 137.499 597.826 137.528 597.151 137.528Z" fill="#242526"/>
<path d="M619.478 137.528C617.513 137.528 615.591 137.205 613.714 136.56C611.837 135.915 610.194 135.123 608.786 134.184L611.558 130.136C612.907 130.987 614.315 131.632 615.782 132.072C617.249 132.512 618.774 132.732 620.358 132.732C621.561 132.732 622.441 132.556 622.998 132.204C623.555 131.852 623.834 131.412 623.834 130.884C623.834 130.591 623.746 130.327 623.57 130.092C623.423 129.857 623.145 129.652 622.734 129.476C622.353 129.271 621.81 129.08 621.106 128.904C620.402 128.728 619.522 128.523 618.466 128.288C615.503 127.643 613.377 126.777 612.086 125.692C610.795 124.577 610.15 123.169 610.15 121.468C610.15 120.471 610.385 119.547 610.854 118.696C611.323 117.845 611.983 117.127 612.834 116.54C613.714 115.953 614.77 115.499 616.002 115.176C617.234 114.824 618.627 114.648 620.182 114.648C622.147 114.648 623.922 114.971 625.506 115.616C627.119 116.232 628.498 116.907 629.642 117.64L626.738 121.512C625.623 120.837 624.465 120.324 623.262 119.972C622.059 119.62 620.842 119.444 619.61 119.444C618.583 119.444 617.821 119.605 617.322 119.928C616.823 120.251 616.574 120.661 616.574 121.16C616.574 121.776 616.955 122.216 617.718 122.48C618.481 122.744 619.786 123.081 621.634 123.492C623.306 123.873 624.699 124.284 625.814 124.724C626.929 125.164 627.809 125.663 628.454 126.22C629.099 126.777 629.554 127.408 629.818 128.112C630.082 128.816 630.214 129.608 630.214 130.488C630.214 131.485 629.979 132.409 629.51 133.26C629.041 134.111 628.351 134.859 627.442 135.504C626.562 136.12 625.447 136.619 624.098 137C622.778 137.352 621.238 137.528 619.478 137.528Z" fill="#242526"/>
<rect x="226" y="189" width="6" height="276" transform="rotate(-90 226 189)" fill="#00C9DB"/>
<path d="M496 172L496 200L519 185.373L496 172Z" fill="#00C9DB"/>
<path d="M312.352 219H308.836V201.938H312.352V219Z" fill="#272EB5"/>
<path d="M318.816 206.32L318.921 207.785C319.827 206.652 321.042 206.086 322.566 206.086C323.909 206.086 324.909 206.48 325.566 207.27C326.222 208.059 326.558 209.238 326.573 210.809V219H323.187V210.891C323.187 210.172 323.03 209.652 322.718 209.332C322.405 209.004 321.886 208.84 321.159 208.84C320.206 208.84 319.491 209.246 319.015 210.059V219H315.628V206.32H318.816Z" fill="#272EB5"/>
<path d="M333.026 219H329.627V201H333.026V219Z" fill="#272EB5"/>
<path d="M339.701 219H336.302V206.32H339.701V219ZM336.103 203.039C336.103 202.531 336.271 202.113 336.607 201.785C336.951 201.457 337.416 201.293 338.002 201.293C338.58 201.293 339.041 201.457 339.384 201.785C339.728 202.113 339.9 202.531 339.9 203.039C339.9 203.555 339.724 203.977 339.373 204.305C339.029 204.633 338.572 204.797 338.002 204.797C337.431 204.797 336.97 204.633 336.619 204.305C336.275 203.977 336.103 203.555 336.103 203.039Z" fill="#272EB5"/>
<path d="M345.919 206.32L346.024 207.785C346.93 206.652 348.145 206.086 349.669 206.086C351.012 206.086 352.012 206.48 352.669 207.27C353.325 208.059 353.661 209.238 353.677 210.809V219H350.29V210.891C350.29 210.172 350.134 209.652 349.821 209.332C349.509 209.004 348.989 208.84 348.262 208.84C347.309 208.84 346.595 209.246 346.118 210.059V219H342.731V206.32H345.919Z" fill="#272EB5"/>
<path d="M362.391 219.234C360.531 219.234 359.016 218.664 357.844 217.523C356.68 216.383 356.098 214.863 356.098 212.965V212.637C356.098 211.363 356.344 210.227 356.836 209.227C357.328 208.219 358.023 207.445 358.922 206.906C359.828 206.359 360.859 206.086 362.016 206.086C363.75 206.086 365.113 206.633 366.105 207.727C367.105 208.82 367.605 210.371 367.605 212.379V213.762H359.531C359.641 214.59 359.969 215.254 360.516 215.754C361.07 216.254 361.77 216.504 362.613 216.504C363.918 216.504 364.938 216.031 365.672 215.086L367.336 216.949C366.828 217.668 366.141 218.23 365.273 218.637C364.406 219.035 363.445 219.234 362.391 219.234ZM362.004 208.828C361.332 208.828 360.785 209.055 360.363 209.508C359.949 209.961 359.684 210.609 359.566 211.453H364.277V211.184C364.262 210.434 364.059 209.855 363.668 209.449C363.277 209.035 362.723 208.828 362.004 208.828Z" fill="#272EB5"/>
<path d="M377.041 219V208.805H375.155V206.32H377.041V205.242C377.041 203.82 377.448 202.719 378.26 201.938C379.08 201.148 380.225 200.754 381.694 200.754C382.163 200.754 382.737 200.832 383.416 200.988L383.381 203.613C383.1 203.543 382.756 203.508 382.35 203.508C381.077 203.508 380.44 204.105 380.44 205.301V206.32H382.959V208.805H380.44V219H377.041Z" fill="#272EB5"/>
<path d="M388.591 219H385.193V201H388.591V219Z" fill="#272EB5"/>
<path d="M391.165 212.543C391.165 211.285 391.407 210.164 391.891 209.18C392.376 208.195 393.071 207.434 393.977 206.895C394.891 206.355 395.95 206.086 397.153 206.086C398.864 206.086 400.259 206.609 401.337 207.656C402.423 208.703 403.028 210.125 403.153 211.922L403.177 212.789C403.177 214.734 402.634 216.297 401.548 217.477C400.462 218.648 399.005 219.234 397.177 219.234C395.348 219.234 393.887 218.648 392.794 217.477C391.708 216.305 391.165 214.711 391.165 212.695V212.543ZM394.552 212.789C394.552 213.992 394.778 214.914 395.231 215.555C395.684 216.188 396.333 216.504 397.177 216.504C397.997 216.504 398.637 216.191 399.098 215.566C399.559 214.934 399.79 213.926 399.79 212.543C399.79 211.363 399.559 210.449 399.098 209.801C398.637 209.152 397.989 208.828 397.153 208.828C396.325 208.828 395.684 209.152 395.231 209.801C394.778 210.441 394.552 211.438 394.552 212.789Z" fill="#272EB5"/>
<path d="M416.59 214.395L418.254 206.32H421.523L418.289 219H415.453L413.051 211.02L410.648 219H407.824L404.59 206.32H407.859L409.512 214.383L411.832 206.32H414.281L416.59 214.395Z" fill="#272EB5"/>
</svg>
