<svg width="869" height="220" viewBox="0 0 869 220" fill="none" xmlns="http://www.w3.org/2000/svg">
<rect width="869" height="220" fill="white"/>
<line x1="42" y1="134" x2="758" y2="134" stroke="#272EB5" stroke-width="2"/>
<line x1="42" y1="90.0001" x2="758" y2="90" stroke="#C4C4C4" stroke-width="2"/>
<line x1="42" y1="69.0001" x2="758" y2="69" stroke="#C4C4C4" stroke-width="2"/>
<line x1="42" y1="152" x2="758" y2="152" stroke="#C4C4C4" stroke-width="2"/>
<path d="M65.707 133.354C62.2344 133.354 58.8984 132.67 55.6992 131.303C52.5273 129.936 49.7109 127.967 47.25 125.396C44.8164 122.826 42.875 119.695 41.4258 116.004C39.9766 112.285 39.252 108.102 39.252 103.453C39.252 98.8047 39.9629 94.5938 41.3848 90.8203C42.8066 87.0195 44.7754 83.752 47.291 81.0176C49.7793 78.3105 52.7188 76.2188 56.1094 74.7422C59.5 73.2656 63.123 72.5273 66.9785 72.5273C69.8496 72.5273 72.4473 72.8828 74.7715 73.5938C77.0957 74.3047 79.3105 75.3027 81.416 76.5879L83.0977 73.7988H86.3789L86.748 94.5527H83.3848C82.9473 92.5293 82.291 90.3418 81.416 87.9902C80.541 85.6113 79.5156 83.6016 78.3398 81.9609C77.0273 80.1016 75.4688 78.6523 73.6641 77.6133C71.8594 76.5469 69.7949 76.0137 67.4707 76.0137C64.8184 76.0137 62.3438 76.6016 60.0469 77.7773C57.7773 78.9531 55.8086 80.6895 54.1406 82.9863C52.5547 85.2012 51.3105 88.0176 50.4082 91.4355C49.5059 94.8535 49.0547 98.668 49.0547 102.879C49.0547 106.598 49.5195 110.016 50.4492 113.133C51.4062 116.223 52.7598 118.943 54.5098 121.295C56.2598 123.619 58.3242 125.438 60.7031 126.75C63.1094 128.062 65.7891 128.719 68.7422 128.719C70.957 128.719 72.9941 128.377 74.8535 127.693C76.7129 126.982 78.3262 126.053 79.6934 124.904C81.0605 123.701 82.2637 122.334 83.3027 120.803C84.3418 119.271 85.1895 117.604 85.8457 115.799L88.9219 117.275C86.5703 123.045 83.4531 127.174 79.5703 129.662C75.6875 132.123 71.0664 133.354 65.707 133.354Z" fill="#3C4043"/>
<path d="M130.566 105.299C131.796 106.666 132.698 108.17 133.273 109.811C133.874 111.424 134.175 113.311 134.175 115.471C134.175 120.611 132.275 124.85 128.474 128.186C124.673 131.521 119.956 133.189 114.323 133.189C111.726 133.189 109.128 132.793 106.53 132C103.933 131.18 101.691 130.195 99.8039 129.047L98.0402 132.041H94.759L94.1848 112.107H97.507C98.1906 114.568 98.9836 116.797 99.8859 118.793C100.816 120.762 102.032 122.607 103.536 124.33C104.958 125.943 106.613 127.229 108.499 128.186C110.413 129.143 112.628 129.621 115.144 129.621C117.03 129.621 118.671 129.375 120.066 128.883C121.488 128.391 122.636 127.693 123.511 126.791C124.386 125.889 125.029 124.836 125.439 123.633C125.876 122.402 126.095 120.994 126.095 119.408C126.095 117.084 125.439 114.924 124.126 112.928C122.814 110.904 120.859 109.373 118.261 108.334C116.484 107.623 114.446 106.844 112.15 105.996C109.853 105.121 107.87 104.301 106.202 103.535C102.921 102.059 100.364 100.131 98.5324 97.752C96.7277 95.3457 95.8254 92.2148 95.8254 88.3594C95.8254 86.1445 96.2766 84.0801 97.1789 82.166C98.0813 80.252 99.3664 78.543 101.034 77.0391C102.62 75.6172 104.493 74.5098 106.654 73.7168C108.814 72.8965 111.07 72.4863 113.421 72.4863C116.101 72.4863 118.493 72.8965 120.599 73.7168C122.732 74.5371 124.673 75.4941 126.423 76.5879L128.105 73.7988H131.386L131.714 93.1172H128.392C127.79 90.9023 127.107 88.7832 126.341 86.7598C125.603 84.7363 124.632 82.9043 123.429 81.2637C122.253 79.6777 120.818 78.4199 119.122 77.4902C117.427 76.5332 115.349 76.0547 112.888 76.0547C110.29 76.0547 108.075 76.8887 106.243 78.5566C104.411 80.2246 103.495 82.2617 103.495 84.668C103.495 87.1836 104.083 89.2754 105.259 90.9434C106.435 92.584 108.144 93.9375 110.386 95.0039C112.382 95.9609 114.337 96.7949 116.251 97.5059C118.193 98.1895 120.066 98.9277 121.87 99.7207C123.511 100.432 125.083 101.238 126.587 102.141C128.118 103.043 129.445 104.096 130.566 105.299Z" fill="#3C4043"/>
<path d="M178.034 105.299C179.264 106.666 180.166 108.17 180.741 109.811C181.342 111.424 181.643 113.311 181.643 115.471C181.643 120.611 179.743 124.85 175.942 128.186C172.141 131.521 167.424 133.189 161.791 133.189C159.194 133.189 156.596 132.793 153.998 132C151.401 131.18 149.159 130.195 147.272 129.047L145.508 132.041H142.227L141.653 112.107H144.975C145.659 114.568 146.452 116.797 147.354 118.793C148.284 120.762 149.5 122.607 151.004 124.33C152.426 125.943 154.08 127.229 155.967 128.186C157.881 129.143 160.096 129.621 162.612 129.621C164.498 129.621 166.139 129.375 167.534 128.883C168.955 128.391 170.104 127.693 170.979 126.791C171.854 125.889 172.496 124.836 172.907 123.633C173.344 122.402 173.563 120.994 173.563 119.408C173.563 117.084 172.907 114.924 171.594 112.928C170.282 110.904 168.327 109.373 165.729 108.334C163.952 107.623 161.914 106.844 159.618 105.996C157.321 105.121 155.338 104.301 153.67 103.535C150.389 102.059 147.832 100.131 146 97.752C144.196 95.3457 143.293 92.2148 143.293 88.3594C143.293 86.1445 143.745 84.0801 144.647 82.166C145.549 80.252 146.834 78.543 148.502 77.0391C150.088 75.6172 151.961 74.5098 154.121 73.7168C156.282 72.8965 158.538 72.4863 160.889 72.4863C163.569 72.4863 165.961 72.8965 168.067 73.7168C170.2 74.5371 172.141 75.4941 173.891 76.5879L175.573 73.7988H178.854L179.182 93.1172H175.86C175.258 90.9023 174.575 88.7832 173.809 86.7598C173.071 84.7363 172.1 82.9043 170.897 81.2637C169.721 79.6777 168.286 78.4199 166.59 77.4902C164.895 76.5332 162.817 76.0547 160.356 76.0547C157.758 76.0547 155.543 76.8887 153.711 78.5566C151.879 80.2246 150.963 82.2617 150.963 84.668C150.963 87.1836 151.551 89.2754 152.727 90.9434C153.903 92.584 155.612 93.9375 157.854 95.0039C159.85 95.9609 161.805 96.7949 163.719 97.5059C165.661 98.1895 167.534 98.9277 169.338 99.7207C170.979 100.432 172.551 101.238 174.055 102.141C175.586 103.043 176.913 104.096 178.034 105.299Z" fill="#3C4043"/>
<path d="M228.427 132H208.862V129.293C209.491 129.238 210.134 129.184 210.79 129.129C211.473 129.074 212.061 128.965 212.554 128.801C213.319 128.555 213.88 128.131 214.235 127.529C214.618 126.9 214.809 126.094 214.809 125.109V100.131C214.809 99.2559 214.604 98.4629 214.194 97.752C213.811 97.0137 213.264 96.3984 212.554 95.9062C212.034 95.5781 211.282 95.3047 210.298 95.0859C209.313 94.8398 208.411 94.6895 207.591 94.6348V91.9688L221.864 91.0664L222.438 91.6406V124.617C222.438 125.574 222.616 126.367 222.971 126.996C223.354 127.625 223.942 128.09 224.735 128.391C225.337 128.637 225.925 128.842 226.499 129.006C227.073 129.143 227.716 129.238 228.427 129.293V132ZM223.259 75.1113C223.259 76.6699 222.739 78.0371 221.7 79.2129C220.688 80.3613 219.43 80.9355 217.927 80.9355C216.532 80.9355 215.315 80.3887 214.276 79.2949C213.264 78.1738 212.759 76.9023 212.759 75.4805C212.759 73.9766 213.264 72.6641 214.276 71.543C215.315 70.4219 216.532 69.8613 217.927 69.8613C219.485 69.8613 220.757 70.3945 221.741 71.4609C222.753 72.5 223.259 73.7168 223.259 75.1113Z" fill="#3C4043"/>
<path d="M260.391 112.189C261.512 113.174 262.373 114.309 262.975 115.594C263.576 116.879 263.877 118.451 263.877 120.311C263.877 124.057 262.469 127.119 259.652 129.498C256.863 131.877 253.24 133.066 248.783 133.066C246.432 133.066 244.258 132.643 242.262 131.795C240.293 130.947 238.885 130.168 238.037 129.457L237.217 132.123H234.141L233.73 118.055H236.561C236.779 119.121 237.244 120.365 237.955 121.787C238.666 123.209 239.527 124.494 240.539 125.643C241.605 126.846 242.877 127.857 244.354 128.678C245.857 129.498 247.539 129.908 249.398 129.908C252.023 129.908 254.047 129.32 255.469 128.145C256.891 126.941 257.602 125.232 257.602 123.018C257.602 121.869 257.369 120.885 256.904 120.064C256.467 119.217 255.811 118.479 254.936 117.85C254.033 117.221 252.926 116.66 251.613 116.168C250.301 115.648 248.838 115.143 247.225 114.65C245.939 114.268 244.504 113.748 242.918 113.092C241.359 112.408 240.02 111.615 238.898 110.713C237.695 109.756 236.711 108.58 235.945 107.186C235.18 105.791 234.797 104.15 234.797 102.264C234.797 98.9551 236.027 96.1523 238.488 93.8555C240.949 91.5586 244.244 90.4102 248.373 90.4102C249.959 90.4102 251.572 90.6152 253.213 91.0254C254.881 91.4355 256.234 91.9277 257.273 92.502L258.217 90.3691H261.17L261.785 103.371H258.955C258.381 100.473 257.137 98.1211 255.223 96.3164C253.336 94.4844 251.025 93.5684 248.291 93.5684C246.049 93.5684 244.285 94.1289 243 95.25C241.715 96.3711 241.072 97.7246 241.072 99.3105C241.072 100.541 241.277 101.566 241.688 102.387C242.125 103.207 242.768 103.904 243.615 104.479C244.436 105.025 245.461 105.545 246.691 106.037C247.949 106.502 249.494 107.035 251.326 107.637C253.131 108.211 254.826 108.881 256.412 109.646C258.025 110.412 259.352 111.26 260.391 112.189Z" fill="#3C4043"/>
<path d="M321.12 132H293.475V129.088C294.295 129.033 295.567 128.924 297.289 128.76C299.039 128.568 300.243 128.377 300.899 128.186C301.746 127.912 302.389 127.475 302.827 126.873C303.291 126.244 303.524 125.314 303.524 124.084V95.291H293.311V91.8457H295.567C298.52 91.8457 301.159 91.2988 303.483 90.2051C305.834 89.1113 307.516 87.9355 308.528 86.6777H311.932C311.85 88.4551 311.768 90.5332 311.686 92.9121C311.604 95.291 311.563 97.4238 311.563 99.3105V123.633C311.563 124.59 311.768 125.451 312.178 126.217C312.616 126.955 313.231 127.502 314.024 127.857C314.735 128.158 315.897 128.432 317.51 128.678C319.123 128.924 320.327 129.061 321.12 129.088V132Z" fill="#3C4043"/>
<path d="M366.455 93.6914C368.205 95.7969 369.504 98.2715 370.351 101.115C371.226 103.932 371.664 106.885 371.664 109.975C371.664 113.693 371.13 117.029 370.064 119.982C368.998 122.908 367.535 125.342 365.675 127.283C363.761 129.279 361.492 130.783 358.867 131.795C356.242 132.807 353.316 133.312 350.089 133.312C346.562 133.312 343.418 132.725 340.656 131.549C337.894 130.373 335.652 128.76 333.929 126.709C332.125 124.576 330.771 122.088 329.869 119.244C328.994 116.373 328.556 113.283 328.556 109.975C328.556 106.721 328.98 103.727 329.828 100.992C330.703 98.2578 332.056 95.7832 333.888 93.5684C335.638 91.4355 337.894 89.7539 340.656 88.5234C343.418 87.293 346.576 86.6777 350.13 86.6777C353.877 86.6777 357.089 87.3066 359.769 88.5645C362.449 89.8223 364.677 91.5312 366.455 93.6914ZM362.599 109.975C362.599 103.467 361.478 98.4219 359.236 94.8398C357.021 91.2578 354 89.4668 350.171 89.4668C346.289 89.4668 343.226 91.2578 340.984 94.8398C338.742 98.4219 337.621 103.467 337.621 109.975C337.621 116.154 338.687 121.131 340.82 124.904C342.98 128.65 346.07 130.523 350.089 130.523C354.109 130.523 357.199 128.65 359.359 124.904C361.519 121.131 362.599 116.154 362.599 109.975Z" fill="#3C4043"/>
<path d="M418.147 132H399.608V129.293C400.839 129.156 401.878 129.02 402.725 128.883C403.6 128.746 404.038 128.391 404.038 127.816C404.038 127.57 403.901 127.188 403.628 126.668C403.354 126.148 403.081 125.67 402.807 125.232C402.124 124.166 401.18 122.744 399.977 120.967C398.802 119.162 397.352 117.016 395.63 114.527C394.208 116.305 392.895 118.041 391.692 119.736C390.489 121.404 389.231 123.182 387.919 125.068C387.727 125.342 387.522 125.684 387.304 126.094C387.112 126.504 387.016 126.832 387.016 127.078C387.016 127.68 387.399 128.186 388.165 128.596C388.958 128.979 390.134 129.238 391.692 129.375V132H376.721V129.457C378.581 128.91 380.071 128.254 381.192 127.488C382.341 126.695 383.393 125.725 384.35 124.576C385.198 123.482 386.374 121.979 387.878 120.064C389.409 118.15 391.378 115.553 393.784 112.271C392.389 110.275 390.68 107.842 388.657 104.971C386.661 102.072 385.007 99.666 383.694 97.752C382.983 96.7129 382.163 95.8789 381.233 95.25C380.331 94.5938 379.046 94.2656 377.378 94.2656V91.5586H394.973V94.2656C394.098 94.2656 393.237 94.3203 392.389 94.4297C391.542 94.5391 391.118 94.7852 391.118 95.168C391.118 95.4141 391.2 95.6875 391.364 95.9883C391.528 96.2891 391.733 96.6172 391.979 96.9727C392.581 97.9023 393.511 99.3379 394.768 101.279C396.054 103.221 397.434 105.271 398.911 107.432C399.868 106.119 400.975 104.588 402.233 102.838C403.518 101.088 404.694 99.4199 405.761 97.834C405.87 97.6426 405.979 97.4102 406.089 97.1367C406.198 96.8359 406.253 96.5488 406.253 96.2754C406.253 95.7012 405.774 95.25 404.817 94.9219C403.888 94.5664 402.999 94.3203 402.151 94.1836V91.5586H417.081V94.1016C414.975 94.6484 413.335 95.3047 412.159 96.0703C410.983 96.8086 409.985 97.6699 409.165 98.6543C408.263 99.7754 407.182 101.156 405.925 102.797C404.694 104.438 402.958 106.734 400.716 109.688C403.204 113.188 405.227 116.059 406.786 118.301C408.345 120.543 409.917 122.854 411.503 125.232C412.296 126.436 413.171 127.393 414.128 128.104C415.112 128.787 416.452 129.184 418.147 129.293V132Z" fill="#3C4043"/>
<path d="M477.112 127.816C478.206 128.855 479.068 130.031 479.696 131.344C480.325 132.656 480.64 134.283 480.64 136.225C480.64 138.166 480.216 139.984 479.368 141.68C478.521 143.402 477.236 144.893 475.513 146.15C473.681 147.436 471.493 148.434 468.95 149.145C466.407 149.855 463.263 150.211 459.517 150.211C453.392 150.211 448.812 149.309 445.777 147.504C442.741 145.727 441.224 143.115 441.224 139.67C441.224 136.881 442.318 134.68 444.505 133.066C446.693 131.453 449.482 130.578 452.872 130.441V129.867C452.052 129.621 451.204 129.32 450.329 128.965C449.454 128.582 448.702 128.145 448.073 127.652C447.362 127.078 446.788 126.408 446.351 125.643C445.913 124.85 445.695 123.879 445.695 122.73C445.695 121.281 446.2 119.955 447.212 118.752C448.251 117.521 449.81 116.469 451.888 115.594V114.979C449.263 113.748 447.226 112.176 445.777 110.262C444.327 108.32 443.603 106.078 443.603 103.535C443.603 99.707 445.025 96.5625 447.868 94.1016C450.739 91.6406 454.404 90.4102 458.861 90.4102C460.091 90.4102 461.308 90.5332 462.511 90.7793C463.741 91.0254 464.986 91.3398 466.243 91.7227H480.353V95.6602H470.837V95.9062C471.849 97.082 472.601 98.3809 473.093 99.8027C473.585 101.225 473.831 102.619 473.831 103.986C473.831 107.541 472.382 110.549 469.484 113.01C466.612 115.471 463.263 116.701 459.435 116.701H454.472C453.843 116.92 453.187 117.316 452.503 117.891C451.82 118.465 451.478 119.244 451.478 120.229C451.478 121.24 451.765 122.02 452.339 122.566C452.913 123.086 453.611 123.441 454.431 123.633C455.224 123.852 456.14 123.988 457.179 124.043C458.245 124.098 459.339 124.139 460.46 124.166C461.663 124.193 463.304 124.275 465.382 124.412C467.487 124.549 468.978 124.631 469.853 124.658C471.111 124.713 472.368 125.014 473.626 125.561C474.911 126.107 476.073 126.859 477.112 127.816ZM466.038 103.822C466.038 100.623 465.382 98.0801 464.07 96.1934C462.784 94.2793 460.966 93.3223 458.614 93.3223C457.329 93.3223 456.222 93.5957 455.292 94.1426C454.39 94.6621 453.652 95.4141 453.077 96.3984C452.53 97.3008 452.134 98.3945 451.888 99.6797C451.669 100.938 451.56 102.236 451.56 103.576C451.56 106.611 452.216 109.086 453.529 111C454.868 112.914 456.591 113.871 458.696 113.871C461.048 113.871 462.853 112.928 464.111 111.041C465.396 109.127 466.038 106.721 466.038 103.822ZM473.913 137.742C473.913 136.211 473.558 134.953 472.847 133.969C472.136 132.984 471.056 132.314 469.607 131.959C468.841 131.85 467.269 131.727 464.89 131.59C462.511 131.453 459.749 131.385 456.605 131.385C453.652 131.959 451.546 132.916 450.288 134.256C449.058 135.623 448.443 137.373 448.443 139.506C448.443 140.463 448.648 141.379 449.058 142.254C449.468 143.129 450.179 143.936 451.191 144.674C452.148 145.385 453.433 145.959 455.046 146.396C456.659 146.861 458.628 147.094 460.952 147.094C464.972 147.094 468.13 146.314 470.427 144.756C472.751 143.225 473.913 140.887 473.913 137.742Z" fill="#3C4043"/>
<path d="M516.541 96.7676C516.541 98.1621 516.2 99.4062 515.516 100.5C514.832 101.566 513.78 102.1 512.358 102.1C510.827 102.1 509.651 101.703 508.83 100.91C508.038 100.117 507.641 99.2422 507.641 98.2852C507.641 97.6836 507.682 97.1367 507.764 96.6445C507.873 96.1523 507.969 95.6602 508.051 95.168C506.766 95.168 505.262 95.6875 503.539 96.7266C501.817 97.7656 500.354 99.2422 499.151 101.156V124.699C499.151 125.656 499.329 126.436 499.684 127.037C500.067 127.639 500.655 128.09 501.448 128.391C502.131 128.664 503.006 128.869 504.073 129.006C505.166 129.143 506.11 129.238 506.903 129.293V132H485.575V129.293C486.204 129.238 486.846 129.184 487.502 129.129C488.186 129.074 488.774 128.965 489.266 128.801C490.032 128.555 490.592 128.131 490.948 127.529C491.33 126.9 491.522 126.094 491.522 125.109V100.131C491.522 99.2832 491.317 98.4492 490.907 97.6289C490.524 96.8086 489.977 96.1523 489.266 95.6602C488.746 95.332 488.131 95.0996 487.42 94.9629C486.709 94.7988 485.944 94.6895 485.123 94.6348V91.9688L498.577 91.0664L499.151 91.6406V97.3418H499.356C501.051 95.127 502.938 93.4453 505.016 92.2969C507.094 91.1484 508.995 90.5742 510.717 90.5742C512.44 90.5742 513.834 91.1348 514.901 92.2559C515.995 93.377 516.541 94.8809 516.541 96.7676Z" fill="#3C4043"/>
<path d="M556.257 122.484C554.562 125.711 552.293 128.281 549.449 130.195C546.605 132.109 543.338 133.066 539.646 133.066C536.392 133.066 533.535 132.492 531.074 131.344C528.64 130.195 526.63 128.637 525.045 126.668C523.459 124.699 522.269 122.402 521.476 119.777C520.711 117.152 520.328 114.377 520.328 111.451C520.328 108.826 520.738 106.256 521.558 103.74C522.406 101.197 523.636 98.9141 525.25 96.8906C526.808 94.9492 528.736 93.3906 531.033 92.2148C533.357 91.0117 535.955 90.4102 538.826 90.4102C541.779 90.4102 544.308 90.875 546.414 91.8047C548.519 92.7344 550.228 94.0059 551.541 95.6191C552.798 97.1504 553.728 98.9551 554.33 101.033C554.959 103.111 555.273 105.367 555.273 107.801V110.508H528.49C528.49 113.16 528.736 115.566 529.228 117.727C529.748 119.887 530.554 121.787 531.648 123.428C532.714 125.014 534.109 126.271 535.832 127.201C537.554 128.104 539.605 128.555 541.984 128.555C544.418 128.555 546.509 127.994 548.259 126.873C550.037 125.725 551.746 123.674 553.386 120.721L556.257 122.484ZM547.193 107.062C547.193 105.531 547.056 103.891 546.783 102.141C546.537 100.391 546.127 98.9277 545.552 97.752C544.923 96.4941 544.062 95.4688 542.968 94.6758C541.875 93.8828 540.466 93.4863 538.744 93.4863C535.873 93.4863 533.48 94.6895 531.566 97.0957C529.679 99.4746 528.654 102.797 528.49 107.062H547.193Z" fill="#3C4043"/>
<path d="M599.542 131.262C598.257 131.727 597.122 132.096 596.138 132.369C595.18 132.67 594.087 132.82 592.856 132.82C590.723 132.82 589.014 132.328 587.729 131.344C586.471 130.332 585.665 128.869 585.309 126.955H585.063C583.286 128.924 581.372 130.428 579.321 131.467C577.298 132.506 574.85 133.025 571.979 133.025C568.944 133.025 566.442 132.096 564.473 130.236C562.532 128.377 561.561 125.943 561.561 122.936C561.561 121.377 561.78 119.982 562.218 118.752C562.655 117.521 563.311 116.414 564.186 115.43C564.87 114.609 565.772 113.885 566.893 113.256C568.014 112.6 569.067 112.08 570.052 111.697C571.282 111.232 573.77 110.371 577.516 109.113C581.29 107.855 583.833 106.871 585.145 106.16V102.1C585.145 101.744 585.063 101.061 584.899 100.049C584.763 99.0371 584.448 98.0801 583.956 97.1777C583.409 96.166 582.63 95.291 581.618 94.5527C580.634 93.7871 579.225 93.4043 577.393 93.4043C576.136 93.4043 574.96 93.623 573.866 94.0605C572.8 94.4707 572.048 94.9082 571.61 95.373C571.61 95.9199 571.733 96.7266 571.979 97.793C572.253 98.8594 572.389 99.8438 572.389 100.746C572.389 101.703 571.952 102.578 571.077 103.371C570.229 104.164 569.04 104.561 567.509 104.561C566.141 104.561 565.13 104.082 564.473 103.125C563.845 102.141 563.53 101.047 563.53 99.8438C563.53 98.5859 563.968 97.3828 564.843 96.2344C565.745 95.0859 566.907 94.0605 568.329 93.1582C569.559 92.3926 571.05 91.75 572.8 91.2305C574.55 90.6836 576.259 90.4102 577.927 90.4102C580.223 90.4102 582.22 90.5742 583.915 90.9023C585.638 91.2031 587.196 91.873 588.591 92.9121C589.985 93.9238 591.038 95.3047 591.749 97.0547C592.487 98.7773 592.856 101.006 592.856 103.74C592.856 107.65 592.815 111.123 592.733 114.158C592.651 117.166 592.61 120.461 592.61 124.043C592.61 125.109 592.788 125.957 593.143 126.586C593.526 127.215 594.1 127.748 594.866 128.186C595.276 128.432 595.919 128.568 596.794 128.596C597.696 128.623 598.612 128.637 599.542 128.637V131.262ZM585.227 109.605C582.903 110.289 580.866 110.959 579.116 111.615C577.366 112.271 575.739 113.092 574.235 114.076C572.868 115.006 571.788 116.113 570.995 117.398C570.202 118.656 569.805 120.16 569.805 121.91C569.805 124.18 570.393 125.848 571.569 126.914C572.772 127.98 574.29 128.514 576.122 128.514C578.063 128.514 579.772 128.049 581.249 127.119C582.725 126.162 583.97 125.041 584.981 123.756L585.227 109.605Z" fill="#3C4043"/>
<path d="M628.84 130.236C627.062 130.975 625.381 131.59 623.795 132.082C622.209 132.602 620.268 132.861 617.971 132.861C614.58 132.861 612.188 132.014 610.793 130.318C609.426 128.596 608.742 126.176 608.742 123.059V95.6602H601.441V91.7227H608.906V79.1309H616.371V91.7227H627.979V95.6602H616.453V118.26C616.453 119.955 616.508 121.377 616.617 122.525C616.754 123.646 617.055 124.631 617.52 125.479C617.957 126.271 618.613 126.873 619.488 127.283C620.363 127.693 621.539 127.898 623.016 127.898C623.699 127.898 624.697 127.844 626.01 127.734C627.35 127.598 628.293 127.434 628.84 127.242V130.236Z" fill="#3C4043"/>
<line x1="327" y1="39" x2="327" y2="187" stroke="#00C9DB" stroke-width="2"/>
<line x1="373" y1="39" x2="373" y2="187" stroke="#00C9DB" stroke-width="2"/>
<path fill-rule="evenodd" clip-rule="evenodd" d="M654.5 91L651 97H654V105H655V97H658L654.5 91Z" fill="#5F6368"/>
<path fill-rule="evenodd" clip-rule="evenodd" d="M328 173.5L334 177L334 174L342 174L342 173L334 173L334 170L328 173.5Z" fill="#5F6368"/>
<path fill-rule="evenodd" clip-rule="evenodd" d="M654.5 132L658 126L655 126L655 118L654 118L654 126L651 126L654.5 132Z" fill="#5F6368"/>
<path fill-rule="evenodd" clip-rule="evenodd" d="M372 173.5L366 170L366 173L358 173L358 174L366 174L366 177L372 173.5Z" fill="#5F6368"/>
<path d="M660.896 109L663.486 105.472L661.092 102.196H662.366L663.444 103.694C663.565 103.881 663.691 104.072 663.822 104.268C663.962 104.464 664.102 104.655 664.242 104.842H664.298C664.429 104.655 664.559 104.459 664.69 104.254C664.821 104.049 664.947 103.853 665.068 103.666L666.09 102.196H667.308L664.886 105.57L667.49 109H666.23L665.04 107.432C664.9 107.236 664.751 107.031 664.592 106.816C664.443 106.601 664.293 106.396 664.144 106.2H664.088C663.948 106.405 663.808 106.611 663.668 106.816C663.528 107.012 663.388 107.217 663.248 107.432L662.128 109H660.896Z" fill="#3C4043"/>
<path d="M669.885 104.814V103.946H675.905V104.814H669.885Z" fill="#3C4043"/>
<path d="M678.691 109V99.032H679.839V101.748L679.769 103.358H679.811C680.166 102.975 680.544 102.658 680.945 102.406C681.356 102.154 681.827 102.028 682.359 102.028C683.171 102.028 683.764 102.261 684.137 102.728C684.52 103.185 684.711 103.867 684.711 104.772V109H683.563V104.926C683.563 104.282 683.442 103.806 683.199 103.498C682.956 103.181 682.555 103.022 681.995 103.022C681.79 103.022 681.598 103.05 681.421 103.106C681.253 103.153 681.085 103.227 680.917 103.33C680.749 103.433 680.576 103.563 680.399 103.722C680.222 103.871 680.035 104.049 679.839 104.254V109H678.691Z" fill="#3C4043"/>
<path d="M690.704 109.168C690.19 109.168 689.71 109.089 689.262 108.93C688.823 108.771 688.436 108.538 688.1 108.23C687.773 107.922 687.512 107.549 687.316 107.11C687.129 106.662 687.036 106.153 687.036 105.584C687.036 105.033 687.129 104.539 687.316 104.1C687.512 103.661 687.768 103.288 688.086 102.98C688.412 102.672 688.781 102.439 689.192 102.28C689.612 102.112 690.05 102.028 690.508 102.028C690.993 102.028 691.427 102.107 691.81 102.266C692.202 102.415 692.528 102.63 692.79 102.91C693.06 103.19 693.266 103.526 693.406 103.918C693.546 104.31 693.616 104.744 693.616 105.22C693.616 105.351 693.611 105.477 693.602 105.598C693.592 105.719 693.578 105.827 693.56 105.92H688.198C688.272 106.695 688.552 107.278 689.038 107.67C689.532 108.053 690.134 108.244 690.844 108.244C691.254 108.244 691.623 108.188 691.95 108.076C692.286 107.955 692.608 107.796 692.916 107.6L693.336 108.356C693 108.58 692.612 108.771 692.174 108.93C691.744 109.089 691.254 109.168 690.704 109.168ZM690.536 102.938C690.256 102.938 689.985 102.985 689.724 103.078C689.472 103.171 689.243 103.307 689.038 103.484C688.832 103.652 688.66 103.867 688.52 104.128C688.38 104.389 688.282 104.688 688.226 105.024H692.566C692.519 104.324 692.314 103.801 691.95 103.456C691.595 103.111 691.124 102.938 690.536 102.938Z" fill="#3C4043"/>
<path d="M699.202 109V103.134H696.038V102.196H700.35V109H699.202ZM699.65 100.768C699.389 100.768 699.169 100.689 698.992 100.53C698.815 100.362 698.726 100.143 698.726 99.872C698.726 99.6013 698.815 99.3867 698.992 99.228C699.169 99.06 699.389 98.976 699.65 98.976C699.911 98.976 700.131 99.06 700.308 99.228C700.485 99.3867 700.574 99.6013 700.574 99.872C700.574 100.143 700.485 100.362 700.308 100.53C700.131 100.689 699.911 100.768 699.65 100.768Z" fill="#3C4043"/>
<path d="M707.617 112.136C706.618 112.136 705.843 111.973 705.293 111.646C704.751 111.319 704.481 110.853 704.481 110.246C704.481 109.975 704.574 109.709 704.761 109.448C704.957 109.187 705.237 108.949 705.601 108.734V108.678C705.414 108.575 705.251 108.435 705.111 108.258C704.971 108.081 704.901 107.847 704.901 107.558C704.901 107.343 704.971 107.124 705.111 106.9C705.251 106.667 705.451 106.461 705.713 106.284V106.228C705.479 106.051 705.279 105.817 705.111 105.528C704.952 105.229 704.873 104.875 704.873 104.464C704.873 104.091 704.943 103.755 705.083 103.456C705.232 103.157 705.428 102.905 705.671 102.7C705.913 102.485 706.193 102.322 706.511 102.21C706.837 102.089 707.183 102.028 707.547 102.028C707.92 102.028 708.256 102.084 708.555 102.196H711.369V103.134H709.605C709.763 103.293 709.899 103.493 710.011 103.736C710.123 103.979 710.179 104.235 710.179 104.506C710.179 104.87 710.109 105.197 709.969 105.486C709.838 105.775 709.651 106.023 709.409 106.228C709.175 106.424 708.895 106.578 708.569 106.69C708.251 106.793 707.911 106.844 707.547 106.844C707.369 106.844 707.178 106.825 706.973 106.788C706.777 106.741 706.585 106.676 706.399 106.592C706.044 106.816 705.867 107.077 705.867 107.376C705.867 107.647 705.988 107.847 706.231 107.978C706.483 108.099 706.833 108.16 707.281 108.16H708.807C709.684 108.16 710.333 108.281 710.753 108.524C711.182 108.767 711.397 109.177 711.397 109.756C711.397 110.073 711.308 110.377 711.131 110.666C710.953 110.955 710.701 111.207 710.375 111.422C710.048 111.637 709.651 111.809 709.185 111.94C708.718 112.071 708.195 112.136 707.617 112.136ZM707.547 106.074C707.985 106.074 708.354 105.929 708.653 105.64C708.961 105.351 709.115 104.959 709.115 104.464C709.115 104.231 709.073 104.016 708.989 103.82C708.905 103.624 708.793 103.456 708.653 103.316C708.513 103.176 708.345 103.069 708.149 102.994C707.962 102.91 707.761 102.868 707.547 102.868C707.332 102.868 707.127 102.91 706.931 102.994C706.744 103.069 706.581 103.176 706.441 103.316C706.301 103.456 706.189 103.624 706.105 103.82C706.021 104.016 705.979 104.231 705.979 104.464C705.979 104.959 706.133 105.351 706.441 105.64C706.749 105.929 707.117 106.074 707.547 106.074ZM707.701 111.296C708.093 111.296 708.447 111.259 708.765 111.184C709.082 111.109 709.353 111.007 709.577 110.876C709.801 110.755 709.969 110.61 710.081 110.442C710.202 110.283 710.263 110.115 710.263 109.938C710.263 109.611 710.132 109.392 709.871 109.28C709.619 109.168 709.231 109.112 708.709 109.112H707.379C707.183 109.112 706.996 109.103 706.819 109.084C706.651 109.075 706.492 109.047 706.343 109C706.016 109.177 705.787 109.359 705.657 109.546C705.535 109.742 705.475 109.938 705.475 110.134C705.475 110.489 705.661 110.769 706.035 110.974C706.417 111.189 706.973 111.296 707.701 111.296Z" fill="#3C4043"/>
<path d="M713.469 109V99.032H714.617V101.748L714.547 103.358H714.589C714.944 102.975 715.322 102.658 715.723 102.406C716.134 102.154 716.605 102.028 717.137 102.028C717.949 102.028 718.542 102.261 718.915 102.728C719.298 103.185 719.489 103.867 719.489 104.772V109H718.341V104.926C718.341 104.282 718.22 103.806 717.977 103.498C717.735 103.181 717.333 103.022 716.773 103.022C716.568 103.022 716.377 103.05 716.199 103.106C716.031 103.153 715.863 103.227 715.695 103.33C715.527 103.433 715.355 103.563 715.177 103.722C715 103.871 714.813 104.049 714.617 104.254V109H713.469Z" fill="#3C4043"/>
<path d="M726.378 109.168C725.883 109.168 725.468 109.103 725.132 108.972C724.796 108.832 724.525 108.641 724.32 108.398C724.114 108.146 723.965 107.847 723.872 107.502C723.788 107.157 723.746 106.774 723.746 106.354V103.134H721.828V102.266L723.788 102.196L723.942 100.012H724.894V102.196H728.24V103.134H724.894V106.368C724.894 106.676 724.922 106.947 724.978 107.18C725.034 107.404 725.127 107.595 725.258 107.754C725.388 107.913 725.566 108.034 725.79 108.118C726.014 108.193 726.289 108.23 726.616 108.23C726.942 108.23 727.236 108.202 727.498 108.146C727.759 108.09 728.011 108.015 728.254 107.922L728.506 108.762C728.198 108.874 727.871 108.967 727.526 109.042C727.19 109.126 726.807 109.168 726.378 109.168Z" fill="#3C4043"/>
<path d="M632.326 63.168C632.009 63.168 631.71 63.1213 631.43 63.028C631.15 62.944 630.903 62.8227 630.688 62.664C630.483 62.496 630.319 62.2953 630.198 62.062C630.077 61.8193 630.016 61.544 630.016 61.236C630.016 60.8533 630.105 60.522 630.282 60.242C630.469 59.9527 630.758 59.7053 631.15 59.5C631.551 59.2947 632.065 59.1267 632.69 58.996C633.315 58.8653 634.067 58.7627 634.944 58.688C634.935 58.4547 634.897 58.2353 634.832 58.03C634.767 57.8247 634.664 57.6473 634.524 57.498C634.384 57.3393 634.197 57.2133 633.964 57.12C633.74 57.0267 633.465 56.98 633.138 56.98C632.69 56.98 632.261 57.0687 631.85 57.246C631.439 57.414 631.075 57.596 630.758 57.792L630.31 57.008C630.478 56.896 630.674 56.784 630.898 56.672C631.131 56.5507 631.374 56.4433 631.626 56.35C631.887 56.2567 632.163 56.182 632.452 56.126C632.741 56.0607 633.035 56.028 633.334 56.028C634.267 56.028 634.958 56.2847 635.406 56.798C635.863 57.302 636.092 57.9787 636.092 58.828V63H635.154L635.056 62.076H635.014C634.631 62.3747 634.207 62.6313 633.74 62.846C633.283 63.0607 632.811 63.168 632.326 63.168ZM632.634 62.244C633.026 62.244 633.409 62.16 633.782 61.992C634.165 61.8147 634.552 61.5627 634.944 61.236V59.444C634.216 59.5 633.605 59.5793 633.11 59.682C632.625 59.7847 632.233 59.9107 631.934 60.06C631.645 60.2 631.439 60.3633 631.318 60.55C631.197 60.7273 631.136 60.928 631.136 61.152C631.136 61.348 631.178 61.516 631.262 61.656C631.346 61.7867 631.453 61.8987 631.584 61.992C631.724 62.076 631.883 62.1413 632.06 62.188C632.247 62.2253 632.438 62.244 632.634 62.244Z" fill="#3C4043"/>
<path d="M641.917 63.168C641.245 63.168 640.624 63.0653 640.055 62.86C639.485 62.6453 638.991 62.3933 638.571 62.104L639.103 61.348C639.495 61.628 639.924 61.852 640.391 62.02C640.867 62.188 641.422 62.272 642.057 62.272C642.635 62.272 643.065 62.1693 643.345 61.964C643.634 61.7493 643.779 61.4973 643.779 61.208C643.779 61.0773 643.755 60.956 643.709 60.844C643.662 60.732 643.559 60.6247 643.401 60.522C643.251 60.4193 643.037 60.3213 642.757 60.228C642.477 60.1347 642.108 60.0413 641.651 59.948C640.764 59.7613 640.097 59.514 639.649 59.206C639.21 58.8887 638.991 58.4733 638.991 57.96C638.991 57.6893 639.051 57.4373 639.173 57.204C639.294 56.9613 639.471 56.756 639.705 56.588C639.947 56.4107 640.241 56.2753 640.587 56.182C640.941 56.0793 641.352 56.028 641.819 56.028C642.341 56.028 642.845 56.1167 643.331 56.294C643.816 56.462 644.227 56.6627 644.563 56.896L644.003 57.638C643.685 57.4233 643.335 57.2507 642.953 57.12C642.57 56.9893 642.159 56.924 641.721 56.924C641.142 56.924 640.736 57.022 640.503 57.218C640.269 57.414 640.153 57.6427 640.153 57.904C640.153 58.2027 640.307 58.4313 640.615 58.59C640.923 58.7393 641.427 58.8887 642.127 59.038C642.696 59.1593 643.163 59.29 643.527 59.43C643.891 59.5607 644.175 59.71 644.381 59.878C644.595 60.046 644.74 60.2327 644.815 60.438C644.899 60.6433 644.941 60.8767 644.941 61.138C644.941 61.418 644.875 61.6793 644.745 61.922C644.614 62.1647 644.418 62.3793 644.157 62.566C643.905 62.7527 643.587 62.8973 643.205 63C642.831 63.112 642.402 63.168 641.917 63.168Z" fill="#3C4043"/>
<path d="M651.115 63.168C650.583 63.168 650.088 63.0887 649.631 62.93C649.183 62.7713 648.791 62.5427 648.455 62.244C648.119 61.936 647.858 61.5627 647.671 61.124C647.484 60.676 647.391 60.172 647.391 59.612C647.391 59.0427 647.489 58.5387 647.685 58.1C647.89 57.652 648.166 57.274 648.511 56.966C648.856 56.658 649.258 56.4247 649.715 56.266C650.182 56.1073 650.672 56.028 651.185 56.028C651.745 56.028 652.226 56.126 652.627 56.322C653.038 56.518 653.383 56.7513 653.663 57.022L653.089 57.764C652.809 57.5213 652.515 57.33 652.207 57.19C651.908 57.05 651.582 56.98 651.227 56.98C650.835 56.98 650.476 57.0453 650.149 57.176C649.822 57.2973 649.542 57.4747 649.309 57.708C649.085 57.9413 648.908 58.2213 648.777 58.548C648.646 58.8653 648.581 59.22 648.581 59.612C648.581 60.004 648.642 60.3587 648.763 60.676C648.894 60.9933 649.071 61.2687 649.295 61.502C649.528 61.726 649.804 61.9033 650.121 62.034C650.448 62.1553 650.807 62.216 651.199 62.216C651.619 62.216 652.002 62.1367 652.347 61.978C652.702 61.81 653.019 61.6047 653.299 61.362L653.817 62.104C653.434 62.44 653.014 62.7013 652.557 62.888C652.1 63.0747 651.619 63.168 651.115 63.168Z" fill="#3C4043"/>
<path d="M659.586 63.168C659.072 63.168 658.592 63.0887 658.144 62.93C657.705 62.7713 657.318 62.538 656.982 62.23C656.655 61.922 656.394 61.5487 656.198 61.11C656.011 60.662 655.918 60.1533 655.918 59.584C655.918 59.0333 656.011 58.5387 656.198 58.1C656.394 57.6613 656.65 57.288 656.968 56.98C657.294 56.672 657.663 56.4387 658.074 56.28C658.494 56.112 658.932 56.028 659.39 56.028C659.875 56.028 660.309 56.1073 660.692 56.266C661.084 56.4153 661.41 56.63 661.672 56.91C661.942 57.19 662.148 57.526 662.288 57.918C662.428 58.31 662.498 58.744 662.498 59.22C662.498 59.3507 662.493 59.4767 662.484 59.598C662.474 59.7193 662.46 59.8267 662.442 59.92H657.08C657.154 60.6947 657.434 61.278 657.92 61.67C658.414 62.0527 659.016 62.244 659.726 62.244C660.136 62.244 660.505 62.188 660.832 62.076C661.168 61.9547 661.49 61.796 661.798 61.6L662.218 62.356C661.882 62.58 661.494 62.7713 661.056 62.93C660.626 63.0887 660.136 63.168 659.586 63.168ZM659.418 56.938C659.138 56.938 658.867 56.9847 658.606 57.078C658.354 57.1713 658.125 57.3067 657.92 57.484C657.714 57.652 657.542 57.8667 657.402 58.128C657.262 58.3893 657.164 58.688 657.108 59.024H661.448C661.401 58.324 661.196 57.8013 660.832 57.456C660.477 57.1107 660.006 56.938 659.418 56.938Z" fill="#3C4043"/>
<path d="M664.962 63V56.196H665.914L666.012 57.358H666.068C666.423 56.9753 666.805 56.658 667.216 56.406C667.627 56.154 668.098 56.028 668.63 56.028C669.442 56.028 670.035 56.2613 670.408 56.728C670.791 57.1853 670.982 57.8667 670.982 58.772V63H669.834V58.926C669.834 58.282 669.713 57.806 669.47 57.498C669.227 57.1807 668.826 57.022 668.266 57.022C668.061 57.022 667.869 57.05 667.692 57.106C667.524 57.1527 667.356 57.2273 667.188 57.33C667.02 57.4327 666.847 57.5633 666.67 57.722C666.493 57.8713 666.306 58.0487 666.11 58.254V63H664.962Z" fill="#3C4043"/>
<path d="M676.149 63.168C675.701 63.168 675.295 63.0887 674.931 62.93C674.576 62.7713 674.268 62.5427 674.007 62.244C673.745 61.936 673.545 61.5627 673.405 61.124C673.265 60.6853 673.195 60.1813 673.195 59.612C673.195 59.0613 673.279 58.5667 673.447 58.128C673.624 57.68 673.853 57.302 674.133 56.994C674.422 56.686 674.753 56.448 675.127 56.28C675.5 56.112 675.887 56.028 676.289 56.028C676.699 56.028 677.063 56.1073 677.381 56.266C677.707 56.4153 678.02 56.63 678.319 56.91H678.361L678.305 55.65V53.032H679.453V63H678.501L678.403 62.104H678.361C678.081 62.3933 677.745 62.6453 677.353 62.86C676.97 63.0653 676.569 63.168 676.149 63.168ZM676.387 62.202C677.059 62.202 677.698 61.8613 678.305 61.18V57.792C677.997 57.5027 677.693 57.2973 677.395 57.176C677.105 57.0547 676.811 56.994 676.513 56.994C676.214 56.994 675.934 57.0593 675.673 57.19C675.421 57.3113 675.197 57.4887 675.001 57.722C674.814 57.946 674.665 58.2167 674.553 58.534C674.441 58.8513 674.385 59.206 674.385 59.598C674.385 60.4193 674.557 61.0587 674.903 61.516C675.257 61.9733 675.752 62.202 676.387 62.202Z" fill="#3C4043"/>
<path d="M685.669 63.168C685.156 63.168 684.675 63.0887 684.227 62.93C683.789 62.7713 683.401 62.538 683.065 62.23C682.739 61.922 682.477 61.5487 682.281 61.11C682.095 60.662 682.001 60.1533 682.001 59.584C682.001 59.0333 682.095 58.5387 682.281 58.1C682.477 57.6613 682.734 57.288 683.051 56.98C683.378 56.672 683.747 56.4387 684.157 56.28C684.577 56.112 685.016 56.028 685.473 56.028C685.959 56.028 686.393 56.1073 686.775 56.266C687.167 56.4153 687.494 56.63 687.755 56.91C688.026 57.19 688.231 57.526 688.371 57.918C688.511 58.31 688.581 58.744 688.581 59.22C688.581 59.3507 688.577 59.4767 688.567 59.598C688.558 59.7193 688.544 59.8267 688.525 59.92H683.163C683.238 60.6947 683.518 61.278 684.003 61.67C684.498 62.0527 685.1 62.244 685.809 62.244C686.22 62.244 686.589 62.188 686.915 62.076C687.251 61.9547 687.573 61.796 687.881 61.6L688.301 62.356C687.965 62.58 687.578 62.7713 687.139 62.93C686.71 63.0887 686.22 63.168 685.669 63.168ZM685.501 56.938C685.221 56.938 684.951 56.9847 684.689 57.078C684.437 57.1713 684.209 57.3067 684.003 57.484C683.798 57.652 683.625 57.8667 683.485 58.128C683.345 58.3893 683.247 58.688 683.191 59.024H687.531C687.485 58.324 687.279 57.8013 686.915 57.456C686.561 57.1107 686.089 56.938 685.501 56.938Z" fill="#3C4043"/>
<path d="M691.788 63V56.196H692.74L692.838 57.806H692.88C693.234 57.2553 693.668 56.8213 694.182 56.504C694.704 56.1867 695.283 56.028 695.918 56.028C696.17 56.028 696.403 56.0513 696.618 56.098C696.832 56.1353 697.047 56.2053 697.262 56.308L696.996 57.302C696.753 57.218 696.548 57.1573 696.38 57.12C696.221 57.0827 696.006 57.064 695.736 57.064C695.222 57.064 694.728 57.2133 694.252 57.512C693.785 57.8013 693.346 58.3007 692.936 59.01V63H691.788Z" fill="#3C4043"/>
<path d="M708.435 63V53.032H709.583V55.748L709.513 57.358H709.555C709.909 56.9753 710.287 56.658 710.689 56.406C711.099 56.154 711.571 56.028 712.103 56.028C712.915 56.028 713.507 56.2613 713.881 56.728C714.263 57.1853 714.455 57.8667 714.455 58.772V63H713.307V58.926C713.307 58.282 713.185 57.806 712.943 57.498C712.7 57.1807 712.299 57.022 711.739 57.022C711.533 57.022 711.342 57.05 711.165 57.106C710.997 57.1527 710.829 57.2273 710.661 57.33C710.493 57.4327 710.32 57.5633 710.143 57.722C709.965 57.8713 709.779 58.0487 709.583 58.254V63H708.435Z" fill="#3C4043"/>
<path d="M720.447 63.168C719.934 63.168 719.453 63.0887 719.005 62.93C718.567 62.7713 718.179 62.538 717.843 62.23C717.517 61.922 717.255 61.5487 717.059 61.11C716.873 60.662 716.779 60.1533 716.779 59.584C716.779 59.0333 716.873 58.5387 717.059 58.1C717.255 57.6613 717.512 57.288 717.829 56.98C718.156 56.672 718.525 56.4387 718.935 56.28C719.355 56.112 719.794 56.028 720.251 56.028C720.737 56.028 721.171 56.1073 721.553 56.266C721.945 56.4153 722.272 56.63 722.533 56.91C722.804 57.19 723.009 57.526 723.149 57.918C723.289 58.31 723.359 58.744 723.359 59.22C723.359 59.3507 723.355 59.4767 723.345 59.598C723.336 59.7193 723.322 59.8267 723.303 59.92H717.941C718.016 60.6947 718.296 61.278 718.781 61.67C719.276 62.0527 719.878 62.244 720.587 62.244C720.998 62.244 721.367 62.188 721.693 62.076C722.029 61.9547 722.351 61.796 722.659 61.6L723.079 62.356C722.743 62.58 722.356 62.7713 721.917 62.93C721.488 63.0887 720.998 63.168 720.447 63.168ZM720.279 56.938C719.999 56.938 719.729 56.9847 719.467 57.078C719.215 57.1713 718.987 57.3067 718.781 57.484C718.576 57.652 718.403 57.8667 718.263 58.128C718.123 58.3893 718.025 58.688 717.969 59.024H722.309C722.263 58.324 722.057 57.8013 721.693 57.456C721.339 57.1107 720.867 56.938 720.279 56.938Z" fill="#3C4043"/>
<path d="M728.946 63V57.134H725.782V56.196H730.094V63H728.946ZM729.394 54.768C729.133 54.768 728.913 54.6887 728.736 54.53C728.559 54.362 728.47 54.1427 728.47 53.872C728.47 53.6013 728.559 53.3867 728.736 53.228C728.913 53.06 729.133 52.976 729.394 52.976C729.655 52.976 729.875 53.06 730.052 53.228C730.229 53.3867 730.318 53.6013 730.318 53.872C730.318 54.1427 730.229 54.362 730.052 54.53C729.875 54.6887 729.655 54.768 729.394 54.768Z" fill="#3C4043"/>
<path d="M737.36 66.136C736.362 66.136 735.587 65.9727 735.036 65.646C734.495 65.3193 734.224 64.8527 734.224 64.246C734.224 63.9753 734.318 63.7093 734.504 63.448C734.7 63.1867 734.98 62.9487 735.344 62.734V62.678C735.158 62.5753 734.994 62.4353 734.854 62.258C734.714 62.0807 734.644 61.8473 734.644 61.558C734.644 61.3433 734.714 61.124 734.854 60.9C734.994 60.6667 735.195 60.4613 735.456 60.284V60.228C735.223 60.0507 735.022 59.8173 734.854 59.528C734.696 59.2293 734.616 58.8747 734.616 58.464C734.616 58.0907 734.686 57.7547 734.826 57.456C734.976 57.1573 735.172 56.9053 735.414 56.7C735.657 56.4853 735.937 56.322 736.254 56.21C736.581 56.0887 736.926 56.028 737.29 56.028C737.664 56.028 738 56.084 738.298 56.196H741.112V57.134H739.348C739.507 57.2927 739.642 57.4933 739.754 57.736C739.866 57.9787 739.922 58.2353 739.922 58.506C739.922 58.87 739.852 59.1967 739.712 59.486C739.582 59.7753 739.395 60.0227 739.152 60.228C738.919 60.424 738.639 60.578 738.312 60.69C737.995 60.7927 737.654 60.844 737.29 60.844C737.113 60.844 736.922 60.8253 736.716 60.788C736.52 60.7413 736.329 60.676 736.142 60.592C735.788 60.816 735.61 61.0773 735.61 61.376C735.61 61.6467 735.732 61.8473 735.974 61.978C736.226 62.0993 736.576 62.16 737.024 62.16H738.55C739.428 62.16 740.076 62.2813 740.496 62.524C740.926 62.7667 741.14 63.1773 741.14 63.756C741.14 64.0733 741.052 64.3767 740.874 64.666C740.697 64.9553 740.445 65.2073 740.118 65.422C739.792 65.6367 739.395 65.8093 738.928 65.94C738.462 66.0707 737.939 66.136 737.36 66.136ZM737.29 60.074C737.729 60.074 738.098 59.9293 738.396 59.64C738.704 59.3507 738.858 58.9587 738.858 58.464C738.858 58.2307 738.816 58.016 738.732 57.82C738.648 57.624 738.536 57.456 738.396 57.316C738.256 57.176 738.088 57.0687 737.892 56.994C737.706 56.91 737.505 56.868 737.29 56.868C737.076 56.868 736.87 56.91 736.674 56.994C736.488 57.0687 736.324 57.176 736.184 57.316C736.044 57.456 735.932 57.624 735.848 57.82C735.764 58.016 735.722 58.2307 735.722 58.464C735.722 58.9587 735.876 59.3507 736.184 59.64C736.492 59.9293 736.861 60.074 737.29 60.074ZM737.444 65.296C737.836 65.296 738.191 65.2587 738.508 65.184C738.826 65.1093 739.096 65.0067 739.32 64.876C739.544 64.7547 739.712 64.61 739.824 64.442C739.946 64.2833 740.006 64.1153 740.006 63.938C740.006 63.6113 739.876 63.392 739.614 63.28C739.362 63.168 738.975 63.112 738.452 63.112H737.122C736.926 63.112 736.74 63.1027 736.562 63.084C736.394 63.0747 736.236 63.0467 736.086 63C735.76 63.1773 735.531 63.3593 735.4 63.546C735.279 63.742 735.218 63.938 735.218 64.134C735.218 64.4887 735.405 64.7687 735.778 64.974C736.161 65.1887 736.716 65.296 737.444 65.296Z" fill="#3C4043"/>
<path d="M743.213 63V53.032H744.361V55.748L744.291 57.358H744.333C744.688 56.9753 745.066 56.658 745.467 56.406C745.878 56.154 746.349 56.028 746.881 56.028C747.693 56.028 748.286 56.2613 748.659 56.728C749.042 57.1853 749.233 57.8667 749.233 58.772V63H748.085V58.926C748.085 58.282 747.964 57.806 747.721 57.498C747.478 57.1807 747.077 57.022 746.517 57.022C746.312 57.022 746.12 57.05 745.943 57.106C745.775 57.1527 745.607 57.2273 745.439 57.33C745.271 57.4327 745.098 57.5633 744.921 57.722C744.744 57.8713 744.557 58.0487 744.361 58.254V63H743.213Z" fill="#3C4043"/>
<path d="M756.121 63.168C755.627 63.168 755.211 63.1027 754.875 62.972C754.539 62.832 754.269 62.6407 754.063 62.398C753.858 62.146 753.709 61.8473 753.615 61.502C753.531 61.1567 753.489 60.774 753.489 60.354V57.134H751.571V56.266L753.531 56.196L753.685 54.012H754.637V56.196H757.983V57.134H754.637V60.368C754.637 60.676 754.665 60.9467 754.721 61.18C754.777 61.404 754.871 61.5953 755.001 61.754C755.132 61.9127 755.309 62.034 755.533 62.118C755.757 62.1927 756.033 62.23 756.359 62.23C756.686 62.23 756.98 62.202 757.241 62.146C757.503 62.09 757.755 62.0153 757.997 61.922L758.249 62.762C757.941 62.874 757.615 62.9673 757.269 63.042C756.933 63.126 756.551 63.168 756.121 63.168Z" fill="#3C4043"/>
<path d="M623.981 166.168C623.533 166.168 623.127 166.089 622.763 165.93C622.409 165.771 622.101 165.543 621.839 165.244C621.578 164.936 621.377 164.563 621.237 164.124C621.097 163.685 621.027 163.181 621.027 162.612C621.027 162.061 621.111 161.567 621.279 161.128C621.457 160.68 621.685 160.302 621.965 159.994C622.255 159.686 622.586 159.448 622.959 159.28C623.333 159.112 623.72 159.028 624.121 159.028C624.532 159.028 624.896 159.107 625.213 159.266C625.54 159.415 625.853 159.63 626.151 159.91H626.193L626.137 158.65V156.032H627.285V166H626.333L626.235 165.104H626.193C625.913 165.393 625.577 165.645 625.185 165.86C624.803 166.065 624.401 166.168 623.981 166.168ZM624.219 165.202C624.891 165.202 625.531 164.861 626.137 164.18V160.792C625.829 160.503 625.526 160.297 625.227 160.176C624.938 160.055 624.644 159.994 624.345 159.994C624.047 159.994 623.767 160.059 623.505 160.19C623.253 160.311 623.029 160.489 622.833 160.722C622.647 160.946 622.497 161.217 622.385 161.534C622.273 161.851 622.217 162.206 622.217 162.598C622.217 163.419 622.39 164.059 622.735 164.516C623.09 164.973 623.585 165.202 624.219 165.202Z" fill="#3C4043"/>
<path d="M633.502 166.168C632.989 166.168 632.508 166.089 632.06 165.93C631.621 165.771 631.234 165.538 630.898 165.23C630.571 164.922 630.31 164.549 630.114 164.11C629.927 163.662 629.834 163.153 629.834 162.584C629.834 162.033 629.927 161.539 630.114 161.1C630.31 160.661 630.567 160.288 630.884 159.98C631.211 159.672 631.579 159.439 631.99 159.28C632.41 159.112 632.849 159.028 633.306 159.028C633.791 159.028 634.225 159.107 634.608 159.266C635 159.415 635.327 159.63 635.588 159.91C635.859 160.19 636.064 160.526 636.204 160.918C636.344 161.31 636.414 161.744 636.414 162.22C636.414 162.351 636.409 162.477 636.4 162.598C636.391 162.719 636.377 162.827 636.358 162.92H630.996C631.071 163.695 631.351 164.278 631.836 164.67C632.331 165.053 632.933 165.244 633.642 165.244C634.053 165.244 634.421 165.188 634.748 165.076C635.084 164.955 635.406 164.796 635.714 164.6L636.134 165.356C635.798 165.58 635.411 165.771 634.972 165.93C634.543 166.089 634.053 166.168 633.502 166.168ZM633.334 159.938C633.054 159.938 632.783 159.985 632.522 160.078C632.27 160.171 632.041 160.307 631.836 160.484C631.631 160.652 631.458 160.867 631.318 161.128C631.178 161.389 631.08 161.688 631.024 162.024H635.364C635.317 161.324 635.112 160.801 634.748 160.456C634.393 160.111 633.922 159.938 633.334 159.938Z" fill="#3C4043"/>
<path d="M641.917 166.168C641.245 166.168 640.624 166.065 640.055 165.86C639.485 165.645 638.991 165.393 638.571 165.104L639.103 164.348C639.495 164.628 639.924 164.852 640.391 165.02C640.867 165.188 641.422 165.272 642.057 165.272C642.635 165.272 643.065 165.169 643.345 164.964C643.634 164.749 643.779 164.497 643.779 164.208C643.779 164.077 643.755 163.956 643.709 163.844C643.662 163.732 643.559 163.625 643.401 163.522C643.251 163.419 643.037 163.321 642.757 163.228C642.477 163.135 642.108 163.041 641.651 162.948C640.764 162.761 640.097 162.514 639.649 162.206C639.21 161.889 638.991 161.473 638.991 160.96C638.991 160.689 639.051 160.437 639.173 160.204C639.294 159.961 639.471 159.756 639.705 159.588C639.947 159.411 640.241 159.275 640.587 159.182C640.941 159.079 641.352 159.028 641.819 159.028C642.341 159.028 642.845 159.117 643.331 159.294C643.816 159.462 644.227 159.663 644.563 159.896L644.003 160.638C643.685 160.423 643.335 160.251 642.953 160.12C642.57 159.989 642.159 159.924 641.721 159.924C641.142 159.924 640.736 160.022 640.503 160.218C640.269 160.414 640.153 160.643 640.153 160.904C640.153 161.203 640.307 161.431 640.615 161.59C640.923 161.739 641.427 161.889 642.127 162.038C642.696 162.159 643.163 162.29 643.527 162.43C643.891 162.561 644.175 162.71 644.381 162.878C644.595 163.046 644.74 163.233 644.815 163.438C644.899 163.643 644.941 163.877 644.941 164.138C644.941 164.418 644.875 164.679 644.745 164.922C644.614 165.165 644.418 165.379 644.157 165.566C643.905 165.753 643.587 165.897 643.205 166C642.831 166.112 642.402 166.168 641.917 166.168Z" fill="#3C4043"/>
<path d="M651.115 166.168C650.583 166.168 650.088 166.089 649.631 165.93C649.183 165.771 648.791 165.543 648.455 165.244C648.119 164.936 647.858 164.563 647.671 164.124C647.484 163.676 647.391 163.172 647.391 162.612C647.391 162.043 647.489 161.539 647.685 161.1C647.89 160.652 648.166 160.274 648.511 159.966C648.856 159.658 649.258 159.425 649.715 159.266C650.182 159.107 650.672 159.028 651.185 159.028C651.745 159.028 652.226 159.126 652.627 159.322C653.038 159.518 653.383 159.751 653.663 160.022L653.089 160.764C652.809 160.521 652.515 160.33 652.207 160.19C651.908 160.05 651.582 159.98 651.227 159.98C650.835 159.98 650.476 160.045 650.149 160.176C649.822 160.297 649.542 160.475 649.309 160.708C649.085 160.941 648.908 161.221 648.777 161.548C648.646 161.865 648.581 162.22 648.581 162.612C648.581 163.004 648.642 163.359 648.763 163.676C648.894 163.993 649.071 164.269 649.295 164.502C649.528 164.726 649.804 164.903 650.121 165.034C650.448 165.155 650.807 165.216 651.199 165.216C651.619 165.216 652.002 165.137 652.347 164.978C652.702 164.81 653.019 164.605 653.299 164.362L653.817 165.104C653.434 165.44 653.014 165.701 652.557 165.888C652.1 166.075 651.619 166.168 651.115 166.168Z" fill="#3C4043"/>
<path d="M659.586 166.168C659.072 166.168 658.592 166.089 658.144 165.93C657.705 165.771 657.318 165.538 656.982 165.23C656.655 164.922 656.394 164.549 656.198 164.11C656.011 163.662 655.918 163.153 655.918 162.584C655.918 162.033 656.011 161.539 656.198 161.1C656.394 160.661 656.65 160.288 656.968 159.98C657.294 159.672 657.663 159.439 658.074 159.28C658.494 159.112 658.932 159.028 659.39 159.028C659.875 159.028 660.309 159.107 660.692 159.266C661.084 159.415 661.41 159.63 661.672 159.91C661.942 160.19 662.148 160.526 662.288 160.918C662.428 161.31 662.498 161.744 662.498 162.22C662.498 162.351 662.493 162.477 662.484 162.598C662.474 162.719 662.46 162.827 662.442 162.92H657.08C657.154 163.695 657.434 164.278 657.92 164.67C658.414 165.053 659.016 165.244 659.726 165.244C660.136 165.244 660.505 165.188 660.832 165.076C661.168 164.955 661.49 164.796 661.798 164.6L662.218 165.356C661.882 165.58 661.494 165.771 661.056 165.93C660.626 166.089 660.136 166.168 659.586 166.168ZM659.418 159.938C659.138 159.938 658.867 159.985 658.606 160.078C658.354 160.171 658.125 160.307 657.92 160.484C657.714 160.652 657.542 160.867 657.402 161.128C657.262 161.389 657.164 161.688 657.108 162.024H661.448C661.401 161.324 661.196 160.801 660.832 160.456C660.477 160.111 660.006 159.938 659.418 159.938Z" fill="#3C4043"/>
<path d="M664.962 166V159.196H665.914L666.012 160.358H666.068C666.423 159.975 666.805 159.658 667.216 159.406C667.627 159.154 668.098 159.028 668.63 159.028C669.442 159.028 670.035 159.261 670.408 159.728C670.791 160.185 670.982 160.867 670.982 161.772V166H669.834V161.926C669.834 161.282 669.713 160.806 669.47 160.498C669.227 160.181 668.826 160.022 668.266 160.022C668.061 160.022 667.869 160.05 667.692 160.106C667.524 160.153 667.356 160.227 667.188 160.33C667.02 160.433 666.847 160.563 666.67 160.722C666.493 160.871 666.306 161.049 666.11 161.254V166H664.962Z" fill="#3C4043"/>
<path d="M676.149 166.168C675.701 166.168 675.295 166.089 674.931 165.93C674.576 165.771 674.268 165.543 674.007 165.244C673.745 164.936 673.545 164.563 673.405 164.124C673.265 163.685 673.195 163.181 673.195 162.612C673.195 162.061 673.279 161.567 673.447 161.128C673.624 160.68 673.853 160.302 674.133 159.994C674.422 159.686 674.753 159.448 675.127 159.28C675.5 159.112 675.887 159.028 676.289 159.028C676.699 159.028 677.063 159.107 677.381 159.266C677.707 159.415 678.02 159.63 678.319 159.91H678.361L678.305 158.65V156.032H679.453V166H678.501L678.403 165.104H678.361C678.081 165.393 677.745 165.645 677.353 165.86C676.97 166.065 676.569 166.168 676.149 166.168ZM676.387 165.202C677.059 165.202 677.698 164.861 678.305 164.18V160.792C677.997 160.503 677.693 160.297 677.395 160.176C677.105 160.055 676.811 159.994 676.513 159.994C676.214 159.994 675.934 160.059 675.673 160.19C675.421 160.311 675.197 160.489 675.001 160.722C674.814 160.946 674.665 161.217 674.553 161.534C674.441 161.851 674.385 162.206 674.385 162.598C674.385 163.419 674.557 164.059 674.903 164.516C675.257 164.973 675.752 165.202 676.387 165.202Z" fill="#3C4043"/>
<path d="M685.669 166.168C685.156 166.168 684.675 166.089 684.227 165.93C683.789 165.771 683.401 165.538 683.065 165.23C682.739 164.922 682.477 164.549 682.281 164.11C682.095 163.662 682.001 163.153 682.001 162.584C682.001 162.033 682.095 161.539 682.281 161.1C682.477 160.661 682.734 160.288 683.051 159.98C683.378 159.672 683.747 159.439 684.157 159.28C684.577 159.112 685.016 159.028 685.473 159.028C685.959 159.028 686.393 159.107 686.775 159.266C687.167 159.415 687.494 159.63 687.755 159.91C688.026 160.19 688.231 160.526 688.371 160.918C688.511 161.31 688.581 161.744 688.581 162.22C688.581 162.351 688.577 162.477 688.567 162.598C688.558 162.719 688.544 162.827 688.525 162.92H683.163C683.238 163.695 683.518 164.278 684.003 164.67C684.498 165.053 685.1 165.244 685.809 165.244C686.22 165.244 686.589 165.188 686.915 165.076C687.251 164.955 687.573 164.796 687.881 164.6L688.301 165.356C687.965 165.58 687.578 165.771 687.139 165.93C686.71 166.089 686.22 166.168 685.669 166.168ZM685.501 159.938C685.221 159.938 684.951 159.985 684.689 160.078C684.437 160.171 684.209 160.307 684.003 160.484C683.798 160.652 683.625 160.867 683.485 161.128C683.345 161.389 683.247 161.688 683.191 162.024H687.531C687.485 161.324 687.279 160.801 686.915 160.456C686.561 160.111 686.089 159.938 685.501 159.938Z" fill="#3C4043"/>
<path d="M691.788 166V159.196H692.74L692.838 160.806H692.88C693.234 160.255 693.668 159.821 694.182 159.504C694.704 159.187 695.283 159.028 695.918 159.028C696.17 159.028 696.403 159.051 696.618 159.098C696.832 159.135 697.047 159.205 697.262 159.308L696.996 160.302C696.753 160.218 696.548 160.157 696.38 160.12C696.221 160.083 696.006 160.064 695.736 160.064C695.222 160.064 694.728 160.213 694.252 160.512C693.785 160.801 693.346 161.301 692.936 162.01V166H691.788Z" fill="#3C4043"/>
<path d="M708.435 166V156.032H709.583V158.748L709.513 160.358H709.555C709.909 159.975 710.287 159.658 710.689 159.406C711.099 159.154 711.571 159.028 712.103 159.028C712.915 159.028 713.507 159.261 713.881 159.728C714.263 160.185 714.455 160.867 714.455 161.772V166H713.307V161.926C713.307 161.282 713.185 160.806 712.943 160.498C712.7 160.181 712.299 160.022 711.739 160.022C711.533 160.022 711.342 160.05 711.165 160.106C710.997 160.153 710.829 160.227 710.661 160.33C710.493 160.433 710.32 160.563 710.143 160.722C709.965 160.871 709.779 161.049 709.583 161.254V166H708.435Z" fill="#3C4043"/>
<path d="M720.447 166.168C719.934 166.168 719.453 166.089 719.005 165.93C718.567 165.771 718.179 165.538 717.843 165.23C717.517 164.922 717.255 164.549 717.059 164.11C716.873 163.662 716.779 163.153 716.779 162.584C716.779 162.033 716.873 161.539 717.059 161.1C717.255 160.661 717.512 160.288 717.829 159.98C718.156 159.672 718.525 159.439 718.935 159.28C719.355 159.112 719.794 159.028 720.251 159.028C720.737 159.028 721.171 159.107 721.553 159.266C721.945 159.415 722.272 159.63 722.533 159.91C722.804 160.19 723.009 160.526 723.149 160.918C723.289 161.31 723.359 161.744 723.359 162.22C723.359 162.351 723.355 162.477 723.345 162.598C723.336 162.719 723.322 162.827 723.303 162.92H717.941C718.016 163.695 718.296 164.278 718.781 164.67C719.276 165.053 719.878 165.244 720.587 165.244C720.998 165.244 721.367 165.188 721.693 165.076C722.029 164.955 722.351 164.796 722.659 164.6L723.079 165.356C722.743 165.58 722.356 165.771 721.917 165.93C721.488 166.089 720.998 166.168 720.447 166.168ZM720.279 159.938C719.999 159.938 719.729 159.985 719.467 160.078C719.215 160.171 718.987 160.307 718.781 160.484C718.576 160.652 718.403 160.867 718.263 161.128C718.123 161.389 718.025 161.688 717.969 162.024H722.309C722.263 161.324 722.057 160.801 721.693 160.456C721.339 160.111 720.867 159.938 720.279 159.938Z" fill="#3C4043"/>
<path d="M728.946 166V160.134H725.782V159.196H730.094V166H728.946ZM729.394 157.768C729.133 157.768 728.913 157.689 728.736 157.53C728.559 157.362 728.47 157.143 728.47 156.872C728.47 156.601 728.559 156.387 728.736 156.228C728.913 156.06 729.133 155.976 729.394 155.976C729.655 155.976 729.875 156.06 730.052 156.228C730.229 156.387 730.318 156.601 730.318 156.872C730.318 157.143 730.229 157.362 730.052 157.53C729.875 157.689 729.655 157.768 729.394 157.768Z" fill="#3C4043"/>
<path d="M737.36 169.136C736.362 169.136 735.587 168.973 735.036 168.646C734.495 168.319 734.224 167.853 734.224 167.246C734.224 166.975 734.318 166.709 734.504 166.448C734.7 166.187 734.98 165.949 735.344 165.734V165.678C735.158 165.575 734.994 165.435 734.854 165.258C734.714 165.081 734.644 164.847 734.644 164.558C734.644 164.343 734.714 164.124 734.854 163.9C734.994 163.667 735.195 163.461 735.456 163.284V163.228C735.223 163.051 735.022 162.817 734.854 162.528C734.696 162.229 734.616 161.875 734.616 161.464C734.616 161.091 734.686 160.755 734.826 160.456C734.976 160.157 735.172 159.905 735.414 159.7C735.657 159.485 735.937 159.322 736.254 159.21C736.581 159.089 736.926 159.028 737.29 159.028C737.664 159.028 738 159.084 738.298 159.196H741.112V160.134H739.348C739.507 160.293 739.642 160.493 739.754 160.736C739.866 160.979 739.922 161.235 739.922 161.506C739.922 161.87 739.852 162.197 739.712 162.486C739.582 162.775 739.395 163.023 739.152 163.228C738.919 163.424 738.639 163.578 738.312 163.69C737.995 163.793 737.654 163.844 737.29 163.844C737.113 163.844 736.922 163.825 736.716 163.788C736.52 163.741 736.329 163.676 736.142 163.592C735.788 163.816 735.61 164.077 735.61 164.376C735.61 164.647 735.732 164.847 735.974 164.978C736.226 165.099 736.576 165.16 737.024 165.16H738.55C739.428 165.16 740.076 165.281 740.496 165.524C740.926 165.767 741.14 166.177 741.14 166.756C741.14 167.073 741.052 167.377 740.874 167.666C740.697 167.955 740.445 168.207 740.118 168.422C739.792 168.637 739.395 168.809 738.928 168.94C738.462 169.071 737.939 169.136 737.36 169.136ZM737.29 163.074C737.729 163.074 738.098 162.929 738.396 162.64C738.704 162.351 738.858 161.959 738.858 161.464C738.858 161.231 738.816 161.016 738.732 160.82C738.648 160.624 738.536 160.456 738.396 160.316C738.256 160.176 738.088 160.069 737.892 159.994C737.706 159.91 737.505 159.868 737.29 159.868C737.076 159.868 736.87 159.91 736.674 159.994C736.488 160.069 736.324 160.176 736.184 160.316C736.044 160.456 735.932 160.624 735.848 160.82C735.764 161.016 735.722 161.231 735.722 161.464C735.722 161.959 735.876 162.351 736.184 162.64C736.492 162.929 736.861 163.074 737.29 163.074ZM737.444 168.296C737.836 168.296 738.191 168.259 738.508 168.184C738.826 168.109 739.096 168.007 739.32 167.876C739.544 167.755 739.712 167.61 739.824 167.442C739.946 167.283 740.006 167.115 740.006 166.938C740.006 166.611 739.876 166.392 739.614 166.28C739.362 166.168 738.975 166.112 738.452 166.112H737.122C736.926 166.112 736.74 166.103 736.562 166.084C736.394 166.075 736.236 166.047 736.086 166C735.76 166.177 735.531 166.359 735.4 166.546C735.279 166.742 735.218 166.938 735.218 167.134C735.218 167.489 735.405 167.769 735.778 167.974C736.161 168.189 736.716 168.296 737.444 168.296Z" fill="#3C4043"/>
<path d="M743.213 166V156.032H744.361V158.748L744.291 160.358H744.333C744.688 159.975 745.066 159.658 745.467 159.406C745.878 159.154 746.349 159.028 746.881 159.028C747.693 159.028 748.286 159.261 748.659 159.728C749.042 160.185 749.233 160.867 749.233 161.772V166H748.085V161.926C748.085 161.282 747.964 160.806 747.721 160.498C747.478 160.181 747.077 160.022 746.517 160.022C746.312 160.022 746.12 160.05 745.943 160.106C745.775 160.153 745.607 160.227 745.439 160.33C745.271 160.433 745.098 160.563 744.921 160.722C744.744 160.871 744.557 161.049 744.361 161.254V166H743.213Z" fill="#3C4043"/>
<path d="M756.121 166.168C755.627 166.168 755.211 166.103 754.875 165.972C754.539 165.832 754.269 165.641 754.063 165.398C753.858 165.146 753.709 164.847 753.615 164.502C753.531 164.157 753.489 163.774 753.489 163.354V160.134H751.571V159.266L753.531 159.196L753.685 157.012H754.637V159.196H757.983V160.134H754.637V163.368C754.637 163.676 754.665 163.947 754.721 164.18C754.777 164.404 754.871 164.595 755.001 164.754C755.132 164.913 755.309 165.034 755.533 165.118C755.757 165.193 756.033 165.23 756.359 165.23C756.686 165.23 756.98 165.202 757.241 165.146C757.503 165.09 757.755 165.015 757.997 164.922L758.249 165.762C757.941 165.874 757.615 165.967 757.269 166.042C756.933 166.126 756.551 166.168 756.121 166.168Z" fill="#3C4043"/>
<path d="M770.48 135.168C770.153 135.168 769.799 135.089 769.416 134.93C769.043 134.762 768.693 134.533 768.366 134.244H768.324L768.226 135H767.302V125.032H768.45V127.748L768.408 129.064H768.45C768.758 128.747 769.113 128.495 769.514 128.308C769.925 128.121 770.331 128.028 770.732 128.028C771.189 128.028 771.595 128.112 771.95 128.28C772.305 128.439 772.599 128.672 772.832 128.98C773.075 129.279 773.257 129.643 773.378 130.072C773.499 130.492 773.56 130.963 773.56 131.486C773.56 132.065 773.476 132.583 773.308 133.04C773.14 133.497 772.911 133.885 772.622 134.202C772.342 134.519 772.015 134.762 771.642 134.93C771.269 135.089 770.881 135.168 770.48 135.168ZM770.298 134.202C770.597 134.202 770.872 134.141 771.124 134.02C771.376 133.889 771.595 133.712 771.782 133.488C771.969 133.255 772.113 132.97 772.216 132.634C772.319 132.298 772.37 131.92 772.37 131.5C772.37 131.127 772.333 130.786 772.258 130.478C772.183 130.17 772.067 129.909 771.908 129.694C771.759 129.47 771.563 129.297 771.32 129.176C771.077 129.055 770.788 128.994 770.452 128.994C770.153 128.994 769.831 129.078 769.486 129.246C769.15 129.405 768.805 129.661 768.45 130.016V133.404C768.777 133.693 769.103 133.899 769.43 134.02C769.766 134.141 770.055 134.202 770.298 134.202Z" fill="#3C4043"/>
<path d="M778.139 135.168C777.821 135.168 777.523 135.121 777.243 135.028C776.963 134.944 776.715 134.823 776.501 134.664C776.295 134.496 776.132 134.295 776.011 134.062C775.889 133.819 775.829 133.544 775.829 133.236C775.829 132.853 775.917 132.522 776.095 132.242C776.281 131.953 776.571 131.705 776.963 131.5C777.364 131.295 777.877 131.127 778.503 130.996C779.128 130.865 779.879 130.763 780.757 130.688C780.747 130.455 780.71 130.235 780.645 130.03C780.579 129.825 780.477 129.647 780.337 129.498C780.197 129.339 780.01 129.213 779.777 129.12C779.553 129.027 779.277 128.98 778.951 128.98C778.503 128.98 778.073 129.069 777.663 129.246C777.252 129.414 776.888 129.596 776.571 129.792L776.123 129.008C776.291 128.896 776.487 128.784 776.711 128.672C776.944 128.551 777.187 128.443 777.439 128.35C777.7 128.257 777.975 128.182 778.265 128.126C778.554 128.061 778.848 128.028 779.147 128.028C780.08 128.028 780.771 128.285 781.219 128.798C781.676 129.302 781.905 129.979 781.905 130.828V135H780.967L780.869 134.076H780.827C780.444 134.375 780.019 134.631 779.553 134.846C779.095 135.061 778.624 135.168 778.139 135.168ZM778.447 134.244C778.839 134.244 779.221 134.16 779.595 133.992C779.977 133.815 780.365 133.563 780.757 133.236V131.444C780.029 131.5 779.417 131.579 778.923 131.682C778.437 131.785 778.045 131.911 777.747 132.06C777.457 132.2 777.252 132.363 777.131 132.55C777.009 132.727 776.949 132.928 776.949 133.152C776.949 133.348 776.991 133.516 777.075 133.656C777.159 133.787 777.266 133.899 777.397 133.992C777.537 134.076 777.695 134.141 777.873 134.188C778.059 134.225 778.251 134.244 778.447 134.244Z" fill="#3C4043"/>
<path d="M787.729 135.168C787.057 135.168 786.436 135.065 785.867 134.86C785.298 134.645 784.803 134.393 784.383 134.104L784.915 133.348C785.307 133.628 785.736 133.852 786.203 134.02C786.679 134.188 787.234 134.272 787.869 134.272C788.448 134.272 788.877 134.169 789.157 133.964C789.446 133.749 789.591 133.497 789.591 133.208C789.591 133.077 789.568 132.956 789.521 132.844C789.474 132.732 789.372 132.625 789.213 132.522C789.064 132.419 788.849 132.321 788.569 132.228C788.289 132.135 787.92 132.041 787.463 131.948C786.576 131.761 785.909 131.514 785.461 131.206C785.022 130.889 784.803 130.473 784.803 129.96C784.803 129.689 784.864 129.437 784.985 129.204C785.106 128.961 785.284 128.756 785.517 128.588C785.76 128.411 786.054 128.275 786.399 128.182C786.754 128.079 787.164 128.028 787.631 128.028C788.154 128.028 788.658 128.117 789.143 128.294C789.628 128.462 790.039 128.663 790.375 128.896L789.815 129.638C789.498 129.423 789.148 129.251 788.765 129.12C788.382 128.989 787.972 128.924 787.533 128.924C786.954 128.924 786.548 129.022 786.315 129.218C786.082 129.414 785.965 129.643 785.965 129.904C785.965 130.203 786.119 130.431 786.427 130.59C786.735 130.739 787.239 130.889 787.939 131.038C788.508 131.159 788.975 131.29 789.339 131.43C789.703 131.561 789.988 131.71 790.193 131.878C790.408 132.046 790.552 132.233 790.627 132.438C790.711 132.643 790.753 132.877 790.753 133.138C790.753 133.418 790.688 133.679 790.557 133.922C790.426 134.165 790.23 134.379 789.969 134.566C789.717 134.753 789.4 134.897 789.017 135C788.644 135.112 788.214 135.168 787.729 135.168Z" fill="#3C4043"/>
<path d="M796.704 135.168C796.19 135.168 795.71 135.089 795.262 134.93C794.823 134.771 794.436 134.538 794.1 134.23C793.773 133.922 793.512 133.549 793.316 133.11C793.129 132.662 793.036 132.153 793.036 131.584C793.036 131.033 793.129 130.539 793.316 130.1C793.512 129.661 793.768 129.288 794.086 128.98C794.412 128.672 794.781 128.439 795.192 128.28C795.612 128.112 796.05 128.028 796.508 128.028C796.993 128.028 797.427 128.107 797.81 128.266C798.202 128.415 798.528 128.63 798.79 128.91C799.06 129.19 799.266 129.526 799.406 129.918C799.546 130.31 799.616 130.744 799.616 131.22C799.616 131.351 799.611 131.477 799.602 131.598C799.592 131.719 799.578 131.827 799.56 131.92H794.198C794.272 132.695 794.552 133.278 795.038 133.67C795.532 134.053 796.134 134.244 796.844 134.244C797.254 134.244 797.623 134.188 797.95 134.076C798.286 133.955 798.608 133.796 798.916 133.6L799.336 134.356C799 134.58 798.612 134.771 798.174 134.93C797.744 135.089 797.254 135.168 796.704 135.168ZM796.536 128.938C796.256 128.938 795.985 128.985 795.724 129.078C795.472 129.171 795.243 129.307 795.038 129.484C794.832 129.652 794.66 129.867 794.52 130.128C794.38 130.389 794.282 130.688 794.226 131.024H798.566C798.519 130.324 798.314 129.801 797.95 129.456C797.595 129.111 797.124 128.938 796.536 128.938Z" fill="#3C4043"/>
<path d="M806.476 135.168C805.748 135.168 805.193 134.963 804.81 134.552C804.427 134.141 804.236 133.53 804.236 132.718V125.97H801.814V125.032H805.384V132.802C805.384 133.306 805.505 133.67 805.748 133.894C805.991 134.109 806.317 134.216 806.728 134.216C807.129 134.216 807.554 134.113 808.002 133.908L808.296 134.762C807.979 134.893 807.689 134.991 807.428 135.056C807.167 135.131 806.849 135.168 806.476 135.168Z" fill="#3C4043"/>
<path d="M813.897 135V129.134H810.733V128.196H815.045V135H813.897ZM814.345 126.768C814.083 126.768 813.864 126.689 813.687 126.53C813.509 126.362 813.421 126.143 813.421 125.872C813.421 125.601 813.509 125.387 813.687 125.228C813.864 125.06 814.083 124.976 814.345 124.976C814.606 124.976 814.825 125.06 815.003 125.228C815.18 125.387 815.269 125.601 815.269 125.872C815.269 126.143 815.18 126.362 815.003 126.53C814.825 126.689 814.606 126.768 814.345 126.768Z" fill="#3C4043"/>
<path d="M819.469 135V128.196H820.421L820.519 129.358H820.575C820.93 128.975 821.313 128.658 821.723 128.406C822.134 128.154 822.605 128.028 823.137 128.028C823.949 128.028 824.542 128.261 824.915 128.728C825.298 129.185 825.489 129.867 825.489 130.772V135H824.341V130.926C824.341 130.282 824.22 129.806 823.977 129.498C823.735 129.181 823.333 129.022 822.773 129.022C822.568 129.022 822.377 129.05 822.199 129.106C822.031 129.153 821.863 129.227 821.695 129.33C821.527 129.433 821.355 129.563 821.177 129.722C821 129.871 820.813 130.049 820.617 130.254V135H819.469Z" fill="#3C4043"/>
<path d="M831.482 135.168C830.968 135.168 830.488 135.089 830.04 134.93C829.601 134.771 829.214 134.538 828.878 134.23C828.551 133.922 828.29 133.549 828.094 133.11C827.907 132.662 827.814 132.153 827.814 131.584C827.814 131.033 827.907 130.539 828.094 130.1C828.29 129.661 828.546 129.288 828.864 128.98C829.19 128.672 829.559 128.439 829.97 128.28C830.39 128.112 830.828 128.028 831.286 128.028C831.771 128.028 832.205 128.107 832.588 128.266C832.98 128.415 833.306 128.63 833.568 128.91C833.838 129.19 834.044 129.526 834.184 129.918C834.324 130.31 834.394 130.744 834.394 131.22C834.394 131.351 834.389 131.477 834.38 131.598C834.37 131.719 834.356 131.827 834.338 131.92H828.976C829.05 132.695 829.33 133.278 829.816 133.67C830.31 134.053 830.912 134.244 831.622 134.244C832.032 134.244 832.401 134.188 832.728 134.076C833.064 133.955 833.386 133.796 833.694 133.6L834.114 134.356C833.778 134.58 833.39 134.771 832.952 134.93C832.522 135.089 832.032 135.168 831.482 135.168ZM831.314 128.938C831.034 128.938 830.763 128.985 830.502 129.078C830.25 129.171 830.021 129.307 829.816 129.484C829.61 129.652 829.438 129.867 829.298 130.128C829.158 130.389 829.06 130.688 829.004 131.024H833.344C833.297 130.324 833.092 129.801 832.728 129.456C832.373 129.111 831.902 128.938 831.314 128.938Z" fill="#3C4043"/>
<path d="M661.106 121V119.334H663.5V114.196H661.526V112.922C661.825 112.875 662.091 112.829 662.324 112.782C662.567 112.726 662.786 112.665 662.982 112.6C663.178 112.535 663.36 112.465 663.528 112.39C663.705 112.306 663.878 112.213 664.046 112.11H665.558V119.334H667.574V121H661.106Z" fill="#272EB5"/>
<path d="M673.314 121.168C672.773 121.168 672.264 121.089 671.788 120.93C671.322 120.762 670.916 120.524 670.57 120.216C670.225 119.908 669.954 119.53 669.758 119.082C669.562 118.625 669.464 118.107 669.464 117.528C669.464 116.959 669.562 116.45 669.758 116.002C669.964 115.545 670.234 115.162 670.57 114.854C670.906 114.537 671.289 114.299 671.718 114.14C672.157 113.972 672.61 113.888 673.076 113.888C673.608 113.888 674.08 113.972 674.49 114.14C674.901 114.308 675.242 114.541 675.512 114.84C675.792 115.139 676.002 115.493 676.142 115.904C676.282 116.305 676.352 116.744 676.352 117.22C676.352 117.407 676.338 117.589 676.31 117.766C676.292 117.934 676.273 118.06 676.254 118.144H671.522C671.625 118.648 671.854 119.017 672.208 119.25C672.563 119.483 673.025 119.6 673.594 119.6C673.912 119.6 674.21 119.558 674.49 119.474C674.78 119.39 675.078 119.269 675.386 119.11L676.072 120.356C675.671 120.608 675.228 120.809 674.742 120.958C674.257 121.098 673.781 121.168 673.314 121.168ZM673.146 115.456C672.736 115.456 672.39 115.563 672.11 115.778C671.84 115.993 671.653 116.319 671.55 116.758H674.518C674.416 115.89 673.958 115.456 673.146 115.456Z" fill="#272EB5"/>
<path d="M677.907 121L680.315 117.388L678.061 114.056H680.273L680.987 115.176C681.09 115.372 681.206 115.573 681.337 115.778C681.468 115.974 681.594 116.17 681.715 116.366H681.771C681.864 116.17 681.958 115.969 682.051 115.764C682.154 115.559 682.252 115.363 682.345 115.176L682.961 114.056H685.117L682.849 117.626L685.257 121H683.045L682.247 119.852C682.116 119.656 681.981 119.455 681.841 119.25C681.71 119.045 681.58 118.844 681.449 118.648H681.393C681.29 118.844 681.183 119.045 681.071 119.25C680.959 119.446 680.852 119.647 680.749 119.852L680.063 121H677.907Z" fill="#272EB5"/>
<path d="M338.106 169V167.334H340.5V162.196H338.526V160.922C338.825 160.875 339.091 160.829 339.324 160.782C339.567 160.726 339.786 160.665 339.982 160.6C340.178 160.535 340.36 160.465 340.528 160.39C340.705 160.306 340.878 160.213 341.046 160.11H342.558V167.334H344.574V169H338.106Z" fill="#272EB5"/>
<path d="M350.497 169.168C349.946 169.168 349.437 169.089 348.971 168.93C348.504 168.762 348.093 168.524 347.739 168.216C347.393 167.908 347.123 167.53 346.927 167.082C346.731 166.625 346.633 166.107 346.633 165.528C346.633 164.949 346.74 164.436 346.955 163.988C347.179 163.531 347.473 163.148 347.837 162.84C348.21 162.532 348.639 162.299 349.125 162.14C349.61 161.972 350.119 161.888 350.651 161.888C351.201 161.888 351.696 161.977 352.135 162.154C352.583 162.331 352.956 162.555 353.255 162.826L352.303 164.1C351.789 163.736 351.276 163.554 350.763 163.554C350.165 163.554 349.68 163.731 349.307 164.086C348.933 164.441 348.747 164.921 348.747 165.528C348.747 166.135 348.924 166.615 349.279 166.97C349.643 167.325 350.114 167.502 350.693 167.502C351.057 167.502 351.388 167.437 351.687 167.306C351.995 167.175 352.275 167.021 352.527 166.844L353.353 168.146C352.933 168.501 352.471 168.762 351.967 168.93C351.463 169.089 350.973 169.168 350.497 169.168Z" fill="#272EB5"/>
<path d="M355.397 169V159.186H357.455V161.594L357.343 162.924H357.385C357.646 162.653 357.964 162.415 358.337 162.21C358.71 161.995 359.163 161.888 359.695 161.888C360.479 161.888 361.048 162.14 361.403 162.644C361.767 163.148 361.949 163.839 361.949 164.716V169H359.891V164.982C359.891 164.515 359.816 164.175 359.667 163.96C359.518 163.745 359.252 163.638 358.869 163.638C358.589 163.638 358.342 163.699 358.127 163.82C357.922 163.941 357.698 164.123 357.455 164.366V169H355.397Z" fill="#272EB5"/>
</svg>
