<svg width="760" height="304" viewBox="0 0 760 304" fill="none" xmlns="http://www.w3.org/2000/svg">
<rect width="760" height="304" fill="white"/>
<path d="M145.36 41.8237H139.045V59H134.797V41.8237H128.566V38.3828H145.36V41.8237Z" fill="#272EB5"/>
<path d="M144.244 51.1978C144.244 49.6779 144.537 48.3232 145.122 47.1338C145.708 45.9443 146.548 45.0239 147.643 44.3726C148.747 43.7212 150.026 43.3955 151.48 43.3955C153.548 43.3955 155.233 44.028 156.535 45.293C157.848 46.5579 158.579 48.276 158.73 50.4473L158.758 51.4951C158.758 53.8457 158.102 55.7337 156.79 57.1592C155.478 58.5752 153.717 59.2832 151.508 59.2832C149.3 59.2832 147.534 58.5752 146.213 57.1592C144.9 55.7432 144.244 53.8174 144.244 51.3818V51.1978ZM148.337 51.4951C148.337 52.9489 148.61 54.0628 149.158 54.8369C149.705 55.6016 150.489 55.9839 151.508 55.9839C152.5 55.9839 153.274 55.6063 153.831 54.8511C154.388 54.0864 154.666 52.8687 154.666 51.1978C154.666 49.7723 154.388 48.6678 153.831 47.8843C153.274 47.1007 152.49 46.709 151.48 46.709C150.48 46.709 149.705 47.1007 149.158 47.8843C148.61 48.6584 148.337 49.862 148.337 51.4951Z" fill="#272EB5"/>
<path d="M175.371 51.481C175.371 53.841 174.833 55.7337 173.757 57.1592C172.69 58.5752 171.246 59.2832 169.424 59.2832C167.876 59.2832 166.625 58.7451 165.671 57.6689V64.8906H161.579V43.6787H165.374L165.516 45.1797C166.507 43.9902 167.8 43.3955 169.395 43.3955C171.283 43.3955 172.751 44.0941 173.799 45.4912C174.847 46.8883 175.371 48.8141 175.371 51.2686V51.481ZM171.279 51.1836C171.279 49.7581 171.024 48.6584 170.514 47.8843C170.014 47.1102 169.282 46.7231 168.319 46.7231C167.035 46.7231 166.153 47.214 165.671 48.1958V54.4688C166.172 55.4788 167.064 55.9839 168.348 55.9839C170.302 55.9839 171.279 54.3838 171.279 51.1836Z" fill="#272EB5"/>
<path d="M137.473 85.4526H134.089V93H129.841V72.3828H137.501C139.937 72.3828 141.816 72.9256 143.137 74.0112C144.459 75.0968 145.12 76.6309 145.12 78.6133C145.12 80.0199 144.813 81.1951 144.199 82.1392C143.595 83.0737 142.675 83.8195 141.438 84.3765L145.898 92.8018V93H141.339L137.473 85.4526ZM134.089 82.0117H137.516C138.582 82.0117 139.408 81.7427 139.994 81.2046C140.579 80.6571 140.872 79.9066 140.872 78.9531C140.872 77.9808 140.593 77.2161 140.036 76.6592C139.489 76.1022 138.644 75.8237 137.501 75.8237H134.089V82.0117Z" fill="#272EB5"/>
<path d="M152.712 93H148.606V77.6787H152.712V93ZM148.365 73.7139C148.365 73.1003 148.568 72.5952 148.974 72.1987C149.389 71.8022 149.951 71.604 150.659 71.604C151.357 71.604 151.914 71.8022 152.33 72.1987C152.745 72.5952 152.953 73.1003 152.953 73.7139C152.953 74.3369 152.74 74.8467 152.316 75.2432C151.9 75.6396 151.348 75.8379 150.659 75.8379C149.97 75.8379 149.413 75.6396 148.988 75.2432C148.573 74.8467 148.365 74.3369 148.365 73.7139Z" fill="#272EB5"/>
<path d="M155.802 85.2261C155.802 82.8755 156.359 80.9827 157.473 79.5479C158.596 78.113 160.106 77.3955 162.004 77.3955C163.684 77.3955 164.992 77.9714 165.926 79.123L166.096 77.6787H169.806V92.4902C169.806 93.8307 169.499 94.9966 168.886 95.9878C168.281 96.979 167.427 97.7342 166.323 98.2534C165.218 98.7726 163.925 99.0322 162.443 99.0322C161.319 99.0322 160.224 98.8057 159.158 98.3525C158.091 97.9089 157.284 97.333 156.736 96.625L158.549 94.1328C159.568 95.2751 160.805 95.8462 162.259 95.8462C163.344 95.8462 164.189 95.5535 164.793 94.9683C165.398 94.3924 165.7 93.5711 165.7 92.5044V91.6831C164.756 92.7498 163.514 93.2832 161.975 93.2832C160.135 93.2832 158.643 92.5658 157.501 91.1309C156.368 89.6865 155.802 87.7749 155.802 85.396V85.2261ZM159.894 85.5234C159.894 86.9111 160.172 88.0015 160.729 88.7944C161.286 89.578 162.051 89.9697 163.023 89.9697C164.269 89.9697 165.162 89.5024 165.7 88.5679V82.125C165.152 81.1904 164.269 80.7231 163.052 80.7231C162.07 80.7231 161.296 81.1243 160.729 81.9268C160.172 82.7292 159.894 83.9281 159.894 85.5234Z" fill="#272EB5"/>
<path d="M177.257 79.3496C178.343 78.0469 179.707 77.3955 181.349 77.3955C184.672 77.3955 186.357 79.326 186.404 83.187V93H182.312V83.3003C182.312 82.4224 182.123 81.7757 181.746 81.3604C181.368 80.9355 180.74 80.7231 179.862 80.7231C178.664 80.7231 177.795 81.1857 177.257 82.1108V93H173.165V71.25H177.257V79.3496Z" fill="#272EB5"/>
<path d="M194.691 73.9121V77.6787H197.31V80.6807H194.691V88.3271C194.691 88.8936 194.799 89.2995 195.016 89.5449C195.234 89.7904 195.649 89.9131 196.262 89.9131C196.716 89.9131 197.117 89.88 197.466 89.814V92.915C196.664 93.1605 195.838 93.2832 194.988 93.2832C192.118 93.2832 190.655 91.8341 190.598 88.936V80.6807H188.361V77.6787H190.598V73.9121H194.691Z" fill="#272EB5"/>
<path d="M129.841 195V174.383H137.062C139.564 174.383 141.462 174.864 142.755 175.827C144.048 176.781 144.695 178.182 144.695 180.033C144.695 181.043 144.435 181.935 143.916 182.709C143.397 183.474 142.675 184.035 141.75 184.394C142.807 184.658 143.638 185.192 144.242 185.994C144.855 186.797 145.162 187.778 145.162 188.939C145.162 190.922 144.53 192.423 143.265 193.442C142 194.462 140.197 194.981 137.855 195H129.841ZM134.089 186.022V191.587H137.728C138.729 191.587 139.507 191.351 140.064 190.879C140.631 190.398 140.914 189.737 140.914 188.897C140.914 187.009 139.937 186.051 137.983 186.022H134.089ZM134.089 183.021H137.232C139.375 182.983 140.447 182.128 140.447 180.458C140.447 179.523 140.173 178.853 139.625 178.447C139.087 178.031 138.233 177.824 137.062 177.824H134.089V183.021Z" fill="#272EB5"/>
<path d="M147.756 187.198C147.756 185.678 148.049 184.323 148.634 183.134C149.219 181.944 150.059 181.024 151.154 180.373C152.259 179.721 153.538 179.396 154.992 179.396C157.059 179.396 158.744 180.028 160.047 181.293C161.359 182.558 162.091 184.276 162.242 186.447L162.27 187.495C162.27 189.846 161.614 191.734 160.302 193.159C158.99 194.575 157.229 195.283 155.02 195.283C152.811 195.283 151.046 194.575 149.724 193.159C148.412 191.743 147.756 189.817 147.756 187.382V187.198ZM151.848 187.495C151.848 188.949 152.122 190.063 152.67 190.837C153.217 191.602 154.001 191.984 155.02 191.984C156.011 191.984 156.786 191.606 157.342 190.851C157.899 190.086 158.178 188.869 158.178 187.198C158.178 185.772 157.899 184.668 157.342 183.884C156.786 183.101 156.002 182.709 154.992 182.709C153.991 182.709 153.217 183.101 152.67 183.884C152.122 184.658 151.848 185.862 151.848 187.495Z" fill="#272EB5"/>
<path d="M169.99 175.912V179.679H172.61V182.681H169.99V190.327C169.99 190.894 170.099 191.299 170.316 191.545C170.533 191.79 170.948 191.913 171.562 191.913C172.015 191.913 172.416 191.88 172.766 191.814V194.915C171.963 195.16 171.137 195.283 170.287 195.283C167.418 195.283 165.954 193.834 165.898 190.936V182.681H163.661V179.679H165.898V175.912H169.99Z" fill="#272EB5"/>
<path d="M180.089 175.912V179.679H182.709V182.681H180.089V190.327C180.089 190.894 180.198 191.299 180.415 191.545C180.632 191.79 181.047 191.913 181.661 191.913C182.114 191.913 182.515 191.88 182.864 191.814V194.915C182.062 195.16 181.236 195.283 180.386 195.283C177.517 195.283 176.053 193.834 175.997 190.936V182.681H173.759V179.679H175.997V175.912H180.089Z" fill="#272EB5"/>
<path d="M184.226 187.198C184.226 185.678 184.519 184.323 185.104 183.134C185.69 181.944 186.53 181.024 187.625 180.373C188.729 179.721 190.008 179.396 191.462 179.396C193.53 179.396 195.215 180.028 196.517 181.293C197.83 182.558 198.561 184.276 198.712 186.447L198.741 187.495C198.741 189.846 198.084 191.734 196.772 193.159C195.46 194.575 193.7 195.283 191.491 195.283C189.282 195.283 187.516 194.575 186.195 193.159C184.882 191.743 184.226 189.817 184.226 187.382V187.198ZM188.319 187.495C188.319 188.949 188.592 190.063 189.14 190.837C189.687 191.602 190.471 191.984 191.491 191.984C192.482 191.984 193.256 191.606 193.813 190.851C194.37 190.086 194.648 188.869 194.648 187.198C194.648 185.772 194.37 184.668 193.813 183.884C193.256 183.101 192.472 182.709 191.462 182.709C190.462 182.709 189.687 183.101 189.14 183.884C188.592 184.658 188.319 185.862 188.319 187.495Z" fill="#272EB5"/>
<path d="M205.398 179.679L205.526 181.392C206.611 180.061 208.079 179.396 209.93 179.396C211.903 179.396 213.257 180.174 213.994 181.732C215.07 180.174 216.604 179.396 218.596 179.396C220.257 179.396 221.494 179.882 222.306 180.854C223.118 181.817 223.523 183.271 223.523 185.215V195H219.417V185.229C219.417 184.361 219.247 183.729 218.907 183.332C218.567 182.926 217.968 182.723 217.109 182.723C215.882 182.723 215.032 183.308 214.56 184.479L214.574 195H210.482V185.244C210.482 184.356 210.307 183.714 209.958 183.318C209.609 182.921 209.014 182.723 208.174 182.723C207.013 182.723 206.173 183.205 205.653 184.167V195H201.561V179.679H205.398Z" fill="#272EB5"/>
<path d="M134.089 225.587H143.109V229H129.841V208.383H134.089V225.587Z" fill="#272EB5"/>
<path d="M152.641 229.283C150.395 229.283 148.563 228.594 147.147 227.216C145.741 225.838 145.037 224.001 145.037 221.708V221.311C145.037 219.772 145.335 218.399 145.929 217.19C146.524 215.973 147.364 215.038 148.45 214.387C149.545 213.726 150.791 213.396 152.188 213.396C154.284 213.396 155.931 214.056 157.13 215.378C158.338 216.7 158.943 218.573 158.943 221V222.67H149.186C149.318 223.671 149.715 224.473 150.376 225.078C151.046 225.682 151.891 225.984 152.91 225.984C154.487 225.984 155.719 225.413 156.606 224.271L158.617 226.522C158.003 227.39 157.173 228.07 156.125 228.561C155.077 229.042 153.916 229.283 152.641 229.283ZM152.174 216.709C151.362 216.709 150.701 216.983 150.192 217.53C149.691 218.078 149.37 218.861 149.229 219.881H154.921V219.555C154.902 218.649 154.657 217.95 154.185 217.459C153.713 216.959 153.043 216.709 152.174 216.709Z" fill="#272EB5"/>
<path d="M162.698 229V216.681H160.418V213.679H162.698V212.376C162.698 210.658 163.189 209.327 164.17 208.383C165.162 207.429 166.544 206.953 168.319 206.953C168.886 206.953 169.579 207.047 170.401 207.236L170.358 210.408C170.018 210.323 169.603 210.28 169.112 210.28C167.573 210.28 166.804 211.002 166.804 212.447V213.679H169.849V216.681H166.804V229H162.698Z" fill="#272EB5"/>
<path d="M177.172 209.912V213.679H179.792V216.681H177.172V224.327C177.172 224.894 177.281 225.299 177.498 225.545C177.715 225.79 178.13 225.913 178.744 225.913C179.197 225.913 179.598 225.88 179.947 225.814V228.915C179.145 229.16 178.319 229.283 177.469 229.283C174.6 229.283 173.136 227.834 173.08 224.936V216.681H170.842V213.679H173.08V209.912H177.172Z" fill="#272EB5"/>
<path d="M146.559 117.059C146.559 119.089 146.2 120.868 145.482 122.397C144.765 123.927 143.736 125.107 142.396 125.938C141.064 126.768 139.535 127.184 137.808 127.184C136.099 127.184 134.574 126.773 133.234 125.952C131.893 125.13 130.855 123.96 130.119 122.44C129.382 120.911 129.009 119.155 129 117.172V116.153C129 114.123 129.363 112.339 130.09 110.8C130.827 109.252 131.86 108.067 133.191 107.246C134.532 106.415 136.061 106 137.779 106C139.497 106 141.022 106.415 142.353 107.246C143.694 108.067 144.727 109.252 145.454 110.8C146.19 112.339 146.559 114.118 146.559 116.139V117.059ZM142.254 116.125C142.254 113.963 141.867 112.32 141.093 111.197C140.319 110.073 139.214 109.512 137.779 109.512C136.354 109.512 135.254 110.069 134.48 111.183C133.706 112.287 133.314 113.911 133.305 116.054V117.059C133.305 119.164 133.692 120.797 134.466 121.958C135.24 123.12 136.354 123.7 137.808 123.7C139.233 123.7 140.328 123.143 141.093 122.029C141.857 120.906 142.244 119.273 142.254 117.13V116.125Z" fill="#3C4043"/>
<path d="M145.228 140.283V153.863C145.228 156.119 144.52 157.903 143.104 159.215C141.697 160.528 139.771 161.184 137.326 161.184C134.919 161.184 133.007 160.546 131.591 159.272C130.175 157.998 129.453 156.246 129.425 154.019V140.283H133.673V153.891C133.673 155.241 133.994 156.228 134.636 156.851C135.287 157.464 136.184 157.771 137.326 157.771C139.715 157.771 140.928 156.515 140.965 154.004V140.283H145.228Z" fill="#3C4043"/>
<path d="M142.027 253.965H133.871V259.488H143.443V262.9H129.623V242.283H143.415V245.724H133.871V250.638H142.027V253.965Z" fill="#3C4043"/>
<rect x="357.5" y="89.5" width="241" height="124" fill="#E8F0FE" stroke="#3740FF"/>
<path d="M550.634 69.2015C577.229 67.1807 629.125 73.9618 623.944 117.253" stroke="#5F6368" stroke-linejoin="round"/>
<path d="M620.21 114.792L623.944 117.253L628.153 115.742" stroke="#5F6368" stroke-linejoin="round"/>
<path d="M625.696 185.391C618.652 211.116 594.809 257.705 555.784 238.264" stroke="#5F6368" stroke-linejoin="round"/>
<path d="M559.357 235.575L555.784 238.264L555.79 242.736" stroke="#5F6368" stroke-linejoin="round"/>
<path d="M398.263 245.024C371.65 243.242 321.247 229.15 332.532 187.035" stroke="#5F6368" stroke-linejoin="round"/>
<path d="M335.878 190.002L332.532 187.035L328.15 187.932" stroke="#5F6368" stroke-linejoin="round"/>
<path d="M467.772 75V67.608H465.042V65.872H472.574V67.608H469.844V75H467.772Z" fill="#3C4043"/>
<path d="M477.503 75.168C477.045 75.168 476.602 75.0887 476.173 74.93C475.753 74.762 475.375 74.524 475.039 74.216C474.712 73.908 474.451 73.53 474.255 73.082C474.059 72.6247 473.961 72.1067 473.961 71.528C473.961 70.9493 474.059 70.436 474.255 69.988C474.451 69.5307 474.712 69.148 475.039 68.84C475.375 68.532 475.753 68.2987 476.173 68.14C476.602 67.972 477.045 67.888 477.503 67.888C477.96 67.888 478.399 67.972 478.819 68.14C479.248 68.2987 479.626 68.532 479.953 68.84C480.289 69.148 480.555 69.5307 480.751 69.988C480.947 70.436 481.045 70.9493 481.045 71.528C481.045 72.1067 480.947 72.6247 480.751 73.082C480.555 73.53 480.289 73.908 479.953 74.216C479.626 74.524 479.248 74.762 478.819 74.93C478.399 75.0887 477.96 75.168 477.503 75.168ZM477.503 73.502C477.979 73.502 478.333 73.3247 478.567 72.97C478.809 72.6153 478.931 72.1347 478.931 71.528C478.931 70.9213 478.809 70.4407 478.567 70.086C478.333 69.7313 477.979 69.554 477.503 69.554C477.027 69.554 476.667 69.7313 476.425 70.086C476.191 70.4407 476.075 70.9213 476.075 71.528C476.075 72.1347 476.191 72.6153 476.425 72.97C476.667 73.3247 477.027 73.502 477.503 73.502Z" fill="#3C4043"/>
<path d="M483.005 77.576V68.056H484.685L484.839 68.756H484.881C485.161 68.504 485.483 68.2987 485.847 68.14C486.211 67.972 486.58 67.888 486.953 67.888C487.383 67.888 487.77 67.972 488.115 68.14C488.461 68.308 488.755 68.546 488.997 68.854C489.24 69.162 489.422 69.5353 489.543 69.974C489.674 70.4033 489.739 70.884 489.739 71.416C489.739 72.0133 489.655 72.5453 489.487 73.012C489.319 73.4693 489.095 73.8613 488.815 74.188C488.535 74.5053 488.213 74.748 487.849 74.916C487.495 75.084 487.121 75.168 486.729 75.168C486.095 75.168 485.525 74.916 485.021 74.412H484.965L485.063 75.546V77.576H483.005ZM486.253 73.488C486.645 73.488 486.972 73.3293 487.233 73.012C487.495 72.6853 487.625 72.1627 487.625 71.444C487.625 70.1933 487.201 69.568 486.351 69.568C485.913 69.568 485.483 69.7827 485.063 70.212V73.026C485.259 73.194 485.46 73.3153 485.665 73.39C485.88 73.4553 486.076 73.488 486.253 73.488Z" fill="#3C4043"/>
<path d="M452.602 241V231.872H455.668C456.144 231.872 456.583 231.909 456.984 231.984C457.395 232.049 457.75 232.171 458.048 232.348C458.347 232.525 458.58 232.759 458.748 233.048C458.926 233.337 459.014 233.701 459.014 234.14C459.014 234.345 458.982 234.551 458.916 234.756C458.86 234.961 458.767 235.153 458.636 235.33C458.506 235.507 458.342 235.666 458.146 235.806C457.95 235.946 457.717 236.049 457.446 236.114V236.17C458.1 236.291 458.594 236.525 458.93 236.87C459.266 237.215 459.434 237.696 459.434 238.312C459.434 238.779 459.346 239.18 459.168 239.516C458.991 239.852 458.744 240.132 458.426 240.356C458.109 240.571 457.736 240.734 457.306 240.846C456.886 240.949 456.429 241 455.934 241H452.602ZM454.66 235.54H455.57C456.074 235.54 456.438 235.442 456.662 235.246C456.886 235.05 456.998 234.775 456.998 234.42C456.998 234.084 456.882 233.846 456.648 233.706C456.424 233.557 456.07 233.482 455.584 233.482H454.66V235.54ZM454.66 239.39H455.766C456.868 239.39 457.418 238.979 457.418 238.158C457.418 237.757 457.283 237.467 457.012 237.29C456.751 237.113 456.336 237.024 455.766 237.024H454.66V239.39Z" fill="#3C4043"/>
<path d="M464.461 241.168C464.004 241.168 463.56 241.089 463.131 240.93C462.711 240.762 462.333 240.524 461.997 240.216C461.67 239.908 461.409 239.53 461.213 239.082C461.017 238.625 460.919 238.107 460.919 237.528C460.919 236.949 461.017 236.436 461.213 235.988C461.409 235.531 461.67 235.148 461.997 234.84C462.333 234.532 462.711 234.299 463.131 234.14C463.56 233.972 464.004 233.888 464.461 233.888C464.918 233.888 465.357 233.972 465.777 234.14C466.206 234.299 466.584 234.532 466.911 234.84C467.247 235.148 467.513 235.531 467.709 235.988C467.905 236.436 468.003 236.949 468.003 237.528C468.003 238.107 467.905 238.625 467.709 239.082C467.513 239.53 467.247 239.908 466.911 240.216C466.584 240.524 466.206 240.762 465.777 240.93C465.357 241.089 464.918 241.168 464.461 241.168ZM464.461 239.502C464.937 239.502 465.292 239.325 465.525 238.97C465.768 238.615 465.889 238.135 465.889 237.528C465.889 236.921 465.768 236.441 465.525 236.086C465.292 235.731 464.937 235.554 464.461 235.554C463.985 235.554 463.626 235.731 463.383 236.086C463.15 236.441 463.033 236.921 463.033 237.528C463.033 238.135 463.15 238.615 463.383 238.97C463.626 239.325 463.985 239.502 464.461 239.502Z" fill="#3C4043"/>
<path d="M474.387 241.168C473.837 241.168 473.37 241.093 472.987 240.944C472.605 240.795 472.292 240.589 472.049 240.328C471.816 240.057 471.648 239.735 471.545 239.362C471.443 238.989 471.391 238.573 471.391 238.116V235.666H469.641V234.14L471.489 234.056L471.755 231.928H473.449V234.056H476.389V235.666H473.449V238.102C473.449 238.634 473.566 239.012 473.799 239.236C474.033 239.451 474.406 239.558 474.919 239.558C475.181 239.558 475.419 239.535 475.633 239.488C475.857 239.441 476.077 239.381 476.291 239.306L476.655 240.79C476.347 240.883 476.007 240.967 475.633 241.042C475.269 241.126 474.854 241.168 474.387 241.168Z" fill="#3C4043"/>
<path d="M483.082 241.168C482.531 241.168 482.065 241.093 481.682 240.944C481.299 240.795 480.987 240.589 480.744 240.328C480.511 240.057 480.343 239.735 480.24 239.362C480.137 238.989 480.086 238.573 480.086 238.116V235.666H478.336V234.14L480.184 234.056L480.45 231.928H482.144V234.056H485.084V235.666H482.144V238.102C482.144 238.634 482.261 239.012 482.494 239.236C482.727 239.451 483.101 239.558 483.614 239.558C483.875 239.558 484.113 239.535 484.328 239.488C484.552 239.441 484.771 239.381 484.986 239.306L485.35 240.79C485.042 240.883 484.701 240.967 484.328 241.042C483.964 241.126 483.549 241.168 483.082 241.168Z" fill="#3C4043"/>
<path d="M490.545 241.168C490.087 241.168 489.644 241.089 489.215 240.93C488.795 240.762 488.417 240.524 488.081 240.216C487.754 239.908 487.493 239.53 487.297 239.082C487.101 238.625 487.003 238.107 487.003 237.528C487.003 236.949 487.101 236.436 487.297 235.988C487.493 235.531 487.754 235.148 488.081 234.84C488.417 234.532 488.795 234.299 489.215 234.14C489.644 233.972 490.087 233.888 490.545 233.888C491.002 233.888 491.441 233.972 491.861 234.14C492.29 234.299 492.668 234.532 492.995 234.84C493.331 235.148 493.597 235.531 493.793 235.988C493.989 236.436 494.087 236.949 494.087 237.528C494.087 238.107 493.989 238.625 493.793 239.082C493.597 239.53 493.331 239.908 492.995 240.216C492.668 240.524 492.29 240.762 491.861 240.93C491.441 241.089 491.002 241.168 490.545 241.168ZM490.545 239.502C491.021 239.502 491.375 239.325 491.609 238.97C491.851 238.615 491.973 238.135 491.973 237.528C491.973 236.921 491.851 236.441 491.609 236.086C491.375 235.731 491.021 235.554 490.545 235.554C490.069 235.554 489.709 235.731 489.467 236.086C489.233 236.441 489.117 236.921 489.117 237.528C489.117 238.135 489.233 238.615 489.467 238.97C489.709 239.325 490.069 239.502 490.545 239.502Z" fill="#3C4043"/>
<path d="M495.529 241V234.056H497.083L497.223 234.91H497.279C497.41 234.63 497.592 234.392 497.825 234.196C498.058 233.991 498.376 233.888 498.777 233.888C499.076 233.888 499.328 233.986 499.533 234.182C499.748 234.369 499.897 234.649 499.981 235.022C500.112 234.705 500.298 234.439 500.541 234.224C500.793 234 501.12 233.888 501.521 233.888C502.025 233.888 502.408 234.089 502.669 234.49C502.94 234.882 503.075 235.428 503.075 236.128V241H501.115V236.268C501.115 236.053 501.087 235.895 501.031 235.792C500.975 235.689 500.877 235.638 500.737 235.638C500.606 235.638 500.494 235.694 500.401 235.806C500.308 235.918 500.21 236.086 500.107 236.31V241H498.497V236.268C498.497 235.848 498.366 235.638 498.105 235.638C497.974 235.638 497.862 235.694 497.769 235.806C497.676 235.918 497.582 236.086 497.489 236.31V241H495.529Z" fill="#3C4043"/>
<path d="M620 132.894L629.128 132.894V136.128C629.128 136.613 629.081 137.066 628.988 137.486C628.895 137.915 628.736 138.288 628.512 138.606C628.297 138.932 628.008 139.189 627.644 139.376C627.28 139.562 626.827 139.656 626.286 139.656C625.614 139.656 625.059 139.506 624.62 139.208C624.191 138.909 623.869 138.517 623.654 138.032L620 140.09V137.78L623.29 136.03V134.952H620V132.894ZM624.928 134.952V135.96C624.928 137.07 625.381 137.626 626.286 137.626C626.734 137.626 627.047 137.486 627.224 137.206C627.401 136.926 627.49 136.51 627.49 135.96V134.952H624.928Z" fill="#3C4043"/>
<path d="M620 144.5H625.334V141.714H626.944V146.558H620V144.5ZM628.036 145.438C628.036 145.037 628.148 144.706 628.372 144.444C628.596 144.192 628.899 144.066 629.282 144.066C629.665 144.066 629.973 144.192 630.206 144.444C630.449 144.706 630.57 145.037 630.57 145.438C630.57 145.84 630.449 146.166 630.206 146.418C629.973 146.68 629.665 146.81 629.282 146.81C628.899 146.81 628.596 146.68 628.372 146.418C628.148 146.166 628.036 145.84 628.036 145.438Z" fill="#3C4043"/>
<path d="M617.046 153.181C617.046 152.733 617.083 152.313 617.158 151.921C617.223 151.538 617.331 151.207 617.48 150.927C617.62 150.647 617.802 150.427 618.026 150.269C618.25 150.11 618.516 150.031 618.824 150.031C619.393 150.031 619.855 150.39 620.21 151.109H620.266C620.387 150.913 620.541 150.745 620.728 150.605C620.915 150.474 621.157 150.409 621.456 150.409C621.689 150.409 621.923 150.483 622.156 150.633C622.389 150.791 622.59 150.992 622.758 151.235H622.814C622.982 150.983 623.215 150.768 623.514 150.591C623.822 150.413 624.181 150.325 624.592 150.325C625.012 150.325 625.376 150.404 625.684 150.563C626.001 150.731 626.263 150.95 626.468 151.221C626.683 151.491 626.841 151.804 626.944 152.159C627.056 152.523 627.112 152.901 627.112 153.293C627.112 153.722 627.056 154.105 626.944 154.441V157.255H625.432V155.855C625.329 155.929 625.194 155.999 625.026 156.065C624.867 156.13 624.699 156.163 624.522 156.163C624.121 156.163 623.775 156.088 623.486 155.939C623.197 155.789 622.954 155.584 622.758 155.323C622.571 155.071 622.431 154.767 622.338 154.413C622.245 154.067 622.198 153.694 622.198 153.293C622.198 152.994 622.245 152.677 622.338 152.341C622.263 152.238 622.189 152.159 622.114 152.103C622.039 152.056 621.941 152.033 621.82 152.033C621.633 152.033 621.498 152.126 621.414 152.313C621.339 152.499 621.302 152.798 621.302 153.209V154.497C621.302 155.411 621.167 156.107 620.896 156.583C620.625 157.068 620.177 157.311 619.552 157.311C619.188 157.311 618.852 157.213 618.544 157.017C618.236 156.821 617.975 156.545 617.76 156.191C617.536 155.836 617.363 155.402 617.242 154.889C617.111 154.375 617.046 153.806 617.046 153.181ZM623.444 153.293C623.444 153.582 623.537 153.829 623.724 154.035C623.92 154.24 624.209 154.343 624.592 154.343C624.956 154.343 625.236 154.24 625.432 154.035C625.628 153.829 625.726 153.582 625.726 153.293C625.726 153.003 625.628 152.756 625.432 152.551C625.236 152.355 624.956 152.257 624.592 152.257C624.209 152.257 623.92 152.355 623.724 152.551C623.537 152.756 623.444 153.003 623.444 153.293ZM618.348 153.475C618.348 154.035 618.427 154.487 618.586 154.833C618.745 155.178 618.945 155.351 619.188 155.351C619.412 155.351 619.557 155.248 619.622 155.043C619.687 154.837 619.72 154.534 619.72 154.133V153.265C619.72 153.013 619.729 152.803 619.748 152.635C619.757 152.476 619.781 152.331 619.818 152.201C619.706 152.023 619.599 151.897 619.496 151.823C619.384 151.748 619.263 151.711 619.132 151.711C618.871 151.711 618.675 151.865 618.544 152.173C618.413 152.49 618.348 152.924 618.348 153.475Z" fill="#3C4043"/>
<path d="M620 159.005H629.814V161.063L627.406 161.063L626.076 160.951V160.993C626.347 161.255 626.585 161.572 626.79 161.945C627.005 162.319 627.112 162.771 627.112 163.303C627.112 164.087 626.86 164.657 626.356 165.011C625.852 165.375 625.161 165.557 624.284 165.557H620V163.499H624.018C624.485 163.499 624.825 163.425 625.04 163.275C625.255 163.126 625.362 162.86 625.362 162.477C625.362 162.197 625.301 161.95 625.18 161.735C625.059 161.53 624.877 161.306 624.634 161.063H620V159.005Z" fill="#3C4043"/>
<path d="M619.832 172.124C619.832 171.573 619.907 171.106 620.056 170.724C620.205 170.341 620.411 170.028 620.672 169.786C620.943 169.552 621.265 169.384 621.638 169.282C622.011 169.179 622.427 169.128 622.884 169.128H625.334V167.378H626.86L626.944 169.226L629.072 169.492V171.186H626.944V174.126H625.334V171.186H622.898C622.366 171.186 621.988 171.302 621.764 171.536C621.549 171.769 621.442 172.142 621.442 172.656C621.442 172.917 621.465 173.155 621.512 173.37C621.559 173.594 621.619 173.813 621.694 174.028L620.21 174.392C620.117 174.084 620.033 173.743 619.958 173.37C619.874 173.006 619.832 172.59 619.832 172.124Z" fill="#3C4043"/>
<path d="M339 166.241H329.872V164.183H337.264V160.123H339V166.241Z" fill="#3C4043"/>
<path d="M339.168 154.425C339.168 154.966 339.089 155.475 338.93 155.951C338.762 156.417 338.524 156.823 338.216 157.169C337.908 157.514 337.53 157.785 337.082 157.981C336.625 158.177 336.107 158.275 335.528 158.275C334.959 158.275 334.45 158.177 334.002 157.981C333.545 157.775 333.162 157.505 332.854 157.169C332.537 156.833 332.299 156.45 332.14 156.021C331.972 155.582 331.888 155.129 331.888 154.663C331.888 154.131 331.972 153.659 332.14 153.249C332.308 152.838 332.541 152.497 332.84 152.227C333.139 151.947 333.493 151.737 333.904 151.597C334.305 151.457 334.744 151.387 335.22 151.387C335.407 151.387 335.589 151.401 335.766 151.429C335.934 151.447 336.06 151.466 336.144 151.485V156.217C336.648 156.114 337.017 155.885 337.25 155.531C337.483 155.176 337.6 154.714 337.6 154.145C337.6 153.827 337.558 153.529 337.474 153.249C337.39 152.959 337.269 152.661 337.11 152.353L338.356 151.667C338.608 152.068 338.809 152.511 338.958 152.997C339.098 153.482 339.168 153.958 339.168 154.425ZM333.456 154.593C333.456 155.003 333.563 155.349 333.778 155.629C333.993 155.899 334.319 156.086 334.758 156.189V153.221C333.89 153.323 333.456 153.781 333.456 154.593Z" fill="#3C4043"/>
<path d="M339 147.368H333.666V149.202H332.14L332.056 147.368H331.874C331.473 147.368 331.099 147.307 330.754 147.186C330.409 147.065 330.11 146.878 329.858 146.626C329.597 146.374 329.391 146.052 329.242 145.66C329.093 145.268 329.018 144.801 329.018 144.26C329.018 143.859 329.055 143.485 329.13 143.14C329.205 142.785 329.293 142.459 329.396 142.16L330.908 142.552C330.731 143.009 330.642 143.495 330.642 144.008C330.642 144.456 330.74 144.787 330.936 145.002C331.132 145.207 331.44 145.31 331.86 145.31H332.056V142.916H333.666V145.31H339V147.368Z" fill="#3C4043"/>
<path d="M339.168 136.223C339.168 136.774 339.093 137.241 338.944 137.623C338.795 138.006 338.589 138.319 338.328 138.561C338.057 138.795 337.735 138.963 337.362 139.065C336.989 139.168 336.573 139.219 336.116 139.219H333.666V140.969H332.14L332.056 139.121L329.928 138.855V137.161H332.056V134.221H333.666V137.161H336.102C336.634 137.161 337.012 137.045 337.236 136.811C337.451 136.578 337.558 136.205 337.558 135.691C337.558 135.43 337.535 135.192 337.488 134.977C337.441 134.753 337.381 134.534 337.306 134.319L338.79 133.955C338.883 134.263 338.967 134.604 339.042 134.977C339.126 135.341 339.168 135.757 339.168 136.223Z" fill="#3C4043"/>
</svg>
