<svg width="710" height="385" viewBox="0 0 710 385" fill="none" xmlns="http://www.w3.org/2000/svg">
<rect width="710" height="385" fill="white"/>
<rect x="45.5" y="52.5" width="147" height="147" fill="#E8F0FE" stroke="#4E74D3" stroke-width="3"/>
<rect x="45.5" y="209.5" width="147" height="147" fill="#E8F0FE" stroke="#4E74D3" stroke-width="3"/>
<rect x="359.5" y="52.5" width="147" height="147" fill="#E8F0FE" stroke="#4E74D3" stroke-width="3"/>
<rect x="359.5" y="209.5" width="147" height="147" fill="#E8F0FE" stroke="#4E74D3" stroke-width="3"/>
<rect x="202.5" y="52.5" width="147" height="147" fill="#E8F0FE" stroke="#4E74D3" stroke-width="3"/>
<rect x="202.5" y="209.5" width="147" height="147" fill="#E8F0FE" stroke="#4E74D3" stroke-width="3"/>
<rect x="516.5" y="52.5" width="147" height="147" fill="#E8F0FE" stroke="#4E74D3" stroke-width="3"/>
<rect x="516.5" y="209.5" width="147" height="147" fill="#E8F0FE" stroke="#4E74D3" stroke-width="3"/>
<path d="M55.1094 34.3389C54.6465 34.9424 54.0049 35.3994 53.1846 35.71C52.3643 36.0205 51.4326 36.1758 50.3896 36.1758C49.3174 36.1758 48.3682 35.9326 47.542 35.4463C46.7158 34.96 46.0771 34.2656 45.626 33.3633C45.1807 32.4551 44.9492 31.3975 44.9316 30.1904V29.1885C44.9316 27.2549 45.3945 25.7461 46.3203 24.6621C47.2461 23.5723 48.5381 23.0273 50.1963 23.0273C51.6201 23.0273 52.751 23.3789 53.5889 24.082C54.4268 24.7852 54.9307 25.7988 55.1006 27.123H52.9209C52.6748 25.582 51.7812 24.8115 50.2402 24.8115C49.2441 24.8115 48.4854 25.1719 47.9639 25.8926C47.4482 26.6074 47.1816 27.6592 47.1641 29.0479V30.0322C47.1641 31.415 47.4541 32.4902 48.0342 33.2578C48.6201 34.0195 49.4316 34.4004 50.4688 34.4004C51.6055 34.4004 52.4141 34.1426 52.8945 33.627V31.1221H50.2578V29.4346H55.1094V34.3389Z" fill="black"/>
<path d="M62.6252 28.4414C62.3439 28.3945 62.0539 28.3711 61.7551 28.3711C60.7766 28.3711 60.1174 28.7461 59.7775 29.4961V36H57.6418V26.4902H59.6809L59.7336 27.5537C60.2492 26.7275 60.9641 26.3145 61.8781 26.3145C62.1828 26.3145 62.4348 26.3555 62.634 26.4375L62.6252 28.4414Z" fill="black"/>
<path d="M66.5463 36H64.4105V26.4902H66.5463V36ZM64.2787 24.0205C64.2787 23.6924 64.3813 23.4199 64.5863 23.2031C64.7973 22.9863 65.0961 22.8779 65.4828 22.8779C65.8695 22.8779 66.1684 22.9863 66.3793 23.2031C66.5902 23.4199 66.6957 23.6924 66.6957 24.0205C66.6957 24.3428 66.5902 24.6123 66.3793 24.8291C66.1684 25.04 65.8695 25.1455 65.4828 25.1455C65.0961 25.1455 64.7973 25.04 64.5863 24.8291C64.3813 24.6123 64.2787 24.3428 64.2787 24.0205Z" fill="black"/>
<path d="M68.7799 31.1748C68.7799 29.71 69.1197 28.5352 69.7994 27.6504C70.4791 26.7598 71.3902 26.3145 72.5328 26.3145C73.5406 26.3145 74.3551 26.666 74.9762 27.3691V22.5H77.1119V36H75.1783L75.0729 35.0156C74.4342 35.7891 73.5816 36.1758 72.5152 36.1758C71.402 36.1758 70.4996 35.7275 69.8082 34.8311C69.1227 33.9346 68.7799 32.7158 68.7799 31.1748ZM70.9156 31.3594C70.9156 32.3262 71.1002 33.082 71.4693 33.627C71.8443 34.166 72.3746 34.4355 73.0602 34.4355C73.9332 34.4355 74.5719 34.0459 74.9762 33.2666V29.2061C74.5836 28.4443 73.9508 28.0635 73.0777 28.0635C72.3863 28.0635 71.8531 28.3389 71.4781 28.8896C71.1031 29.4346 70.9156 30.2578 70.9156 31.3594Z" fill="black"/>
<path d="M94.4375 34.3389C93.9746 34.9424 93.333 35.3994 92.5127 35.71C91.6924 36.0205 90.7607 36.1758 89.7178 36.1758C88.6455 36.1758 87.6963 35.9326 86.8701 35.4463C86.0439 34.96 85.4053 34.2656 84.9541 33.3633C84.5088 32.4551 84.2773 31.3975 84.2598 30.1904V29.1885C84.2598 27.2549 84.7227 25.7461 85.6484 24.6621C86.5742 23.5723 87.8662 23.0273 89.5244 23.0273C90.9482 23.0273 92.0791 23.3789 92.917 24.082C93.7549 24.7852 94.2588 25.7988 94.4287 27.123H92.249C92.0029 25.582 91.1094 24.8115 89.5684 24.8115C88.5723 24.8115 87.8135 25.1719 87.292 25.8926C86.7764 26.6074 86.5098 27.6592 86.4922 29.0479V30.0322C86.4922 31.415 86.7822 32.4902 87.3623 33.2578C87.9482 34.0195 88.7598 34.4004 89.7969 34.4004C90.9336 34.4004 91.7422 34.1426 92.2227 33.627V31.1221H89.5859V29.4346H94.4375V34.3389Z" fill="black"/>
<path d="M102.656 36C102.563 35.8184 102.481 35.5225 102.41 35.1123C101.731 35.8213 100.899 36.1758 99.9143 36.1758C98.9592 36.1758 98.1799 35.9033 97.5764 35.3584C96.9729 34.8135 96.6711 34.1396 96.6711 33.3369C96.6711 32.3232 97.0461 31.5469 97.7961 31.0078C98.552 30.4629 99.6301 30.1904 101.03 30.1904H102.34V29.5664C102.34 29.0742 102.202 28.6816 101.927 28.3887C101.652 28.0898 101.233 27.9404 100.67 27.9404C100.184 27.9404 99.7854 28.0635 99.4748 28.3096C99.1643 28.5498 99.009 28.8574 99.009 29.2324H96.8732C96.8732 28.7109 97.0461 28.2246 97.3918 27.7734C97.7375 27.3164 98.2062 26.959 98.798 26.7012C99.3957 26.4434 100.061 26.3145 100.793 26.3145C101.906 26.3145 102.794 26.5957 103.456 27.1582C104.118 27.7148 104.458 28.5 104.476 29.5137V33.8027C104.476 34.6582 104.596 35.3408 104.836 35.8506V36H102.656ZM100.31 34.4619C100.732 34.4619 101.127 34.3594 101.496 34.1543C101.871 33.9492 102.153 33.6738 102.34 33.3281V31.5352H101.189C100.398 31.5352 99.8029 31.6729 99.4045 31.9482C99.0061 32.2236 98.8068 32.6133 98.8068 33.1172C98.8068 33.5273 98.9416 33.8555 99.2111 34.1016C99.4865 34.3418 99.8527 34.4619 100.31 34.4619Z" fill="black"/>
<path d="M115.34 31.3418C115.34 32.8125 115.006 33.9873 114.338 34.8662C113.67 35.7393 112.774 36.1758 111.649 36.1758C110.606 36.1758 109.771 35.833 109.144 35.1475V39.6562H107.008V26.4902H108.977L109.065 27.457C109.692 26.6953 110.544 26.3145 111.622 26.3145C112.783 26.3145 113.691 26.748 114.347 27.6152C115.009 28.4766 115.34 29.6748 115.34 31.21V31.3418ZM113.213 31.1572C113.213 30.208 113.023 29.4551 112.642 28.8984C112.267 28.3418 111.728 28.0635 111.025 28.0635C110.152 28.0635 109.525 28.4238 109.144 29.1445V33.3633C109.531 34.1016 110.163 34.4707 111.042 34.4707C111.722 34.4707 112.252 34.1982 112.633 33.6533C113.02 33.1025 113.213 32.2705 113.213 31.1572Z" fill="black"/>
<path d="M197.333 63.943C197.854 63.7592 198.127 63.188 197.943 62.6672L194.948 54.1803C194.764 53.6595 194.193 53.3863 193.672 53.5701C193.151 53.7539 192.878 54.3251 193.062 54.8459L195.724 62.3898L188.18 65.0524C187.659 65.2362 187.386 65.8074 187.57 66.3282C187.754 66.849 188.325 67.1222 188.846 66.9384L197.333 63.943ZM127.569 30.9021L196.569 63.9021L197.431 62.0979L128.431 29.0979L127.569 30.9021Z" fill="#242526"/>
</svg>
