<svg width="760" height="450" viewBox="0 0 760 450" fill="none" xmlns="http://www.w3.org/2000/svg">
<rect width="760" height="450" fill="white"/>
<rect x="74.5" y="157.5" width="115" height="99" fill="#E8F0FE" stroke="#DADCE0"/>
<rect x="320.5" y="157.5" width="115" height="99" fill="#E8F0FE" stroke="#DADCE0"/>
<rect x="571.5" y="157.5" width="115" height="99" fill="#E8F0FE" stroke="#DADCE0"/>
<path d="M107.771 240V232.928H126.907V184.048H112.035V178.536C115.987 177.981 119.28 177.323 121.915 176.56C124.549 175.797 126.941 174.827 129.091 173.648H135.435V232.928H152.803V240H107.771Z" fill="black"/>
<path d="M231.842 208.904V202.456H276.562V208.904H231.842Z" fill="black"/>
<path d="M378.168 241.248C372.414 241.248 367.595 240.312 363.712 238.44C359.83 236.499 356.675 234.315 354.248 231.888L358.616 226.272C360.835 228.352 363.47 230.189 366.52 231.784C369.64 233.379 373.35 234.176 377.648 234.176C379.936 234.176 382.051 233.899 383.992 233.344C385.934 232.72 387.598 231.888 388.984 230.848C390.44 229.808 391.55 228.56 392.312 227.104C393.144 225.579 393.56 223.88 393.56 222.008C393.56 220.067 393.11 218.299 392.208 216.704C391.376 215.04 389.99 213.619 388.048 212.44C386.107 211.261 383.611 210.36 380.56 209.736C377.51 209.112 373.8 208.8 369.432 208.8V202.248C373.384 202.248 376.712 201.936 379.416 201.312C382.19 200.688 384.443 199.821 386.176 198.712C387.91 197.603 389.158 196.285 389.92 194.76C390.752 193.235 391.168 191.605 391.168 189.872C391.168 186.613 389.92 184.048 387.424 182.176C384.998 180.304 381.739 179.368 377.648 179.368C374.528 179.368 371.582 179.992 368.808 181.24C366.035 182.488 363.539 184.117 361.32 186.128L356.744 180.72C359.518 178.293 362.672 176.317 366.208 174.792C369.744 173.197 373.662 172.4 377.96 172.4C381.08 172.4 383.958 172.781 386.592 173.544C389.296 174.307 391.619 175.416 393.56 176.872C395.571 178.259 397.131 179.992 398.24 182.072C399.35 184.152 399.904 186.544 399.904 189.248C399.904 193.269 398.587 196.563 395.952 199.128C393.318 201.693 389.92 203.669 385.76 205.056V205.472C387.979 205.957 390.059 206.685 392 207.656C394.011 208.557 395.779 209.736 397.304 211.192C398.83 212.579 400.008 214.208 400.84 216.08C401.742 217.952 402.192 220.032 402.192 222.32C402.192 225.232 401.568 227.867 400.32 230.224C399.072 232.581 397.339 234.592 395.12 236.256C392.971 237.851 390.44 239.099 387.528 240C384.616 240.832 381.496 241.248 378.168 241.248Z" fill="black"/>
<path d="M482.479 208.904V202.456H527.199V208.904H482.479Z" fill="black"/>
<path d="M630.158 241.248C622.739 241.248 616.915 238.267 612.686 232.304C608.456 226.272 606.342 217.709 606.342 206.616C606.342 195.453 608.456 186.96 612.686 181.136C616.915 175.312 622.739 172.4 630.158 172.4C637.576 172.4 643.4 175.312 647.63 181.136C651.859 186.96 653.974 195.453 653.974 206.616C653.974 217.709 651.859 226.272 647.63 232.304C643.4 238.267 637.576 241.248 630.158 241.248ZM630.158 234.384C634.803 234.384 638.582 232.131 641.494 227.624C644.475 223.117 645.966 216.115 645.966 206.616C645.966 201.832 645.584 197.741 644.822 194.344C644.059 190.877 642.95 188.035 641.494 185.816C640.107 183.528 638.443 181.864 636.502 180.824C634.56 179.784 632.446 179.264 630.158 179.264C627.87 179.264 625.755 179.784 623.814 180.824C621.872 181.864 620.174 183.528 618.718 185.816C617.331 188.035 616.256 190.877 615.494 194.344C614.731 197.741 614.35 201.832 614.35 206.616C614.35 216.115 615.806 223.117 618.718 227.624C621.699 232.131 625.512 234.384 630.158 234.384ZM630.158 212.856C628.424 212.856 626.899 212.267 625.582 211.088C624.334 209.84 623.71 208.107 623.71 205.888C623.71 203.739 624.334 202.075 625.582 200.896C626.899 199.648 628.424 199.024 630.158 199.024C631.891 199.024 633.382 199.648 634.63 200.896C635.947 202.075 636.606 203.739 636.606 205.888C636.606 208.107 635.947 209.84 634.63 211.088C633.382 212.267 631.891 212.856 630.158 212.856Z" fill="black"/>
<path d="M67.4453 338.888L70.7324 348.169L74.002 338.888H77.4648V351.685H74.8193V348.187L75.083 342.148L71.6289 351.685H69.8184L66.373 342.157L66.6367 348.187V351.685H64V338.888H67.4453Z" fill="#3C4043"/>
<path d="M79.5051 346.842C79.5051 345.898 79.6867 345.058 80.05 344.319C80.4133 343.581 80.9348 343.01 81.6145 342.605C82.3 342.201 83.0939 341.999 83.9963 341.999C85.2795 341.999 86.3254 342.392 87.134 343.177C87.9484 343.962 88.4025 345.028 88.4963 346.376L88.5139 347.026C88.5139 348.485 88.1066 349.657 87.2922 350.542C86.4777 351.421 85.385 351.86 84.0139 351.86C82.6428 351.86 81.5471 351.421 80.7268 350.542C79.9123 349.663 79.5051 348.468 79.5051 346.956V346.842ZM82.0451 347.026C82.0451 347.929 82.215 348.62 82.5549 349.101C82.8947 349.575 83.3811 349.812 84.0139 349.812C84.6291 349.812 85.1096 349.578 85.4553 349.109C85.801 348.635 85.9738 347.879 85.9738 346.842C85.9738 345.957 85.801 345.271 85.4553 344.785C85.1096 344.299 84.6232 344.056 83.9963 344.056C83.3752 344.056 82.8947 344.299 82.5549 344.785C82.215 345.266 82.0451 346.013 82.0451 347.026Z" fill="#3C4043"/>
<path d="M95.5287 349.057C95.5287 348.746 95.3734 348.503 95.0629 348.327C94.7582 348.146 94.266 347.984 93.5863 347.844C91.3246 347.369 90.1938 346.408 90.1938 344.961C90.1938 344.117 90.5424 343.414 91.2396 342.852C91.9428 342.283 92.8598 341.999 93.9906 341.999C95.1977 341.999 96.1615 342.283 96.8822 342.852C97.6088 343.42 97.9721 344.158 97.9721 345.066H95.432C95.432 344.703 95.3148 344.404 95.0805 344.17C94.8461 343.93 94.4799 343.81 93.9818 343.81C93.5541 343.81 93.223 343.906 92.9887 344.1C92.7543 344.293 92.6371 344.539 92.6371 344.838C92.6371 345.119 92.7689 345.348 93.0326 345.523C93.3021 345.693 93.7533 345.843 94.3861 345.972C95.0189 346.095 95.5521 346.235 95.9857 346.394C97.3275 346.886 97.9984 347.738 97.9984 348.951C97.9984 349.818 97.6264 350.521 96.8822 351.061C96.1381 351.594 95.1771 351.86 93.9994 351.86C93.2025 351.86 92.4936 351.72 91.8725 351.438C91.2572 351.151 90.7738 350.762 90.4223 350.27C90.0707 349.771 89.8949 349.235 89.8949 348.661H92.3031C92.3266 349.112 92.4936 349.458 92.8041 349.698C93.1146 349.938 93.5307 350.059 94.0521 350.059C94.5385 350.059 94.9047 349.968 95.1508 349.786C95.4027 349.599 95.5287 349.355 95.5287 349.057Z" fill="#3C4043"/>
<path d="M102.983 339.837V342.175H104.609V344.038H102.983V348.784C102.983 349.136 103.05 349.388 103.185 349.54C103.32 349.692 103.578 349.769 103.959 349.769C104.24 349.769 104.489 349.748 104.706 349.707V351.632C104.208 351.784 103.695 351.86 103.168 351.86C101.386 351.86 100.478 350.961 100.443 349.162V344.038H99.0543V342.175H100.443V339.837H102.983Z" fill="#3C4043"/>
<path d="M116.257 349.057C116.257 348.746 116.102 348.503 115.791 348.327C115.486 348.146 114.994 347.984 114.314 347.844C112.053 347.369 110.922 346.408 110.922 344.961C110.922 344.117 111.271 343.414 111.968 342.852C112.671 342.283 113.588 341.999 114.719 341.999C115.926 341.999 116.89 342.283 117.61 342.852C118.337 343.42 118.7 344.158 118.7 345.066H116.16C116.16 344.703 116.043 344.404 115.809 344.17C115.574 343.93 115.208 343.81 114.71 343.81C114.282 343.81 113.951 343.906 113.717 344.1C113.482 344.293 113.365 344.539 113.365 344.838C113.365 345.119 113.497 345.348 113.761 345.523C114.03 345.693 114.481 345.843 115.114 345.972C115.747 346.095 116.28 346.235 116.714 346.394C118.056 346.886 118.727 347.738 118.727 348.951C118.727 349.818 118.354 350.521 117.61 351.061C116.866 351.594 115.905 351.86 114.728 351.86C113.931 351.86 113.222 351.72 112.601 351.438C111.985 351.151 111.502 350.762 111.15 350.27C110.799 349.771 110.623 349.235 110.623 348.661H113.031C113.055 349.112 113.222 349.458 113.532 349.698C113.843 349.938 114.259 350.059 114.78 350.059C115.267 350.059 115.633 349.968 115.879 349.786C116.131 349.599 116.257 349.355 116.257 349.057Z" fill="#3C4043"/>
<path d="M129.231 347.018C129.231 348.482 128.897 349.657 128.229 350.542C127.567 351.421 126.67 351.86 125.539 351.86C124.578 351.86 123.802 351.526 123.21 350.858V355.341H120.67V342.175H123.026L123.113 343.106C123.729 342.368 124.531 341.999 125.522 341.999C126.694 341.999 127.605 342.433 128.255 343.3C128.905 344.167 129.231 345.362 129.231 346.886V347.018ZM126.691 346.833C126.691 345.948 126.532 345.266 126.216 344.785C125.905 344.305 125.451 344.064 124.854 344.064C124.057 344.064 123.509 344.369 123.21 344.979V348.872C123.521 349.499 124.074 349.812 124.871 349.812C126.084 349.812 126.691 348.819 126.691 346.833Z" fill="#3C4043"/>
<path d="M135.49 351.86C134.095 351.86 132.958 351.433 132.079 350.577C131.206 349.722 130.77 348.582 130.77 347.158V346.912C130.77 345.957 130.954 345.104 131.324 344.354C131.693 343.599 132.214 343.019 132.888 342.614C133.568 342.204 134.341 341.999 135.208 341.999C136.509 341.999 137.532 342.409 138.276 343.229C139.026 344.05 139.401 345.213 139.401 346.719V347.756H133.345C133.427 348.377 133.673 348.875 134.083 349.25C134.499 349.625 135.024 349.812 135.657 349.812C136.635 349.812 137.4 349.458 137.951 348.749L139.199 350.146C138.818 350.686 138.302 351.107 137.652 351.412C137.001 351.711 136.281 351.86 135.49 351.86ZM135.2 344.056C134.696 344.056 134.286 344.226 133.969 344.565C133.659 344.905 133.459 345.392 133.371 346.024H136.905V345.822C136.893 345.26 136.741 344.826 136.448 344.521C136.155 344.211 135.739 344.056 135.2 344.056Z" fill="#3C4043"/>
<path d="M145.106 349.812C145.575 349.812 145.956 349.684 146.249 349.426C146.542 349.168 146.694 348.825 146.706 348.397H149.088C149.082 349.042 148.906 349.634 148.56 350.173C148.214 350.706 147.74 351.122 147.136 351.421C146.539 351.714 145.877 351.86 145.15 351.86C143.791 351.86 142.718 351.43 141.933 350.568C141.148 349.701 140.755 348.506 140.755 346.982V346.815C140.755 345.351 141.145 344.182 141.924 343.309C142.704 342.436 143.773 341.999 145.132 341.999C146.322 341.999 147.274 342.339 147.989 343.019C148.71 343.692 149.076 344.592 149.088 345.717H146.706C146.694 345.225 146.542 344.826 146.249 344.521C145.956 344.211 145.569 344.056 145.088 344.056C144.497 344.056 144.048 344.272 143.744 344.706C143.445 345.134 143.296 345.831 143.296 346.798V347.062C143.296 348.04 143.445 348.743 143.744 349.171C144.043 349.599 144.497 349.812 145.106 349.812Z" fill="#3C4043"/>
<path d="M153.518 351.685H150.97V342.175H153.518V351.685ZM150.82 339.714C150.82 339.333 150.946 339.02 151.198 338.773C151.456 338.527 151.804 338.404 152.244 338.404C152.678 338.404 153.023 338.527 153.281 338.773C153.539 339.02 153.668 339.333 153.668 339.714C153.668 340.101 153.536 340.417 153.272 340.663C153.014 340.909 152.672 341.032 152.244 341.032C151.816 341.032 151.471 340.909 151.207 340.663C150.949 340.417 150.82 340.101 150.82 339.714Z" fill="#3C4043"/>
<path d="M156.613 351.685V344.038H155.198V342.175H156.613V341.366C156.613 340.3 156.918 339.474 157.527 338.888C158.143 338.296 159.001 338 160.103 338C160.454 338 160.885 338.059 161.395 338.176L161.368 340.145C161.157 340.092 160.899 340.065 160.595 340.065C159.64 340.065 159.162 340.514 159.162 341.41V342.175H161.052V344.038H159.162V351.685H156.613Z" fill="#3C4043"/>
<path d="M165.351 351.685H162.802V342.175H165.351V351.685ZM162.653 339.714C162.653 339.333 162.779 339.02 163.03 338.773C163.288 338.527 163.637 338.404 164.076 338.404C164.51 338.404 164.856 338.527 165.113 338.773C165.371 339.02 165.5 339.333 165.5 339.714C165.5 340.101 165.368 340.417 165.105 340.663C164.847 340.909 164.504 341.032 164.076 341.032C163.649 341.032 163.303 340.909 163.039 340.663C162.781 340.417 162.653 340.101 162.653 339.714Z" fill="#3C4043"/>
<path d="M171.706 349.812C172.175 349.812 172.556 349.684 172.849 349.426C173.142 349.168 173.294 348.825 173.306 348.397H175.688C175.682 349.042 175.506 349.634 175.161 350.173C174.815 350.706 174.34 351.122 173.737 351.421C173.139 351.714 172.477 351.86 171.75 351.86C170.391 351.86 169.319 351.43 168.534 350.568C167.748 349.701 167.356 348.506 167.356 346.982V346.815C167.356 345.351 167.746 344.182 168.525 343.309C169.304 342.436 170.373 341.999 171.733 341.999C172.922 341.999 173.874 342.339 174.589 343.019C175.31 343.692 175.676 344.592 175.688 345.717H173.306C173.294 345.225 173.142 344.826 172.849 344.521C172.556 344.211 172.169 344.056 171.689 344.056C171.097 344.056 170.649 344.272 170.344 344.706C170.045 345.134 169.896 345.831 169.896 346.798V347.062C169.896 348.04 170.045 348.743 170.344 349.171C170.643 349.599 171.097 349.812 171.706 349.812Z" fill="#3C4043"/>
<path d="M513.249 347.731C513.834 347.145 513.834 346.196 513.249 345.61L503.703 336.064C503.117 335.478 502.167 335.478 501.581 336.064C500.995 336.65 500.995 337.599 501.581 338.185L510.067 346.67L501.581 355.156C500.995 355.741 500.995 356.691 501.581 357.277C502.167 357.863 503.117 357.863 503.703 357.277L513.249 347.731ZM239.188 348.17L512.188 348.17L512.188 345.17L239.188 345.17L239.188 348.17Z" fill="#0C55FF"/>
<path d="M578.325 349.566H583.923V351.685H575.688V338.888H578.325V349.566Z" fill="#3C4043"/>
<path d="M589.954 351.86C588.559 351.86 587.422 351.433 586.544 350.577C585.67 349.722 585.234 348.582 585.234 347.158V346.912C585.234 345.957 585.419 345.104 585.788 344.354C586.157 343.599 586.678 343.019 587.352 342.614C588.032 342.204 588.805 341.999 589.672 341.999C590.973 341.999 591.996 342.409 592.74 343.229C593.49 344.05 593.865 345.213 593.865 346.719V347.756H587.809C587.891 348.377 588.137 348.875 588.547 349.25C588.963 349.625 589.488 349.812 590.121 349.812C591.099 349.812 591.864 349.458 592.415 348.749L593.663 350.146C593.282 350.686 592.766 351.107 592.116 351.412C591.465 351.711 590.745 351.86 589.954 351.86ZM589.664 344.056C589.16 344.056 588.75 344.226 588.433 344.565C588.123 344.905 587.923 345.392 587.836 346.024H591.369V345.822C591.357 345.26 591.205 344.826 590.912 344.521C590.619 344.211 590.203 344.056 589.664 344.056Z" fill="#3C4043"/>
<path d="M601.126 351.685C601.009 351.456 600.924 351.172 600.871 350.832C600.256 351.518 599.456 351.86 598.471 351.86C597.54 351.86 596.766 351.591 596.151 351.052C595.542 350.513 595.237 349.833 595.237 349.013C595.237 348.005 595.609 347.231 596.353 346.692C597.103 346.153 598.184 345.881 599.596 345.875H600.765V345.33C600.765 344.891 600.651 344.539 600.423 344.275C600.2 344.012 599.845 343.88 599.359 343.88C598.931 343.88 598.595 343.982 598.348 344.188C598.108 344.393 597.988 344.674 597.988 345.031H595.448C595.448 344.48 595.618 343.971 595.958 343.502C596.298 343.033 596.778 342.667 597.399 342.403C598.02 342.134 598.718 341.999 599.491 341.999C600.663 341.999 601.592 342.295 602.277 342.887C602.969 343.473 603.314 344.299 603.314 345.365V349.487C603.32 350.39 603.446 351.072 603.692 351.535V351.685H601.126ZM599.025 349.918C599.4 349.918 599.746 349.836 600.062 349.672C600.379 349.502 600.613 349.276 600.765 348.995V347.36H599.816C598.545 347.36 597.868 347.8 597.786 348.679L597.777 348.828C597.777 349.145 597.888 349.405 598.111 349.61C598.334 349.815 598.638 349.918 599.025 349.918Z" fill="#3C4043"/>
<path d="M610.716 349.057C610.716 348.746 610.561 348.503 610.25 348.327C609.945 348.146 609.453 347.984 608.773 347.844C606.512 347.369 605.381 346.408 605.381 344.961C605.381 344.117 605.729 343.414 606.427 342.852C607.13 342.283 608.047 341.999 609.178 341.999C610.385 341.999 611.349 342.283 612.069 342.852C612.796 343.42 613.159 344.158 613.159 345.066H610.619C610.619 344.703 610.502 344.404 610.268 344.17C610.033 343.93 609.667 343.81 609.169 343.81C608.741 343.81 608.41 343.906 608.176 344.1C607.941 344.293 607.824 344.539 607.824 344.838C607.824 345.119 607.956 345.348 608.22 345.523C608.489 345.693 608.94 345.843 609.573 345.972C610.206 346.095 610.739 346.235 611.173 346.394C612.515 346.886 613.186 347.738 613.186 348.951C613.186 349.818 612.813 350.521 612.069 351.061C611.325 351.594 610.364 351.86 609.187 351.86C608.39 351.86 607.681 351.72 607.06 351.438C606.444 351.151 605.961 350.762 605.609 350.27C605.258 349.771 605.082 349.235 605.082 348.661H607.49C607.514 349.112 607.681 349.458 607.991 349.698C608.302 349.938 608.718 350.059 609.239 350.059C609.726 350.059 610.092 349.968 610.338 349.786C610.59 349.599 610.716 349.355 610.716 349.057Z" fill="#3C4043"/>
<path d="M618.17 339.837V342.175H619.796V344.038H618.17V348.784C618.17 349.136 618.237 349.388 618.372 349.54C618.507 349.692 618.765 349.769 619.146 349.769C619.427 349.769 619.676 349.748 619.893 349.707V351.632C619.395 351.784 618.882 351.86 618.355 351.86C616.573 351.86 615.665 350.961 615.63 349.162V344.038H614.241V342.175H615.63V339.837H618.17Z" fill="#3C4043"/>
<path d="M631.444 349.057C631.444 348.746 631.289 348.503 630.978 348.327C630.673 348.146 630.181 347.984 629.502 347.844C627.24 347.369 626.109 346.408 626.109 344.961C626.109 344.117 626.458 343.414 627.155 342.852C627.858 342.283 628.775 341.999 629.906 341.999C631.113 341.999 632.077 342.283 632.797 342.852C633.524 343.42 633.887 344.158 633.887 345.066H631.347C631.347 344.703 631.23 344.404 630.996 344.17C630.761 343.93 630.395 343.81 629.897 343.81C629.469 343.81 629.138 343.906 628.904 344.1C628.67 344.293 628.552 344.539 628.552 344.838C628.552 345.119 628.684 345.348 628.948 345.523C629.217 345.693 629.669 345.843 630.301 345.972C630.934 346.095 631.467 346.235 631.901 346.394C633.243 346.886 633.914 347.738 633.914 348.951C633.914 349.818 633.542 350.521 632.797 351.061C632.053 351.594 631.092 351.86 629.915 351.86C629.118 351.86 628.409 351.72 627.788 351.438C627.172 351.151 626.689 350.762 626.337 350.27C625.986 349.771 625.81 349.235 625.81 348.661H628.218C628.242 349.112 628.409 349.458 628.719 349.698C629.03 349.938 629.446 350.059 629.967 350.059C630.454 350.059 630.82 349.968 631.066 349.786C631.318 349.599 631.444 349.355 631.444 349.057Z" fill="#3C4043"/>
<path d="M644.418 347.018C644.418 348.482 644.084 349.657 643.416 350.542C642.754 351.421 641.857 351.86 640.726 351.86C639.765 351.86 638.989 351.526 638.397 350.858V355.341H635.857V342.175H638.213L638.301 343.106C638.916 342.368 639.719 341.999 640.709 341.999C641.881 341.999 642.792 342.433 643.442 343.3C644.093 344.167 644.418 345.362 644.418 346.886V347.018ZM641.878 346.833C641.878 345.948 641.72 345.266 641.403 344.785C641.093 344.305 640.638 344.064 640.041 344.064C639.244 344.064 638.696 344.369 638.397 344.979V348.872C638.708 349.499 639.261 349.812 640.058 349.812C641.271 349.812 641.878 348.819 641.878 346.833Z" fill="#3C4043"/>
<path d="M650.677 351.86C649.282 351.86 648.145 351.433 647.267 350.577C646.394 349.722 645.957 348.582 645.957 347.158V346.912C645.957 345.957 646.142 345.104 646.511 344.354C646.88 343.599 647.401 343.019 648.075 342.614C648.755 342.204 649.528 341.999 650.395 341.999C651.696 341.999 652.719 342.409 653.463 343.229C654.213 344.05 654.588 345.213 654.588 346.719V347.756H648.532C648.614 348.377 648.86 348.875 649.27 349.25C649.687 349.625 650.211 349.812 650.844 349.812C651.822 349.812 652.587 349.458 653.138 348.749L654.386 350.146C654.005 350.686 653.489 351.107 652.839 351.412C652.188 351.711 651.468 351.86 650.677 351.86ZM650.387 344.056C649.883 344.056 649.473 344.226 649.156 344.565C648.846 344.905 648.646 345.392 648.559 346.024H652.092V345.822C652.08 345.26 651.928 344.826 651.635 344.521C651.342 344.211 650.926 344.056 650.387 344.056Z" fill="#3C4043"/>
<path d="M660.293 349.812C660.762 349.812 661.143 349.684 661.436 349.426C661.729 349.168 661.881 348.825 661.893 348.397H664.275C664.269 349.042 664.093 349.634 663.747 350.173C663.402 350.706 662.927 351.122 662.323 351.421C661.726 351.714 661.064 351.86 660.337 351.86C658.978 351.86 657.905 351.43 657.12 350.568C656.335 349.701 655.943 348.506 655.943 346.982V346.815C655.943 345.351 656.332 344.182 657.111 343.309C657.891 342.436 658.96 341.999 660.32 341.999C661.509 341.999 662.461 342.339 663.176 343.019C663.897 343.692 664.263 344.592 664.275 345.717H661.893C661.881 345.225 661.729 344.826 661.436 344.521C661.143 344.211 660.756 344.056 660.276 344.056C659.684 344.056 659.236 344.272 658.931 344.706C658.632 345.134 658.483 345.831 658.483 346.798V347.062C658.483 348.04 658.632 348.743 658.931 349.171C659.23 349.599 659.684 349.812 660.293 349.812Z" fill="#3C4043"/>
<path d="M668.705 351.685H666.157V342.175H668.705V351.685ZM666.007 339.714C666.007 339.333 666.133 339.02 666.385 338.773C666.643 338.527 666.992 338.404 667.431 338.404C667.865 338.404 668.21 338.527 668.468 338.773C668.726 339.02 668.855 339.333 668.855 339.714C668.855 340.101 668.723 340.417 668.459 340.663C668.202 340.909 667.859 341.032 667.431 341.032C667.003 341.032 666.658 340.909 666.394 340.663C666.136 340.417 666.007 340.101 666.007 339.714Z" fill="#3C4043"/>
<path d="M671.8 351.685V344.038H670.385V342.175H671.8V341.366C671.8 340.3 672.105 339.474 672.714 338.888C673.33 338.296 674.188 338 675.29 338C675.641 338 676.072 338.059 676.582 338.176L676.555 340.145C676.344 340.092 676.087 340.065 675.782 340.065C674.827 340.065 674.349 340.514 674.349 341.41V342.175H676.239V344.038H674.349V351.685H671.8Z" fill="#3C4043"/>
<path d="M680.538 351.685H677.989V342.175H680.538V351.685ZM677.84 339.714C677.84 339.333 677.966 339.02 678.218 338.773C678.475 338.527 678.824 338.404 679.263 338.404C679.697 338.404 680.043 338.527 680.301 338.773C680.558 339.02 680.687 339.333 680.687 339.714C680.687 340.101 680.555 340.417 680.292 340.663C680.034 340.909 679.691 341.032 679.263 341.032C678.836 341.032 678.49 340.909 678.226 340.663C677.969 340.417 677.84 340.101 677.84 339.714Z" fill="#3C4043"/>
<path d="M686.894 349.812C687.362 349.812 687.743 349.684 688.036 349.426C688.329 349.168 688.481 348.825 688.493 348.397H690.875C690.869 349.042 690.693 349.634 690.348 350.173C690.002 350.706 689.527 351.122 688.924 351.421C688.326 351.714 687.664 351.86 686.937 351.86C685.578 351.86 684.506 351.43 683.721 350.568C682.936 349.701 682.543 348.506 682.543 346.982V346.815C682.543 345.351 682.933 344.182 683.712 343.309C684.491 342.436 685.561 341.999 686.92 341.999C688.109 341.999 689.062 342.339 689.776 343.019C690.497 343.692 690.863 344.592 690.875 345.717H688.493C688.481 345.225 688.329 344.826 688.036 344.521C687.743 344.211 687.356 344.056 686.876 344.056C686.284 344.056 685.836 344.272 685.531 344.706C685.232 345.134 685.083 345.831 685.083 346.798V347.062C685.083 348.04 685.232 348.743 685.531 349.171C685.83 349.599 686.284 349.812 686.894 349.812Z" fill="#3C4043"/>
<path d="M79.248 137L79.648 133.736H77.536L77.136 137H76.272L76.672 133.736H75.392V132.824H76.784L77.072 130.456H75.712V129.528H77.184L77.552 126.6H78.4L78.048 129.528H80.16L80.528 126.6H81.376L81.024 129.528H82.304V130.456H80.912L80.624 132.824H81.984V133.736H80.512L80.112 137H79.248ZM79.76 132.824L80.048 130.456H77.936L77.648 132.824H79.76Z" fill="black"/>
<path d="M84.8217 137V129.224H85.8777L85.9897 130.248H86.0217C86.2244 129.885 86.4591 129.592 86.7257 129.368C86.9924 129.144 87.3497 129.032 87.7977 129.032C88.5551 129.032 89.0457 129.48 89.2697 130.376C89.4937 129.96 89.7391 129.635 90.0057 129.4C90.2831 129.155 90.6457 129.032 91.0937 129.032C91.6377 129.032 92.0591 129.24 92.3577 129.656C92.6671 130.061 92.8217 130.653 92.8217 131.432V137H91.5097V131.528C91.5097 130.621 91.2324 130.168 90.6777 130.168C90.4004 130.168 90.1764 130.269 90.0057 130.472C89.8351 130.664 89.6431 130.963 89.4297 131.368V137H88.2137V131.528C88.2137 131.08 88.1497 130.744 88.0217 130.52C87.9044 130.285 87.7017 130.168 87.4137 130.168C87.1364 130.168 86.9017 130.269 86.7097 130.472C86.5177 130.664 86.3257 130.963 86.1337 131.368V137H84.8217Z" fill="black"/>
<path d="M95.8835 140.344C95.4995 140.344 95.1581 140.291 94.8595 140.184L95.1315 139.144C95.2381 139.176 95.3501 139.203 95.4675 139.224C95.5955 139.245 95.7181 139.256 95.8355 139.256C96.3795 139.256 96.8221 139.096 97.1635 138.776C97.5048 138.467 97.7715 138.072 97.9635 137.592L98.2035 137.016L94.5715 129.224H95.8995L97.8035 133.528C97.9528 133.869 98.1075 134.237 98.2675 134.632C98.4381 135.027 98.6035 135.411 98.7635 135.784H98.8275C98.9661 135.411 99.1048 135.032 99.2435 134.648C99.3928 134.253 99.5315 133.88 99.6595 133.528L101.355 129.224H102.603L99.1795 137.64C99.0301 138.024 98.8595 138.381 98.6675 138.712C98.4755 139.043 98.2461 139.325 97.9795 139.56C97.7128 139.805 97.4035 139.997 97.0515 140.136C96.7101 140.275 96.3208 140.344 95.8835 140.344Z" fill="black"/>
<path d="M105.201 137V135.864H107.809V127.624H105.201V126.504H111.761V127.624H109.153V135.864H111.761V137H105.201Z" fill="black"/>
<path d="M117.911 137.192C117.399 137.192 116.935 137.101 116.519 136.92C116.114 136.739 115.762 136.477 115.463 136.136C115.164 135.784 114.935 135.357 114.775 134.856C114.615 134.355 114.535 133.779 114.535 133.128C114.535 132.499 114.631 131.933 114.823 131.432C115.026 130.92 115.287 130.488 115.607 130.136C115.938 129.784 116.316 129.512 116.743 129.32C117.17 129.128 117.612 129.032 118.071 129.032C118.54 129.032 118.956 129.123 119.319 129.304C119.692 129.475 120.05 129.72 120.391 130.04H120.439L120.375 128.6V125.608H121.687V137H120.599L120.487 135.976H120.439C120.119 136.307 119.735 136.595 119.287 136.84C118.85 137.075 118.391 137.192 117.911 137.192ZM118.183 136.088C118.951 136.088 119.682 135.699 120.375 134.92V131.048C120.023 130.717 119.676 130.483 119.335 130.344C119.004 130.205 118.668 130.136 118.327 130.136C117.986 130.136 117.666 130.211 117.367 130.36C117.079 130.499 116.823 130.701 116.599 130.968C116.386 131.224 116.215 131.533 116.087 131.896C115.959 132.259 115.895 132.664 115.895 133.112C115.895 134.051 116.092 134.781 116.487 135.304C116.892 135.827 117.458 136.088 118.183 136.088Z" fill="black"/>
<path d="M323.8 81.192C323.437 81.192 323.128 81.0693 322.872 80.824C322.627 80.5787 322.504 80.2533 322.504 79.848C322.504 79.4427 322.627 79.1173 322.872 78.872C323.128 78.616 323.437 78.488 323.8 78.488C324.163 78.488 324.467 78.616 324.712 78.872C324.968 79.1173 325.096 79.4427 325.096 79.848C325.096 80.2533 324.968 80.5787 324.712 80.824C324.467 81.0693 324.163 81.192 323.8 81.192Z" fill="black"/>
<path d="M329.822 81V73.224H330.878L330.99 74.248H331.022C331.224 73.8853 331.459 73.592 331.726 73.368C331.992 73.144 332.35 73.032 332.798 73.032C333.555 73.032 334.046 73.48 334.27 74.376C334.494 73.96 334.739 73.6347 335.006 73.4C335.283 73.1547 335.646 73.032 336.094 73.032C336.638 73.032 337.059 73.24 337.358 73.656C337.667 74.0613 337.822 74.6533 337.822 75.432V81H336.51V75.528C336.51 74.6213 336.232 74.168 335.678 74.168C335.4 74.168 335.176 74.2693 335.006 74.472C334.835 74.664 334.643 74.9627 334.43 75.368V81H333.214V75.528C333.214 75.08 333.15 74.744 333.022 74.52C332.904 74.2853 332.702 74.168 332.414 74.168C332.136 74.168 331.902 74.2693 331.71 74.472C331.518 74.664 331.326 74.9627 331.134 75.368V81H329.822Z" fill="black"/>
<path d="M340.883 84.344C340.499 84.344 340.158 84.2907 339.859 84.184L340.131 83.144C340.238 83.176 340.35 83.2027 340.467 83.224C340.595 83.2453 340.718 83.256 340.835 83.256C341.379 83.256 341.822 83.096 342.163 82.776C342.505 82.4667 342.771 82.072 342.963 81.592L343.203 81.016L339.571 73.224H340.899L342.803 77.528C342.953 77.8693 343.107 78.2373 343.267 78.632C343.438 79.0267 343.603 79.4107 343.763 79.784H343.827C343.966 79.4107 344.105 79.032 344.243 78.648C344.393 78.2533 344.531 77.88 344.659 77.528L346.355 73.224H347.603L344.179 81.64C344.03 82.024 343.859 82.3813 343.667 82.712C343.475 83.0427 343.246 83.3253 342.979 83.56C342.713 83.8053 342.403 83.9973 342.051 84.136C341.71 84.2747 341.321 84.344 340.883 84.344Z" fill="black"/>
<path d="M350.041 76.216V75.224H356.921V76.216H350.041Z" fill="black"/>
<path d="M364.111 81.192C363.503 81.192 362.938 81.1013 362.415 80.92C361.903 80.7387 361.455 80.4773 361.071 80.136C360.687 79.784 360.388 79.3573 360.175 78.856C359.962 78.344 359.855 77.768 359.855 77.128C359.855 76.4773 359.967 75.9013 360.191 75.4C360.426 74.888 360.74 74.456 361.135 74.104C361.53 73.752 361.988 73.4853 362.511 73.304C363.044 73.1227 363.604 73.032 364.191 73.032C364.831 73.032 365.38 73.144 365.839 73.368C366.308 73.592 366.703 73.8587 367.023 74.168L366.367 75.016C366.047 74.7387 365.711 74.52 365.359 74.36C365.018 74.2 364.644 74.12 364.239 74.12C363.791 74.12 363.38 74.1947 363.007 74.344C362.634 74.4827 362.314 74.6853 362.047 74.952C361.791 75.2187 361.588 75.5387 361.439 75.912C361.29 76.2747 361.215 76.68 361.215 77.128C361.215 77.576 361.284 77.9813 361.423 78.344C361.572 78.7067 361.775 79.0213 362.031 79.288C362.298 79.544 362.612 79.7467 362.975 79.896C363.348 80.0347 363.759 80.104 364.207 80.104C364.687 80.104 365.124 80.0133 365.519 79.832C365.924 79.64 366.287 79.4053 366.607 79.128L367.199 79.976C366.762 80.36 366.282 80.6587 365.759 80.872C365.236 81.0853 364.687 81.192 364.111 81.192Z" fill="black"/>
<path d="M374.981 81.192C374.149 81.192 373.514 80.9573 373.077 80.488C372.639 80.0187 372.421 79.32 372.421 78.392V70.68H369.653V69.608H373.733V78.488C373.733 79.064 373.871 79.48 374.149 79.736C374.426 79.9813 374.799 80.104 375.269 80.104C375.727 80.104 376.213 79.9867 376.725 79.752L377.061 80.728C376.698 80.8773 376.367 80.9893 376.069 81.064C375.77 81.1493 375.407 81.192 374.981 81.192Z" fill="black"/>
<path d="M382.298 81.192C381.936 81.192 381.594 81.1387 381.274 81.032C380.954 80.936 380.672 80.7973 380.426 80.616C380.192 80.424 380.005 80.1947 379.866 79.928C379.728 79.6507 379.658 79.336 379.658 78.984C379.658 78.5467 379.76 78.168 379.962 77.848C380.176 77.5173 380.506 77.2347 380.954 77C381.413 76.7653 382 76.5733 382.714 76.424C383.429 76.2747 384.288 76.1573 385.29 76.072C385.28 75.8053 385.237 75.5547 385.162 75.32C385.088 75.0853 384.97 74.8827 384.81 74.712C384.65 74.5307 384.437 74.3867 384.17 74.28C383.914 74.1733 383.6 74.12 383.226 74.12C382.714 74.12 382.224 74.2213 381.754 74.424C381.285 74.616 380.869 74.824 380.506 75.048L379.994 74.152C380.186 74.024 380.41 73.896 380.666 73.768C380.933 73.6293 381.21 73.5067 381.498 73.4C381.797 73.2933 382.112 73.208 382.442 73.144C382.773 73.0693 383.109 73.032 383.45 73.032C384.517 73.032 385.306 73.3253 385.818 73.912C386.341 74.488 386.602 75.2613 386.602 76.232V81H385.53L385.418 79.944H385.37C384.933 80.2853 384.448 80.5787 383.914 80.824C383.392 81.0693 382.853 81.192 382.298 81.192ZM382.65 80.136C383.098 80.136 383.536 80.04 383.962 79.848C384.4 79.6453 384.842 79.3573 385.29 78.984V76.936C384.458 77 383.76 77.0907 383.194 77.208C382.64 77.3253 382.192 77.4693 381.85 77.64C381.52 77.8 381.285 77.9867 381.146 78.2C381.008 78.4027 380.938 78.632 380.938 78.888C380.938 79.112 380.986 79.304 381.082 79.464C381.178 79.6133 381.301 79.7413 381.45 79.848C381.61 79.944 381.792 80.0187 381.994 80.072C382.208 80.1147 382.426 80.136 382.65 80.136Z" fill="black"/>
<path d="M393.216 81.192C392.448 81.192 391.739 81.0747 391.088 80.84C390.438 80.5947 389.872 80.3067 389.392 79.976L390 79.112C390.448 79.432 390.939 79.688 391.472 79.88C392.016 80.072 392.651 80.168 393.376 80.168C394.038 80.168 394.528 80.0507 394.848 79.816C395.179 79.5707 395.344 79.2827 395.344 78.952C395.344 78.8027 395.318 78.664 395.264 78.536C395.211 78.408 395.094 78.2853 394.912 78.168C394.742 78.0507 394.496 77.9387 394.176 77.832C393.856 77.7253 393.435 77.6187 392.912 77.512C391.899 77.2987 391.136 77.016 390.624 76.664C390.123 76.3013 389.872 75.8267 389.872 75.24C389.872 74.9307 389.942 74.6427 390.08 74.376C390.219 74.0987 390.422 73.864 390.688 73.672C390.966 73.4693 391.302 73.3147 391.696 73.208C392.102 73.0907 392.571 73.032 393.104 73.032C393.702 73.032 394.278 73.1333 394.832 73.336C395.387 73.528 395.856 73.7573 396.24 74.024L395.6 74.872C395.238 74.6267 394.838 74.4293 394.4 74.28C393.963 74.1307 393.494 74.056 392.992 74.056C392.331 74.056 391.867 74.168 391.6 74.392C391.334 74.616 391.2 74.8773 391.2 75.176C391.2 75.5173 391.376 75.7787 391.728 75.96C392.08 76.1307 392.656 76.3013 393.456 76.472C394.107 76.6107 394.64 76.76 395.056 76.92C395.472 77.0693 395.798 77.24 396.032 77.432C396.278 77.624 396.443 77.8373 396.528 78.072C396.624 78.3067 396.672 78.5733 396.672 78.872C396.672 79.192 396.598 79.4907 396.448 79.768C396.299 80.0453 396.075 80.2907 395.776 80.504C395.488 80.7173 395.126 80.8827 394.688 81C394.262 81.128 393.771 81.192 393.216 81.192Z" fill="black"/>
<path d="M403.11 81.192C402.342 81.192 401.633 81.0747 400.982 80.84C400.331 80.5947 399.766 80.3067 399.286 79.976L399.894 79.112C400.342 79.432 400.833 79.688 401.366 79.88C401.91 80.072 402.545 80.168 403.27 80.168C403.931 80.168 404.422 80.0507 404.742 79.816C405.073 79.5707 405.238 79.2827 405.238 78.952C405.238 78.8027 405.211 78.664 405.158 78.536C405.105 78.408 404.987 78.2853 404.806 78.168C404.635 78.0507 404.39 77.9387 404.07 77.832C403.75 77.7253 403.329 77.6187 402.806 77.512C401.793 77.2987 401.03 77.016 400.518 76.664C400.017 76.3013 399.766 75.8267 399.766 75.24C399.766 74.9307 399.835 74.6427 399.974 74.376C400.113 74.0987 400.315 73.864 400.582 73.672C400.859 73.4693 401.195 73.3147 401.59 73.208C401.995 73.0907 402.465 73.032 402.998 73.032C403.595 73.032 404.171 73.1333 404.726 73.336C405.281 73.528 405.75 73.7573 406.134 74.024L405.494 74.872C405.131 74.6267 404.731 74.4293 404.294 74.28C403.857 74.1307 403.387 74.056 402.886 74.056C402.225 74.056 401.761 74.168 401.494 74.392C401.227 74.616 401.094 74.8773 401.094 75.176C401.094 75.5173 401.27 75.7787 401.622 75.96C401.974 76.1307 402.55 76.3013 403.35 76.472C404.001 76.6107 404.534 76.76 404.95 76.92C405.366 77.0693 405.691 77.24 405.926 77.432C406.171 77.624 406.337 77.8373 406.422 78.072C406.518 78.3067 406.566 78.5733 406.566 78.872C406.566 79.192 406.491 79.4907 406.342 79.768C406.193 80.0453 405.969 80.2907 405.67 80.504C405.382 80.7173 405.019 80.8827 404.582 81C404.155 81.128 403.665 81.192 403.11 81.192Z" fill="black"/>
<path d="M322.6 111.432V97.672H327.032V98.424H323.656V110.68H327.032V111.432H322.6Z" fill="black"/>
<path d="M334.43 109.192C333.822 109.192 333.256 109.101 332.734 108.92C332.222 108.739 331.774 108.477 331.39 108.136C331.006 107.784 330.707 107.357 330.494 106.856C330.28 106.344 330.174 105.768 330.174 105.128C330.174 104.477 330.286 103.901 330.51 103.4C330.744 102.888 331.059 102.456 331.454 102.104C331.848 101.752 332.307 101.485 332.83 101.304C333.363 101.123 333.923 101.032 334.51 101.032C335.15 101.032 335.699 101.144 336.158 101.368C336.627 101.592 337.022 101.859 337.342 102.168L336.686 103.016C336.366 102.739 336.03 102.52 335.678 102.36C335.336 102.2 334.963 102.12 334.558 102.12C334.11 102.12 333.699 102.195 333.326 102.344C332.952 102.483 332.632 102.685 332.366 102.952C332.11 103.219 331.907 103.539 331.758 103.912C331.608 104.275 331.534 104.68 331.534 105.128C331.534 105.576 331.603 105.981 331.742 106.344C331.891 106.707 332.094 107.021 332.35 107.288C332.616 107.544 332.931 107.747 333.294 107.896C333.667 108.035 334.078 108.104 334.526 108.104C335.006 108.104 335.443 108.013 335.838 107.832C336.243 107.64 336.606 107.405 336.926 107.128L337.518 107.976C337.08 108.36 336.6 108.659 336.078 108.872C335.555 109.085 335.006 109.192 334.43 109.192Z" fill="black"/>
<path d="M345.299 109.192C344.467 109.192 343.833 108.957 343.395 108.488C342.958 108.019 342.739 107.32 342.739 106.392V98.68H339.971V97.608H344.051V106.488C344.051 107.064 344.19 107.48 344.467 107.736C344.745 107.981 345.118 108.104 345.587 108.104C346.046 108.104 346.531 107.987 347.043 107.752L347.379 108.728C347.017 108.877 346.686 108.989 346.387 109.064C346.089 109.149 345.726 109.192 345.299 109.192Z" fill="black"/>
<path d="M352.617 109.192C352.255 109.192 351.913 109.139 351.593 109.032C351.273 108.936 350.991 108.797 350.745 108.616C350.511 108.424 350.324 108.195 350.185 107.928C350.047 107.651 349.977 107.336 349.977 106.984C349.977 106.547 350.079 106.168 350.281 105.848C350.495 105.517 350.825 105.235 351.273 105C351.732 104.765 352.319 104.573 353.033 104.424C353.748 104.275 354.607 104.157 355.609 104.072C355.599 103.805 355.556 103.555 355.481 103.32C355.407 103.085 355.289 102.883 355.129 102.712C354.969 102.531 354.756 102.387 354.489 102.28C354.233 102.173 353.919 102.12 353.545 102.12C353.033 102.12 352.543 102.221 352.073 102.424C351.604 102.616 351.188 102.824 350.825 103.048L350.313 102.152C350.505 102.024 350.729 101.896 350.985 101.768C351.252 101.629 351.529 101.507 351.817 101.4C352.116 101.293 352.431 101.208 352.761 101.144C353.092 101.069 353.428 101.032 353.769 101.032C354.836 101.032 355.625 101.325 356.137 101.912C356.66 102.488 356.921 103.261 356.921 104.232V109H355.849L355.737 107.944H355.689C355.252 108.285 354.767 108.579 354.233 108.824C353.711 109.069 353.172 109.192 352.617 109.192ZM352.969 108.136C353.417 108.136 353.855 108.04 354.281 107.848C354.719 107.645 355.161 107.357 355.609 106.984V104.936C354.777 105 354.079 105.091 353.513 105.208C352.959 105.325 352.511 105.469 352.169 105.64C351.839 105.8 351.604 105.987 351.465 106.2C351.327 106.403 351.257 106.632 351.257 106.888C351.257 107.112 351.305 107.304 351.401 107.464C351.497 107.613 351.62 107.741 351.769 107.848C351.929 107.944 352.111 108.019 352.313 108.072C352.527 108.115 352.745 108.136 352.969 108.136Z" fill="black"/>
<path d="M363.535 109.192C362.767 109.192 362.058 109.075 361.407 108.84C360.756 108.595 360.191 108.307 359.711 107.976L360.319 107.112C360.767 107.432 361.258 107.688 361.791 107.88C362.335 108.072 362.97 108.168 363.695 108.168C364.356 108.168 364.847 108.051 365.167 107.816C365.498 107.571 365.663 107.283 365.663 106.952C365.663 106.803 365.636 106.664 365.583 106.536C365.53 106.408 365.412 106.285 365.231 106.168C365.06 106.051 364.815 105.939 364.495 105.832C364.175 105.725 363.754 105.619 363.231 105.512C362.218 105.299 361.455 105.016 360.943 104.664C360.442 104.301 360.191 103.827 360.191 103.24C360.191 102.931 360.26 102.643 360.399 102.376C360.538 102.099 360.74 101.864 361.007 101.672C361.284 101.469 361.62 101.315 362.015 101.208C362.42 101.091 362.89 101.032 363.423 101.032C364.02 101.032 364.596 101.133 365.151 101.336C365.706 101.528 366.175 101.757 366.559 102.024L365.919 102.872C365.556 102.627 365.156 102.429 364.719 102.28C364.282 102.131 363.812 102.056 363.311 102.056C362.65 102.056 362.186 102.168 361.919 102.392C361.652 102.616 361.519 102.877 361.519 103.176C361.519 103.517 361.695 103.779 362.047 103.96C362.399 104.131 362.975 104.301 363.775 104.472C364.426 104.611 364.959 104.76 365.375 104.92C365.791 105.069 366.116 105.24 366.351 105.432C366.596 105.624 366.762 105.837 366.847 106.072C366.943 106.307 366.991 106.573 366.991 106.872C366.991 107.192 366.916 107.491 366.767 107.768C366.618 108.045 366.394 108.291 366.095 108.504C365.807 108.717 365.444 108.883 365.007 109C364.58 109.128 364.09 109.192 363.535 109.192Z" fill="black"/>
<path d="M373.429 109.192C372.661 109.192 371.951 109.075 371.301 108.84C370.65 108.595 370.085 108.307 369.605 107.976L370.213 107.112C370.661 107.432 371.151 107.688 371.685 107.88C372.229 108.072 372.863 108.168 373.589 108.168C374.25 108.168 374.741 108.051 375.061 107.816C375.391 107.571 375.557 107.283 375.557 106.952C375.557 106.803 375.53 106.664 375.477 106.536C375.423 106.408 375.306 106.285 375.125 106.168C374.954 106.051 374.709 105.939 374.389 105.832C374.069 105.725 373.647 105.619 373.125 105.512C372.111 105.299 371.349 105.016 370.837 104.664C370.335 104.301 370.085 103.827 370.085 103.24C370.085 102.931 370.154 102.643 370.293 102.376C370.431 102.099 370.634 101.864 370.901 101.672C371.178 101.469 371.514 101.315 371.909 101.208C372.314 101.091 372.783 101.032 373.317 101.032C373.914 101.032 374.49 101.133 375.045 101.336C375.599 101.528 376.069 101.757 376.453 102.024L375.813 102.872C375.45 102.627 375.05 102.429 374.613 102.28C374.175 102.131 373.706 102.056 373.205 102.056C372.543 102.056 372.079 102.168 371.813 102.392C371.546 102.616 371.413 102.877 371.413 103.176C371.413 103.517 371.589 103.779 371.941 103.96C372.293 104.131 372.869 104.301 373.669 104.472C374.319 104.611 374.853 104.76 375.269 104.92C375.685 105.069 376.01 105.24 376.245 105.432C376.49 105.624 376.655 105.837 376.741 106.072C376.837 106.307 376.885 106.573 376.885 106.872C376.885 107.192 376.81 107.491 376.661 107.768C376.511 108.045 376.287 108.291 375.989 108.504C375.701 108.717 375.338 108.883 374.901 109C374.474 109.128 373.983 109.192 373.429 109.192Z" fill="black"/>
<path d="M379.93 111.432V110.68H383.306V98.424H379.93V97.672H384.362V111.432H379.93Z" fill="black"/>
<path d="M323.8 131.464C323.437 131.464 323.128 131.341 322.872 131.096C322.627 130.851 322.504 130.525 322.504 130.12C322.504 129.715 322.627 129.389 322.872 129.144C323.128 128.888 323.437 128.76 323.8 128.76C324.163 128.76 324.467 128.888 324.712 129.144C324.968 129.389 325.096 129.715 325.096 130.12C325.096 130.525 324.968 130.851 324.712 131.096C324.467 131.341 324.163 131.464 323.8 131.464ZM323.8 137.192C323.437 137.192 323.128 137.069 322.872 136.824C322.627 136.579 322.504 136.253 322.504 135.848C322.504 135.443 322.627 135.117 322.872 134.872C323.128 134.616 323.437 134.488 323.8 134.488C324.163 134.488 324.467 134.616 324.712 134.872C324.968 135.117 325.096 135.443 325.096 135.848C325.096 136.253 324.968 136.579 324.712 136.824C324.467 137.069 324.163 137.192 323.8 137.192Z" fill="black"/>
<path d="M330.382 137V125.608H331.694V128.712L331.614 130.552H331.662C332.067 130.115 332.499 129.752 332.958 129.464C333.427 129.176 333.966 129.032 334.574 129.032C335.502 129.032 336.179 129.299 336.606 129.832C337.043 130.355 337.262 131.133 337.262 132.168V137H335.95V132.344C335.95 131.608 335.811 131.064 335.534 130.712C335.256 130.349 334.798 130.168 334.158 130.168C333.923 130.168 333.704 130.2 333.502 130.264C333.31 130.317 333.118 130.403 332.926 130.52C332.734 130.637 332.536 130.787 332.334 130.968C332.131 131.139 331.918 131.341 331.694 131.576V137H330.382Z" fill="black"/>
<path d="M343.587 137.192C343.075 137.192 342.585 137.101 342.115 136.92C341.657 136.739 341.251 136.477 340.899 136.136C340.547 135.784 340.265 135.357 340.051 134.856C339.849 134.344 339.747 133.768 339.747 133.128C339.747 132.477 339.849 131.901 340.051 131.4C340.265 130.888 340.547 130.456 340.899 130.104C341.251 129.752 341.657 129.485 342.115 129.304C342.585 129.123 343.075 129.032 343.587 129.032C344.099 129.032 344.585 129.123 345.043 129.304C345.513 129.485 345.923 129.752 346.275 130.104C346.627 130.456 346.905 130.888 347.107 131.4C347.321 131.901 347.427 132.477 347.427 133.128C347.427 133.768 347.321 134.344 347.107 134.856C346.905 135.357 346.627 135.784 346.275 136.136C345.923 136.477 345.513 136.739 345.043 136.92C344.585 137.101 344.099 137.192 343.587 137.192ZM343.587 136.104C343.961 136.104 344.297 136.035 344.595 135.896C344.905 135.747 345.166 135.544 345.379 135.288C345.603 135.021 345.774 134.707 345.891 134.344C346.009 133.981 346.067 133.576 346.067 133.128C346.067 132.68 346.009 132.275 345.891 131.912C345.774 131.539 345.603 131.219 345.379 130.952C345.166 130.685 344.905 130.483 344.595 130.344C344.297 130.195 343.961 130.12 343.587 130.12C343.214 130.12 342.873 130.195 342.563 130.344C342.265 130.483 342.003 130.685 341.779 130.952C341.566 131.219 341.401 131.539 341.283 131.912C341.166 132.275 341.107 132.68 341.107 133.128C341.107 133.576 341.166 133.981 341.283 134.344C341.401 134.707 341.566 135.021 341.779 135.288C342.003 135.544 342.265 135.747 342.563 135.896C342.873 136.035 343.214 136.104 343.587 136.104Z" fill="black"/>
<path d="M352.777 137L349.497 129.224H350.825L352.617 133.64C352.777 134.035 352.927 134.424 353.065 134.808C353.215 135.181 353.359 135.555 353.497 135.928H353.561C353.7 135.555 353.833 135.181 353.961 134.808C354.1 134.424 354.249 134.035 354.409 133.64L356.201 129.224H357.465L354.249 137H352.777Z" fill="black"/>
<path d="M363.855 137.192C363.268 137.192 362.719 137.101 362.207 136.92C361.706 136.739 361.263 136.472 360.879 136.12C360.506 135.768 360.207 135.341 359.983 134.84C359.77 134.328 359.663 133.747 359.663 133.096C359.663 132.467 359.77 131.901 359.983 131.4C360.207 130.899 360.5 130.472 360.863 130.12C361.236 129.768 361.658 129.501 362.127 129.32C362.607 129.128 363.108 129.032 363.631 129.032C364.186 129.032 364.682 129.123 365.119 129.304C365.567 129.475 365.94 129.72 366.239 130.04C366.548 130.36 366.783 130.744 366.943 131.192C367.103 131.64 367.183 132.136 367.183 132.68C367.183 132.829 367.178 132.973 367.167 133.112C367.156 133.251 367.14 133.373 367.119 133.48H360.991C361.076 134.365 361.396 135.032 361.951 135.48C362.516 135.917 363.204 136.136 364.015 136.136C364.484 136.136 364.906 136.072 365.279 135.944C365.663 135.805 366.031 135.624 366.383 135.4L366.863 136.264C366.479 136.52 366.036 136.739 365.535 136.92C365.044 137.101 364.484 137.192 363.855 137.192ZM363.663 130.072C363.343 130.072 363.034 130.125 362.735 130.232C362.447 130.339 362.186 130.493 361.951 130.696C361.716 130.888 361.519 131.133 361.359 131.432C361.199 131.731 361.087 132.072 361.023 132.456H365.983C365.93 131.656 365.695 131.059 365.279 130.664C364.874 130.269 364.335 130.072 363.663 130.072Z" fill="black"/>
<path d="M370.805 137V129.224H371.893L372.005 131.064H372.053C372.458 130.435 372.954 129.939 373.541 129.576C374.138 129.213 374.799 129.032 375.525 129.032C375.813 129.032 376.079 129.059 376.325 129.112C376.57 129.155 376.815 129.235 377.061 129.352L376.757 130.488C376.479 130.392 376.245 130.323 376.053 130.28C375.871 130.237 375.626 130.216 375.317 130.216C374.73 130.216 374.165 130.387 373.621 130.728C373.087 131.059 372.586 131.629 372.117 132.44V137H370.805Z" fill="black"/>
<path d="M575.336 109.192C574.824 109.192 574.36 109.101 573.944 108.92C573.539 108.739 573.187 108.477 572.888 108.136C572.589 107.784 572.36 107.357 572.2 106.856C572.04 106.355 571.96 105.779 571.96 105.128C571.96 104.499 572.056 103.933 572.248 103.432C572.451 102.92 572.712 102.488 573.032 102.136C573.363 101.784 573.741 101.512 574.168 101.32C574.595 101.128 575.037 101.032 575.496 101.032C575.965 101.032 576.381 101.123 576.744 101.304C577.117 101.475 577.475 101.72 577.816 102.04H577.864L577.8 100.6V97.608H579.112V109H578.024L577.912 107.976H577.864C577.544 108.307 577.16 108.595 576.712 108.84C576.275 109.075 575.816 109.192 575.336 109.192ZM575.608 108.088C576.376 108.088 577.107 107.699 577.8 106.92V103.048C577.448 102.717 577.101 102.483 576.76 102.344C576.429 102.205 576.093 102.136 575.752 102.136C575.411 102.136 575.091 102.211 574.792 102.36C574.504 102.499 574.248 102.701 574.024 102.968C573.811 103.224 573.64 103.533 573.512 103.896C573.384 104.259 573.32 104.664 573.32 105.112C573.32 106.051 573.517 106.781 573.912 107.304C574.317 107.827 574.883 108.088 575.608 108.088Z" fill="black"/>
<path d="M585.95 109V102.296H582.334V101.224H587.262V109H585.95ZM586.462 99.592C586.163 99.592 585.912 99.5013 585.71 99.32C585.507 99.128 585.406 98.8773 585.406 98.568C585.406 98.2587 585.507 98.0133 585.71 97.832C585.912 97.64 586.163 97.544 586.462 97.544C586.76 97.544 587.011 97.64 587.214 97.832C587.416 98.0133 587.518 98.2587 587.518 98.568C587.518 98.8773 587.416 99.128 587.214 99.32C587.011 99.5013 586.76 99.592 586.462 99.592Z" fill="black"/>
<path d="M594.883 109L591.603 101.224H592.931L594.723 105.64C594.883 106.035 595.033 106.424 595.171 106.808C595.321 107.181 595.465 107.555 595.603 107.928H595.667C595.806 107.555 595.939 107.181 596.067 106.808C596.206 106.424 596.355 106.035 596.515 105.64L598.307 101.224H599.571L596.355 109H594.883Z" fill="black"/>
<path d="M575.8 131.464C575.437 131.464 575.128 131.341 574.872 131.096C574.627 130.851 574.504 130.525 574.504 130.12C574.504 129.715 574.627 129.389 574.872 129.144C575.128 128.888 575.437 128.76 575.8 128.76C576.163 128.76 576.467 128.888 576.712 129.144C576.968 129.389 577.096 129.715 577.096 130.12C577.096 130.525 576.968 130.851 576.712 131.096C576.467 131.341 576.163 131.464 575.8 131.464ZM575.8 137.192C575.437 137.192 575.128 137.069 574.872 136.824C574.627 136.579 574.504 136.253 574.504 135.848C574.504 135.443 574.627 135.117 574.872 134.872C575.128 134.616 575.437 134.488 575.8 134.488C576.163 134.488 576.467 134.616 576.712 134.872C576.968 135.117 577.096 135.443 577.096 135.848C577.096 136.253 576.968 136.579 576.712 136.824C576.467 137.069 576.163 137.192 575.8 137.192Z" fill="black"/>
<path d="M585.694 131.464C585.331 131.464 585.022 131.341 584.766 131.096C584.52 130.851 584.398 130.525 584.398 130.12C584.398 129.715 584.52 129.389 584.766 129.144C585.022 128.888 585.331 128.76 585.694 128.76C586.056 128.76 586.36 128.888 586.606 129.144C586.862 129.389 586.99 129.715 586.99 130.12C586.99 130.525 586.862 130.851 586.606 131.096C586.36 131.341 586.056 131.464 585.694 131.464ZM585.694 137.192C585.331 137.192 585.022 137.069 584.766 136.824C584.52 136.579 584.398 136.253 584.398 135.848C584.398 135.443 584.52 135.117 584.766 134.872C585.022 134.616 585.331 134.488 585.694 134.488C586.056 134.488 586.36 134.616 586.606 134.872C586.862 135.117 586.99 135.443 586.99 135.848C586.99 136.253 586.862 136.579 586.606 136.824C586.36 137.069 586.056 137.192 585.694 137.192Z" fill="black"/>
<path d="M595.747 137.192C594.979 137.192 594.27 137.075 593.619 136.84C592.969 136.595 592.403 136.307 591.923 135.976L592.531 135.112C592.979 135.432 593.47 135.688 594.003 135.88C594.547 136.072 595.182 136.168 595.907 136.168C596.569 136.168 597.059 136.051 597.379 135.816C597.71 135.571 597.875 135.283 597.875 134.952C597.875 134.803 597.849 134.664 597.795 134.536C597.742 134.408 597.625 134.285 597.443 134.168C597.273 134.051 597.027 133.939 596.707 133.832C596.387 133.725 595.966 133.619 595.443 133.512C594.43 133.299 593.667 133.016 593.155 132.664C592.654 132.301 592.403 131.827 592.403 131.24C592.403 130.931 592.473 130.643 592.611 130.376C592.75 130.099 592.953 129.864 593.219 129.672C593.497 129.469 593.833 129.315 594.227 129.208C594.633 129.091 595.102 129.032 595.635 129.032C596.233 129.032 596.809 129.133 597.363 129.336C597.918 129.528 598.387 129.757 598.771 130.024L598.131 130.872C597.769 130.627 597.369 130.429 596.931 130.28C596.494 130.131 596.025 130.056 595.523 130.056C594.862 130.056 594.398 130.168 594.131 130.392C593.865 130.616 593.731 130.877 593.731 131.176C593.731 131.517 593.907 131.779 594.259 131.96C594.611 132.131 595.187 132.301 595.987 132.472C596.638 132.611 597.171 132.76 597.587 132.92C598.003 133.069 598.329 133.24 598.563 133.432C598.809 133.624 598.974 133.837 599.059 134.072C599.155 134.307 599.203 134.573 599.203 134.872C599.203 135.192 599.129 135.491 598.979 135.768C598.83 136.045 598.606 136.291 598.307 136.504C598.019 136.717 597.657 136.883 597.219 137C596.793 137.128 596.302 137.192 595.747 137.192Z" fill="black"/>
<path d="M605.961 137.192C605.375 137.192 604.825 137.101 604.313 136.92C603.812 136.739 603.369 136.472 602.985 136.12C602.612 135.768 602.313 135.341 602.089 134.84C601.876 134.328 601.769 133.747 601.769 133.096C601.769 132.467 601.876 131.901 602.089 131.4C602.313 130.899 602.607 130.472 602.969 130.12C603.343 129.768 603.764 129.501 604.233 129.32C604.713 129.128 605.215 129.032 605.737 129.032C606.292 129.032 606.788 129.123 607.225 129.304C607.673 129.475 608.047 129.72 608.345 130.04C608.655 130.36 608.889 130.744 609.049 131.192C609.209 131.64 609.289 132.136 609.289 132.68C609.289 132.829 609.284 132.973 609.273 133.112C609.263 133.251 609.247 133.373 609.225 133.48H603.097C603.183 134.365 603.503 135.032 604.057 135.48C604.623 135.917 605.311 136.136 606.121 136.136C606.591 136.136 607.012 136.072 607.385 135.944C607.769 135.805 608.137 135.624 608.489 135.4L608.969 136.264C608.585 136.52 608.143 136.739 607.641 136.92C607.151 137.101 606.591 137.192 605.961 137.192ZM605.769 130.072C605.449 130.072 605.14 130.125 604.841 130.232C604.553 130.339 604.292 130.493 604.057 130.696C603.823 130.888 603.625 131.133 603.465 131.432C603.305 131.731 603.193 132.072 603.129 132.456H608.089C608.036 131.656 607.801 131.059 607.385 130.664C606.98 130.269 606.441 130.072 605.769 130.072Z" fill="black"/>
<path d="M617.087 137.192C616.255 137.192 615.62 136.957 615.183 136.488C614.746 136.019 614.527 135.32 614.527 134.392V126.68H611.759V125.608H615.839V134.488C615.839 135.064 615.978 135.48 616.255 135.736C616.532 135.981 616.906 136.104 617.375 136.104C617.834 136.104 618.319 135.987 618.831 135.752L619.167 136.728C618.804 136.877 618.474 136.989 618.175 137.064C617.876 137.149 617.514 137.192 617.087 137.192Z" fill="black"/>
<path d="M625.749 137.192C625.162 137.192 624.613 137.101 624.101 136.92C623.599 136.739 623.157 136.472 622.773 136.12C622.399 135.768 622.101 135.341 621.877 134.84C621.663 134.328 621.557 133.747 621.557 133.096C621.557 132.467 621.663 131.901 621.877 131.4C622.101 130.899 622.394 130.472 622.757 130.12C623.13 129.768 623.551 129.501 624.021 129.32C624.501 129.128 625.002 129.032 625.525 129.032C626.079 129.032 626.575 129.123 627.013 129.304C627.461 129.475 627.834 129.72 628.133 130.04C628.442 130.36 628.677 130.744 628.837 131.192C628.997 131.64 629.077 132.136 629.077 132.68C629.077 132.829 629.071 132.973 629.061 133.112C629.05 133.251 629.034 133.373 629.013 133.48H622.885C622.97 134.365 623.29 135.032 623.845 135.48C624.41 135.917 625.098 136.136 625.909 136.136C626.378 136.136 626.799 136.072 627.173 135.944C627.557 135.805 627.925 135.624 628.277 135.4L628.757 136.264C628.373 136.52 627.93 136.739 627.429 136.92C626.938 137.101 626.378 137.192 625.749 137.192ZM625.557 130.072C625.237 130.072 624.927 130.125 624.629 130.232C624.341 130.339 624.079 130.493 623.845 130.696C623.61 130.888 623.413 131.133 623.253 131.432C623.093 131.731 622.981 132.072 622.917 132.456H627.877C627.823 131.656 627.589 131.059 627.173 130.664C626.767 130.269 626.229 130.072 625.557 130.072Z" fill="black"/>
<path d="M635.898 137.192C635.29 137.192 634.725 137.101 634.202 136.92C633.69 136.739 633.242 136.477 632.858 136.136C632.474 135.784 632.176 135.357 631.962 134.856C631.749 134.344 631.642 133.768 631.642 133.128C631.642 132.477 631.754 131.901 631.978 131.4C632.213 130.888 632.528 130.456 632.922 130.104C633.317 129.752 633.776 129.485 634.298 129.304C634.832 129.123 635.392 129.032 635.978 129.032C636.618 129.032 637.168 129.144 637.626 129.368C638.096 129.592 638.49 129.859 638.81 130.168L638.154 131.016C637.834 130.739 637.498 130.52 637.146 130.36C636.805 130.2 636.432 130.12 636.026 130.12C635.578 130.12 635.168 130.195 634.794 130.344C634.421 130.483 634.101 130.685 633.834 130.952C633.578 131.219 633.376 131.539 633.226 131.912C633.077 132.275 633.002 132.68 633.002 133.128C633.002 133.576 633.072 133.981 633.21 134.344C633.36 134.707 633.562 135.021 633.818 135.288C634.085 135.544 634.4 135.747 634.762 135.896C635.136 136.035 635.546 136.104 635.994 136.104C636.474 136.104 636.912 136.013 637.306 135.832C637.712 135.64 638.074 135.405 638.394 135.128L638.986 135.976C638.549 136.36 638.069 136.659 637.546 136.872C637.024 137.085 636.474 137.192 635.898 137.192Z" fill="black"/>
<path d="M646.56 137.192C645.995 137.192 645.52 137.117 645.136 136.968C644.752 136.808 644.443 136.589 644.208 136.312C643.974 136.024 643.803 135.683 643.696 135.288C643.6 134.893 643.552 134.456 643.552 133.976V130.296H641.36V129.304L643.6 129.224L643.776 126.728H644.864V129.224H648.688V130.296H644.864V133.992C644.864 134.344 644.896 134.653 644.96 134.92C645.024 135.176 645.131 135.395 645.28 135.576C645.43 135.757 645.632 135.896 645.888 135.992C646.144 136.077 646.459 136.12 646.832 136.12C647.206 136.12 647.542 136.088 647.84 136.024C648.139 135.96 648.427 135.875 648.704 135.768L648.992 136.728C648.64 136.856 648.267 136.963 647.872 137.048C647.488 137.144 647.051 137.192 646.56 137.192Z" fill="black"/>
<path d="M655.206 137V130.296H651.59V129.224H656.518V137H655.206ZM655.718 127.592C655.419 127.592 655.169 127.501 654.966 127.32C654.763 127.128 654.662 126.877 654.662 126.568C654.662 126.259 654.763 126.013 654.966 125.832C655.169 125.64 655.419 125.544 655.718 125.544C656.017 125.544 656.267 125.64 656.47 125.832C656.673 126.013 656.774 126.259 656.774 126.568C656.774 126.877 656.673 127.128 656.47 127.32C656.267 127.501 656.017 127.592 655.718 127.592Z" fill="black"/>
<path d="M664.844 137.192C664.332 137.192 663.841 137.101 663.372 136.92C662.913 136.739 662.508 136.477 662.156 136.136C661.804 135.784 661.521 135.357 661.308 134.856C661.105 134.344 661.004 133.768 661.004 133.128C661.004 132.477 661.105 131.901 661.308 131.4C661.521 130.888 661.804 130.456 662.156 130.104C662.508 129.752 662.913 129.485 663.372 129.304C663.841 129.123 664.332 129.032 664.844 129.032C665.356 129.032 665.841 129.123 666.3 129.304C666.769 129.485 667.18 129.752 667.532 130.104C667.884 130.456 668.161 130.888 668.364 131.4C668.577 131.901 668.684 132.477 668.684 133.128C668.684 133.768 668.577 134.344 668.364 134.856C668.161 135.357 667.884 135.784 667.532 136.136C667.18 136.477 666.769 136.739 666.3 136.92C665.841 137.101 665.356 137.192 664.844 137.192ZM664.844 136.104C665.217 136.104 665.553 136.035 665.852 135.896C666.161 135.747 666.422 135.544 666.636 135.288C666.86 135.021 667.03 134.707 667.148 134.344C667.265 133.981 667.324 133.576 667.324 133.128C667.324 132.68 667.265 132.275 667.148 131.912C667.03 131.539 666.86 131.219 666.636 130.952C666.422 130.685 666.161 130.483 665.852 130.344C665.553 130.195 665.217 130.12 664.844 130.12C664.47 130.12 664.129 130.195 663.82 130.344C663.521 130.483 663.26 130.685 663.036 130.952C662.822 131.219 662.657 131.539 662.54 131.912C662.422 132.275 662.364 132.68 662.364 133.128C662.364 133.576 662.422 133.981 662.54 134.344C662.657 134.707 662.822 135.021 663.036 135.288C663.26 135.544 663.521 135.747 663.82 135.896C664.129 136.035 664.47 136.104 664.844 136.104Z" fill="black"/>
<path d="M671.425 137V129.224H672.513L672.625 130.552H672.689C673.095 130.115 673.532 129.752 674.001 129.464C674.471 129.176 675.009 129.032 675.617 129.032C676.545 129.032 677.223 129.299 677.649 129.832C678.087 130.355 678.305 131.133 678.305 132.168V137H676.993V132.344C676.993 131.608 676.855 131.064 676.577 130.712C676.3 130.349 675.841 130.168 675.201 130.168C674.967 130.168 674.748 130.2 674.545 130.264C674.353 130.317 674.161 130.403 673.969 130.52C673.777 130.637 673.58 130.787 673.377 130.968C673.175 131.139 672.961 131.341 672.737 131.576V137H671.425Z" fill="black"/>
</svg>
