<svg width="760" height="467" viewBox="0 0 760 467" fill="none" xmlns="http://www.w3.org/2000/svg">
<rect width="760" height="467" fill="white"/>
<line x1="238.974" y1="374.535" x2="408.974" y2="139.535" stroke="#3740FF" stroke-width="5"/>
<line x1="101.347" y1="192.524" x2="626.405" y2="266.112" stroke="#3740FF" stroke-width="5"/>
<line x1="343.5" y1="412" x2="343.5" y2="49" stroke="#3740FF" stroke-width="5"/>
<path d="M600.789 291.406L604.044 284.359H607.567L602.433 294.328V300H599.156V294.328L594.021 284.359H597.556L600.789 291.406Z" fill="black"/>
<path d="M623.905 296.777H618.254L617.18 300H613.753L619.576 284.359H622.562L628.416 300H624.99L623.905 296.777ZM619.124 294.167H623.035L621.069 288.312L619.124 294.167Z" fill="black"/>
<path d="M634.399 291.847L636.354 288.377H639.673L636.365 294.07L639.813 300H636.483L634.41 296.348L632.347 300H629.006L632.455 294.07L629.157 288.377H632.487L634.399 291.847Z" fill="black"/>
<path d="M644.743 300H641.628V288.377H644.743V300ZM641.445 285.369C641.445 284.904 641.599 284.521 641.907 284.22C642.222 283.919 642.648 283.769 643.185 283.769C643.715 283.769 644.138 283.919 644.453 284.22C644.768 284.521 644.926 284.904 644.926 285.369C644.926 285.842 644.764 286.229 644.442 286.529C644.127 286.83 643.708 286.98 643.185 286.98C642.663 286.98 642.24 286.83 641.918 286.529C641.603 286.229 641.445 285.842 641.445 285.369Z" fill="black"/>
<path d="M653.905 296.788C653.905 296.409 653.715 296.111 653.336 295.896C652.964 295.674 652.362 295.478 651.531 295.306C648.767 294.726 647.385 293.551 647.385 291.782C647.385 290.751 647.811 289.892 648.663 289.204C649.522 288.509 650.643 288.162 652.025 288.162C653.501 288.162 654.679 288.509 655.56 289.204C656.448 289.899 656.892 290.801 656.892 291.911H653.787C653.787 291.467 653.644 291.102 653.357 290.815C653.071 290.522 652.623 290.375 652.015 290.375C651.492 290.375 651.087 290.493 650.801 290.729C650.514 290.966 650.371 291.267 650.371 291.632C650.371 291.976 650.532 292.255 650.854 292.47C651.184 292.677 651.735 292.86 652.509 293.018C653.282 293.168 653.934 293.34 654.464 293.533C656.104 294.135 656.924 295.177 656.924 296.659C656.924 297.719 656.469 298.578 655.56 299.237C654.65 299.889 653.476 300.215 652.036 300.215C651.062 300.215 650.196 300.043 649.437 299.699C648.685 299.348 648.094 298.872 647.664 298.271C647.234 297.662 647.02 297.007 647.02 296.305H649.963C649.992 296.856 650.196 297.279 650.575 297.572C650.955 297.866 651.463 298.013 652.101 298.013C652.695 298.013 653.143 297.902 653.443 297.68C653.751 297.451 653.905 297.153 653.905 296.788Z" fill="black"/>
<path d="M167.993 386.752L170.926 381.359H174.632L170.077 389.115L174.75 397H171.001L167.993 391.521L164.985 397H161.236L165.909 389.115L161.354 381.359H165.061L167.993 386.752Z" fill="black"/>
<path d="M191.291 393.777H185.641L184.567 397H181.14L186.962 381.359H189.949L195.803 397H192.376L191.291 393.777ZM186.511 391.167H190.421L188.455 385.312L186.511 391.167Z" fill="black"/>
<path d="M201.786 388.847L203.741 385.377H207.06L203.752 391.07L207.2 397H203.87L201.796 393.348L199.734 397H196.393L199.841 391.07L196.544 385.377H199.874L201.786 388.847Z" fill="black"/>
<path d="M212.13 397H209.014V385.377H212.13V397ZM208.832 382.369C208.832 381.904 208.986 381.521 209.294 381.22C209.609 380.919 210.035 380.769 210.572 380.769C211.102 380.769 211.525 380.919 211.84 381.22C212.155 381.521 212.312 381.904 212.312 382.369C212.312 382.842 212.151 383.229 211.829 383.529C211.514 383.83 211.095 383.98 210.572 383.98C210.049 383.98 209.627 383.83 209.304 383.529C208.989 383.229 208.832 382.842 208.832 382.369Z" fill="black"/>
<path d="M221.292 393.788C221.292 393.409 221.102 393.111 220.723 392.896C220.35 392.674 219.749 392.478 218.918 392.306C216.154 391.726 214.771 390.551 214.771 388.782C214.771 387.751 215.198 386.892 216.05 386.204C216.909 385.509 218.03 385.162 219.412 385.162C220.887 385.162 222.065 385.509 222.946 386.204C223.834 386.899 224.278 387.801 224.278 388.911H221.174C221.174 388.467 221.031 388.102 220.744 387.815C220.458 387.522 220.01 387.375 219.401 387.375C218.879 387.375 218.474 387.493 218.188 387.729C217.901 387.966 217.758 388.267 217.758 388.632C217.758 388.976 217.919 389.255 218.241 389.47C218.571 389.677 219.122 389.86 219.896 390.018C220.669 390.168 221.321 390.34 221.851 390.533C223.491 391.135 224.311 392.177 224.311 393.659C224.311 394.719 223.856 395.578 222.946 396.237C222.037 396.889 220.862 397.215 219.423 397.215C218.449 397.215 217.582 397.043 216.823 396.699C216.071 396.348 215.48 395.872 215.051 395.271C214.621 394.662 214.406 394.007 214.406 393.305H217.35C217.378 393.856 217.582 394.279 217.962 394.572C218.341 394.866 218.85 395.013 219.487 395.013C220.082 395.013 220.529 394.902 220.83 394.68C221.138 394.451 221.292 394.153 221.292 393.788Z" fill="black"/>
<path d="M368.812 409.411H376.697V412H364.784V410.109L372.519 398.97H364.795V396.359H376.525V398.207L368.812 409.411Z" fill="black"/>
<path d="M393.647 408.777H387.996L386.922 412H383.496L389.318 396.359H392.304L398.159 412H394.732L393.647 408.777ZM388.867 406.167H392.777L390.811 400.312L388.867 406.167Z" fill="black"/>
<path d="M404.141 403.847L406.096 400.377H409.416L406.107 406.07L409.555 412H406.225L404.152 408.348L402.089 412H398.749L402.197 406.07L398.899 400.377H402.229L404.141 403.847Z" fill="black"/>
<path d="M414.485 412H411.37V400.377H414.485V412ZM411.187 397.369C411.187 396.904 411.341 396.521 411.649 396.22C411.964 395.919 412.39 395.769 412.928 395.769C413.457 395.769 413.88 395.919 414.195 396.22C414.51 396.521 414.668 396.904 414.668 397.369C414.668 397.842 414.507 398.229 414.184 398.529C413.869 398.83 413.45 398.98 412.928 398.98C412.405 398.98 411.982 398.83 411.66 398.529C411.345 398.229 411.187 397.842 411.187 397.369Z" fill="black"/>
<path d="M423.647 408.788C423.647 408.409 423.458 408.111 423.078 407.896C422.706 407.674 422.104 407.478 421.273 407.306C418.509 406.726 417.127 405.551 417.127 403.782C417.127 402.751 417.553 401.892 418.405 401.204C419.265 400.509 420.385 400.162 421.768 400.162C423.243 400.162 424.421 400.509 425.302 401.204C426.19 401.899 426.634 402.801 426.634 403.911H423.529C423.529 403.467 423.386 403.102 423.1 402.815C422.813 402.522 422.366 402.375 421.757 402.375C421.234 402.375 420.829 402.493 420.543 402.729C420.257 402.966 420.113 403.267 420.113 403.632C420.113 403.976 420.274 404.255 420.597 404.47C420.926 404.677 421.478 404.86 422.251 405.018C423.024 405.168 423.676 405.34 424.206 405.533C425.846 406.135 426.666 407.177 426.666 408.659C426.666 409.719 426.211 410.578 425.302 411.237C424.392 411.889 423.218 412.215 421.778 412.215C420.804 412.215 419.938 412.043 419.179 411.699C418.427 411.348 417.836 410.872 417.406 410.271C416.977 409.662 416.762 409.007 416.762 408.305H419.705C419.734 408.856 419.938 409.279 420.317 409.572C420.697 409.866 421.205 410.013 421.843 410.013C422.437 410.013 422.885 409.902 423.186 409.68C423.493 409.451 423.647 409.153 423.647 408.788Z" fill="black"/>
<path d="M272 333.5L347 229.5L513.5 252.5L453 363L272 333.5Z" fill="#CCDFFF" fill-opacity="0.54" stroke="#00C9DB" stroke-width="2"/>
<path d="M372.371 336.601C372.129 337.022 371.8 337.284 371.384 337.389C370.96 337.489 370.545 337.423 370.141 337.19C369.939 337.073 369.772 336.934 369.639 336.771C369.503 336.596 369.406 336.41 369.346 336.214C369.287 336.018 369.27 335.814 369.295 335.603C369.325 335.383 369.4 335.168 369.521 334.958C369.643 334.747 369.789 334.578 369.959 334.451C370.135 334.315 370.322 334.223 370.521 334.177C370.721 334.13 370.928 334.126 371.143 334.164C371.355 334.189 371.562 334.26 371.764 334.376C372.168 334.609 372.433 334.934 372.559 335.352C372.676 335.764 372.614 336.181 372.371 336.601Z" fill="black"/>
<path d="M374.716 332.199L368.701 328.73L369.477 327.384L370.287 327.69L370.315 327.641C370.138 327.388 370.022 327.111 369.969 326.811C369.908 326.507 369.977 326.18 370.178 325.833C370.327 325.574 370.538 325.405 370.81 325.325C371.079 325.232 371.396 325.243 371.762 325.356C371.552 325.085 371.415 324.79 371.35 324.473C371.282 324.142 371.348 323.803 371.549 323.456C371.801 323.019 372.166 322.788 372.644 322.762C373.119 322.723 373.659 322.879 374.266 323.229L378.486 325.663L377.507 327.36L373.408 324.996C373.222 324.889 373.07 324.834 372.953 324.831C372.836 324.829 372.743 324.888 372.673 325.009C372.608 325.122 372.6 325.247 372.651 325.384C372.701 325.521 372.798 325.69 372.94 325.891L377.003 328.234L376.199 329.628L372.1 327.264C371.736 327.054 371.489 327.063 371.358 327.289C371.293 327.402 371.285 327.527 371.336 327.664C371.386 327.801 371.485 327.966 371.633 328.158L375.695 330.502L374.716 332.199Z" fill="black"/>
<path d="M382.168 324.715C382.065 324.893 381.958 325.051 381.845 325.191C381.74 325.335 381.63 325.46 381.515 325.566L380.339 324.468C380.476 324.342 380.591 324.199 380.684 324.037C380.885 323.689 380.968 323.376 380.935 323.098C380.906 322.812 380.802 322.553 380.623 322.321L380.378 322.018L373.016 321.247L374.038 319.476L377.201 319.96C377.55 320.01 377.905 320.075 378.269 320.155C378.624 320.23 378.987 320.31 379.358 320.395L379.386 320.347C379.134 320.093 378.886 319.832 378.642 319.562C378.391 319.288 378.142 319.02 377.894 318.759L375.821 316.384L376.793 314.698L381.498 320.579C381.795 320.944 382.035 321.293 382.22 321.626C382.413 321.963 382.54 322.295 382.6 322.62C382.668 322.951 382.667 323.289 382.596 323.636C382.53 323.975 382.387 324.335 382.168 324.715Z" fill="black"/>
<path d="M380.277 314.767L379.015 314.04L382.233 308.461L383.494 309.188L380.277 314.767Z" fill="black"/>
<path d="M389.956 306.11C389.685 306.579 389.363 306.98 388.987 307.313C388.609 307.634 388.2 307.866 387.76 308.012C387.321 308.157 386.858 308.203 386.372 308.149C385.878 308.09 385.381 307.916 384.879 307.627C384.386 307.343 383.994 307.004 383.704 306.61C383.411 306.204 383.214 305.778 383.115 305.333C383.008 304.883 382.993 304.433 383.07 303.982C383.144 303.518 383.297 303.084 383.531 302.68C383.796 302.219 384.105 301.852 384.455 301.581C384.806 301.309 385.178 301.13 385.572 301.045C385.971 300.952 386.383 300.947 386.809 301.031C387.226 301.11 387.641 301.268 388.054 301.506C388.215 301.6 388.366 301.703 388.506 301.815C388.642 301.916 388.742 301.995 388.805 302.053L386.441 306.152C386.929 306.315 387.363 306.301 387.742 306.11C388.121 305.92 388.453 305.578 388.737 305.084C388.896 304.81 389.009 304.53 389.076 304.245C389.148 303.953 389.192 303.633 389.208 303.287L390.63 303.316C390.648 303.789 390.6 304.273 390.487 304.768C390.366 305.259 390.189 305.706 389.956 306.11ZM384.924 303.402C384.719 303.758 384.639 304.111 384.685 304.461C384.736 304.802 384.926 305.127 385.254 305.435L386.737 302.864C385.934 302.519 385.33 302.699 384.924 303.402Z" fill="black"/>
<path d="M394.754 297.79C394.316 298.55 393.762 298.996 393.094 299.128C392.422 299.247 391.702 299.085 390.934 298.642L386.192 295.907L385.101 297.799L383.694 296.987L385.813 293.313L392.035 296.901C392.221 297.008 392.392 297.075 392.55 297.101C392.704 297.114 392.847 297.1 392.979 297.057C393.108 297.002 393.221 296.928 393.318 296.833C393.421 296.73 393.509 296.614 393.584 296.485C393.663 296.348 393.732 296.199 393.792 296.04C393.848 295.867 393.894 295.667 393.928 295.439L395.469 295.794C395.424 295.984 395.382 296.159 395.343 296.32C395.305 296.481 395.258 296.637 395.203 296.788C395.156 296.944 395.096 297.104 395.024 297.267C394.951 297.43 394.861 297.604 394.754 297.79Z" fill="black"/>
<path d="M398.643 291.047C398.373 291.516 398.05 291.917 397.675 292.25C397.296 292.57 396.887 292.803 396.448 292.948C396.008 293.094 395.546 293.139 395.06 293.085C394.566 293.026 394.068 292.853 393.567 292.563C393.073 292.279 392.682 291.94 392.392 291.546C392.098 291.14 391.902 290.714 391.803 290.269C391.696 289.82 391.681 289.369 391.758 288.918C391.831 288.454 391.985 288.02 392.218 287.616C392.484 287.155 392.792 286.789 393.143 286.517C393.493 286.245 393.866 286.067 394.26 285.981C394.658 285.888 395.07 285.883 395.496 285.967C395.914 286.046 396.329 286.205 396.741 286.443C396.903 286.536 397.053 286.639 397.193 286.752C397.329 286.852 397.429 286.931 397.492 286.989L395.128 291.088C395.616 291.251 396.05 291.237 396.429 291.047C396.808 290.856 397.14 290.514 397.425 290.021C397.583 289.746 397.696 289.466 397.763 289.182C397.835 288.889 397.879 288.57 397.896 288.224L399.318 288.252C399.335 288.726 399.288 289.21 399.175 289.705C399.053 290.195 398.876 290.643 398.643 291.047ZM393.611 288.339C393.406 288.694 393.326 289.047 393.373 289.397C393.423 289.739 393.613 290.064 393.942 290.372L395.424 287.801C394.621 287.456 394.017 287.635 393.611 288.339Z" fill="black"/>
<path d="M400.778 287.009L394.763 283.54L395.539 282.193L396.349 282.499L396.377 282.45C396.199 282.197 396.084 281.921 396.031 281.621C395.97 281.316 396.039 280.99 396.24 280.642C396.389 280.383 396.6 280.214 396.872 280.134C397.141 280.041 397.458 280.052 397.824 280.166C397.614 279.894 397.477 279.599 397.412 279.282C397.344 278.952 397.41 278.613 397.611 278.265C397.862 277.828 398.227 277.597 398.706 277.571C399.18 277.533 399.721 277.688 400.327 278.038L404.548 280.472L403.569 282.17L399.47 279.806C399.284 279.699 399.132 279.644 399.015 279.641C398.898 279.638 398.805 279.697 398.735 279.818C398.67 279.932 398.662 280.057 398.713 280.193C398.763 280.33 398.86 280.499 399.002 280.7L403.065 283.043L402.261 284.438L398.162 282.074C397.798 281.864 397.551 281.872 397.42 282.099C397.355 282.212 397.347 282.337 397.398 282.473C397.448 282.61 397.547 282.775 397.694 282.968L401.757 285.311L400.778 287.009Z" fill="black"/>
<path d="M407.33 275.983C407.06 276.452 406.737 276.853 406.362 277.186C405.983 277.507 405.574 277.739 405.135 277.885C404.696 278.03 404.233 278.076 403.747 278.022C403.253 277.963 402.755 277.789 402.254 277.5C401.761 277.215 401.369 276.876 401.079 276.483C400.785 276.076 400.589 275.651 400.49 275.206C400.383 274.756 400.368 274.306 400.445 273.855C400.519 273.391 400.672 272.957 400.905 272.552C401.171 272.092 401.479 271.725 401.83 271.453C402.181 271.182 402.553 271.003 402.947 270.918C403.345 270.824 403.758 270.82 404.183 270.904C404.601 270.983 405.016 271.141 405.428 271.379C405.59 271.472 405.741 271.575 405.88 271.688C406.016 271.788 406.116 271.868 406.18 271.926L403.816 276.025C404.304 276.188 404.737 276.174 405.116 275.983C405.496 275.792 405.828 275.451 406.112 274.957C406.271 274.682 406.383 274.403 406.451 274.118C406.522 273.826 406.566 273.506 406.583 273.16L408.005 273.188C408.023 273.662 407.975 274.146 407.862 274.641C407.741 275.132 407.564 275.579 407.33 275.983ZM402.298 273.275C402.093 273.631 402.014 273.984 402.06 274.333C402.111 274.675 402.3 275 402.629 275.308L404.112 272.737C403.309 272.392 402.704 272.572 402.298 273.275Z" fill="black"/>
<path d="M409.724 271.496L403.709 268.027L404.548 266.572L405.425 266.9L405.453 266.852C405.344 266.444 405.292 266.02 405.297 265.582C405.307 265.135 405.442 264.685 405.703 264.232C406.095 263.553 406.6 263.182 407.219 263.118C407.837 263.055 408.526 263.242 409.286 263.681L412.997 265.821L411.969 267.603L408.489 265.596C408.084 265.363 407.752 265.258 407.491 265.28C407.231 265.302 407.005 265.479 406.814 265.81C406.674 266.053 406.603 266.297 406.601 266.544C406.603 266.782 406.649 267.067 406.738 267.399L410.752 269.714L409.724 271.496Z" fill="black"/>
<path d="M416.423 260.216C416.148 260.693 415.85 261.06 415.53 261.317C415.209 261.574 414.875 261.742 414.528 261.822C414.177 261.889 413.814 261.874 413.439 261.776C413.064 261.678 412.679 261.515 412.283 261.287L410.16 260.063L409.286 261.579L407.964 260.817L408.815 259.174L407.104 257.88L407.951 256.413L409.794 257.476L411.263 254.929L412.657 255.733L411.189 258.28L413.299 259.497C413.76 259.763 414.145 259.851 414.456 259.76C414.759 259.666 415.038 259.396 415.295 258.951C415.425 258.725 415.524 258.507 415.591 258.298C415.662 258.08 415.719 257.86 415.762 257.637L417.229 258.063C417.156 258.376 417.059 258.713 416.937 259.074C416.828 259.431 416.657 259.812 416.423 260.216Z" fill="black"/>
</svg>
