<svg viewBox="0 0 191.43 40.27" xmlns="http://www.w3.org/2000/svg"><g fill="#333"><path d="m9.74 29.45a33.56 33.56 0 0 1 -4.59-.35 33.73 33.73 0 0 1 -5.15-1.1l2.56-4.62a41.58 41.58 0 0 0 5.16 1.31 26.59 26.59 0 0 0 4.92.46 17.78 17.78 0 0 0 1.8-.09c.59-.05 1.18-.14 1.79-.25l-2 1.25a6.17 6.17 0 0 0 1.77-1.63 3.4 3.4 0 0 0 .71-2.05 2.43 2.43 0 0 0 -1.2-2 17.89 17.89 0 0 0 -3-1.68l-3.91-1.76a31.59 31.59 0 0 1 -3.9-2.1 10.68 10.68 0 0 1 -3-2.79 6.53 6.53 0 0 1 -1.19-3.91 6.63 6.63 0 0 1 3.36-5.92 16.72 16.72 0 0 1 9-2.11 40.44 40.44 0 0 1 4.12.23 27.17 27.17 0 0 1 4.48.86l-1.82 4.8a41.48 41.48 0 0 0 -5-1.23 27.73 27.73 0 0 0 -4.65-.38 16.31 16.31 0 0 0 -1.71.08l-1.82.2 1.76-1a3.61 3.61 0 0 0 -1.48 1.57 4.1 4.1 0 0 0 -.43 1.76 2.74 2.74 0 0 0 1.14 2.14 12.87 12.87 0 0 0 3 1.77l3.9 1.73a35.57 35.57 0 0 1 3.87 2 10.57 10.57 0 0 1 3.05 2.77 6.27 6.27 0 0 1 1.2 3.84 6.69 6.69 0 0 1 -3.53 6 17.42 17.42 0 0 1 -9.21 2.2zm-9.74-1.45.23-9h2.85l3.07 8.94zm18.51-18.26-3.25-8.6 6.16.06-.12 8.54z"/><path d="m30.13 40.27v-2c.45-.26.95-.53 1.48-.79a9.17 9.17 0 0 1 2-.69l.52-29.5-3.13-4.29a29.07 29.07 0 0 1 4.25-2 21.41 21.41 0 0 1 4.39-1l.57 6.66v30.34l4.61 1.2v2.11zm14-10.65a25 25 0 0 1 -4.39-.43 37 37 0 0 1 -4.89-1.28l1.19-4.79a36.39 36.39 0 0 0 4.73 1.51 15.53 15.53 0 0 0 3.59.49 7.33 7.33 0 0 0 6-2.54c1.38-1.69 2.08-4.13 2.08-7.32a19 19 0 0 0 -.63-4.92 15.59 15.59 0 0 0 -1.81-4.34l3 2.79a11.59 11.59 0 0 0 -7.41-3 9.92 9.92 0 0 0 -5.81 2.11v-1.37a28.06 28.06 0 0 1 3.07-3.44q1.6-1.51 3.36-2.88h.57a5.44 5.44 0 0 1 .57 0 10.36 10.36 0 0 1 6.05 1.73 11.88 11.88 0 0 1 4 5 17.69 17.69 0 0 1 1.42 7.29 17.71 17.71 0 0 1 -1.82 8.3 12.39 12.39 0 0 1 -5.1 5.26 15.84 15.84 0 0 1 -7.76 1.83z"/><path d="m79.68 29.62a12.92 12.92 0 0 1 -6.81-1.74 11.41 11.41 0 0 1 -4.41-5 17.5 17.5 0 0 1 -1.54-7.66 18.3 18.3 0 0 1 1.65-8 12.48 12.48 0 0 1 4.67-5.29 14.51 14.51 0 0 1 14.07-.12 11.83 11.83 0 0 1 4.5 5 16.77 16.77 0 0 1 1.6 7.57 18.34 18.34 0 0 1 -1.68 8.12 12.34 12.34 0 0 1 -4.73 5.27 13.91 13.91 0 0 1 -7.32 1.85zm.46-4.05a5.5 5.5 0 0 0 3.53-1.19 7.79 7.79 0 0 0 2.33-3.62 18.82 18.82 0 0 0 .83-6 17 17 0 0 0 -.83-5.68 7.3 7.3 0 0 0 -2.36-3.47 6 6 0 0 0 -3.7-1.17 11.94 11.94 0 0 0 -3.31.56 39.1 39.1 0 0 0 -4.35 1.63l3.72-2.63a24.15 24.15 0 0 0 -1.84 5.2 24.91 24.91 0 0 0 -.63 5.8 18.22 18.22 0 0 0 .8 5.84 7.6 7.6 0 0 0 2.27 3.56 5.51 5.51 0 0 0 3.54 1.17z"/><path d="m100.93 29.05v-2c.45-.26.95-.53 1.5-.79a10 10 0 0 1 2-.69l.57-18.28-3.16-4.29a22.66 22.66 0 0 1 8.65-3l.57 6.66v19.08l3.71 1.2v2.11zm9.74-21.13-.18-1.14a30 30 0 0 1 3.25-3.68 24.38 24.38 0 0 1 3.65-2.87l.88-.09h.82a11 11 0 0 1 5.16 1.2 12.72 12.72 0 0 1 4.19 3.66l-6 3a9.1 9.1 0 0 0 -5.75-2.17 10.19 10.19 0 0 0 -6.02 2.09zm7.63 21.13v-2a10.75 10.75 0 0 1 1.51-.82 11.48 11.48 0 0 1 2-.66l.63-17.65 6-3v20.82l3.81 1.2v2.11z"/><path d="m149.85 29.45a33.56 33.56 0 0 1 -4.59-.35 33.73 33.73 0 0 1 -5.15-1.1l2.56-4.62a41.58 41.58 0 0 0 5.16 1.31 26.59 26.59 0 0 0 4.92.46 17.78 17.78 0 0 0 1.8-.09c.59-.05 1.19-.14 1.79-.25l-2 1.25a6.17 6.17 0 0 0 1.74-1.6 3.4 3.4 0 0 0 .71-2.05 2.43 2.43 0 0 0 -1.2-2 17.89 17.89 0 0 0 -3-1.68l-3.87-1.77a31.59 31.59 0 0 1 -3.9-2.1 10.81 10.81 0 0 1 -3-2.79 6.53 6.53 0 0 1 -1.17-3.91 6.63 6.63 0 0 1 3.35-5.94 16.72 16.72 0 0 1 9-2.11 40.44 40.44 0 0 1 4.12.23 27.17 27.17 0 0 1 4.48.86l-1.84 4.8a41.48 41.48 0 0 0 -5-1.23 27.64 27.64 0 0 0 -4.67-.42 16.31 16.31 0 0 0 -1.71.08l-1.82.2 1.76-1a3.61 3.61 0 0 0 -1.45 1.54 4.25 4.25 0 0 0 -.44 1.83 2.74 2.74 0 0 0 1.14 2.13 12.87 12.87 0 0 0 3 1.77l3.9 1.73a36.68 36.68 0 0 1 3.88 2 10.66 10.66 0 0 1 3 2.77 6.27 6.27 0 0 1 1.2 3.84 6.69 6.69 0 0 1 -3.53 6 17.42 17.42 0 0 1 -9.17 2.21zm-9.74-1.45.23-9h2.85l3.07 8.94zm18.51-18.26-3.24-8.6 6.15.06-.12 8.54z"/><path d="m170.81 29.05v-2a15 15 0 0 1 1.54-.82 10.54 10.54 0 0 1 1.93-.66l.57-18.28-3.13-4.29a22.65 22.65 0 0 1 8.66-3l.62 7.35v18.17l6.21 1.42v2.11zm20.28-21.93a21.22 21.22 0 0 0 -10.66 1.25v-1a30 30 0 0 1 3.14-3.79 31.45 31.45 0 0 1 3.53-3.12 7.43 7.43 0 0 1 2.28.22 8.18 8.18 0 0 1 2.05.86z"/></g></svg>